<?xml version="1.0" encoding="UTF-8" standalone="no"?>
<!-- Created with Inkscape (http://www.inkscape.org/) -->

<svg
   xmlns:dc="http://purl.org/dc/elements/1.1/"
   xmlns:cc="http://creativecommons.org/ns#"
   xmlns:rdf="http://www.w3.org/1999/02/22-rdf-syntax-ns#"
   xmlns:svg="http://www.w3.org/2000/svg"
   xmlns="http://www.w3.org/2000/svg"
   version="1.1"
   width="765"
   height="990"
   id="svg3004"
   xml:space="preserve"><metadata
     id="metadata3010"><rdf:RDF><cc:Work
         rdf:about=""><dc:format>image/svg+xml</dc:format><dc:type
           rdf:resource="http://purl.org/dc/dcmitype/StillImage" /><dc:title></dc:title></cc:Work></rdf:RDF></metadata><defs
     id="defs3008"><clipPath
       id="clipPath3018"><path
         d="M 0,792 612,792 612,0 0,0 0,792 z"
         id="path3020" /></clipPath><clipPath
       id="clipPath3062"><path
         d="M 0,792 612,792 612,0 0,0 0,792 z"
         id="path3064" /></clipPath><clipPath
       id="clipPath3094"><path
         d="M 0,792 612,792 612,0 0,0 0,792 z"
         id="path3096" /></clipPath><clipPath
       id="clipPath3130"><path
         d="M 0,792 612,792 612,0 0,0 0,792 z"
         id="path3132" /></clipPath><clipPath
       id="clipPath3186"><path
         d="M 0,792 612,792 612,0 0,0 0,792 z"
         id="path3188" /></clipPath><clipPath
       id="clipPath3234"><path
         d="M 0,792 612,792 612,0 0,0 0,792 z"
         id="path3236" /></clipPath><clipPath
       id="clipPath3246"><path
         d="M 0,792 612,792 612,0 0,0 0,792 z"
         id="path3248" /></clipPath></defs><g
     transform="matrix(1.25,0,0,-1.25,0,990)"
     id="g3012"><g
       id="g3014"><g
         clip-path="url(#clipPath3018)"
         id="g3016"><g
           transform="translate(275.7803,528.4458)"
           id="g3022"><path
             d="M 0,0 C 6.136,16.993 19.203,35.063 31.108,35.904 43.722,36.794 58.364,15.279 61.25,1.061 65.032,-17.569 60.452,-26.754 51.926,-33.988 36.349,-47.205 20.77,-41.067 20.77,-41.067 c 0,0 4.749,4.495 2.516,13.217 -1.729,6.766 -8.213,12.133 -11.643,10.699 -3.531,-1.476 -3.833,-10.27 -2.989,-14.004 1.101,-4.877 3.932,-8.181 3.932,-8.181 0,0 -7.304,3.279 -9.909,4.718 -2.666,1.472 -11.176,6.926 -11.176,6.926 0,0 -0.158,6.608 -5.192,11.958 -5.799,6.16 -9.442,-3.305 -9.442,-3.305 0,0 -5.052,1.937 -6.76,2.516 -1.403,0.475 -6.348,2.175 -6.348,2.175 0,0 -0.14,27.033 9.244,34.177 C -12.37,30.962 1.418,16.521 1.418,16.521 1.418,16.521 -4.246,5.192 0,0 m 201.463,-57.227 c 0,0 9.103,32.071 -15.933,53.796 -19.864,14.899 -46.554,-5.379 -46.554,-5.379 0,0 -1.036,10.139 -27.727,44.901 -18.467,21.57 -42.004,30.829 -42.004,30.829 0,0 -12.413,18.208 -21.828,17.692 C 32.001,84.301 21.863,53.471 8.621,47.678 3.034,49.747 1.378,58.851 -3.38,55.126 1.586,42.711 7.188,41.382 10.069,42.298 c 13.035,4.138 24.416,33.105 36.623,36.417 6.143,1.665 18.415,-15.519 18.415,-15.519 0,0 24.83,-10.76 39.728,-27.934 30.003,-35.588 31.036,-52.762 31.036,-52.762 0,0 26.692,21.105 42.832,11.173 27.932,-18.001 15.519,-55.866 15.519,-55.866 0,0 -7.45,-29.174 -31.037,-39.727 -11.174,-5.586 -18.788,-1.934 -18.788,-1.934 0,0 0.259,1.553 0,5.437 -0.235,3.509 -0.53,5.365 -0.53,5.365 0,0 10.079,1.602 13.283,7.788 5.001,9.643 0,18.325 0,18.325 0,0 6.009,5.642 3.094,9.141 2.343,2.603 7.874,5.765 10.496,6.122 5.04,0.688 0.158,-12.035 2.447,-13.889 1.927,-1.562 9.987,9.079 4.26,17.096 -9.622,10.787 -48.471,-19.616 -48.471,-19.616 0,0 -6.632,7.08 -14.504,0.083 -11.954,13.119 -19.243,13.411 -32.654,-1.749 -6.415,0.874 -11.37,0.874 -17.784,-2.916 -16.326,-12.536 3.789,-30.904 -3.207,-40.526 -3.5,-0.29 -8.746,1.458 -20.408,-9.621 -22.516,-2.91 -34.694,-4.374 -60.934,1.75 -9.576,2.545 -29.878,15.163 -34.252,23.327 8.566,-0.553 21.414,0.552 29.565,3.454 11.191,3.592 21.139,12.158 20.723,17.243 -4.083,0.582 -16.439,-19.178 -54.017,-14.895 -3.647,0.726 -31.699,6.732 -33.449,36.177 0.292,24.2 19.903,33.56 29.654,35.948 18.767,4.763 37.396,-3.921 51.397,-12.04 9.101,-5.277 23.285,-16.655 44.567,-15.197 22.578,2.19 36.662,21.241 33.223,43.258 C 64.169,18.388 46.098,40.18 34.296,41.329 18.261,43.37 6.891,23.252 4.849,20.337 c -11.457,11.11 -45.198,21.099 -46.073,-33.712 -8.969,1.416 -18.481,0.331 -21.857,-0.399 0.873,20.942 7.945,44.325 7.978,44.435 -8.589,-1.443 -26.026,-5.517 -28.352,-15.055 -0.311,-4.966 9.207,-12.622 10.294,-11.225 1.83,2.353 -4.087,6.259 -4.087,10.811 4.139,5.587 10.346,7.656 15.311,8.277 -1.241,-3.724 -2.275,-10.553 -3.93,-18.623 -2.07,-14.483 -2.69,-20.07 -2.69,-20.07 l -7.242,-3.724 c 0,0 -35.383,12 -35.383,39.313 0,27.933 63.552,53.424 63.552,53.424 0,0 36.477,13.427 71.356,21.065 35.357,7.742 69.118,9.71 68.694,11.587 -0.107,0.476 -34.32,-0.014 -69.936,-7.242 -34.783,-7.059 -70.989,-20.862 -71.126,-20.329 -0.826,3.199 -4.102,12.134 -5.867,17.07 -0.235,0.655 10.079,3.436 41.003,20.616 28.554,17.174 36.838,31.748 36.61,32.302 -0.405,0.988 -13.035,-11.38 -37.864,-26.692 -21.882,-12.482 -27.15,-15.002 -41.796,-21.105 -49.245,-21.727 -152.701,6.621 -37.977,123.918 44.804,45.543 118.123,33.618 165.537,22.623 C 175.6,223.346 211.234,150.426 219.987,125.657 266.848,-6.948 201.463,-57.227 201.463,-57.227 m 10.761,-424.583 -94.354,-40.97 0.084,200.049 94.295,40.756 -0.025,-199.835 z m -116.255,166.378 13.21,6.537 c 0,0 13.67,0.018 24.395,10.745 10.381,10.38 13.15,20.299 13.15,20.299 0,0 3.921,1.155 6.92,3.231 3.947,2.732 6.689,5.767 6.689,5.767 l 50.979,-7.612 -95.73,-41.521 -19.613,2.554 z m -165.625,-146.271 0.001,31.228 c 0,0 10.324,-9.084 25.547,-10.24 4.609,-0.797 20.821,0.339 20.821,0.339 0,0 4.908,-11.842 7.921,-14.851 21.221,-25.143 58.289,-29.738 83.662,-9.9 17.006,11.32 33.932,39.354 37.624,73.264 1.53,17.058 -0.82,50.136 -10.892,61.882 -5.537,6.458 -17.279,5.072 -17.279,5.072 l 11.268,5.394 24.246,-3.65 0.05,-199.104 -182.969,60.566 z m -14.834,69.691 c -1.034,38.072 47.383,64.97 47.383,64.97 0,0 4.226,-17.565 8.69,-16.346 -4.345,24.415 -4.345,36.624 -2.069,46.14 1.346,5.626 16.553,17.589 16.553,17.589 0,0 15.519,-14.69 18.002,-14.898 -6.001,8.278 -8.484,10.14 -7.863,11.382 9.692,-10.218 20.691,-18.002 20.691,-18.002 l -6.621,-6.001 c 0,0 2.69,-24.83 5.793,-23.381 1.864,0.208 0.415,20.691 0.415,20.691 l 6,5.172 c 0,0 -2.41,-8.876 -2.69,-16.138 -0.207,-5.379 -0.166,-5.805 0.828,-15.104 0,0 -22.848,-18.763 -35.175,-47.176 -12.208,-28.138 -9.104,-49.246 -9.104,-49.246 0,0 -19.864,-3.932 -32.694,2.277 -23.415,11.329 -27.831,26.715 -28.139,38.071 m 9.16,207.802 c 0,0 -5.601,10.777 -6.541,22.528 -0.727,9.085 1.937,21.56 1.937,21.56 0,0 6.542,-2.544 8.601,-20.106 1.807,-15.414 -3.997,-23.982 -3.997,-23.982 m 37.388,-135.765 c 0,0 -7.612,-3.635 -17.511,-11.581 -9.084,-7.29 -14.202,-13.267 -14.202,-13.267 l 0,50.25 31.977,-5.235 c 0,0 -0.411,-7.547 -0.411,-9.902 0,-6.201 0.147,-10.265 0.147,-10.265 m 1.54,24.968 -32.438,5.411 58.871,20.96 c 0,0 -17.09,-15.16 -20.517,-18.73 -6.285,-6.547 -5.916,-7.641 -5.916,-7.641 m 98.614,150.769 c 32.472,-5.434 57.496,0.235 57.496,0.235 0,0 -8.543,-3.662 -14.998,-6.309 -5.467,-2.243 -12.194,-3.083 -12.194,-3.083 0,0 -22.146,-3.927 -39.528,2.521 -2.223,0.827 -7.988,3.085 -9.249,8.692 -1.412,6.273 1.192,12.159 1.192,12.159 0,0 0.695,-10.87 17.281,-14.215 m 11.661,17.053 c 35.463,-1.121 62.93,5.091 62.93,5.091 0,0 -0.916,-3.494 -2.069,-6.62 -0.981,-2.663 -2.588,-5.174 -2.588,-5.174 0,0 -45.267,-8.261 -69.766,-0.864 -14.017,5.184 -12.895,11.913 -12.895,11.913 0,0 1.621,1.708 4.565,2.83 2.943,1.121 4.265,0.534 4.265,0.534 0,0 5.182,-7.381 15.558,-7.71 m 18.091,13.364 c -2.071,-3.107 -6.993,-4.314 -10.746,-4.79 -3.17,-0.401 -11.263,0.129 -14.111,3.364 4.403,17.997 -6.473,22.917 -3.106,33.144 1.291,3.929 7.247,7.633 11.91,7.51 14.759,-0.388 20.455,-27.317 16.053,-39.228 m 25.763,2.2 c 0,0 -0.18,-1.597 -7.767,-3.495 -4.144,-1.036 -12.3,1.036 -12.3,1.036 2.461,12.817 0.985,19.888 0,23.82 -1.294,5.18 -5.178,12.949 -10.616,17.479 5.957,7.638 9.1,9.198 13.077,8.673 6.861,-0.906 13.6,-12.311 15.535,-18.254 5.437,-16.701 2.071,-29.259 2.071,-29.259 m 20.585,18.381 c 2.071,-13.333 0.177,-18.948 0.177,-18.948 0,0 -1.601,-1.504 -7.298,-1.116 -6.592,0.449 -8.026,1.295 -8.026,1.295 0,0 1.683,10.356 0.258,19.678 -1.771,11.596 -5.696,19.548 -5.696,19.548 0,0 1.943,3.107 6.991,0.647 8.932,-5.956 12.817,-16.831 13.594,-21.104 m 0.898,12.98 c -3.149,5.38 -5.754,8.268 -5.754,8.268 0,0 8.579,7.437 12.057,7.374 3.279,-0.06 7.958,-3.921 8.486,-10.768 0.218,-3.854 -0.586,-5.969 -2.399,-8.252 -2.479,-2.919 -8.839,-4.039 -8.839,-4.039 0,0 -1.292,3.564 -3.551,7.417 M 59.228,-263.343 c 2.103,-3.884 5.825,-6.475 5.825,-6.475 0,0 -15.625,-5.787 -25.402,-12.942 -6.632,-4.855 -11.011,-10.341 -11.011,-10.341 0,0 -25.511,11.953 -32.188,27.816 -2.912,14.561 -2.412,25.063 -2.412,25.063 0,0 13.577,-6.781 28.624,-10.178 12.298,-2.777 31.548,-1.78 31.548,-1.78 0,0 1.632,-4.918 5.016,-11.163 m 16.609,86.299 c -11.774,0 -20.139,2.138 -20.139,2.138 l -0.484,11.243 c 0,0 5.625,-1.607 17.818,-2.027 10.088,-0.35 19.536,1.665 19.536,1.665 l 1.548,-10.856 c 0,0 -9.165,-2.163 -18.279,-2.163 m 1.791,-22.2 c -8.691,-0.923 -21.203,0.283 -21.203,0.283 l -0.364,12.814 c 0,0 11.26,-1.791 19.413,-1.253 9.795,0.647 20.096,3.071 20.096,3.071 l 2.301,-11.385 c 0,0 -11.144,-2.562 -20.243,-3.53 m 21.939,-6.885 2.422,-11.388 c 0,0 -12.277,-5.641 -24.191,-6.483 -10.423,-0.735 -20.398,1.039 -20.398,1.039 l -0.346,12.137 c 0,0 12.625,-0.603 20.188,0.014 12.229,1 22.325,4.681 22.325,4.681 m 16.156,-33.302 c -0.646,-8.361 -6.853,-31.019 -27.554,-31.955 -20.228,-0.893 -27.066,13.132 -29.311,24.375 -1.469,7.365 -1.38,13.844 -1.38,13.844 0,0 11.982,-3.017 21.829,-1.784 14.337,1.792 24.864,7.876 24.864,7.876 0,0 4.431,-14.032 7.63,-9.847 -4.923,21.172 -14.569,71.128 -13.091,75.313 5.104,2.552 12.761,7.146 12.761,7.146 l 24.868,-73.038 c 0,0 -2.801,-3.187 -6.934,-5.512 -2.845,-1.601 -6.883,-3.157 -8.536,-3.379 -0.153,25.352 -3.309,68.362 -8.438,69.96 0.526,-13.407 4.698,-54.785 3.292,-72.999 M 76.487,-357.459 c 4.345,0.416 3.312,13.658 1.863,26.486 5.036,0.086 11.913,-0.243 15.312,-9.929 12.414,-35.384 2.276,-69.732 -1.242,-78.214 -22.304,-53.779 -60.005,-55.04 -76.557,-48.834 -32.675,12.253 -32.899,29.177 -32.899,43.452 0,43.047 29.588,71.593 39.52,82.146 1.863,-5.794 2.897,-15.312 9.724,-15.727 -5.792,19.037 -10.138,38.485 -2.895,56.075 13.034,20.897 42.416,27.932 42.416,27.932 0,0 10.965,-5.38 25.864,-0.414 20.071,6.828 23.122,31.991 23.122,31.991 0,0 5.645,1.68 10.645,4.682 3.557,2.133 6.757,5.333 6.757,5.333 0,0 13.576,-28.259 -1.005,-52.558 -11.172,-18.622 -28.552,-18.001 -28.552,-18.001 l -36.623,-18.002 c 0,0 1.447,-34.141 4.55,-36.418 m 72.193,107.022 c -1.678,13.415 -6.447,23.123 -6.447,23.123 0,0 15.38,13.77 19.709,-13.651 3.724,-23.587 -14.411,-31.276 -14.411,-31.276 0,0 2.477,11.169 1.149,21.804 m -165.322,70.964 32.411,49.765 c 0,0 5.084,-0.08 10.973,0.509 7.656,0.766 11.484,1.277 11.484,1.277 0,0 -3.356,-8.848 0.257,-18.375 2.807,-7.4 6.377,-9.187 10.971,-13.526 1.276,-24.756 3.574,-86.257 3.574,-86.257 0,0 -17.429,-2.384 -32.665,2.04 -15.823,4.594 -26.031,10.465 -26.031,10.465 0,0 0.255,19.396 8.421,43.893 8.171,24.513 18.374,44.661 23.479,54.613 -6.125,-0.255 -20.647,-30.019 -28.073,-48.996 -4.593,-11.739 -9.698,-38.026 -9.698,-38.026 0,0 -4.604,-3.771 -10.984,-4.025 -1.717,-0.068 -7.026,1.817 -7.026,1.817 0,0 10.932,10.263 13.162,23.644 1.786,10.718 -0.255,21.182 -0.255,21.182 m -21.506,7.498 10.78,-4.361 c 0,0 2.302,-13.202 -0.606,-23.982 -3.151,-11.684 -10.779,-20.226 -10.779,-20.226 l -10.054,5.329 c 0,0 8.346,10.065 10.538,21.317 1.817,9.325 0.121,21.923 0.121,21.923 m -21.68,7.873 10.538,-4.481 c 0,0 2.058,-10.539 -2.059,-23.134 -3.56,-10.89 -8.237,-16.957 -8.237,-16.957 l -11.506,6.177 c 0,0 6.51,6.758 10.174,19.378 2.18,7.509 1.09,19.017 1.09,19.017 m -25.554,-38.395 c -1.249,-1.141 -5.33,-4.845 -5.33,-4.845 0,0 -0.968,10.171 -4.119,16.471 -2.786,5.571 -13.686,13.93 -13.686,13.93 0,0 4.364,0.658 8.721,0.848 2.786,0.122 4.239,0 7.509,-0.97 0,0 3.877,-2.059 6.784,-6.903 4.981,-8.301 4.723,-13.565 4.723,-13.565 0,0 -3.398,-3.866 -4.602,-4.966 m -26.767,-13.808 c -1.534,-0.446 -6.298,-1.09 -6.298,-1.09 0,0 0.536,8.545 -4.118,15.142 -2.907,4.117 -9.449,7.384 -9.449,7.384 1.696,3.393 1.068,2.27 3.028,5.088 1.939,2.786 4.724,4.482 4.724,4.482 0,0 6.808,-3.508 12.716,-10.536 4.482,-5.33 6.905,-18.168 6.905,-18.168 0,0 -2.906,-0.97 -7.508,-2.302 m -22.286,-7.146 c 0,0 -14.158,-9.779 -20.106,-9.327 -9.568,0.728 -18.894,3.635 -23.013,6.784 -3.612,2.761 -4.764,8.335 -3.997,11.264 1.333,5.087 5.357,8.343 10.175,10.053 3.755,1.332 9.857,-2.422 13.444,-2.422 3.754,0 14.05,3.027 14.05,3.027 0,0 6.419,-3.392 8.114,-8.236 1.558,-4.447 1.333,-11.143 1.333,-11.143 m -68.19,26.039 c -0.776,5.826 5.174,10.911 8.236,13.082 6.662,4.724 18.653,1.938 18.653,1.938 5.869,-6.694 5.45,-5.724 6.904,-7.147 7.308,-7.159 19.17,-10.05 19.17,-10.05 0,0 -6.543,-2.559 -8.631,-2.028 -6.662,1.698 -9.804,2.95 -15.232,1.866 -9.325,-1.866 -13.366,-13.367 -13.366,-13.367 0,0 -14.036,2.957 -15.734,15.706 m -0.848,27.738 c 0.484,7.508 5.277,10.626 8.72,11.626 7.51,2.181 15.892,-1.392 15.892,-1.392 0,0 -0.912,-4.563 -0.608,-10.493 0.164,-3.191 1.521,-7.15 1.521,-7.15 0,0 -5.721,1.795 -12.052,0.335 -6.006,-1.386 -8.393,-3.42 -8.393,-3.42 0,0 -5.471,4.44 -5.08,10.494 m 51.111,58.863 c 4.118,2.907 9.907,3.05 9.907,3.05 0,0 -4.497,-6.663 -5.359,-14.548 -0.849,-7.752 0.766,-10.718 0.766,-10.718 l -7.913,-3.318 c 0,0 -5.103,1.787 -5.637,11.362 -0.459,8.226 4.722,11.691 8.236,14.172 m 225.4,364.806 c -55.142,14.14 -134.127,16.881 -172.906,-26.004 -25.757,-28.483 -50.186,-52.922 -53.378,-92.614 -1.275,-15.842 15.511,-61.587 95.35,-41.969 0.506,-1.125 4.273,-7.784 4.563,-15.968 -55.913,-24.895 -97.175,-62.956 -28.286,-99.91 -14.599,-8.666 -38.039,-55.341 19.901,-74.503 1.369,-5.931 18.878,-22.671 38.403,-28.426 8.97,-2.937 19.638,-4.953 32.028,-5.194 -4.107,-6.842 -24.18,-36.497 -28.743,-42.884 -21.899,8.212 -44.164,17.81 -44.164,17.81 0,0 -2.648,17.281 -19.233,24.529 16.167,23.97 -5.994,26.336 -10.173,23.83 -18.954,23.135 -43.481,6.132 -44.735,4.46 -33.587,2.648 -30.243,-31.218 -22.995,-36.374 -5.019,-3.345 -12.543,-9.194 -16.026,-15.052 -27.176,8.785 -40.975,-11.98 -25.644,-29.404 -15.885,-23.128 10.316,-33.719 15.33,-34.564 0.837,-19.642 34.424,-19.789 34.424,-19.789 0,0 5.434,-0.13 31.217,13.947 30.242,3.763 42.783,20.35 42.783,20.35 0,0 46.268,-27.735 56.86,-28.292 5.434,0.139 10.452,3.345 10.452,3.345 0,0 -1.115,-21.884 1.811,-35.123 -11.148,-3.764 -65.362,-22.996 -65.362,-22.996 l 0.14,-63.397 c 0,0 -13.797,-18.815 -14.773,-35.957 -2.37,-25.642 14.355,-38.74 14.355,-38.74 l -0.07,-41.035 192.248,-62.517 101.452,42.925 0,212.416 -55.049,8.782 c 0,0 5.019,6.693 4.042,21.742 -5.714,37.211 -26.898,19.376 -26.898,19.376 l -23.829,70.932 c 0,0 13.239,6.969 19.37,13.936 6.412,5.295 8.781,28.709 8.781,28.709 0,0 8.973,-0.907 12.124,-0.141 30.939,7.526 40.972,38.741 43.48,44.734 22.265,9.05 70.063,72.365 25.369,196.512 -41.589,91.869 -118.726,113.929 -152.219,122.518"
             id="path3024"
             style="fill:#000000;fill-opacity:1;fill-rule:nonzero;stroke:none" /></g><g
           transform="translate(282.1494,431.9668)"
           id="g3026"><path
             d="m 0,0 c -6.217,-2.121 -6.58,-8.765 -1.623,-10.806 4.373,-0.583 -1.113,5.634 6.186,6.243 13.943,1.164 25.592,-8.868 30.653,-7.195 C 36.861,-8.765 12.829,5.248 0,0"
             id="path3028"
             style="fill:#000000;fill-opacity:1;fill-rule:nonzero;stroke:none" /></g><g
           transform="translate(241.1563,589.3652)"
           id="g3030"><path
             d="M 0,0 C 7.036,3.104 6.828,-5.587 14.897,-4.758 10.967,4.759 3.699,5.957 -0.207,5.587 -11.991,4.802 -15.726,-29.589 -15.726,-29.589 c 0.927,0.093 2.367,0.227 4.967,0.422 0,0 3.44,25.938 10.759,29.167"
             id="path3032"
             style="fill:#000000;fill-opacity:1;fill-rule:nonzero;stroke:none" /></g><g
           transform="translate(225.0205,559.7314)"
           id="g3034"><path
             d="M 0,0 C 0.137,0.016 0.278,0.032 0.41,0.045 0.41,0.045 0.26,0.03 0,0"
             id="path3036"
             style="fill:#000000;fill-opacity:1;fill-rule:nonzero;stroke:none" /></g><g
           transform="translate(473.9561,202.6523)"
           id="g3038"><path
             d="m 0,0 -61.471,-26.504 -0.193,8.483 L 0,7.905 0,0 z m 4.668,15.417 -70.951,-30.049 0,-18.848 70.951,30.406 0,18.491 z"
             id="path3040"
             style="fill:#000000;fill-opacity:1;fill-rule:nonzero;stroke:none" /></g><g
           transform="translate(473.9561,173.1035)"
           id="g3042"><path
             d="m 0,0 -61.471,-26.503 -0.193,8.482 L 0,7.905 0,0 z m 4.668,15.267 -70.951,-29.338 0,-19.737 70.951,30.76 0,18.315 z"
             id="path3044"
             style="fill:#000000;fill-opacity:1;fill-rule:nonzero;stroke:none" /></g><g
           transform="translate(457.7246,144.0596)"
           id="g3046"><path
             d="m 0,0 15.895,6.535 0,-10.588 L 0,-11.162 0,0 z m -5.771,-18.279 26.67,11.382 0,21.335 -26.67,-11.559 0,-21.158 z"
             id="path3048"
             style="fill:#000000;fill-opacity:1;fill-rule:nonzero;stroke:none" /></g><g
           transform="translate(272.4004,583.5723)"
           id="g3050"><path
             d="M 0,0 C -9.518,0.72 -11.024,0.787 -16.347,1.035 -7.548,0.542 -8.153,0.609 0,0"
             id="path3052"
             style="fill:#000000;fill-opacity:1;fill-rule:nonzero;stroke:none" /></g><g
           transform="translate(220.6782,559.1113)"
           id="g3054"><path
             d="M 0,0 -0.001,-0.005 C 2.089,0.346 3.645,0.54 4.342,0.62 2.398,0.404 0,0 0,0"
             id="path3056"
             style="fill:#000000;fill-opacity:1;fill-rule:nonzero;stroke:none" /></g></g></g><g
       id="g3058"><g
         clip-path="url(#clipPath3062)"
         id="g3060"><g
           transform="translate(199.981,509.4976)"
           id="g3066"><path
             d="m 0,0 c 0,0 -35.382,12 -35.382,39.313 0,27.934 63.551,53.424 63.551,53.424 0,0 36.477,13.428 71.356,21.065 35.357,7.742 69.118,9.71 68.694,11.587 -0.106,0.476 -34.32,-0.014 -69.936,-7.242 C 63.5,111.088 27.294,97.286 27.157,97.818 c -0.826,3.2 -4.102,12.135 -5.867,17.07 -0.234,0.655 10.08,3.436 41.003,20.616 28.555,17.174 36.838,31.748 36.611,32.302 -0.406,0.988 -13.036,-11.38 -37.865,-26.692 C 39.158,128.632 33.889,126.112 19.243,120.009 -30.002,98.283 -133.458,126.63 -18.734,243.927 26.071,289.47 99.389,277.545 146.803,266.55 251.399,242.294 287.034,169.374 295.787,144.605 342.647,12 277.262,-38.278 277.262,-38.278 c 0,0 9.104,32.07 -15.932,53.796 -19.865,14.898 -46.555,-5.38 -46.555,-5.38 0,0 -1.035,10.139 -27.727,44.901 -18.466,21.57 -42.004,30.83 -42.004,30.83 0,0 -12.413,18.208 -21.828,17.691 C 107.8,103.25 97.663,72.419 84.42,66.626 78.833,68.695 77.178,77.799 72.419,74.075 64.266,74.684 64.871,74.617 56.073,75.109 52.142,84.627 44.875,85.824 40.969,85.455 29.184,84.669 25.45,50.279 25.45,50.279 c 0,0 -30.002,-3 -33.106,-15.724 -0.31,-4.967 9.208,-12.622 10.294,-11.226 1.83,2.353 -4.086,6.259 -4.086,10.811 4.138,5.587 10.345,7.656 15.311,8.277 C 12.622,38.693 11.587,31.864 9.932,23.794 7.863,9.311 7.242,3.724 7.242,3.724 L 0,0 z"
             id="path3068"
             style="fill:#ffffff;fill-opacity:1;fill-rule:nonzero;stroke:none" /></g><g
           transform="translate(298.2642,186.0938)"
           id="g3070"><path
             d="M 0,0 C 1.863,-5.794 2.897,-15.312 9.724,-15.727 3.932,3.311 -0.414,22.758 6.829,40.348 19.863,61.245 49.246,68.28 49.246,68.28 c 0,0 10.964,-5.38 25.863,-0.414 20.071,6.828 23.123,31.991 23.123,31.991 0,0 5.644,1.68 10.644,4.682 3.557,2.133 6.757,5.333 6.757,5.333 0,0 13.576,-28.259 -1.005,-52.558 C 103.457,38.692 86.076,39.313 86.076,39.313 L 49.453,21.312 c 0,0 1.447,-34.142 4.55,-36.419 4.345,0.416 3.312,13.658 1.863,26.486 5.036,0.086 11.913,-0.243 15.312,-9.929 12.414,-35.384 2.277,-69.732 -1.242,-78.214 -22.304,-53.779 -60.005,-55.04 -76.557,-48.834 -32.674,12.253 -32.899,29.177 -32.899,43.452 0,43.047 29.588,71.593 39.52,82.146"
             id="path3072"
             style="fill:#ffffff;fill-opacity:1;fill-rule:nonzero;stroke:none" /></g><g
           transform="translate(245.8872,511.9229)"
           id="g3074"><path
             d="m 0,0 c -1.403,0.475 -6.348,2.175 -6.348,2.175 0,0 -0.14,27.033 9.244,34.177 14.627,11.133 28.415,-3.309 28.415,-3.309 0,0 -5.664,-11.328 -1.418,-16.52 6.136,16.993 19.203,35.063 31.108,35.904 12.614,0.89 27.256,-20.625 30.142,-34.844 3.782,-18.629 -0.798,-27.814 -9.324,-35.048 -15.577,-13.217 -31.156,-7.079 -31.156,-7.079 0,0 4.749,4.495 2.516,13.217 -1.729,6.765 -8.213,12.133 -11.643,10.699 -3.531,-1.476 -3.833,-10.27 -2.989,-14.004 1.101,-4.877 3.932,-8.181 3.932,-8.181 0,0 -7.304,3.279 -9.909,4.718 -2.666,1.472 -11.176,6.926 -11.176,6.926 0,0 -0.158,6.607 -5.192,11.958 C 10.403,6.949 6.76,-2.516 6.76,-2.516 6.76,-2.516 1.708,-0.579 0,0"
             id="path3076"
             style="fill:#ffffff;fill-opacity:1;fill-rule:nonzero;stroke:none" /></g><g
           transform="translate(252.123,96.0859)"
           id="g3078"><path
             d="m 0,0 c 0,0 -19.864,-3.932 -32.693,2.276 -23.415,11.329 -27.831,26.716 -28.14,38.072 -1.034,38.072 47.383,64.969 47.383,64.969 0,0 4.226,-17.564 8.69,-16.345 -4.344,24.415 -4.344,36.624 -2.069,46.14 1.346,5.626 16.554,17.589 16.554,17.589 0,0 15.518,-14.69 18.001,-14.898 -6,8.278 -8.484,10.139 -7.863,11.382 9.693,-10.218 20.692,-18.002 20.692,-18.002 l -6.621,-6.001 c 0,0 2.689,-24.83 5.793,-23.381 1.863,0.208 0.414,20.691 0.414,20.691 l 6,5.172 c 0,0 -2.41,-8.876 -2.69,-16.139 -0.206,-5.379 -0.165,-5.804 0.828,-15.103 0,0 -22.848,-18.763 -35.175,-47.176 C -3.104,21.107 0,0 0,0"
             id="path3080"
             style="fill:#ffffff;fill-opacity:1;fill-rule:nonzero;stroke:none" /></g><g
           transform="translate(269.8203,288.2236)"
           id="g3082"><path
             d="m 0,0 c 0,0 13.577,-6.781 28.624,-10.178 12.298,-2.777 31.548,-1.78 31.548,-1.78 0,0 1.632,-4.918 5.016,-11.163 2.103,-3.884 5.825,-6.475 5.825,-6.475 0,0 -15.625,-5.787 -25.402,-12.942 C 38.979,-47.393 34.6,-52.879 34.6,-52.879 c 0,0 -25.511,11.953 -32.188,27.816 C -0.5,-10.502 0,0 0,0"
             id="path3084"
             style="fill:#ffffff;fill-opacity:1;fill-rule:nonzero;stroke:none" /></g></g></g><g
       transform="translate(478.624,137.1621)"
       id="g3086"><path
         d="m 0,0 -26.67,-11.382 0,21.158 L 0,21.336 0,0 z M -70.951,21.87 0,51.208 0,32.894 -70.951,2.134 l 0,19.736 z m 0,28.988 L 0,80.907 0,62.416 -70.951,32.01 l 0,18.848 z M -84.89,68.553 -84.974,-131.496 9.38,-90.526 9.405,109.309 -84.89,68.553 z"
         id="path3088"
         style="fill:#c4c4c4;fill-opacity:1;fill-rule:nonzero;stroke:none" /></g><g
       id="g3090"><g
         clip-path="url(#clipPath3094)"
         id="g3092"><g
           transform="translate(487.0918,251.9805)"
           id="g3098"><path
             d="m 0,0 -95.729,-41.521 -19.614,2.554 13.21,6.537 c 0,0 13.67,0.018 24.396,10.745 10.381,10.38 13.149,20.299 13.149,20.299 0,0 3.921,1.156 6.92,3.232 3.946,2.731 6.689,5.766 6.689,5.766 L 0,0 z"
             id="path3100"
             style="fill:#c4c4c4;fill-opacity:1;fill-rule:nonzero;stroke:none" /></g><g
           transform="translate(389.043,205.2813)"
           id="g3102"><path
             d="m 0,0 -24.246,3.649 -11.268,-5.393 c 0,0 11.743,1.386 17.28,-5.072 10.071,-11.747 12.421,-44.825 10.891,-61.882 -3.692,-33.91 -20.618,-61.945 -37.624,-73.265 -25.373,-19.838 -62.44,-15.242 -83.662,9.9 -3.013,3.009 -7.921,14.851 -7.921,14.851 0,0 -16.212,-1.136 -20.821,-0.339 -15.223,1.156 -25.547,10.24 -25.547,10.24 l 0,-31.227 L 0.05,-199.104 0,0 z"
             id="path3104"
             style="fill:#c4c4c4;fill-opacity:1;fill-rule:nonzero;stroke:none" /></g><g
           transform="translate(237.8379,208.4707)"
           id="g3106"><path
             d="m 0,0 c 0,0 -7.612,-3.635 -17.511,-11.581 -9.083,-7.29 -14.202,-13.267 -14.202,-13.267 l 0,50.25 31.977,-5.235 c 0,0 -0.411,-7.547 -0.411,-9.902 C -0.147,4.064 0,0 0,0"
             id="path3108"
             style="fill:#c4c4c4;fill-opacity:1;fill-rule:nonzero;stroke:none" /></g><g
           transform="translate(206.9399,238.8496)"
           id="g3110"><path
             d="m 0,0 32.438,-5.411 c 0,0 -0.368,1.095 5.916,7.641 3.427,3.57 20.518,18.73 20.518,18.73"
             id="path3112"
             style="fill:#c4c4c4;fill-opacity:1;fill-rule:nonzero;stroke:none" /></g><g
           transform="translate(412.292,155.083)"
           id="g3114"><path
             d="m 0,0 61.664,25.926 0,-7.905 L 0.193,-8.482 0,0 z"
             id="path3116"
             style="fill:#c4c4c4;fill-opacity:1;fill-rule:nonzero;stroke:none" /></g><g
           transform="translate(457.7246,144.0596)"
           id="g3118"><path
             d="m 0,0 15.895,6.535 0,-10.588 L 0,-11.162 0,0 z"
             id="path3120"
             style="fill:#c4c4c4;fill-opacity:1;fill-rule:nonzero;stroke:none" /></g><g
           transform="translate(412.292,184.6318)"
           id="g3122"><path
             d="m 0,0 61.664,25.926 0,-7.905 L 0.193,-8.483 0,0 z"
             id="path3124"
             style="fill:#c4c4c4;fill-opacity:1;fill-rule:nonzero;stroke:none" /></g></g></g><g
       id="g3126"><g
         clip-path="url(#clipPath3130)"
         id="g3128"><g
           transform="translate(317.3652,420.209)"
           id="g3134"><path
             d="m 0,0 c -5.061,-1.672 -16.71,8.358 -30.652,7.196 -7.3,-0.609 -1.814,-6.827 -6.186,-6.244 -4.957,2.041 -4.595,8.685 1.622,10.806 C -22.387,17.005 1.646,2.993 0,0 m 137.118,101.91 c -16.14,9.932 -42.832,-11.173 -42.832,-11.173 0,0 -1.033,17.174 -31.036,52.762 -14.898,17.174 -39.728,27.934 -39.728,27.934 0,0 -12.272,17.184 -18.415,15.519 -12.207,-3.312 -23.587,-32.28 -36.623,-36.417 -2.88,-0.916 -8.483,0.413 -13.449,12.828 -9.517,0.72 -11.024,0.787 -16.347,1.035 -8.069,-0.829 -7.861,7.863 -14.897,4.758 -7.319,-3.228 -10.759,-29.167 -10.759,-29.167 -2.6,-0.195 -4.04,-0.328 -4.967,-0.422 -1.997,-0.199 -4.752,-0.665 -4.752,-0.665 0,0 -7.105,-23.448 -7.979,-44.439 3.376,0.729 12.888,1.815 21.857,0.399 0.875,54.81 34.616,44.822 46.073,33.712 2.042,2.915 13.412,23.032 29.447,20.991 11.802,-1.148 29.873,-22.94 32.601,-45.117 C 28.75,82.431 14.666,63.379 -7.912,61.19 c -21.282,-1.459 -35.466,9.92 -44.567,15.197 -14.001,8.119 -32.63,16.803 -51.397,12.04 -9.75,-2.388 -29.362,-11.748 -29.654,-35.948 1.75,-29.445 29.802,-35.452 33.449,-36.178 37.578,-4.282 49.935,15.478 54.017,14.895 0.416,-5.085 -9.532,-13.65 -20.723,-17.242 -8.151,-2.902 -20.999,-4.006 -29.565,-3.455 4.374,-8.164 24.676,-20.781 34.252,-23.327 26.24,-6.123 38.418,-4.659 60.934,-1.749 11.662,11.079 16.908,9.33 20.408,9.621 6.996,9.622 -13.119,27.99 3.207,40.526 6.414,3.789 11.369,3.789 17.784,2.915 13.412,15.161 20.7,14.869 32.654,1.749 7.871,6.997 14.504,-0.082 14.504,-0.082 0,0 38.849,30.403 48.471,19.616 5.727,-8.018 -2.333,-18.659 -4.26,-17.096 -2.289,1.854 2.593,14.577 -2.447,13.889 -2.622,-0.357 -8.153,-3.519 -10.496,-6.122 2.915,-3.499 -3.093,-9.141 -3.093,-9.141 0,0 5,-8.682 0,-18.326 -3.205,-6.185 -13.284,-7.788 -13.284,-7.788 0,0 0.295,-1.855 0.53,-5.364 0.259,-3.884 0,-5.437 0,-5.437 0,0 7.614,-3.653 18.788,1.934 23.588,10.553 31.037,39.726 31.037,39.726 0,0 12.413,37.866 -15.519,55.867"
             id="path3136"
             style="fill:#0066ff;fill-opacity:1;fill-rule:nonzero;stroke:none" /></g><g
           transform="translate(418.0146,301.1318)"
           id="g3138"><path
             d="m 0,0 c 0,0 4.768,-9.708 6.444,-23.123 1.329,-10.635 -1.147,-21.804 -1.147,-21.804 0,0 18.135,7.689 14.411,31.276 C 15.379,13.77 0,0 0,0"
             id="path3140"
             style="fill:#0066ff;fill-opacity:1;fill-rule:nonzero;stroke:none" /></g><g
           transform="translate(409.2363,456.4541)"
           id="g3142"><path
             d="m 0,0 c 0,0 8.58,7.437 12.056,7.374 3.28,-0.061 7.959,-3.921 8.487,-10.769 0.22,-3.853 -0.586,-5.969 -2.399,-8.251 -2.479,-2.919 -8.839,-4.039 -8.839,-4.039 0,0 -1.294,3.564 -3.551,7.417 C 2.604,-2.889 0,0 0,0"
             id="path3144"
             style="fill:#0066ff;fill-opacity:1;fill-rule:nonzero;stroke:none" /></g><g
           transform="translate(388.2109,362.0137)"
           id="g3146"><path
             d="m 0,0 c 5.129,-1.598 8.285,-44.607 8.438,-69.96 1.654,0.222 5.691,1.778 8.535,3.379 4.134,2.325 6.935,5.512 6.935,5.512 L -0.96,11.969 c 0,0 -7.656,-4.594 -12.761,-7.146 -1.477,-4.185 8.168,-54.141 13.091,-75.313 -3.199,-4.185 -7.63,9.847 -7.63,9.847 0,0 -10.527,-6.084 -24.864,-7.876 -9.847,-1.233 -21.829,1.784 -21.829,1.784 0,0 -0.089,-6.479 1.381,-13.844 2.244,-11.243 9.083,-25.268 29.31,-24.375 20.701,0.936 26.908,23.594 27.554,31.955 C 4.698,-54.785 0.526,-13.407 0,0"
             id="path3148"
             style="fill:#0066ff;fill-opacity:1;fill-rule:nonzero;stroke:none" /></g><g
           transform="translate(342.8877,413.2002)"
           id="g3150"><path
             d="m 0,0 c 4.402,17.996 -6.474,22.916 -3.106,33.143 1.291,3.927 7.247,7.632 11.91,7.509 C 23.563,40.264 29.259,13.335 24.856,1.425 22.785,-1.682 17.863,-2.89 14.11,-3.365 10.94,-3.766 2.848,-3.237 0,0"
             id="path3152"
             style="fill:#0066ff;fill-opacity:1;fill-rule:nonzero;stroke:none" /></g><g
           transform="translate(373.4404,414.3662)"
           id="g3154"><path
             d="m 0,0 c 2.461,12.816 0.984,19.888 0,23.82 -1.294,5.18 -5.178,12.948 -10.616,17.479 5.957,7.638 9.099,9.198 13.077,8.673 6.861,-0.907 13.6,-12.311 15.535,-18.255 5.438,-16.7 2.07,-29.258 2.07,-29.258 0,0 -0.179,-1.598 -7.766,-3.495 C 8.156,-2.073 0,0 0,0"
             id="path3156"
             style="fill:#0066ff;fill-opacity:1;fill-rule:nonzero;stroke:none" /></g><g
           transform="translate(393.5068,455.6626)"
           id="g3158"><path
             d="m 0,0 c 0,0 1.943,3.107 6.991,0.647 8.933,-5.955 12.818,-16.831 13.595,-21.103 2.07,-13.335 0.177,-18.948 0.177,-18.948 0,0 -1.602,-1.506 -7.298,-1.118 -6.593,0.45 -8.027,1.296 -8.027,1.296 0,0 1.683,10.357 0.259,19.678 C 3.926,-7.952 0,0 0,0"
             id="path3160"
             style="fill:#0066ff;fill-opacity:1;fill-rule:nonzero;stroke:none" /></g><g
           transform="translate(328.8086,282.3662)"
           id="g3162"><path
             d="m 0,0 c 0,0 -17.43,-2.385 -32.666,2.04 -15.822,4.594 -26.031,10.465 -26.031,10.465 0,0 0.256,19.395 8.422,43.892 8.171,24.513 18.374,44.662 23.479,54.614 -6.125,-0.255 -20.647,-30.02 -28.073,-48.996 -4.593,-11.74 -9.698,-38.027 -9.698,-38.027 0,0 -4.604,-3.77 -10.985,-4.024 -1.716,-0.068 -7.025,1.816 -7.025,1.816 0,0 10.931,10.264 13.162,23.645 1.786,10.718 -0.255,21.181 -0.255,21.181 l 32.41,49.765 c 0,0 5.085,-0.079 10.974,0.509 7.656,0.767 11.483,1.277 11.483,1.277 0,0 -3.355,-8.847 0.258,-18.375 2.807,-7.399 6.377,-9.186 10.971,-13.525 C -2.298,61.501 0,0 0,0"
             id="path3164"
             style="fill:#0066ff;fill-opacity:1;fill-rule:nonzero;stroke:none" /></g><g
           transform="translate(131.8984,324.374)"
           id="g3166"><path
             d="m 0,0 c 0,0 6.419,-3.393 8.114,-8.236 1.558,-4.448 1.333,-11.143 1.333,-11.143 0,0 -14.158,-9.779 -20.106,-9.327 -9.569,0.727 -18.894,3.635 -23.013,6.784 -3.612,2.761 -4.765,8.335 -3.997,11.264 1.333,5.087 5.356,8.343 10.174,10.053 3.756,1.332 9.858,-2.422 13.445,-2.422 C -10.296,-3.027 0,0 0,0"
             id="path3168"
             style="fill:#0066ff;fill-opacity:1;fill-rule:nonzero;stroke:none" /></g><g
           transform="translate(88.8892,315.3281)"
           id="g3170"><path
             d="m 0,0 c 0,0 4.041,11.501 13.366,13.366 5.428,1.085 8.571,-0.168 15.232,-1.865 2.089,-0.531 8.631,2.027 8.631,2.027 0,0 -11.862,2.892 -19.17,10.051 -1.454,1.423 -1.035,0.452 -6.904,7.147 0,0 -11.991,2.786 -18.653,-1.938 C -10.56,26.616 -16.51,21.531 -15.734,15.706 -14.036,2.957 0,0 0,0"
             id="path3172"
             style="fill:#0066ff;fill-opacity:1;fill-rule:nonzero;stroke:none" /></g><g
           transform="translate(97.8325,351.3633)"
           id="g3174"><path
             d="m 0,0 c 0,0 -5.722,1.795 -12.052,0.335 -6.007,-1.387 -8.393,-3.421 -8.393,-3.421 0,0 -5.471,4.44 -5.08,10.494 0.484,7.509 5.277,10.626 8.72,11.626 7.51,2.182 15.892,-1.391 15.892,-1.391 0,0 -0.913,-4.564 -0.608,-10.494 C -1.357,3.959 0,0 0,0"
             id="path3176"
             style="fill:#0066ff;fill-opacity:1;fill-rule:nonzero;stroke:none" /></g><g
           transform="translate(128.7319,395.4189)"
           id="g3178"><path
             d="m 0,0 -7.913,-3.318 c 0,0 -5.103,1.787 -5.636,11.362 -0.46,8.226 4.721,11.691 8.236,14.171 4.117,2.907 9.906,3.051 9.906,3.051 0,0 -4.497,-6.663 -5.359,-14.548 C -1.615,2.966 0,0 0,0"
             id="path3180"
             style="fill:#0066ff;fill-opacity:1;fill-rule:nonzero;stroke:none" /></g></g></g><g
       id="g3182"><g
         clip-path="url(#clipPath3186)"
         id="g3184"><g
           transform="translate(248.4126,352.1094)"
           id="g3190"><path
             d="m 0,0 c 0,0 2.301,-13.201 -0.606,-23.981 -3.151,-11.685 -10.78,-20.227 -10.78,-20.227 l -10.053,5.329 c 0,0 8.346,10.066 10.538,21.317 1.817,9.326 0.121,21.923 0.121,21.923 L 0,0 z"
             id="path3192"
             style="fill:#09cdda;fill-opacity:1;fill-rule:nonzero;stroke:none" /></g><g
           transform="translate(226.4902,359.8623)"
           id="g3194"><path
             d="m 0,0 c 0,0 2.058,-10.538 -2.059,-23.134 -3.56,-10.889 -8.237,-16.957 -8.237,-16.957 l -11.506,6.178 c 0,0 6.51,6.758 10.174,19.378 2.18,7.509 1.09,19.016 1.09,19.016 L 0,0 z"
             id="path3196"
             style="fill:#09cdda;fill-opacity:1;fill-rule:nonzero;stroke:none" /></g><g
           transform="translate(195.8467,388.3242)"
           id="g3198"><path
             d="m 0,0 c 0,0 6.542,-2.544 8.601,-20.106 1.807,-15.415 -3.997,-23.983 -3.997,-23.983 0,0 -5.601,10.777 -6.542,22.528 C -2.664,-12.476 0,0 0,0"
             id="path3200"
             style="fill:#09cdda;fill-opacity:1;fill-rule:nonzero;stroke:none" /></g><g
           transform="translate(190.3984,325.9492)"
           id="g3202"><path
             d="m 0,0 c 1.204,1.1 4.602,4.966 4.602,4.966 0,0 0.257,5.263 -4.724,13.564 -2.906,4.845 -6.783,6.904 -6.783,6.904 -3.27,0.969 -4.723,1.091 -7.509,0.969 -4.357,-0.189 -8.721,-0.847 -8.721,-0.847 0,0 10.9,-8.36 13.686,-13.93 3.151,-6.301 4.119,-16.472 4.119,-16.472 0,0 4.081,3.704 5.33,4.846"
             id="path3204"
             style="fill:#09cdda;fill-opacity:1;fill-rule:nonzero;stroke:none" /></g><g
           transform="translate(151.5181,343.1465)"
           id="g3206"><path
             d="m 0,0 c 0,0 6.808,-3.508 12.716,-10.536 4.482,-5.329 6.905,-18.168 6.905,-18.168 0,0 -2.906,-0.97 -7.508,-2.302 -1.534,-0.446 -6.298,-1.09 -6.298,-1.09 0,0 0.536,8.545 -4.118,15.142 -2.907,4.117 -9.448,7.385 -9.448,7.385 1.695,3.392 1.067,2.269 3.027,5.088 C -2.785,-1.695 0,0 0,0"
             id="path3208"
             style="fill:#09cdda;fill-opacity:1;fill-rule:nonzero;stroke:none" /></g><g
           transform="translate(329.8301,408.4365)"
           id="g3210"><path
             d="m 0,0 c 2.943,1.121 4.266,0.534 4.266,0.534 0,0 5.181,-7.381 15.557,-7.709 35.463,-1.121 62.93,5.091 62.93,5.091 0,0 -0.917,-3.495 -2.069,-6.621 -0.981,-2.663 -2.587,-5.174 -2.587,-5.174 0,0 -45.268,-8.261 -69.767,-0.864 -14.017,5.184 -12.894,11.913 -12.894,11.913 0,0 1.621,1.708 4.564,2.83"
             id="path3212"
             style="fill:#09cdda;fill-opacity:1;fill-rule:nonzero;stroke:none" /></g><g
           transform="translate(395.4883,384.4424)"
           id="g3214"><path
             d="m 0,0 c 0,0 -8.543,-3.661 -14.998,-6.309 -5.467,-2.243 -12.194,-3.083 -12.194,-3.083 0,0 -22.146,-3.926 -39.528,2.522 -2.223,0.826 -7.988,3.085 -9.249,8.691 -1.412,6.274 1.192,12.159 1.192,12.159 0,0 0.695,-10.87 17.281,-14.214 C -25.024,-5.669 0,0 0,0"
             id="path3216"
             style="fill:#09cdda;fill-opacity:1;fill-rule:nonzero;stroke:none" /></g><g
           transform="translate(330.9941,364.7832)"
           id="g3218"><path
             d="m 0,0 c 0,0 5.625,-1.607 17.818,-2.027 10.088,-0.35 19.536,1.665 19.536,1.665 l 1.548,-10.857 c 0,0 -9.165,-2.163 -18.279,-2.163 -11.774,0 -20.139,2.139 -20.139,2.139 L 0,0 z"
             id="path3220"
             style="fill:#09cdda;fill-opacity:1;fill-rule:nonzero;stroke:none" /></g><g
           transform="translate(331.8408,342.2988)"
           id="g3222"><path
             d="m 0,0 c 0,0 11.261,-1.791 19.413,-1.253 9.795,0.647 20.097,3.071 20.097,3.071 l 2.301,-11.385 c 0,0 -11.145,-2.562 -20.244,-3.53 -8.691,-0.923 -21.203,0.283 -21.203,0.283 L 0,0 z"
             id="path3224"
             style="fill:#09cdda;fill-opacity:1;fill-rule:nonzero;stroke:none" /></g><g
           transform="translate(332.834,317.6221)"
           id="g3226"><path
             d="m 0,0 c 0,0 12.625,-0.604 20.188,0.014 12.229,1 22.326,4.68 22.326,4.68 l 2.422,-11.387 c 0,0 -12.278,-5.641 -24.192,-6.483 -10.423,-0.735 -20.397,1.038 -20.397,1.038 L 0,0 z"
             id="path3228"
             style="fill:#09cdda;fill-opacity:1;fill-rule:nonzero;stroke:none" /></g></g></g><g
       id="g3230"><g
         clip-path="url(#clipPath3234)"
         id="g3232"><g
           transform="translate(177.0151,404.4692)"
           id="g3238"><path
             d="M 0,0 C -2.988,-0.747 -6.011,11.083 -2.162,9.61 2.329,7.891 3.892,0.972 0,0 m 6.329,-3.436 c 1.021,11.74 -9.596,24.714 -19.14,26.541 -11.995,2.297 -24.244,-3.062 -28.327,-14.546 -4.894,-13.766 0.766,-21.437 0.766,-21.437 0,0 -14.003,-2.847 -24.755,-11.995 -11.705,-9.957 -9.408,-12.91 -9.408,-12.91 0,0 4.201,6.816 8.531,5.908 2.847,-0.599 10.861,-16.305 8.531,-18.047 -1.858,-1.389 -7.505,11.829 -9.843,11.484 -3.154,-0.467 -6.891,-5.25 -6.891,-5.25 0,0 -4.701,-3.386 6.783,-16.656 14.547,-14.546 29.348,-8.678 29.348,-8.678 0,0 5.771,10.613 15.568,17.609 7.145,5.104 19.65,5.359 19.65,5.359 0,0 5.959,0.311 7.401,9.442 1.53,9.698 -7.146,15.823 -7.146,15.823 0,0 7.604,2.08 8.932,17.353"
             id="path3240"
             style="fill:#ffff00;fill-opacity:1;fill-rule:nonzero;stroke:none" /></g></g></g><g
       id="g3242"><g
         clip-path="url(#clipPath3246)"
         id="g3244"><g
           transform="translate(184.5532,417.7358)"
           id="g3250"><path
             d="m 0,0 c 0,0 2.208,-3.786 3.171,-6.92 0.998,-3.242 1.225,-8.112 1.225,-8.112 0,0 7.023,6.447 4.03,12.184 C 4.435,2.39 0,0 0,0"
             id="path3252"
             style="fill:#ff9933;fill-opacity:1;fill-rule:nonzero;stroke:none" /></g></g></g></g></svg>