<svg id="svg" version="1.1" xmlns="http://www.w3.org/2000/svg" xmlns:xlink="http://www.w3.org/1999/xlink" width="400" height="441.24124124124126" viewBox="0, 0, 400,441.24124124124126"><g id="svgg"><path id="path0" d="M198.188 53.576 C 197.148 54.194,193.549 56.320,190.190 58.299 C 182.533 62.813,183.124 62.223,184.401 64.075 C 184.967 64.895,186.262 66.782,187.278 68.268 L 189.127 70.971 190.009 70.959 C 190.494 70.952,191.702 70.828,192.693 70.682 C 193.865 70.510,195.451 70.455,197.233 70.525 L 199.971 70.632 200.915 69.431 C 202.289 67.682,204.224 66.172,206.559 65.026 C 207.689 64.471,208.656 63.950,208.707 63.867 C 208.758 63.785,207.428 61.828,205.751 59.518 C 204.074 57.208,202.252 54.675,201.702 53.889 C 200.496 52.167,200.551 52.172,198.188 53.576 M198.181 60.251 C 200.236 61.300,201.213 63.897,200.147 65.478 C 197.797 68.966,193.168 67.565,193.110 63.349 C 193.072 60.601,195.709 58.990,198.181 60.251 M216.149 93.427 C 216.076 93.500,216.014 94.063,216.012 94.678 C 216.010 95.293,215.877 96.652,215.716 97.698 C 215.162 101.293,215.229 101.439,217.795 102.218 C 220.461 103.026,223.341 104.566,225.137 106.143 L 225.813 106.737 226.470 106.242 C 228.380 104.803,234.877 103.899,238.590 104.555 C 240.757 104.937,240.673 105.038,241.499 101.057 C 242.347 96.973,242.462 97.218,239.439 96.690 C 238.173 96.470,236.892 96.236,236.592 96.170 C 235.864 96.012,235.721 96.397,235.431 99.299 C 235.069 102.916,235.257 102.836,228.829 102.102 C 220.711 101.175,220.760 101.204,221.424 97.550 C 221.951 94.652,221.943 94.130,221.371 93.998 C 219.344 93.530,216.371 93.205,216.149 93.427 M224.558 96.230 C 224.252 96.535,224.415 99.108,224.748 99.236 C 225.837 99.654,227.034 97.370,226.233 96.404 C 225.978 96.097,224.812 95.976,224.558 96.230 M283.624 115.966 C 281.661 118.621,274.194 129.905,274.185 130.227 C 274.172 130.698,274.963 130.910,275.128 130.480 C 275.299 130.036,280.076 123.265,280.598 122.728 C 281.251 122.056,281.289 122.075,286.887 125.724 C 293.307 129.910,293.073 129.622,291.692 131.655 C 290.631 133.217,290.729 133.538,292.058 132.850 C 292.586 132.578,297.898 125.022,297.898 124.544 C 297.898 124.277,295.685 122.523,295.348 122.523 C 295.211 122.523,294.491 123.337,293.746 124.332 C 291.829 126.895,292.187 126.918,287.639 123.949 C 283.878 121.495,283.903 121.554,285.602 119.059 C 286.955 117.073,286.971 116.742,285.751 115.935 C 284.570 115.152,284.221 115.157,283.624 115.966 M287.728 119.771 C 286.986 120.665,287.585 121.996,288.374 121.207 C 288.749 120.832,288.979 120.027,288.796 119.731 C 288.617 119.441,287.982 119.465,287.728 119.771 M162.639 151.522 C 161.865 151.885,160.963 152.845,160.706 153.579 C 160.638 153.775,160.004 154.084,159.128 154.350 C 158.323 154.595,156.582 155.224,155.259 155.748 C 152.047 157.020,151.974 157.033,150.829 156.526 C 148.268 155.394,145.236 156.734,142.631 160.150 C 142.149 160.782,141.706 161.161,141.450 161.162 C 140.976 161.163,139.550 162.842,138.476 164.665 C 138.086 165.325,137.401 166.256,136.952 166.734 C 136.503 167.211,136.135 167.751,136.134 167.935 C 136.132 168.118,135.857 169.079,135.521 170.070 C 134.713 172.457,133.072 179.182,132.443 182.683 C 132.167 184.224,131.895 185.733,131.841 186.036 C 131.715 186.734,131.651 186.748,133.400 185.687 C 135.234 184.573,137.178 183.828,138.689 183.658 C 140.248 183.483,140.326 183.398,140.090 182.131 C 139.419 178.517,141.068 173.583,143.789 171.062 C 147.044 168.046,150.126 167.822,153.897 170.325 C 154.482 170.714,154.988 170.995,155.021 170.951 C 155.053 170.907,155.499 170.274,156.011 169.544 C 163.598 158.733,177.926 165.580,174.868 178.556 C 174.249 181.180,171.699 184.932,169.689 186.174 C 166.180 188.343,159.268 188.736,154.377 187.045 C 153.869 186.869,153.138 186.656,152.753 186.570 C 152.367 186.485,151.255 186.137,150.280 185.797 C 141.683 182.795,132.674 185.089,129.879 190.991 C 127.180 196.690,129.272 203.051,134.736 205.756 C 142.519 209.610,151.398 207.266,157.796 199.669 C 158.569 198.750,159.331 197.998,159.487 197.998 C 160.489 197.998,159.370 199.762,156.657 202.457 C 154.290 204.809,151.391 206.651,148.090 207.903 C 147.325 208.193,146.962 208.419,147.147 208.489 C 152.487 210.532,159.732 210.733,169.269 209.102 C 180.863 207.121,189.824 202.508,199.039 193.777 C 201.537 191.411,201.953 191.098,203.286 190.585 C 217.406 185.148,224.356 171.655,218.822 160.427 C 216.707 156.137,214.766 154.852,210.414 154.860 C 205.018 154.870,200.909 157.959,196.930 164.998 C 195.612 167.331,195.736 167.322,192.767 165.304 C 190.426 163.714,184.366 159.864,183.471 159.400 C 183.244 159.282,181.517 158.775,179.634 158.273 C 177.751 157.771,175.977 157.272,175.693 157.164 C 175.120 156.946,175.078 157.002,175.382 157.571 C 175.842 158.429,175.100 157.881,173.223 155.977 C 169.440 152.139,165.163 150.338,162.639 151.522 M214.249 165.897 C 214.865 166.455,214.791 169.823,214.164 169.734 C 213.763 169.677,213.703 169.529,213.614 168.384 C 213.559 167.677,213.420 167.068,213.307 167.030 C 213.023 166.937,210.889 168.788,209.423 170.398 L 208.213 171.728 208.937 172.280 L 209.662 172.833 209.544 174.099 C 209.461 174.988,209.512 175.573,209.718 176.064 C 210.598 178.171,209.473 180.861,207.074 182.383 C 206.048 183.035,203.687 183.859,203.384 183.671 C 203.024 183.449,203.216 182.969,203.754 182.747 C 205.763 181.917,206.452 181.539,207.212 180.854 C 209.202 179.060,209.366 176.276,207.548 175.167 C 206.201 174.346,205.652 174.698,203.272 177.915 C 201.644 180.115,201.355 180.391,201.106 179.987 C 200.398 178.842,209.683 167.538,212.663 165.916 C 213.465 165.480,213.783 165.476,214.249 165.897 M97.562 178.618 C 97.265 179.004,95.295 182.510,95.295 182.654 C 95.295 182.723,96.084 182.726,97.047 182.663 C 98.011 182.599,99.474 182.632,100.300 182.737 C 102.079 182.962,102.213 182.927,102.477 182.169 C 102.739 181.417,102.438 181.103,101.159 180.791 C 99.914 180.488,99.555 180.203,99.229 179.256 C 98.942 178.421,97.995 178.059,97.562 178.618 M105.577 182.685 C 105.394 183.161,105.891 183.584,106.631 183.584 C 107.542 183.584,107.531 183.056,106.613 182.672 C 105.752 182.313,105.720 182.313,105.577 182.685 M93.732 184.189 C 92.063 184.626,90.606 185.363,89.530 186.315 L 88.789 186.970 90.691 186.980 C 91.737 186.985,93.314 187.046,94.196 187.114 L 95.800 187.239 97.368 185.511 L 98.937 183.784 97.066 183.795 C 95.900 183.802,94.644 183.950,93.732 184.189 M104.246 184.703 C 102.560 185.618,97.511 194.168,97.758 195.691 C 97.834 196.160,97.764 196.422,97.502 196.647 C 96.989 197.086,96.356 199.991,96.063 203.252 C 95.780 206.405,95.927 206.870,97.365 207.352 C 98.546 207.747,98.597 207.660,98.975 204.568 C 99.838 197.526,102.229 191.621,106.430 186.156 L 107.300 185.025 106.499 184.705 C 105.514 184.311,104.971 184.311,104.246 184.703 M184.939 185.904 C 185.549 186.202,186.109 186.637,186.233 186.909 C 186.537 187.577,186.304 187.709,185.684 187.221 C 184.011 185.906,183.089 186.217,182.927 188.152 C 182.863 188.913,182.574 190.201,182.284 191.014 C 181.508 193.196,181.511 193.217,182.683 193.488 C 186.339 194.334,186.366 198.481,182.734 201.258 C 178.953 204.149,174.869 205.041,169.165 204.220 C 167.635 203.999,166.826 203.991,165.072 204.176 C 163.549 204.336,162.821 204.343,162.675 204.197 C 162.364 203.885,162.916 203.611,163.864 203.605 C 171.001 203.565,180.684 195.306,182.004 188.134 C 182.311 186.465,182.204 186.319,180.870 186.571 C 179.756 186.782,179.352 186.594,179.703 186.031 C 180.311 185.056,183.070 184.989,184.939 185.904 M121.175 186.286 C 120.463 187.091,119.548 187.219,118.476 186.665 C 117.875 186.354,117.840 186.359,117.495 186.815 C 115.983 188.811,119.673 192.793,123.035 192.793 C 124.572 192.793,125.001 189.631,123.789 187.237 C 122.875 185.430,122.162 185.171,121.175 186.286 M112.365 187.538 C 111.277 188.510,108.257 192.891,107.156 195.095 C 104.986 199.437,102.176 208.664,102.953 208.896 C 103.091 208.937,103.952 209.196,104.868 209.471 L 106.533 209.971 106.698 209.540 C 106.789 209.303,107.019 208.388,107.208 207.508 C 108.503 201.469,111.612 194.564,114.849 190.538 C 116.093 188.990,116.106 189.083,114.489 188.003 C 113.115 187.085,112.919 187.042,112.365 187.538 M87.842 188.299 C 84.819 189.032,82.438 191.158,81.680 193.800 C 81.441 194.632,81.697 194.717,84.885 194.867 C 86.371 194.937,88.443 195.124,89.489 195.283 C 91.692 195.619,91.675 195.627,92.197 193.994 C 92.571 192.824,93.826 190.207,94.604 188.975 L 95.072 188.234 94.458 188.111 C 93.358 187.891,89.017 188.014,87.842 188.299 M118.493 195.546 C 113.384 203.291,110.308 215.791,113.756 214.803 C 116.310 214.070,117.449 211.913,117.372 207.958 L 117.333 206.006 117.992 206.006 L 118.652 206.006 118.974 204.054 C 119.508 200.823,120.703 197.743,122.401 195.225 C 122.798 194.636,123.123 194.124,123.123 194.088 C 123.123 193.957,120.945 193.393,120.436 193.393 C 119.993 193.393,119.697 193.721,118.493 195.546 M126.870 196.737 C 125.675 199.400,123.823 206.245,124.139 206.834 C 124.324 207.180,124.682 207.290,126.371 207.522 C 127.486 207.675,127.567 207.561,127.927 205.331 C 128.049 204.574,128.323 203.497,128.535 202.936 L 128.923 201.917 128.408 200.632 C 128.125 199.924,127.786 198.489,127.654 197.435 L 127.414 195.524 126.870 196.737 M80.880 195.968 C 77.610 197.058,75.960 200.887,76.885 205.242 C 77.512 208.200,78.617 208.490,82.983 206.843 C 85.231 205.996,85.524 205.935,87.539 205.895 C 90.341 205.839,90.289 205.889,90.294 203.229 C 90.296 202.048,90.436 200.478,90.609 199.700 C 91.162 197.219,91.190 196.654,90.764 196.527 C 89.406 196.123,81.720 195.688,80.880 195.968 M184.084 205.710 C 172.259 211.456,155.199 212.989,146.396 209.095 C 144.694 208.343,144.381 208.575,144.043 210.843 C 143.870 212.003,143.706 211.908,147.896 213.092 C 149.684 213.598,152.654 214.508,154.496 215.114 C 159.186 216.658,159.173 216.660,160.399 214.114 C 161.097 212.664,161.693 212.247,161.625 213.255 C 161.463 215.653,157.701 220.979,153.171 225.225 C 150.398 227.824,150.441 227.699,151.593 229.861 C 153.509 233.458,157.143 237.364,161.044 240.019 C 163.482 241.679,163.172 241.606,164.416 240.807 C 165.767 239.941,166.240 239.992,168.141 241.212 C 170.732 242.874,170.972 242.837,172.528 240.547 C 174.568 237.541,176.964 237.241,180.426 239.558 C 181.317 240.155,182.065 240.620,182.088 240.592 C 182.110 240.564,182.556 238.792,183.079 236.656 C 184.467 230.977,184.398 229.095,182.609 223.924 C 180.388 217.505,179.736 215.015,180.278 215.015 C 180.660 215.015,180.826 215.427,182.903 221.528 C 184.899 227.392,184.661 227.125,187.018 226.149 C 189.342 225.187,191.486 224.661,194.079 224.416 C 195.297 224.302,196.369 224.131,196.462 224.038 C 196.742 223.759,191.760 212.164,189.855 208.659 C 187.466 204.265,187.267 204.163,184.084 205.710 M133.815 207.284 C 133.756 207.437,133.737 207.955,133.771 208.436 L 133.834 209.309 135.695 209.790 C 137.772 210.327,137.916 210.284,137.990 209.109 L 138.038 208.330 136.336 207.679 C 134.438 206.952,133.971 206.879,133.815 207.284 M83.305 207.895 C 81.326 208.698,81.694 208.239,79.468 212.681 C 77.183 217.241,77.183 217.262,79.374 218.016 C 80.976 218.567,80.872 218.696,83.603 212.780 C 86.530 206.440,86.539 206.584,83.305 207.895 M118.265 209.259 C 118.137 211.758,117.751 212.910,116.624 214.163 C 115.795 215.086,115.730 215.261,114.523 219.820 C 113.839 222.408,113.016 225.345,112.695 226.347 C 111.804 229.132,111.753 229.004,114.160 229.994 C 116.128 230.804,116.051 230.818,116.404 229.580 C 116.856 227.993,121.522 208.239,121.522 207.911 C 121.522 207.568,120.336 207.210,119.195 207.208 L 118.371 207.207 118.265 209.259 M95.903 211.326 C 93.035 214.438,93.419 219.252,96.699 221.323 C 97.848 222.048,99.413 222.433,101.737 222.562 L 103.875 222.681 104.000 221.901 C 104.222 220.512,104.705 218.621,105.110 217.557 C 105.327 216.985,105.505 216.452,105.505 216.373 C 105.506 215.960,97.675 210.410,97.092 210.410 C 96.903 210.410,96.368 210.823,95.903 211.326 M144.229 225.584 C 140.875 228.028,140.032 233.782,142.630 236.486 C 143.371 237.257,143.369 237.259,144.105 234.965 C 144.899 232.493,145.841 230.863,147.760 228.643 L 149.194 226.983 148.810 226.468 C 147.781 225.090,145.508 224.651,144.229 225.584 M193.479 228.933 C 187.521 229.816,185.123 230.535,185.225 231.410 L 185.285 231.924 187.588 231.979 C 190.920 232.059,193.913 232.401,195.267 232.857 C 197.500 233.609,197.921 233.240,198.031 230.430 L 198.098 228.729 196.697 228.696 C 195.926 228.678,194.478 228.785,193.479 228.933 M184.518 235.907 C 182.840 237.252,184.692 238.348,191.692 240.153 C 196.479 241.388,196.271 241.416,196.510 239.502 C 196.703 237.954,196.531 237.888,188.271 236.349 C 186.739 236.064,185.332 235.796,185.144 235.754 C 184.957 235.712,184.675 235.781,184.518 235.907 M176.276 239.745 C 180.894 243.618,185.577 245.934,192.473 247.755 C 196.100 248.712,196.367 248.644,195.615 246.945 C 195.102 245.785,194.630 245.524,192.392 245.162 C 189.862 244.753,188.455 244.370,186.724 243.617 C 185.933 243.273,184.294 242.566,183.083 242.047 C 181.872 241.527,180.208 240.683,179.385 240.171 C 178.073 239.354,177.751 239.239,176.782 239.240 L 175.676 239.241 176.276 239.745 M165.133 241.146 C 162.643 242.498,160.887 247.608,162.221 249.623 C 163.843 252.074,168.211 254.360,169.059 253.201 C 169.458 252.655,169.817 248.974,169.740 246.205 L 169.670 243.662 168.869 242.827 C 167.239 241.127,166.107 240.617,165.133 241.146 M174.374 245.349 C 174.374 246.055,174.234 247.637,174.063 248.864 C 173.892 250.092,173.790 251.134,173.837 251.181 C 173.908 251.252,174.619 249.146,175.165 247.247 C 175.354 246.588,175.976 246.450,175.976 247.067 C 175.976 249.543,186.430 254.692,194.089 255.988 C 196.592 256.411,196.589 256.413,196.594 254.529 C 196.597 253.022,196.499 252.935,194.595 252.758 C 189.212 252.258,182.842 249.688,176.426 245.428 L 174.374 244.066 174.374 245.349 M173.987 253.559 C 173.187 255.055,173.235 255.202,175.012 256.700 C 177.167 258.517,179.144 259.699,179.791 259.557 C 180.287 259.448,180.380 259.490,180.380 259.819 C 180.380 260.584,183.513 261.902,188.134 263.081 C 193.456 264.439,193.865 264.407,194.725 262.563 C 195.588 260.710,195.500 260.597,192.993 260.361 C 187.174 259.814,180.498 257.035,175.770 253.190 L 174.664 252.291 173.987 253.559 M167.123 261.453 C 162.937 264.838,161.910 266.252,162.354 268.019 C 163.106 271.002,165.141 272.569,168.268 272.569 C 171.216 272.570,171.718 272.177,174.350 267.815 C 175.230 266.358,176.181 264.855,176.463 264.476 C 177.195 263.493,177.141 263.386,175.526 262.613 C 174.727 262.231,173.245 261.320,172.232 260.589 C 169.932 258.928,170.327 258.862,167.123 261.453 M177.934 264.214 C 177.148 265.112,173.187 271.874,173.289 272.142 C 173.629 273.027,175.735 273.877,177.557 273.865 C 180.219 273.847,181.175 273.169,183.561 269.603 C 184.533 268.151,185.476 266.841,185.657 266.691 C 186.211 266.230,186.054 266.131,184.034 265.666 C 182.960 265.419,181.238 264.913,180.206 264.541 C 177.995 263.743,178.307 263.787,177.934 264.214 M187.029 266.600 C 185.906 267.528,182.214 273.570,182.727 273.638 C 184.915 273.930,189.547 270.897,191.373 267.979 C 192.189 266.674,192.243 266.742,190.245 266.580 C 189.283 266.502,188.267 266.392,187.985 266.336 C 187.659 266.271,187.311 266.367,187.029 266.600 " stroke="none" fill="#2ab4f4" fill-rule="evenodd"></path><path id="path1" d="M196.890 53.369 C 195.022 54.424,191.061 56.642,188.088 58.299 C 181.327 62.068,181.544 61.816,183.083 64.110 C 184.220 65.805,184.252 65.625,182.494 67.494 C 181.104 68.971,179.580 71.441,179.580 72.216 C 179.580 72.723,179.252 72.414,178.009 70.733 C 172.186 62.858,157.526 60.982,146.142 66.654 C 135.490 71.961,129.655 79.344,129.636 87.538 C 129.633 88.941,129.612 90.090,129.590 90.090 C 129.568 90.090,129.027 89.773,128.388 89.386 C 123.844 86.631,116.109 86.824,110.242 89.840 C 94.938 97.707,88.540 121.189,100.065 127.188 C 101.856 128.121,103.854 128.541,107.134 128.675 L 109.863 128.786 109.279 130.204 C 107.787 133.822,107.340 137.963,108.256 139.678 C 111.292 145.356,126.006 146.519,140.711 142.243 C 143.483 141.437,143.416 141.409,143.296 143.320 C 143.015 147.775,141.491 149.541,136.131 151.625 C 124.118 156.295,123.150 157.121,120.517 164.954 C 118.948 169.623,119.150 170.849,121.940 173.598 C 124.102 175.727,127.059 177.900,129.498 179.153 C 131.555 180.210,131.568 180.222,131.454 180.849 C 131.391 181.197,131.199 182.698,131.028 184.184 C 130.626 187.681,130.670 187.520,129.770 188.714 C 128.833 189.957,128.218 191.229,127.826 192.730 C 127.457 194.150,127.557 194.089,126.220 193.701 C 125.095 193.374,125.084 193.363,125.210 192.731 C 126.261 187.421,123.189 182.430,120.574 185.201 C 119.969 185.841,119.695 185.896,118.749 185.566 C 118.214 185.380,118.118 185.246,118.118 184.690 C 118.118 183.747,118.170 183.771,111.112 181.369 C 104.319 179.058,104.108 179.004,103.630 179.482 C 102.720 180.392,100.752 179.903,100.412 178.683 C 100.216 177.980,100.075 177.844,99.208 177.522 C 97.351 176.832,97.187 176.936,95.584 179.813 C 93.839 182.946,93.887 182.889,92.627 183.295 C 91.084 183.792,89.938 184.512,88.488 185.894 C 87.559 186.780,86.698 187.362,85.478 187.929 C 83.121 189.024,81.938 190.228,81.052 192.433 C 80.455 193.917,80.199 194.275,78.647 195.796 C 76.138 198.252,75.482 199.795,75.478 203.246 C 75.474 206.203,76.588 208.568,78.139 208.895 C 78.436 208.958,78.904 209.056,79.179 209.113 C 79.854 209.253,79.846 209.288,78.512 211.993 C 75.889 217.314,75.918 217.883,78.879 218.962 C 82.681 220.347,116.272 231.632,116.594 231.632 C 117.090 231.632,117.136 231.470,119.535 221.221 C 123.085 206.051,122.301 207.679,125.667 208.491 C 132.933 210.245,157.909 217.088,158.235 217.415 C 158.663 217.842,152.653 224.561,150.879 225.640 C 150.193 226.057,150.039 226.004,148.446 224.804 C 146.212 223.121,144.640 223.315,142.568 225.530 C 140.504 227.736,140.039 228.976,140.043 232.265 L 140.046 235.000 138.589 235.217 C 130.434 236.430,126.152 244.201,125.933 258.186 C 125.929 258.426,125.434 259.128,124.803 259.787 C 118.769 266.095,118.507 276.128,124.154 284.709 C 133.426 298.798,146.693 305.772,163.229 305.251 C 183.569 304.609,192.308 289.964,179.882 277.343 L 177.878 275.307 178.879 275.051 C 179.429 274.910,181.056 274.790,182.492 274.785 L 185.105 274.775 186.697 273.989 C 189.940 272.387,194.198 267.112,196.145 262.283 C 198.046 257.568,198.148 251.837,196.419 246.812 L 196.028 245.677 196.607 243.878 C 197.184 242.082,198.345 236.407,198.948 232.432 C 199.514 228.701,199.067 226.288,196.883 221.296 C 191.561 209.131,190.649 207.307,188.839 205.214 C 187.779 203.989,187.781 203.962,188.939 203.290 C 192.017 201.505,195.391 198.789,199.499 194.791 C 202.620 191.754,202.744 191.659,204.304 191.101 C 217.705 186.307,224.807 173.717,220.785 161.887 L 219.977 159.509 220.199 157.382 C 220.765 151.968,220.117 145.196,218.617 140.835 C 218.397 140.198,218.218 139.669,218.218 139.658 C 218.218 139.648,219.322 139.640,220.671 139.640 C 222.019 139.640,226.411 139.612,230.430 139.578 C 234.449 139.544,237.928 139.522,238.161 139.528 C 238.539 139.538,238.597 139.694,238.718 141.029 C 239.344 147.931,244.516 152.323,252.540 152.765 C 263.326 153.359,306.398 153.601,319.119 153.139 C 322.257 153.025,327.978 152.854,331.832 152.760 C 340.771 152.542,342.169 152.188,344.642 149.518 C 348.645 145.194,349.577 135.322,346.556 129.229 C 343.374 122.813,336.990 118.719,330.168 118.719 L 327.582 118.719 327.596 115.966 C 327.620 110.982,326.301 107.157,323.240 103.336 C 316.723 95.199,303.145 94.391,294.581 101.631 L 293.566 102.489 292.816 101.979 C 289.530 99.746,283.474 98.540,279.179 99.263 C 277.672 99.517,277.148 99.251,276.983 98.150 C 274.919 84.435,260.061 79.425,247.869 88.334 L 246.547 89.300 246.411 88.744 C 246.336 88.438,246.003 86.747,245.672 84.985 C 244.247 77.418,239.856 69.363,234.204 63.950 C 227.997 58.006,216.975 54.663,207.364 55.812 C 204.727 56.127,204.860 56.195,202.882 53.504 C 200.982 50.917,201.224 50.922,196.890 53.369 M204.760 58.040 C 206.987 61.113,208.809 63.715,208.809 63.822 C 208.809 63.928,207.767 64.526,206.494 65.150 C 204.212 66.268,202.084 68.029,200.241 70.324 C 199.871 70.786,199.705 70.852,199.248 70.724 C 198.218 70.436,192.989 70.579,191.274 70.942 C 189.316 71.356,189.168 71.308,188.369 70.001 C 188.022 69.433,186.758 67.559,185.560 65.835 C 184.362 64.111,183.429 62.580,183.487 62.432 C 183.544 62.283,185.775 60.878,188.443 59.307 C 191.110 57.737,194.780 55.558,196.597 54.465 C 198.413 53.372,200.082 52.472,200.305 52.465 C 200.611 52.456,201.702 53.820,204.760 58.040 M213.534 56.865 C 226.350 57.898,235.511 64.228,241.491 76.182 C 244.192 81.582,246.536 89.921,245.612 90.844 C 244.799 91.657,246.161 91.221,247.128 90.359 C 253.013 85.114,262.334 83.639,268.406 86.991 C 273.167 89.619,278.379 99.186,275.475 99.966 C 262.020 103.578,255.765 112.371,258.775 123.441 C 258.887 123.853,258.849 123.858,256.307 123.766 C 247.736 123.457,241.607 128.092,239.333 136.603 C 238.631 139.230,240.706 138.996,220.941 138.672 L 217.758 138.620 216.822 136.427 C 210.693 122.063,198.490 111.691,181.081 106.049 C 154.736 97.510,122.777 107.074,111.095 126.993 L 110.410 128.161 108.108 128.049 C 97.862 127.553,93.921 121.916,96.090 110.858 C 99.337 94.295,116.400 83.720,128.529 90.753 C 129.354 91.232,130.317 91.795,130.668 92.005 C 131.516 92.510,131.641 92.315,131.116 91.306 C 130.524 90.172,130.642 85.636,131.324 83.283 C 134.416 72.612,150.170 63.276,162.775 64.644 C 169.538 65.378,176.464 69.220,179.213 73.762 C 180.156 75.319,180.581 75.270,180.581 73.606 C 180.581 71.886,181.367 70.340,183.263 68.330 C 185.015 66.473,184.945 66.459,186.692 69.005 C 188.539 71.696,188.576 71.449,186.153 72.649 C 183.688 73.871,182.240 74.897,181.967 75.616 C 181.632 76.496,182.101 76.695,182.701 75.928 C 183.341 75.111,186.048 73.630,188.514 72.749 C 194.334 70.668,200.463 71.170,206.225 74.198 C 207.693 74.969,208.308 74.958,207.331 74.178 C 206.480 73.498,203.411 71.935,202.603 71.770 C 200.924 71.428,200.814 70.634,202.252 69.248 C 207.107 64.566,212.888 63.387,217.465 66.143 C 218.721 66.899,219.222 66.794,218.172 65.995 C 216.370 64.624,213.980 63.864,211.474 63.864 L 209.819 63.864 208.450 61.812 C 206.519 58.917,205.542 57.254,205.686 57.110 C 205.791 57.005,208.023 56.802,210.331 56.687 C 210.673 56.671,212.115 56.750,213.534 56.865 M195.096 60.175 C 191.262 62.174,193.550 68.381,197.678 67.182 C 198.915 66.822,200.103 65.735,200.422 64.671 C 201.216 62.023,197.525 58.908,195.096 60.175 M197.797 60.961 C 199.390 61.784,200.096 64.044,199.123 65.200 C 197.619 66.987,195.288 66.796,194.387 64.811 C 193.213 62.224,195.420 59.731,197.797 60.961 M196.146 62.876 C 195.661 63.163,195.700 63.999,196.212 64.273 C 196.892 64.637,197.230 64.367,197.159 63.517 C 197.093 62.717,196.766 62.510,196.146 62.876 M150.192 71.998 C 148.344 72.931,147.481 77.768,148.886 79.320 C 149.378 79.864,150.035 79.802,149.855 79.229 C 149.016 76.566,148.991 75.362,149.741 73.891 C 150.890 71.639,153.337 72.963,153.017 75.664 C 152.869 76.912,153.309 77.149,154.107 76.251 C 155.502 74.682,158.346 74.657,159.175 76.205 C 159.596 76.993,157.975 77.678,155.689 77.678 C 155.112 77.678,155.016 77.859,155.395 78.238 C 156.323 79.166,160.160 77.895,160.160 76.661 C 160.160 74.862,157.606 73.797,155.100 74.551 L 154.181 74.828 153.617 73.709 C 152.734 71.957,151.496 71.339,150.192 71.998 M134.822 84.334 C 132.502 87.086,133.396 90.290,136.483 90.290 C 137.049 90.290,137.739 90.449,138.163 90.676 C 140.054 91.689,142.374 89.723,141.831 87.567 C 141.561 86.496,141.141 86.441,141.141 87.477 C 141.141 89.432,138.827 91.304,138.577 89.552 C 138.466 88.780,137.991 88.569,137.469 89.060 C 136.711 89.771,134.799 89.466,134.459 88.580 C 133.990 87.359,135.089 84.484,136.024 84.484 C 136.183 84.484,136.828 84.935,137.457 85.485 C 139.391 87.178,139.399 86.558,137.467 84.730 C 136.142 83.478,135.612 83.398,134.822 84.334 M159.154 91.155 C 156.946 92.064,155.342 93.514,154.354 95.495 C 154.107 95.991,153.867 96.438,153.821 96.488 C 153.775 96.538,152.412 96.592,150.793 96.607 C 145.873 96.652,141.219 98.523,138.208 101.665 C 136.567 103.378,137.176 103.867,138.928 102.244 C 144.273 97.296,151.613 96.161,158.634 99.196 C 159.982 99.779,161.045 99.904,160.547 99.422 C 160.209 99.094,156.593 97.454,155.600 97.178 L 154.377 96.837 154.793 96.016 C 155.556 94.515,157.656 92.677,159.619 91.793 C 160.932 91.201,161.286 90.966,161.018 90.860 C 160.474 90.645,160.345 90.665,159.154 91.155 M215.211 93.031 C 215.208 93.450,215.030 94.965,214.815 96.396 C 214.600 97.828,214.422 99.343,214.419 99.763 C 214.411 101.156,214.236 101.279,212.261 101.284 C 208.891 101.293,205.029 102.386,204.837 103.385 C 204.747 103.849,205.158 103.773,207.007 102.985 C 209.368 101.979,214.303 102.075,217.582 103.192 C 222.350 104.815,226.702 108.758,228.434 113.027 C 228.926 114.238,229.572 114.575,229.359 113.510 C 229.174 112.587,228.091 110.092,227.318 108.808 C 226.361 107.218,226.399 107.021,227.762 106.511 C 234.157 104.118,241.876 105.354,247.655 109.697 C 248.849 110.594,249.112 110.684,249.011 110.160 C 248.894 109.552,245.643 107.122,243.682 106.176 C 241.407 105.079,241.513 105.386,242.245 102.002 C 243.384 96.739,243.321 96.364,241.212 95.905 C 238.231 95.256,225.106 93.385,218.619 92.684 C 217.683 92.583,216.534 92.448,216.066 92.384 L 215.215 92.268 215.211 93.031 M219.471 93.601 C 222.219 94.014,222.132 93.872,221.585 97.046 C 220.847 101.330,220.673 101.233,230.789 102.233 L 234.250 102.575 234.669 102.156 C 235.011 101.814,235.142 101.265,235.380 99.167 C 235.705 96.308,235.834 96.020,236.726 96.151 C 237.546 96.272,241.030 96.883,241.578 97.003 C 242.289 97.158,242.284 97.661,241.536 101.212 C 240.783 104.789,240.686 104.981,239.740 104.802 C 235.212 103.942,227.910 104.778,226.519 106.315 C 226.022 106.864,225.971 106.846,224.217 105.524 C 222.315 104.091,220.712 103.282,217.870 102.322 C 215.160 101.406,215.118 101.341,215.519 98.689 C 215.676 97.649,215.866 96.009,215.939 95.045 L 216.073 93.293 216.747 93.293 C 217.117 93.293,218.343 93.432,219.471 93.601 M229.269 95.009 C 235.797 95.926,235.163 95.529,234.732 98.426 C 234.203 101.990,234.774 101.736,228.729 101.103 C 221.821 100.380,222.062 100.535,222.411 97.050 C 222.671 94.453,222.839 94.010,223.509 94.163 C 223.737 94.215,226.329 94.596,229.269 95.009 M223.804 95.516 C 222.659 96.660,223.619 100.137,225.115 100.264 C 227.316 100.449,228.405 96.251,226.376 95.403 C 225.325 94.964,224.311 95.008,223.804 95.516 M226.186 96.336 C 226.949 97.099,226.232 99.299,225.221 99.299 C 224.320 99.299,223.899 97.359,224.559 96.246 C 224.702 96.006,225.923 96.073,226.186 96.336 M312.713 98.205 C 320.726 100.056,326.482 107.181,326.859 115.716 C 327.008 119.075,326.974 119.144,324.890 119.819 C 323.977 120.115,323.003 120.487,322.726 120.646 L 322.222 120.936 322.923 120.859 C 323.308 120.816,324.434 120.530,325.425 120.223 C 336.153 116.898,347.351 125.661,347.347 137.379 C 347.344 145.203,344.728 149.887,339.593 151.264 C 335.282 152.419,262.202 152.646,251.351 151.537 C 233.429 149.706,237.816 123.922,255.941 124.564 C 258.592 124.658,258.948 124.775,260.778 126.157 C 261.581 126.763,261.975 126.927,262.631 126.927 C 263.530 126.927,263.752 126.642,263.001 126.454 C 258.608 125.351,257.473 115.927,261.069 110.418 C 266.627 101.903,280.410 97.789,290.057 101.765 C 292.646 102.832,296.913 106.188,298.599 108.482 C 299.171 109.261,299.700 109.556,299.700 109.095 C 299.700 108.623,297.776 106.228,296.281 104.839 C 294.443 103.131,294.466 103.204,295.445 102.263 C 299.022 98.824,307.138 96.917,312.713 98.205 M166.466 104.104 C 182.882 105.595,200.039 114.113,208.902 125.174 C 215.676 133.628,218.933 142.422,219.166 152.893 C 219.295 158.682,219.368 158.493,217.666 156.791 C 211.484 150.609,201.427 153.920,196.534 163.748 C 195.274 166.280,195.379 166.240,193.676 164.838 C 190.879 162.536,184.454 158.612,183.856 158.842 C 183.272 159.066,183.733 159.469,186.703 161.326 C 188.346 162.353,190.972 164.052,192.539 165.103 C 195.859 167.327,195.624 167.334,196.902 164.974 C 204.587 150.775,218.280 151.278,220.630 165.846 C 222.206 175.612,214.254 186.832,203.006 190.712 C 202.092 191.028,201.464 191.516,199.240 193.640 C 190.080 202.387,181.179 207.022,169.550 209.098 C 161.112 210.605,153.531 210.575,148.507 209.015 C 146.749 208.469,146.717 208.344,148.202 207.810 C 152.768 206.168,160.734 199.612,159.867 198.210 C 159.593 197.766,159.160 198.040,158.170 199.285 C 148.208 211.804,128.729 209.628,128.729 195.996 C 128.729 186.557,139.165 181.785,150.778 185.915 C 151.879 186.306,152.830 186.577,152.891 186.515 C 153.480 185.926,150.402 184.685,145.901 183.698 L 145.356 183.579 145.479 181.716 L 145.601 179.853 145.034 179.406 C 143.429 178.144,142.032 179.275,142.069 181.805 L 142.093 183.405 141.567 183.344 C 141.043 183.283,141.041 183.276,140.983 181.281 C 140.733 172.736,148.308 166.513,153.324 171.144 C 154.334 172.077,154.350 172.336,153.553 174.775 C 153.223 175.787,153.003 176.696,153.065 176.796 C 153.367 177.285,153.749 176.843,154.247 175.425 C 157.068 167.400,163.235 163.461,168.829 166.110 C 176.029 169.521,175.708 180.771,168.265 185.897 C 166.467 187.135,167.133 187.456,169.206 186.350 C 175.577 182.955,177.246 172.209,172.187 167.153 C 167.425 162.392,160.354 163.436,156.056 169.533 C 154.871 171.215,155.053 171.167,153.635 170.174 C 150.639 168.075,148.045 168.065,144.990 170.139 C 141.539 172.483,139.349 177.752,140.117 181.863 C 140.391 183.328,140.271 183.496,138.816 183.678 C 136.936 183.913,134.504 184.906,132.583 186.223 C 132.115 186.544,131.732 186.732,131.732 186.641 C 131.732 185.056,134.173 174.156,135.360 170.444 C 136.470 166.971,136.459 166.946,134.065 167.353 C 130.187 168.012,128.450 169.088,129.460 170.204 C 129.874 170.661,130.832 170.714,130.652 170.270 C 130.585 170.105,130.481 169.849,130.421 169.700 C 130.321 169.454,134.144 167.965,134.872 167.967 C 135.025 167.968,134.868 168.683,134.426 169.994 C 134.051 171.108,133.368 173.518,132.908 175.349 C 132.449 177.180,131.956 178.805,131.815 178.959 C 130.984 179.863,121.491 172.275,120.942 170.270 C 120.271 167.817,122.910 160.578,125.311 158.288 C 128.962 154.806,156.327 144.851,173.574 140.732 C 175.060 140.377,176.362 140.009,176.466 139.913 C 178.241 138.294,164.085 141.902,150.250 146.596 C 146.727 147.791,143.555 148.845,143.202 148.936 L 142.560 149.103 143.168 147.898 C 143.941 146.367,144.376 144.290,144.302 142.481 L 144.244 141.066 147.247 140.037 C 154.181 137.659,161.762 133.464,161.762 132.005 C 161.762 131.522,161.284 131.709,159.862 132.746 C 149.985 139.946,128.020 145.404,117.623 143.240 C 110.970 141.856,108.986 140.351,109.051 136.737 C 109.204 128.136,118.420 117.048,130.488 110.944 C 141.076 105.588,154.564 103.024,166.466 104.104 M283.130 114.865 C 281.631 116.782,274.553 127.179,273.408 129.147 C 272.499 130.708,272.635 130.947,275.632 133.033 C 277.394 134.259,277.393 134.247,275.705 134.404 C 271.908 134.757,264.003 138.936,265.445 139.827 C 265.544 139.888,266.422 139.435,267.397 138.820 C 274.731 134.193,280.100 134.253,285.653 139.024 C 286.625 139.859,287.087 140.023,287.087 139.535 C 287.087 139.435,286.667 138.951,286.154 138.459 C 284.922 137.278,285.122 136.950,287.928 135.557 C 293.016 133.032,298.914 132.635,305.918 134.345 C 309.895 135.317,310.422 134.919,306.785 133.690 C 303.022 132.419,298.257 131.894,294.960 132.387 L 293.925 132.542 296.412 128.833 C 299.907 123.622,300.217 124.522,293.293 119.789 C 283.723 113.246,284.211 113.483,283.130 114.865 M285.776 115.909 C 287.060 116.792,287.056 116.942,285.691 119.010 C 283.920 121.696,283.767 121.383,288.294 124.335 C 292.170 126.862,291.731 126.905,294.144 123.761 C 295.281 122.279,295.285 122.279,296.765 123.441 C 298.220 124.583,298.318 124.242,295.231 128.772 C 292.462 132.837,292.428 132.876,291.522 133.057 C 290.724 133.217,290.731 133.065,291.582 131.801 C 292.486 130.458,292.614 129.918,292.154 129.380 C 291.655 128.796,281.669 122.322,281.267 122.322 C 280.816 122.322,280.633 122.551,277.570 126.939 C 276.077 129.080,274.779 130.857,274.688 130.890 C 274.410 130.988,273.860 130.315,274.013 130.064 C 274.512 129.248,283.585 115.950,283.836 115.666 C 284.278 115.166,284.789 115.230,285.776 115.909 M289.412 118.333 C 290.060 118.782,291.422 119.705,292.439 120.385 C 294.664 121.874,294.653 121.851,293.752 123.059 C 291.943 125.483,291.562 125.597,289.760 124.250 C 289.116 123.768,288.227 123.192,287.785 122.968 C 287.010 122.577,285.485 121.320,285.485 121.073 C 285.485 120.911,287.182 118.309,287.576 117.868 C 288.003 117.388,288.073 117.406,289.412 118.333 M287.453 118.903 C 285.796 120.207,286.375 122.565,288.284 122.292 C 289.768 122.080,290.128 118.719,288.667 118.719 C 288.587 118.719,288.395 118.670,288.241 118.611 C 288.087 118.552,287.732 118.683,287.453 118.903 M288.849 120.136 C 288.941 120.929,288.280 121.638,287.724 121.341 C 287.230 121.076,287.183 120.768,287.524 120.020 C 287.851 119.301,288.761 119.381,288.849 120.136 M286.737 126.797 C 289.352 128.522,291.491 130.037,291.491 130.163 C 291.491 131.218,289.595 133.528,287.988 134.431 C 287.437 134.740,286.420 135.385,285.726 135.865 C 284.160 136.948,284.483 136.982,281.521 135.423 C 277.627 133.374,275.507 131.858,275.729 131.281 C 275.824 131.034,279.621 125.516,280.632 124.156 C 281.324 123.225,281.322 123.224,286.737 126.797 M91.969 133.044 C 89.729 133.872,87.898 136.864,87.890 139.709 C 87.885 141.603,88.838 142.505,91.302 142.937 C 93.191 143.269,93.264 143.304,93.794 144.144 C 95.460 146.783,100.461 144.918,101.547 141.253 C 102.700 137.362,101.325 134.605,98.045 134.230 C 96.992 134.110,96.717 133.993,96.287 133.483 C 95.658 132.737,93.418 132.509,91.969 133.044 M95.559 134.378 C 95.519 134.971,95.524 134.973,97.879 135.236 C 100.189 135.495,100.807 136.237,100.788 138.730 C 100.757 142.649,97.909 145.374,95.303 143.976 C 94.390 143.487,94.343 143.232,95.094 142.844 C 95.645 142.558,95.711 142.434,95.657 141.781 C 95.570 140.737,94.568 140.595,93.902 141.530 C 93.198 142.518,90.733 142.224,89.516 141.007 C 88.040 139.532,89.621 135.429,92.192 134.061 C 93.293 133.475,95.605 133.693,95.559 134.378 M162.518 150.349 C 161.409 150.683,159.964 152.297,159.961 153.203 C 159.960 153.685,160.701 153.657,160.856 153.169 C 162.052 149.400,169.856 151.480,174.022 156.679 C 175.102 158.027,175.841 158.448,175.299 157.407 C 172.912 152.817,166.351 149.194,162.518 150.349 M147.352 155.274 C 145.246 155.844,143.002 157.573,141.919 159.459 C 140.942 161.163,141.377 161.898,142.447 160.353 C 144.836 156.906,148.477 155.250,150.890 156.514 C 151.793 156.987,152.120 156.845,151.745 156.143 C 151.263 155.243,149.070 154.809,147.352 155.274 M212.385 166.140 C 208.980 168.300,200.279 179.131,201.281 179.963 C 201.493 180.139,201.917 179.691,203.303 177.830 C 205.735 174.567,206.143 174.311,207.548 175.167 C 210.538 176.991,208.277 181.345,203.554 182.858 C 202.741 183.118,203.163 183.644,204.083 183.517 C 207.892 182.995,210.910 179.118,209.721 176.273 C 209.467 175.666,209.420 175.177,209.523 174.218 C 209.657 172.964,209.655 172.958,208.950 172.328 L 208.242 171.695 209.376 170.403 C 210.696 168.898,212.911 166.967,213.316 166.967 C 213.522 166.967,213.611 167.323,213.655 168.318 C 213.750 170.507,214.490 170.329,214.573 168.096 C 214.668 165.580,214.087 165.061,212.385 166.140 M154.856 178.864 C 152.890 180.948,153.727 185.626,156.066 185.626 C 157.076 185.626,157.773 185.050,158.192 183.868 C 159.452 180.318,156.981 176.611,154.856 178.864 M99.204 179.114 C 99.524 180.101,100.053 180.543,101.208 180.782 C 102.623 181.076,102.870 181.385,102.430 182.309 C 102.101 182.998,102.070 183.013,101.246 182.872 C 100.781 182.792,99.215 182.732,97.767 182.738 L 95.134 182.750 95.946 181.315 C 97.570 178.444,97.650 178.348,98.358 178.416 C 98.878 178.467,99.038 178.599,99.204 179.114 M106.419 180.790 C 107.403 181.125,110.175 182.025,112.578 182.790 C 114.981 183.554,117.021 184.225,117.110 184.280 C 117.239 184.359,116.426 187.508,116.215 187.748 C 116.186 187.781,115.589 187.437,114.888 186.983 C 113.275 185.938,111.057 184.865,109.341 184.301 C 108.402 183.992,108.031 183.777,108.087 183.573 C 108.318 182.722,108.192 182.475,107.307 182.035 C 105.969 181.371,105.102 181.491,104.805 182.382 C 104.601 182.993,104.477 183.091,103.837 183.145 C 102.959 183.220,102.923 183.046,103.529 181.657 C 104.281 179.932,104.079 179.993,106.419 180.790 M107.057 182.835 C 107.747 183.379,106.825 183.847,105.822 183.462 C 105.505 183.340,105.391 182.764,105.635 182.519 C 105.794 182.361,106.714 182.565,107.057 182.835 M98.562 183.755 C 98.871 183.877,98.690 184.149,97.361 185.561 L 95.796 187.222 92.333 187.075 L 88.871 186.927 89.402 186.373 C 91.042 184.661,96.734 183.035,98.562 183.755 M106.780 184.766 L 107.353 184.992 106.828 185.639 C 102.547 190.911,99.704 197.967,98.904 205.301 C 98.649 207.648,98.579 207.755,97.515 207.436 C 96.405 207.104,95.896 206.391,95.896 205.170 C 95.896 202.054,96.835 197.106,97.527 196.578 C 97.872 196.315,97.906 196.186,97.724 195.846 C 97.236 194.933,101.131 187.787,103.386 185.459 C 104.567 184.240,105.148 184.121,106.780 184.766 M180.781 185.407 C 179.323 185.839,179.082 186.906,180.517 186.573 C 182.335 186.151,182.507 186.446,181.874 188.897 C 180.099 195.773,171.684 202.910,164.612 203.539 C 163.192 203.665,162.352 203.950,162.723 204.180 C 162.841 204.253,163.906 204.230,165.088 204.130 C 166.618 204.000,167.877 204.021,169.455 204.202 C 175.675 204.917,179.817 203.870,183.359 200.685 C 186.410 197.941,185.901 194.033,182.420 193.476 C 181.469 193.324,181.427 193.187,181.956 191.953 C 182.444 190.815,182.983 188.425,182.983 187.402 C 182.983 186.181,184.823 186.127,185.811 187.318 C 186.096 187.661,186.386 187.665,186.386 187.325 C 186.386 186.111,182.681 184.844,180.781 185.407 M123.227 186.273 C 124.520 187.968,124.844 190.097,124.119 192.134 C 123.392 194.177,118.852 191.950,117.189 188.734 C 116.546 187.490,117.410 186.195,118.563 186.676 C 119.795 187.191,120.366 187.086,121.163 186.198 C 121.996 185.270,122.475 185.287,123.227 186.273 M114.513 187.987 C 116.104 189.067,116.101 188.943,114.571 190.960 C 111.125 195.502,106.907 205.524,106.907 209.171 C 106.907 209.845,106.433 210.068,105.673 209.751 C 105.306 209.598,104.536 209.360,103.964 209.223 C 102.386 208.845,102.390 208.869,103.392 205.386 C 105.698 197.368,107.628 193.330,111.434 188.561 C 112.730 186.936,112.915 186.901,114.513 187.987 M94.818 188.141 C 94.967 188.240,94.717 188.851,94.062 189.990 C 93.524 190.926,92.814 192.412,92.484 193.293 C 91.539 195.816,91.899 195.630,88.738 195.224 C 87.719 195.094,85.765 194.930,84.396 194.860 C 81.394 194.708,81.354 194.691,81.685 193.667 C 82.547 191.004,84.657 189.125,87.709 188.305 C 88.854 187.997,94.405 187.869,94.818 188.141 M122.219 193.701 L 123.278 194.009 122.370 195.353 C 121.317 196.913,120.318 199.010,119.746 200.863 C 119.390 202.014,119.226 202.801,118.807 205.355 C 118.712 205.936,118.630 206.006,118.040 206.006 L 117.379 206.006 117.395 208.158 C 117.423 211.781,116.527 213.644,114.293 214.605 C 113.057 215.136,112.799 215.059,112.526 214.075 C 111.487 210.332,115.129 199.796,119.451 194.044 C 120.019 193.288,120.565 193.221,122.219 193.701 M128.125 199.800 C 128.260 200.295,128.500 200.952,128.659 201.259 C 128.918 201.761,128.905 201.945,128.532 203.061 C 128.304 203.745,127.997 205.005,127.850 205.861 C 127.703 206.718,127.533 207.469,127.471 207.531 C 127.243 207.759,124.700 207.351,124.292 207.021 L 123.876 206.684 124.607 203.760 C 125.387 200.645,126.195 198.127,126.939 196.496 L 127.396 195.495 127.638 197.197 C 127.771 198.133,127.990 199.304,128.125 199.800 M88.662 196.190 C 91.450 196.513,91.440 196.503,90.861 198.627 C 90.601 199.581,90.421 201.039,90.349 202.765 C 90.213 205.999,90.172 206.066,88.420 205.889 C 86.786 205.725,85.045 206.066,82.653 207.019 C 78.432 208.700,77.203 208.096,76.662 204.073 C 76.185 200.527,77.786 197.061,80.341 196.110 C 81.262 195.767,85.356 195.806,88.662 196.190 M187.838 205.455 C 189.474 207.509,191.265 211.081,194.574 218.885 C 197.082 224.801,197.088 224.413,194.494 224.424 C 192.764 224.432,190.020 225.051,187.502 226.001 C 184.402 227.171,184.943 227.645,183.076 222.122 C 181.353 217.024,180.590 215.015,180.375 215.015 C 179.782 215.015,179.987 215.879,182.088 222.257 C 183.924 227.832,184.275 229.526,184.069 231.832 C 183.957 233.090,182.317 240.372,182.097 240.593 C 182.058 240.631,181.360 240.210,180.545 239.657 C 177.043 237.282,174.451 237.603,172.476 240.657 C 171.072 242.827,170.659 242.883,168.076 241.248 C 166.203 240.063,165.910 240.034,164.378 240.882 L 163.219 241.525 161.869 240.645 C 157.709 237.935,154.151 234.304,151.865 230.435 C 150.313 227.807,150.226 228.070,153.818 224.538 C 157.986 220.439,160.980 216.185,161.663 213.390 C 161.983 212.085,161.167 212.583,160.404 214.159 C 159.995 215.005,159.416 215.874,159.118 216.089 L 158.576 216.481 153.813 214.952 C 151.193 214.111,148.013 213.143,146.747 212.800 C 143.837 212.012,143.804 211.982,144.102 210.379 C 144.427 208.633,144.691 208.413,145.900 208.881 C 151.090 210.887,153.090 211.280,158.058 211.272 C 167.018 211.258,176.878 209.128,184.238 205.617 C 186.804 204.392,186.985 204.384,187.838 205.455 M93.894 207.411 C 94.940 207.623,96.282 207.962,96.876 208.164 L 97.956 208.532 96.646 209.467 C 92.576 212.371,91.723 217.138,94.598 220.907 C 95.931 222.655,98.196 223.465,101.850 223.500 C 104.623 223.526,104.584 223.546,104.786 222.025 C 104.925 220.976,105.863 218.068,106.393 217.043 C 106.938 215.989,107.789 215.748,110.405 215.909 C 111.798 215.995,112.973 215.963,113.590 215.823 C 114.128 215.702,114.606 215.640,114.653 215.687 C 114.770 215.804,111.317 228.284,111.107 228.504 C 110.987 228.631,89.742 221.651,81.939 218.922 C 81.778 218.866,82.136 217.912,83.008 216.075 C 83.729 214.556,84.904 211.962,85.620 210.310 C 86.336 208.659,87.025 207.183,87.151 207.030 C 87.458 206.661,91.252 206.874,93.894 207.411 M135.931 207.485 C 138.053 208.243,138.254 208.430,138.057 209.477 C 137.948 210.059,137.829 210.210,137.478 210.207 C 136.973 210.203,134.291 209.530,133.957 209.323 C 133.648 209.132,133.693 206.805,134.005 206.807 C 134.021 206.807,134.888 207.112,135.931 207.485 M85.851 207.265 C 86.070 207.529,81.596 217.579,80.984 218.198 C 80.348 218.841,77.678 217.598,77.678 216.659 C 77.678 216.112,81.052 209.144,81.541 208.681 C 82.234 208.025,85.571 206.928,85.851 207.265 M120.921 207.403 C 121.202 207.477,121.446 207.704,121.478 207.921 C 121.533 208.292,116.431 230.083,116.203 230.452 C 116.025 230.740,115.747 230.672,113.885 229.885 C 111.729 228.974,111.803 229.182,112.644 226.410 C 113.025 225.153,113.875 222.105,114.532 219.638 C 115.601 215.621,115.798 215.073,116.413 214.392 C 117.728 212.937,118.318 211.111,118.318 208.505 C 118.318 206.914,118.600 206.795,120.921 207.403 M98.923 211.379 C 100.719 212.556,105.209 215.898,105.391 216.193 C 105.463 216.310,105.253 217.212,104.922 218.198 C 104.592 219.183,104.261 220.469,104.186 221.056 C 103.945 222.952,103.654 223.040,99.705 222.404 C 94.021 221.488,91.956 215.360,95.951 211.261 C 96.992 210.193,97.123 210.199,98.923 211.379 M147.463 225.405 C 148.219 225.748,149.149 226.655,149.149 227.049 C 149.149 227.142,148.693 227.693,148.135 228.274 C 146.115 230.376,144.310 233.618,143.709 236.224 C 143.427 237.443,143.351 237.458,142.555 236.452 C 138.890 231.824,142.702 223.242,147.463 225.405 M150.746 230.180 C 153.206 234.875,157.435 239.144,162.152 241.695 L 162.805 242.048 162.436 242.595 C 159.792 246.522,160.049 249.737,163.209 252.250 C 164.698 253.435,164.940 253.918,165.587 257.014 C 166.376 260.788,166.505 260.338,163.896 262.919 C 160.971 265.813,160.619 266.827,161.659 269.357 C 162.254 270.803,162.182 270.925,160.411 271.472 C 157.487 272.375,155.180 272.721,152.903 272.598 C 151.108 272.501,150.751 272.530,150.751 272.770 C 150.751 273.250,151.412 273.456,153.380 273.588 C 155.186 273.708,155.576 273.660,158.709 272.931 C 159.418 272.766,159.266 273.377,158.509 273.736 C 157.448 274.238,154.792 274.870,152.703 275.118 C 151.086 275.309,150.751 275.408,150.751 275.691 C 150.751 277.239,158.691 275.265,161.946 272.907 C 163.041 272.114,163.207 272.117,164.956 272.955 C 167.238 274.049,169.283 274.077,171.488 273.043 L 172.305 272.660 174.591 274.196 C 184.674 280.973,187.397 291.968,180.498 298.041 C 174.374 303.432,162.820 305.417,151.782 302.976 C 132.050 298.612,116.637 278.555,122.715 265.150 C 126.154 257.566,135.258 254.267,142.551 257.962 C 144.370 258.884,144.276 259.068,141.466 260.080 C 140.744 260.340,140.354 260.742,140.593 260.980 C 140.649 261.036,142.034 260.714,143.671 260.263 C 148.369 258.970,148.738 258.974,148.746 260.325 C 148.748 260.756,148.832 260.874,149.099 260.820 C 149.848 260.671,149.258 254.753,148.329 253.089 C 145.418 247.878,144.523 245.673,144.134 242.754 C 143.546 238.331,145.338 232.824,148.465 229.446 C 149.836 227.966,149.535 227.869,150.746 230.180 M197.881 228.691 C 198.416 229.083,198.146 232.239,197.514 232.973 L 197.080 233.477 195.487 232.974 C 193.793 232.439,190.611 232.052,187.287 231.977 C 185.178 231.930,184.667 231.596,185.383 230.733 C 185.742 230.301,192.023 228.997,195.395 228.655 C 196.331 228.559,197.192 228.470,197.309 228.455 C 197.426 228.440,197.683 228.547,197.881 228.691 M190.394 236.738 C 197.271 238.109,196.953 237.949,196.513 239.835 C 196.136 241.453,196.397 241.386,193.351 240.639 C 184.962 238.579,183.081 237.575,184.437 235.882 C 184.672 235.588,184.497 235.563,190.394 236.738 M141.355 236.547 C 142.622 237.194,143.032 238.255,143.161 241.224 C 143.338 245.269,144.036 247.400,146.418 251.151 C 147.682 253.142,148.024 254.086,148.353 256.491 C 148.621 258.447,148.615 258.454,146.734 258.497 C 145.289 258.530,145.203 258.505,143.798 257.622 C 139.501 254.921,134.010 254.744,128.827 257.139 C 127.971 257.534,127.197 257.858,127.107 257.858 C 126.632 257.858,127.481 250.146,128.248 247.495 C 130.430 239.956,137.107 234.378,141.355 236.547 M179.005 239.869 C 181.264 241.589,188.396 244.446,191.952 245.055 C 194.914 245.562,195.597 246.005,195.922 247.628 C 196.104 248.537,195.679 248.587,193.122 247.959 C 186.458 246.323,180.198 243.325,176.577 240.036 L 175.676 239.218 177.003 239.286 C 178.052 239.341,178.472 239.463,179.005 239.869 M166.815 241.129 C 169.689 242.629,170.318 244.655,169.645 250.250 C 169.223 253.761,169.343 253.527,168.045 253.393 C 165.604 253.142,162.642 251.021,161.856 248.961 C 160.675 245.869,164.455 239.899,166.815 241.129 M176.814 245.660 C 182.927 249.666,189.244 252.132,195.095 252.794 L 196.496 252.953 196.558 254.146 C 196.681 256.550,196.653 256.561,192.664 255.754 C 185.663 254.336,175.976 249.338,175.976 247.144 C 175.976 245.993,175.331 246.693,174.866 248.348 C 173.829 252.039,173.621 252.069,174.080 248.463 C 174.264 247.019,174.382 245.434,174.343 244.941 C 174.303 244.447,174.289 244.044,174.310 244.044 C 174.331 244.044,175.458 244.771,176.814 245.660 M176.476 253.697 C 180.954 257.245,187.377 259.787,193.340 260.370 C 195.527 260.584,195.624 260.718,194.784 262.379 C 194.405 263.131,193.942 263.836,193.755 263.946 C 192.429 264.734,180.489 261.180,180.294 259.940 C 180.249 259.656,180.097 259.575,179.693 259.619 C 178.653 259.734,173.373 255.760,173.373 254.862 C 173.373 254.327,174.646 252.277,174.875 252.442 C 174.985 252.521,175.706 253.086,176.476 253.697 M169.119 254.416 C 172.066 254.774,172.029 254.749,171.123 255.780 C 169.297 257.860,166.918 257.788,166.189 255.630 C 165.665 254.078,165.651 253.765,166.116 253.952 C 166.309 254.030,167.660 254.238,169.119 254.416 M172.259 260.567 C 173.235 261.287,174.696 262.194,175.505 262.583 C 177.177 263.387,177.197 263.435,176.367 264.665 C 176.033 265.160,175.040 266.755,174.160 268.208 C 171.911 271.922,170.915 272.673,168.231 272.673 C 165.914 272.673,163.865 271.447,162.858 269.461 C 161.468 266.716,162.183 265.389,167.237 261.336 C 170.299 258.880,170.026 258.922,172.259 260.567 M181.281 264.812 C 182.713 265.278,184.405 265.758,185.042 265.879 L 186.200 266.097 185.563 266.823 C 185.213 267.221,184.360 268.424,183.667 269.495 C 182.002 272.069,181.192 272.932,179.928 273.480 C 176.996 274.751,172.425 273.206,173.495 271.305 C 174.542 269.446,177.856 264.148,178.055 264.014 C 178.326 263.832,178.112 263.780,181.281 264.812 M189.833 266.495 C 192.318 266.770,192.147 266.628,191.475 267.862 C 190.085 270.416,185.940 273.342,183.330 273.611 C 182.252 273.722,181.818 273.522,182.381 273.174 C 182.490 273.107,183.446 271.728,184.506 270.109 C 186.574 266.951,187.110 266.266,187.515 266.266 C 187.657 266.266,188.700 266.369,189.833 266.495 M113.714 343.517 L 113.714 353.101 112.335 351.747 C 108.601 348.079,101.902 346.893,96.467 348.937 C 82.159 354.321,82.159 383.017,96.467 388.400 C 101.902 390.445,108.601 389.259,112.335 385.591 L 113.714 384.236 113.714 386.312 L 113.714 388.388 117.417 388.388 L 121.121 388.388 121.121 361.161 L 121.121 333.934 117.417 333.934 L 113.714 333.934 113.714 343.517 M132.933 338.539 L 132.933 343.143 136.637 343.143 L 140.340 343.143 140.340 338.539 L 140.340 333.934 136.637 333.934 L 132.933 333.934 132.933 338.539 M120.120 361.167 L 120.120 387.399 117.467 387.343 L 114.815 387.287 114.715 383.918 L 114.615 380.549 113.824 381.916 C 108.952 390.340,96.451 390.549,90.605 382.305 C 85.553 375.181,85.544 362.116,90.586 355.050 C 96.483 346.787,108.941 346.985,113.824 355.420 L 114.615 356.786 114.666 345.860 L 114.718 334.935 117.419 334.935 L 120.120 334.935 120.120 361.167 M139.294 338.488 L 139.239 342.042 136.637 342.042 L 134.034 342.042 133.979 338.488 L 133.925 334.935 136.637 334.935 L 139.349 334.935 139.294 338.488 M332.827 335.329 C 319.413 337.242,312.061 351.432,314.803 370.114 C 317.033 385.307,326.926 392.576,339.640 388.364 C 353.301 383.838,354.974 361.783,342.142 355.362 C 336.131 352.353,328.141 353.093,323.768 357.062 L 322.511 358.202 322.630 357.329 C 324.477 343.775,332.721 338.900,345.089 344.049 C 346.056 344.451,347.005 344.828,347.197 344.886 C 347.522 344.984,347.548 344.717,347.548 341.174 L 347.548 337.356 345.674 336.756 C 341.577 335.444,336.208 334.847,332.827 335.329 M190.791 362.262 L 190.791 388.388 197.998 388.388 L 205.205 388.388 205.205 362.262 L 205.205 336.136 197.998 336.136 L 190.791 336.136 190.791 362.262 M210.611 341.742 L 210.611 347.347 219.119 347.347 L 227.628 347.347 227.628 367.868 L 227.628 388.388 234.835 388.388 L 242.042 388.388 242.042 367.868 L 242.042 347.347 250.551 347.347 L 259.059 347.347 259.059 341.742 L 259.059 336.136 234.835 336.136 L 210.611 336.136 210.611 341.742 M278.679 337.416 L 272.573 338.656 272.518 342.401 C 272.474 345.438,272.515 346.146,272.734 346.146 C 272.959 346.146,283.231 344.126,284.334 343.864 C 284.666 343.786,284.685 344.778,284.685 362.581 L 284.685 381.381 279.079 381.381 L 273.473 381.381 273.473 384.885 L 273.473 388.388 288.789 388.388 L 304.104 388.388 304.104 384.885 L 304.104 381.381 298.398 381.381 L 292.693 381.381 292.693 358.759 L 292.693 336.136 288.739 336.156 L 284.785 336.177 278.679 337.416 M341.385 336.747 C 342.455 336.964,343.986 337.347,344.788 337.598 L 346.246 338.055 346.302 340.672 L 346.358 343.289 344.100 342.522 C 330.684 337.965,322.422 344.148,321.400 359.510 C 321.244 361.869,321.263 361.899,322.113 360.575 C 328.422 350.743,344.957 353.346,348.737 364.766 C 352.285 375.484,346.920 386.051,336.937 388.009 C 323.561 390.632,315.442 380.984,315.441 362.462 C 315.441 343.871,325.819 333.583,341.385 336.747 M204.004 362.262 L 204.004 387.387 197.898 387.387 L 191.792 387.387 191.792 362.262 L 191.792 337.137 197.898 337.137 L 204.004 337.137 204.004 362.262 M291.692 359.757 L 291.692 382.376 297.347 382.429 L 303.003 382.482 303.003 384.885 L 303.003 387.287 288.739 387.339 L 274.474 387.390 274.474 384.886 L 274.474 382.382 280.180 382.382 L 285.886 382.382 285.886 362.462 C 285.886 346.240,285.838 342.543,285.625 342.543 C 285.392 342.543,275.028 344.582,273.924 344.845 C 273.474 344.953,273.473 344.951,273.473 342.246 C 273.473 340.757,273.541 339.537,273.624 339.533 C 273.706 339.530,276.341 338.997,279.479 338.350 C 285.010 337.210,285.285 337.173,288.438 337.156 L 291.692 337.137 291.692 359.757 M257.858 341.842 L 257.858 346.346 249.449 346.346 L 241.041 346.346 241.041 366.867 L 241.041 387.387 234.835 387.387 L 228.629 387.387 228.629 366.867 L 228.629 346.346 220.220 346.346 L 211.812 346.346 211.812 341.842 L 211.812 337.337 234.835 337.337 L 257.858 337.337 257.858 341.842 M162.987 348.160 C 154.737 349.634,149.682 357.236,149.685 368.168 C 149.686 375.579,151.571 380.731,155.685 384.573 C 161.196 389.720,170.860 389.759,176.152 384.655 L 177.636 383.224 177.518 385.296 C 177.072 393.170,172.910 396.892,164.965 396.522 C 162.002 396.384,159.360 395.714,156.613 394.401 C 155.453 393.847,154.425 393.393,154.329 393.393 C 154.233 393.393,154.154 395.050,154.154 397.075 L 154.154 400.757 154.905 401.056 C 164.652 404.937,177.154 403.003,181.445 396.950 C 184.869 392.120,184.985 391.161,184.985 367.592 L 184.985 348.949 181.281 348.949 L 177.578 348.949 177.578 351.025 L 177.578 353.101 176.199 351.747 C 173.197 348.798,167.729 347.313,162.987 348.160 M132.933 368.669 L 132.933 388.388 136.637 388.388 L 140.340 388.388 140.340 368.669 L 140.340 348.949 136.637 348.949 L 132.933 348.949 132.933 368.669 M169.896 349.457 C 173.067 350.263,176.004 352.511,177.688 355.421 L 178.478 356.787 178.533 353.368 L 178.588 349.950 181.295 349.950 L 184.001 349.950 183.932 368.819 C 183.855 389.860,183.907 389.034,182.409 392.893 C 179.220 401.114,169.388 404.078,156.907 400.579 L 155.355 400.145 155.355 397.545 C 155.355 395.493,155.408 394.988,155.606 395.146 C 157.028 396.282,162.460 397.598,165.730 397.598 C 174.659 397.598,178.302 393.634,178.519 383.684 L 178.610 379.479 177.604 381.096 C 172.357 389.533,159.819 389.571,154.132 381.168 C 149.548 374.394,149.522 362.074,154.077 355.330 C 157.557 350.176,163.721 347.888,169.896 349.457 M139.339 368.674 L 139.339 387.399 136.687 387.343 L 134.034 387.287 133.983 368.619 L 133.932 349.950 136.636 349.950 L 139.339 349.950 139.339 368.674 M101.401 353.561 C 95.621 354.746,92.492 360.037,92.492 368.628 C 92.492 377.901,96.109 383.366,102.608 383.916 C 110.001 384.542,114.713 378.607,114.713 368.669 C 114.713 358.212,109.206 351.962,101.401 353.561 M164.817 353.643 C 159.233 354.916,156.485 359.664,156.469 368.068 C 156.450 377.923,160.148 382.983,167.371 382.983 C 174.625 382.983,178.462 377.860,178.470 368.168 C 178.478 357.548,173.044 351.767,164.817 353.643 M105.562 354.649 C 112.066 356.027,115.548 365.633,112.905 374.909 C 110.000 385.103,97.772 385.769,94.535 375.909 C 90.649 364.070,96.528 352.735,105.562 354.649 M169.165 354.568 C 174.441 355.424,177.582 360.577,177.576 368.363 C 177.569 377.931,172.419 383.363,164.964 381.668 C 159.978 380.534,157.450 375.944,157.475 368.068 C 157.505 358.427,161.871 353.385,169.165 354.568 M330.151 359.476 C 323.937 361.147,320.779 369.488,323.518 376.995 C 326.862 386.158,339.724 386.036,342.844 376.812 C 346.359 366.423,339.443 356.977,330.151 359.476 M335.518 360.469 C 344.066 362.484,345.336 378.037,337.259 381.798 C 329.149 385.575,321.883 377.995,324.004 367.968 C 325.215 362.242,329.952 359.157,335.518 360.469 " stroke="none" fill="#070c0d" fill-rule="evenodd"></path><path id="path2" d="M206.746 57.027 L 205.584 57.157 207.227 59.760 C 209.806 63.846,209.621 63.663,211.185 63.667 C 213.716 63.674,216.337 64.494,218.191 65.858 C 219.531 66.845,218.974 67.084,217.387 66.203 C 212.824 63.669,207.962 64.520,203.000 68.721 C 200.993 70.420,200.850 71.671,202.662 71.672 C 203.442 71.672,207.803 74.176,207.806 74.625 C 207.809 75.003,207.617 74.948,205.582 73.990 C 199.867 71.299,194.551 70.884,188.962 72.691 C 186.916 73.352,183.639 75.060,182.985 75.805 C 182.295 76.590,181.782 76.682,181.782 76.021 C 181.782 75.059,183.599 73.658,186.624 72.286 C 188.377 71.491,188.372 71.657,186.725 69.219 C 184.966 66.616,184.954 66.610,183.823 67.812 C 181.512 70.270,180.581 72.078,180.581 74.110 C 180.581 75.539,180.194 75.356,178.746 73.242 C 176.133 69.427,170.816 66.214,165.234 65.078 C 151.888 62.363,134.465 71.969,131.308 83.784 C 130.658 86.215,130.650 90.284,131.292 91.371 C 132.006 92.579,131.587 92.706,130.090 91.734 C 124.002 87.781,118.257 87.486,111.612 90.785 C 102.155 95.479,96.709 103.562,95.683 114.424 C 94.906 122.654,98.571 127.000,107.037 127.887 C 110.124 128.210,110.238 128.167,111.470 126.219 C 122.970 108.032,151.051 98.595,176.079 104.504 C 195.368 109.059,210.401 120.853,217.034 136.637 L 217.792 138.438 228.017 138.611 C 239.519 138.805,238.692 138.913,239.051 137.172 C 240.760 128.867,247.197 123.641,255.721 123.640 L 258.689 123.639 258.579 123.131 C 256.593 114.008,259.174 108.090,267.237 103.282 C 269.486 101.941,272.966 100.434,274.598 100.095 C 276.321 99.737,276.390 99.628,275.999 97.881 C 273.047 84.704,258.179 81.011,246.888 90.650 C 245.734 91.636,245.096 91.617,245.633 90.614 C 246.111 89.721,244.745 84.165,242.945 79.680 C 240.564 73.749,236.143 67.227,232.411 64.142 C 226.113 58.936,215.638 56.032,206.746 57.027 M195.469 61.045 C 193.157 62.455,194.053 66.266,196.697 66.266 C 199.139 66.266,200.332 64.023,198.894 62.138 C 197.815 60.723,196.621 60.342,195.469 61.045 M197.312 63.149 C 197.531 64.024,197.243 64.495,196.529 64.426 C 195.970 64.372,195.888 64.285,195.831 63.685 C 195.730 62.626,197.059 62.144,197.312 63.149 M152.516 72.078 C 152.953 72.345,153.354 72.862,153.688 73.592 C 154.034 74.349,154.285 74.667,154.477 74.594 C 157.090 73.591,159.890 74.473,160.279 76.420 C 160.525 77.648,157.403 79.124,155.773 78.551 C 154.656 78.158,155.112 77.592,156.670 77.436 C 159.049 77.199,159.741 76.664,158.786 75.801 C 157.690 74.809,155.702 74.948,154.447 76.104 C 153.128 77.321,152.677 77.098,152.880 75.332 C 152.971 74.542,152.908 74.255,152.521 73.694 C 150.685 71.030,148.480 74.829,149.744 78.478 C 150.135 79.609,150.056 79.969,149.442 79.849 C 148.215 79.608,147.699 76.281,148.541 74.036 C 149.339 71.909,150.943 71.119,152.516 72.078 M136.507 83.768 C 137.451 84.257,139.497 86.687,138.963 86.687 C 138.859 86.687,138.227 86.230,137.559 85.671 C 135.717 84.133,134.804 84.654,134.586 87.368 C 134.444 89.140,136.060 90.195,137.231 89.095 C 137.940 88.429,138.482 88.645,138.814 89.729 C 138.900 90.010,139.029 90.036,139.570 89.881 C 140.567 89.595,140.830 89.205,140.941 87.847 C 141.096 85.946,141.975 86.233,141.975 88.184 C 141.975 90.278,139.935 91.691,138.211 90.792 C 137.896 90.628,137.207 90.492,136.680 90.492 C 134.652 90.489,133.534 89.527,133.534 87.786 C 133.534 85.732,134.616 83.767,135.896 83.496 C 135.929 83.489,136.204 83.612,136.507 83.768 M161.361 90.894 C 161.609 91.056,161.573 91.115,161.162 91.227 C 158.976 91.824,155.810 94.249,154.886 96.036 C 154.513 96.757,154.521 96.767,155.756 97.097 C 156.962 97.420,160.369 99.088,160.495 99.418 C 160.731 100.032,160.275 100.019,158.773 99.370 C 151.540 96.242,144.344 97.358,138.823 102.464 C 137.617 103.579,136.736 103.627,137.314 102.546 C 138.925 99.535,145.198 96.676,150.501 96.536 L 153.755 96.449 154.403 95.222 C 155.868 92.448,159.904 89.937,161.361 90.894 M218.919 92.602 C 221.890 92.952,231.054 94.142,234.334 94.604 C 243.737 95.929,243.594 95.818,242.557 100.971 C 241.635 105.552,241.512 105.041,243.798 106.150 C 245.655 107.050,249.249 109.670,249.249 110.123 C 249.249 110.666,248.534 110.440,247.113 109.448 C 241.920 105.826,235.769 104.600,229.835 106.004 C 226.524 106.789,226.299 107.021,227.340 108.588 C 228.360 110.125,229.711 113.674,229.413 114.034 C 229.076 114.440,228.909 114.254,228.026 112.485 C 224.015 104.447,213.548 99.999,206.436 103.310 C 205.122 103.922,204.805 103.927,204.805 103.335 C 204.805 102.280,210.296 100.812,212.903 101.169 C 214.072 101.329,214.204 101.124,214.422 98.823 C 214.521 97.777,214.694 96.352,214.807 95.657 C 214.920 94.963,215.013 93.981,215.014 93.477 C 215.016 92.096,214.879 92.127,218.919 92.602 M222.700 95.045 C 222.622 95.458,222.551 96.732,222.541 97.875 L 222.523 99.954 223.306 100.228 C 224.292 100.573,224.339 100.517,223.813 99.626 C 223.236 98.649,223.080 96.826,223.490 95.845 C 224.049 94.507,227.182 94.947,227.550 96.417 C 227.756 97.237,227.280 98.915,226.599 99.763 C 226.262 100.183,226.040 100.581,226.106 100.648 C 226.422 100.963,233.696 101.525,233.967 101.254 C 234.297 100.924,235.085 96.266,234.851 96.032 C 234.683 95.864,224.399 94.311,223.382 94.300 C 222.914 94.295,222.822 94.395,222.700 95.045 M304.038 98.415 C 300.183 99.215,297.413 100.481,295.443 102.343 C 294.538 103.198,294.574 103.317,296.112 104.560 C 297.315 105.533,299.964 108.816,299.842 109.183 C 299.680 109.670,299.311 109.426,298.244 108.130 C 296.879 106.471,294.041 104.047,292.144 102.920 C 280.365 95.922,260.757 103.716,259.066 116.068 C 258.432 120.694,260.188 125.350,262.940 126.345 C 263.820 126.663,263.855 126.853,263.068 127.026 C 262.257 127.204,261.738 127.015,260.550 126.109 C 254.701 121.649,243.613 126.691,240.748 135.114 C 237.745 143.942,242.489 150.714,252.252 151.540 C 262.955 152.446,334.885 152.226,339.174 151.275 C 344.028 150.198,346.535 146.547,347.190 139.600 C 348.452 126.204,336.668 116.422,324.325 120.620 C 322.771 121.149,322.122 121.242,322.122 120.935 C 322.122 120.744,325.108 119.520,325.575 119.520 C 327.952 119.520,326.837 110.654,323.907 106.261 C 319.436 99.559,312.236 96.715,304.038 98.415 M157.257 104.023 C 137.953 105.500,123.015 112.643,114.055 124.682 C 108.945 131.549,107.522 138.512,110.781 140.708 C 113.963 142.852,120.112 143.987,126.126 143.540 C 138.237 142.640,152.592 137.991,160.050 132.555 C 160.808 132.002,161.503 131.596,161.595 131.652 C 163.261 132.682,154.925 137.547,146.847 140.258 L 144.244 141.132 144.310 142.788 C 144.385 144.675,144.146 145.943,143.403 147.602 C 142.715 149.136,142.651 149.129,146.174 147.878 C 158.978 143.330,175.822 138.704,176.631 139.514 C 177.012 139.894,176.606 140.065,173.523 140.818 C 160.038 144.114,142.917 149.928,129.832 155.655 C 124.968 157.783,123.888 159.023,121.986 164.665 C 120.345 169.529,120.405 170.280,122.614 172.456 C 125.267 175.071,130.624 178.979,131.554 178.979 C 131.951 178.979,131.892 179.154,133.021 174.640 C 133.412 173.079,134.008 170.975,134.347 169.965 C 135.094 167.735,135.177 167.823,133.036 168.579 C 130.000 169.651,130.224 169.521,130.631 169.971 C 131.056 170.440,130.676 170.701,129.866 170.497 C 127.151 169.816,130.833 167.418,134.835 167.261 C 136.718 167.187,137.210 166.829,138.546 164.565 C 138.968 163.849,139.680 162.825,140.128 162.290 C 140.576 161.755,141.221 160.732,141.562 160.018 C 142.774 157.478,145.688 155.277,148.180 155.020 C 149.816 154.851,151.524 155.390,151.818 156.168 C 152.113 156.951,152.319 156.927,155.205 155.776 C 156.558 155.236,158.316 154.597,159.113 154.355 C 160.572 153.912,161.135 153.554,160.372 153.554 C 159.328 153.554,160.495 151.297,161.909 150.580 C 165.075 148.975,168.766 150.287,172.907 154.487 L 175.544 157.162 178.213 157.878 C 179.680 158.272,181.464 158.764,182.177 158.971 C 183.340 159.309,183.492 159.315,183.648 159.036 C 184.069 158.285,189.269 161.253,193.757 164.807 C 195.539 166.218,195.271 166.261,196.105 164.431 C 200.865 153.987,211.512 150.325,217.910 156.932 C 219.324 158.392,219.291 158.482,219.160 153.504 C 218.866 142.260,215.392 133.036,208.240 124.504 C 197.399 111.570,175.196 102.651,157.257 104.023 M285.130 114.237 C 285.694 114.529,290.377 117.688,296.140 121.664 C 299.893 124.253,299.901 124.016,295.858 129.830 L 294.187 132.232 297.894 132.236 C 302.269 132.241,308.080 133.425,309.193 134.539 C 309.792 135.138,308.868 135.140,306.456 134.547 C 298.407 132.567,291.302 133.196,286.689 136.298 C 285.269 137.253,285.226 137.559,286.370 138.566 C 286.874 139.010,287.287 139.459,287.287 139.563 C 287.287 140.126,286.569 139.852,285.203 138.766 C 279.648 134.351,274.124 134.433,267.199 139.030 C 265.682 140.037,265.614 140.060,265.283 139.661 C 264.384 138.577,271.273 135.077,276.043 134.195 L 276.911 134.034 274.905 132.581 C 272.049 130.513,271.971 131.075,275.939 125.125 C 283.267 114.141,283.776 113.537,285.130 114.237 M287.101 118.629 C 286.763 119.130,286.486 119.611,286.486 119.699 C 286.486 119.786,286.306 120.021,286.086 120.220 C 285.322 120.912,286.160 122.172,287.905 122.953 C 288.347 123.151,289.096 123.630,289.570 124.019 C 291.389 125.509,291.960 125.422,293.373 123.441 C 294.554 121.787,294.602 121.938,292.442 120.491 C 291.424 119.808,290.121 118.905,289.548 118.484 C 288.190 117.486,287.859 117.506,287.101 118.629 M289.305 119.104 C 290.587 120.386,289.115 122.996,287.490 122.323 C 286.116 121.754,285.928 120.611,287.003 119.355 C 287.873 118.339,288.474 118.273,289.305 119.104 M278.517 127.295 C 277.064 129.384,275.876 131.278,275.876 131.504 C 275.876 132.028,278.642 133.875,281.956 135.565 L 284.334 136.778 284.860 136.361 C 285.149 136.132,286.341 135.358,287.510 134.643 C 288.678 133.927,289.729 133.227,289.845 133.087 C 290.370 132.453,291.465 130.296,291.373 130.075 C 291.258 129.797,282.004 123.718,281.491 123.584 C 281.245 123.520,280.465 124.493,278.517 127.295 M92.113 134.261 C 90.114 135.258,88.587 138.328,89.123 140.272 C 89.531 141.748,93.400 142.783,93.800 141.523 C 94.071 140.668,95.281 140.567,95.707 141.362 C 96.004 141.917,95.761 142.508,95.065 142.932 L 94.469 143.294 95.009 143.719 C 97.277 145.503,100.453 142.971,100.659 139.214 C 100.825 136.197,100.161 135.474,96.947 135.170 C 96.093 135.089,95.411 134.936,95.431 134.829 C 95.450 134.722,95.523 134.489,95.592 134.311 C 95.884 133.562,93.582 133.529,92.113 134.261 M162.984 165.682 C 159.063 166.737,155.994 170.428,153.886 176.627 C 153.739 177.058,153.183 177.087,153.023 176.672 C 152.959 176.504,153.187 175.562,153.530 174.580 C 154.327 172.299,154.319 172.167,153.328 171.272 C 149.325 167.656,143.199 170.761,141.432 177.302 C 141.000 178.903,140.813 182.370,141.128 182.958 C 141.626 183.888,142.048 183.401,141.977 181.979 C 141.843 179.303,143.117 178.093,144.914 179.189 L 145.584 179.597 145.515 181.534 L 145.445 183.471 147.548 184.005 C 150.586 184.776,152.953 185.726,152.953 186.174 C 152.953 187.001,158.076 188.190,161.626 188.187 C 164.199 188.184,167.167 187.491,167.167 186.893 C 167.167 186.755,167.793 186.176,168.558 185.607 C 178.188 178.447,173.803 162.773,162.984 165.682 M156.827 178.279 C 160.113 179.848,158.548 187.050,155.248 185.546 C 153.067 184.552,153.368 179.115,155.656 178.169 C 156.192 177.947,156.116 177.940,156.827 178.279 M103.688 181.515 C 103.223 182.552,103.147 182.887,103.346 183.014 C 104.013 183.437,104.548 183.109,104.780 182.135 C 105.100 180.795,108.235 181.689,108.175 183.104 L 108.142 183.892 109.355 184.249 C 110.899 184.704,113.060 185.730,114.671 186.773 C 115.363 187.221,116.000 187.588,116.086 187.588 C 116.250 187.588,117.226 184.415,117.094 184.311 C 117.052 184.277,115.170 183.680,112.913 182.983 C 110.656 182.285,107.836 181.370,106.648 180.948 C 105.459 180.525,104.442 180.180,104.387 180.180 C 104.332 180.180,104.018 180.781,103.688 181.515 M87.255 207.027 C 87.149 207.092,86.541 208.356,85.904 209.834 C 85.268 211.312,84.096 213.902,83.302 215.591 C 82.507 217.279,81.893 218.696,81.937 218.740 C 82.345 219.149,110.915 228.585,111.061 228.359 C 111.239 228.085,114.703 215.741,114.624 215.660 C 114.594 215.629,114.326 215.697,114.029 215.810 C 113.731 215.923,112.162 216.016,110.542 216.016 C 107.243 216.016,106.976 216.102,106.327 217.381 C 105.830 218.359,104.989 221.084,104.817 222.272 C 104.641 223.497,104.381 223.624,102.052 223.624 C 92.350 223.624,89.354 214.795,97.086 208.992 L 97.777 208.474 96.085 208.016 C 93.077 207.202,87.908 206.623,87.255 207.027 M148.754 229.166 C 143.030 235.638,142.643 242.914,147.564 251.552 C 149.146 254.328,149.330 255.020,149.399 258.458 C 149.451 261.021,149.083 262.026,148.728 260.292 C 148.489 259.123,148.431 259.119,144.901 260.056 C 143.108 260.532,141.371 260.931,141.041 260.941 C 139.895 260.979,140.410 260.431,142.191 259.718 C 144.154 258.933,144.167 258.878,142.578 258.077 C 135.335 254.424,126.579 257.418,123.019 264.765 C 118.718 273.643,123.554 285.651,135.199 295.003 C 147.842 305.157,167.395 306.953,179.079 299.032 C 186.171 294.224,185.985 285.855,178.601 277.466 C 177.344 276.038,172.669 272.797,172.080 272.945 C 171.856 273.002,171.131 273.243,170.470 273.480 C 168.655 274.134,166.936 273.987,164.842 273.000 C 163.009 272.136,163.352 272.085,160.978 273.581 C 157.794 275.588,151.411 276.976,150.677 275.820 C 150.346 275.300,150.714 275.148,152.621 275.019 C 154.402 274.898,157.977 274.035,158.730 273.544 C 159.486 273.051,158.963 272.816,157.944 273.192 C 155.845 273.965,150.851 273.750,150.851 272.887 L 150.851 272.405 153.353 272.450 C 155.857 272.494,157.607 272.253,159.860 271.552 C 162.216 270.820,162.297 270.711,161.562 269.269 C 160.398 266.989,161.872 263.844,165.176 261.554 C 166.249 260.810,166.262 260.674,165.573 257.363 C 164.836 253.817,164.771 253.685,162.954 252.066 C 160.105 249.527,159.778 246.647,161.954 243.256 C 162.667 242.145,162.700 241.912,162.172 241.745 C 158.867 240.696,153.152 234.915,150.550 229.989 L 149.606 228.202 148.754 229.166 M137.558 236.553 C 131.635 238.146,127.682 245.262,127.195 255.208 L 127.065 257.863 128.633 257.149 C 134.317 254.559,139.387 254.745,144.109 257.716 C 145.326 258.482,147.461 258.707,148.344 258.161 C 148.988 257.763,147.719 253.335,146.362 251.251 C 144.086 247.757,143.155 244.941,143.034 241.187 C 142.951 238.596,142.831 238.112,142.067 237.268 C 141.103 236.205,139.689 235.980,137.558 236.553 M165.768 253.931 C 165.808 254.287,166.641 256.605,166.797 256.793 C 167.517 257.661,170.419 256.803,171.330 255.452 L 171.801 254.755 170.008 254.614 C 169.022 254.537,167.664 254.346,166.991 254.190 C 166.317 254.035,165.767 253.918,165.768 253.931 M114.867 346.196 L 114.815 357.257 113.814 355.584 C 109.351 348.126,98.843 346.799,92.570 352.900 C 84.943 360.319,84.943 377.018,92.570 384.437 C 98.843 390.539,109.351 389.211,113.814 381.753 L 114.815 380.080 114.869 383.634 L 114.924 387.187 117.522 387.187 L 120.120 387.187 120.120 361.161 L 120.120 335.135 117.519 335.135 L 114.918 335.135 114.867 346.196 M134.134 338.539 L 134.134 341.942 136.737 341.942 L 139.339 341.942 139.339 338.539 L 139.339 335.135 136.737 335.135 L 134.134 335.135 134.134 338.539 M332.102 336.636 C 320.199 338.895,313.805 351.449,315.814 368.619 C 317.385 382.050,323.505 388.578,334.113 388.134 C 341.640 387.819,346.752 383.978,348.886 377.036 C 349.640 374.583,349.693 368.444,348.982 365.866 C 346.987 358.633,341.808 354.870,333.834 354.859 C 328.285 354.852,324.992 356.504,322.141 360.726 C 321.060 362.326,321.065 362.335,321.322 359.153 C 322.618 343.100,331.336 337.448,346.096 343.090 C 346.288 343.164,346.346 342.600,346.346 340.671 L 346.346 338.155 344.942 337.737 C 340.626 336.451,335.425 336.006,332.102 336.636 M191.992 362.262 L 191.992 387.187 197.998 387.187 L 204.004 387.187 204.004 362.262 L 204.004 337.337 197.998 337.337 L 191.992 337.337 191.992 362.262 M211.812 341.742 L 211.812 346.146 220.320 346.146 L 228.829 346.146 228.829 366.767 L 228.829 387.387 234.835 387.387 L 240.841 387.387 240.841 366.767 L 240.841 346.146 249.349 346.146 L 257.858 346.146 257.858 341.742 L 257.858 337.337 234.835 337.337 L 211.812 337.337 211.812 341.742 M279.229 338.505 L 273.674 339.631 273.674 342.188 C 273.674 343.594,273.731 344.745,273.801 344.745 C 273.994 344.745,285.132 342.536,285.536 342.418 C 285.868 342.321,285.886 343.368,285.886 362.449 L 285.886 382.583 280.280 382.583 L 274.675 382.583 274.675 384.885 L 274.675 387.187 288.789 387.187 L 302.903 387.187 302.903 384.885 L 302.903 382.583 297.297 382.583 L 291.692 382.583 291.692 359.960 L 291.692 337.337 288.238 337.358 C 284.875 337.379,284.639 337.409,279.229 338.505 M162.663 349.445 C 155.651 350.989,151.295 357.380,150.819 366.819 C 150.295 377.215,154.954 385.223,162.504 386.903 C 168.898 388.325,174.885 385.836,177.832 380.531 C 178.725 378.922,178.779 379.019,178.778 382.232 C 178.777 390.216,177.110 394.093,172.721 396.318 C 168.710 398.351,162.638 398.199,157.063 395.926 L 155.355 395.230 155.355 397.599 L 155.355 399.968 156.306 400.280 C 161.267 401.907,168.445 402.279,172.821 401.135 C 178.100 399.754,181.618 396.203,182.972 390.891 C 183.809 387.602,183.826 387.202,183.920 368.318 L 184.012 349.950 181.400 349.950 L 178.788 349.950 178.733 353.604 L 178.679 357.257 177.640 355.556 C 174.489 350.392,168.837 348.086,162.663 349.445 M134.134 368.569 L 134.134 387.187 136.737 387.187 L 139.339 387.187 139.339 368.569 L 139.339 349.950 136.737 349.950 L 134.134 349.950 134.134 368.569 M106.436 353.633 C 112.230 355.175,115.593 362.258,114.734 371.110 C 113.930 379.411,109.983 383.984,103.625 383.984 C 96.533 383.984,92.299 378.271,92.293 368.694 C 92.287 357.913,98.332 351.475,106.436 353.633 M170.814 353.751 C 176.145 355.397,179.273 361.760,178.687 369.767 C 178.046 378.515,174.242 383.023,167.467 383.060 C 160.613 383.098,156.647 378.301,156.216 369.452 C 155.661 358.033,162.134 351.070,170.814 353.751 M335.135 359.172 C 346.221 360.962,346.947 380.592,336.036 383.511 C 328.468 385.536,322.630 380.295,322.624 371.471 C 322.619 362.845,327.594 357.955,335.135 359.172 " stroke="none" fill="#fbfbfb" fill-rule="evenodd"></path><path id="path3" d="M159.305 64.609 C 159.660 64.653,160.291 64.654,160.706 64.611 C 161.122 64.567,160.831 64.531,160.060 64.530 C 159.289 64.529,158.949 64.565,159.305 64.609 M156.807 74.212 C 156.999 74.262,157.315 74.262,157.508 74.212 C 157.700 74.162,157.543 74.121,157.157 74.121 C 156.772 74.121,156.614 74.162,156.807 74.212 M156.006 78.616 C 156.199 78.667,156.514 78.667,156.707 78.616 C 156.899 78.566,156.742 78.525,156.356 78.525 C 155.971 78.525,155.813 78.566,156.006 78.616 M156.346 94.044 L 155.656 94.795 156.406 94.105 C 157.105 93.463,157.249 93.293,157.096 93.293 C 157.063 93.293,156.725 93.631,156.346 94.044 M222.269 98.899 C 222.269 99.284,222.310 99.442,222.360 99.249 C 222.411 99.057,222.411 98.741,222.360 98.549 C 222.310 98.356,222.269 98.514,222.269 98.899 M158.311 102.844 C 158.560 102.892,158.920 102.890,159.111 102.840 C 159.303 102.790,159.099 102.751,158.659 102.753 C 158.218 102.755,158.062 102.796,158.311 102.844 M163.213 102.841 C 163.406 102.891,163.721 102.891,163.914 102.841 C 164.107 102.790,163.949 102.749,163.564 102.749 C 163.178 102.749,163.021 102.790,163.213 102.841 M163.413 104.042 C 163.606 104.092,163.921 104.092,164.114 104.042 C 164.307 103.992,164.149 103.950,163.764 103.950 C 163.378 103.950,163.221 103.992,163.413 104.042 M235.088 105.449 C 235.392 105.495,235.843 105.494,236.089 105.446 C 236.335 105.399,236.086 105.361,235.536 105.363 C 234.985 105.364,234.784 105.403,235.088 105.449 M326.791 116.517 C 326.791 117.232,326.827 117.525,326.872 117.167 C 326.916 116.809,326.916 116.224,326.872 115.866 C 326.827 115.508,326.791 115.801,326.791 116.517 M117.310 119.069 L 116.216 120.220 117.367 119.126 C 118.437 118.109,118.610 117.918,118.462 117.918 C 118.430 117.918,117.912 118.436,117.310 119.069 M118.009 119.970 L 117.217 120.821 118.068 120.029 C 118.536 119.594,118.919 119.211,118.919 119.179 C 118.919 119.027,118.745 119.179,118.009 119.970 M109.359 128.066 C 109.552 128.116,109.867 128.116,110.060 128.066 C 110.253 128.016,110.095 127.974,109.710 127.974 C 109.324 127.974,109.167 128.016,109.359 128.066 M276.426 135.477 C 276.674 135.524,277.080 135.524,277.327 135.477 C 277.575 135.429,277.372 135.390,276.877 135.390 C 276.381 135.390,276.179 135.429,276.426 135.477 M224.883 138.687 C 225.631 138.726,226.802 138.726,227.486 138.687 C 228.169 138.648,227.558 138.616,226.126 138.616 C 224.695 138.617,224.135 138.649,224.883 138.687 M163.916 150.092 C 164.165 150.139,164.526 150.138,164.717 150.088 C 164.908 150.037,164.705 149.998,164.264 150.000 C 163.824 150.003,163.667 150.044,163.916 150.092 M257.307 151.890 C 257.500 151.940,257.815 151.940,258.008 151.890 C 258.201 151.839,258.043 151.798,257.658 151.798 C 257.272 151.798,257.115 151.839,257.307 151.890 M325.676 151.897 C 326.034 151.941,326.619 151.941,326.977 151.897 C 327.335 151.852,327.042 151.816,326.326 151.816 C 325.611 151.816,325.318 151.852,325.676 151.897 M266.612 152.096 C 266.968 152.141,267.598 152.141,268.014 152.098 C 268.429 152.055,268.138 152.019,267.367 152.018 C 266.597 152.017,266.257 152.052,266.612 152.096 M312.262 152.099 C 312.730 152.141,313.496 152.141,313.964 152.099 C 314.432 152.056,314.049 152.022,313.113 152.022 C 312.177 152.022,311.794 152.056,312.262 152.099 M143.231 157.608 L 142.643 158.258 143.293 157.670 C 143.651 157.347,143.944 157.054,143.944 157.020 C 143.944 156.865,143.779 157.001,143.231 157.608 M88.238 206.948 C 88.486 206.996,88.891 206.996,89.139 206.948 C 89.387 206.900,89.184 206.861,88.689 206.861 C 88.193 206.861,87.990 206.900,88.238 206.948 M92.739 216.016 C 92.739 216.401,92.780 216.559,92.831 216.366 C 92.881 216.174,92.881 215.858,92.831 215.666 C 92.780 215.473,92.739 215.631,92.739 216.016 M108.561 215.959 C 108.866 216.005,109.316 216.004,109.562 215.957 C 109.809 215.909,109.560 215.872,109.009 215.873 C 108.458 215.875,108.257 215.913,108.561 215.959 M167.818 257.195 C 168.011 257.245,168.326 257.245,168.519 257.195 C 168.711 257.145,168.554 257.104,168.168 257.104 C 167.783 257.104,167.625 257.145,167.818 257.195 M153.307 272.618 C 153.667 272.662,154.207 272.661,154.508 272.616 C 154.809 272.570,154.515 272.533,153.854 272.535 C 153.193 272.536,152.947 272.573,153.307 272.618 M114.668 346.065 C 114.639 352.077,114.682 357.037,114.765 357.088 C 114.847 357.139,114.915 352.221,114.915 346.158 C 114.915 340.095,114.871 335.135,114.818 335.135 C 114.765 335.135,114.697 340.054,114.668 346.065 M191.884 337.387 C 191.832 337.525,191.812 348.809,191.841 362.462 L 191.893 387.287 191.943 362.315 L 191.992 337.343 198.048 337.287 L 204.104 337.231 198.042 337.184 C 193.341 337.148,191.958 337.193,191.884 337.387 M335.586 341.087 C 335.998 341.130,336.674 341.130,337.087 341.087 C 337.500 341.044,337.162 341.008,336.336 341.008 C 335.511 341.008,335.173 341.044,335.586 341.087 M178.661 353.654 C 178.662 355.636,178.691 356.419,178.728 355.395 C 178.764 354.371,178.764 352.750,178.727 351.792 C 178.691 350.834,178.661 351.672,178.661 353.654 M111.512 352.653 C 111.885 353.038,112.236 353.353,112.291 353.353 C 112.346 353.353,112.085 353.038,111.712 352.653 C 111.338 352.267,110.988 351.952,110.932 351.952 C 110.877 351.952,111.138 352.267,111.512 352.653 M332.983 354.700 C 333.396 354.744,334.072 354.744,334.484 354.700 C 334.897 354.657,334.560 354.622,333.734 354.622 C 332.908 354.622,332.570 354.657,332.983 354.700 M174.575 356.056 C 174.948 356.441,175.299 356.757,175.354 356.757 C 175.409 356.757,175.148 356.441,174.775 356.056 C 174.401 355.671,174.051 355.355,173.996 355.355 C 173.940 355.355,174.201 355.671,174.575 356.056 M344.945 358.859 C 345.318 359.244,345.669 359.560,345.724 359.560 C 345.779 359.560,345.519 359.244,345.145 358.859 C 344.772 358.473,344.421 358.158,344.366 358.158 C 344.311 358.158,344.571 358.473,344.945 358.859 M178.650 368.268 C 178.649 369.259,178.683 369.690,178.725 369.225 C 178.767 368.761,178.767 367.950,178.726 367.423 C 178.685 366.897,178.650 367.277,178.650 368.268 M114.786 368.669 C 114.785 369.660,114.819 370.090,114.861 369.626 C 114.903 369.161,114.903 368.350,114.862 367.824 C 114.821 367.298,114.786 367.678,114.786 368.669 M349.604 371.371 C 349.604 371.867,349.643 372.070,349.691 371.822 C 349.739 371.574,349.739 371.169,349.691 370.921 C 349.643 370.673,349.604 370.876,349.604 371.371 M178.531 381.531 C 178.629 385.517,178.703 385.906,178.741 382.633 C 178.762 380.843,178.711 379.379,178.629 379.379 C 178.546 379.379,178.502 380.347,178.531 381.531 M114.676 380.330 C 114.642 380.413,114.663 382.012,114.722 383.884 L 114.830 387.287 114.872 383.734 C 114.911 380.535,114.872 379.857,114.676 380.330 M274.561 382.645 C 274.506 382.790,274.489 383.894,274.525 385.098 L 274.590 387.287 274.632 384.938 L 274.675 382.589 280.330 382.532 L 285.986 382.476 280.324 382.429 C 275.798 382.392,274.642 382.435,274.561 382.645 M294.444 382.532 C 296.014 382.566,298.581 382.566,300.150 382.532 C 301.719 382.498,300.435 382.471,297.297 382.471 C 294.159 382.471,292.875 382.498,294.444 382.532 M111.501 384.735 L 110.811 385.485 111.562 384.796 C 112.260 384.153,112.404 383.984,112.251 383.984 C 112.218 383.984,111.880 384.322,111.501 384.735 M183.834 384.685 C 183.836 385.125,183.877 385.282,183.925 385.033 C 183.973 384.784,183.971 384.423,183.921 384.232 C 183.871 384.040,183.832 384.244,183.834 384.685 M165.111 387.332 C 165.466 387.376,166.097 387.377,166.512 387.333 C 166.927 387.290,166.637 387.254,165.866 387.253 C 165.095 387.252,164.755 387.287,165.111 387.332 M179.168 397.748 L 178.478 398.498 179.229 397.809 C 179.928 397.166,180.072 396.997,179.919 396.997 C 179.886 396.997,179.548 397.335,179.168 397.748 M164.414 397.736 C 164.607 397.786,164.922 397.786,165.115 397.736 C 165.308 397.685,165.150 397.644,164.765 397.644 C 164.379 397.644,164.222 397.685,164.414 397.736 M166.617 397.736 C 166.809 397.786,167.125 397.786,167.317 397.736 C 167.510 397.685,167.352 397.644,166.967 397.644 C 166.582 397.644,166.424 397.685,166.617 397.736 " stroke="none" fill="#9fa0a1" fill-rule="evenodd"></path><path id="path4" d="M207.457 55.794 C 207.650 55.844,207.965 55.844,208.158 55.794 C 208.351 55.743,208.193 55.702,207.808 55.702 C 207.422 55.702,207.265 55.743,207.457 55.794 M205.255 55.994 C 205.448 56.044,205.763 56.044,205.956 55.994 C 206.149 55.944,205.991 55.902,205.606 55.902 C 205.220 55.902,205.063 55.944,205.255 55.994 M210.160 56.801 C 210.518 56.846,211.104 56.846,211.461 56.801 C 211.819 56.757,211.527 56.721,210.811 56.721 C 210.095 56.721,209.802 56.757,210.160 56.801 M198.599 60.523 C 198.599 60.558,198.891 60.850,199.249 61.174 L 199.900 61.762 199.312 61.111 C 198.764 60.505,198.599 60.368,198.599 60.523 M193.039 63.263 C 193.039 63.649,193.081 63.806,193.131 63.614 C 193.181 63.421,193.181 63.106,193.131 62.913 C 193.081 62.720,193.039 62.878,193.039 63.263 M210.963 63.805 C 211.212 63.853,211.573 63.851,211.764 63.801 C 211.956 63.751,211.752 63.712,211.311 63.714 C 210.871 63.716,210.714 63.757,210.963 63.805 M202.002 68.168 C 201.516 68.664,201.163 69.069,201.218 69.069 C 201.273 69.069,201.716 68.664,202.202 68.168 C 202.688 67.673,203.041 67.267,202.986 67.267 C 202.931 67.267,202.488 67.673,202.002 68.168 M155.708 77.619 C 155.957 77.667,156.317 77.665,156.509 77.615 C 156.700 77.565,156.496 77.526,156.056 77.528 C 155.616 77.530,155.459 77.571,155.708 77.619 M137.538 84.785 C 137.911 85.170,138.262 85.485,138.317 85.485 C 138.372 85.485,138.111 85.170,137.738 84.785 C 137.364 84.399,137.014 84.084,136.958 84.084 C 136.903 84.084,137.164 84.399,137.538 84.785 M140.995 87.688 C 140.995 88.183,141.035 88.386,141.082 88.138 C 141.130 87.890,141.130 87.485,141.082 87.237 C 141.035 86.989,140.995 87.192,140.995 87.688 M134.385 87.788 C 134.387 88.228,134.428 88.385,134.476 88.136 C 134.524 87.887,134.522 87.526,134.472 87.335 C 134.422 87.144,134.383 87.347,134.385 87.788 M215.061 93.694 C 215.061 94.079,215.103 94.237,215.153 94.044 C 215.203 93.851,215.203 93.536,215.153 93.343 C 215.103 93.151,215.061 93.308,215.061 93.694 M103.596 96.346 L 102.603 97.397 103.654 96.404 C 104.630 95.481,104.797 95.295,104.647 95.295 C 104.615 95.295,104.142 95.768,103.596 96.346 M223.274 97.197 C 223.276 97.638,223.317 97.794,223.365 97.545 C 223.413 97.296,223.411 96.936,223.361 96.744 C 223.311 96.553,223.271 96.757,223.274 97.197 M224.271 98.098 C 224.271 98.483,224.312 98.641,224.362 98.448 C 224.413 98.256,224.413 97.940,224.362 97.748 C 224.312 97.555,224.271 97.713,224.271 98.098 M308.258 97.843 C 308.616 97.887,309.202 97.887,309.560 97.843 C 309.917 97.798,309.625 97.762,308.909 97.762 C 308.193 97.762,307.900 97.798,308.258 97.843 M224.249 100.250 C 224.422 100.538,224.715 100.701,225.057 100.701 C 225.352 100.701,225.758 100.763,225.960 100.838 C 226.282 100.959,226.293 100.935,226.052 100.638 C 225.898 100.450,225.495 100.300,225.141 100.300 C 224.791 100.300,224.386 100.188,224.241 100.050 C 224.033 99.853,224.035 99.896,224.249 100.250 M160.210 102.850 C 160.733 102.891,161.589 102.891,162.112 102.850 C 162.635 102.809,162.207 102.775,161.161 102.775 C 160.115 102.775,159.687 102.809,160.210 102.850 M296.897 105.405 C 297.270 105.791,297.621 106.106,297.676 106.106 C 297.731 106.106,297.471 105.791,297.097 105.405 C 296.724 105.020,296.373 104.705,296.318 104.705 C 296.263 104.705,296.523 105.020,296.897 105.405 M233.586 105.447 C 233.835 105.495,234.195 105.493,234.387 105.443 C 234.578 105.393,234.374 105.354,233.934 105.356 C 233.493 105.358,233.337 105.399,233.586 105.447 M263.252 107.658 L 262.563 108.408 263.313 107.718 C 263.726 107.339,264.064 107.001,264.064 106.968 C 264.064 106.815,263.895 106.959,263.252 107.658 M257.924 117.818 C 257.924 118.589,257.961 118.879,258.004 118.464 C 258.047 118.049,258.047 117.418,258.002 117.063 C 257.958 116.707,257.923 117.047,257.924 117.818 M119.407 118.569 L 118.819 119.219 119.469 118.631 C 119.827 118.308,120.120 118.015,120.120 117.981 C 120.120 117.826,119.955 117.962,119.407 118.569 M206.807 121.221 C 207.516 121.937,208.142 122.523,208.197 122.523 C 208.252 122.523,207.716 121.937,207.007 121.221 C 206.298 120.506,205.672 119.920,205.617 119.920 C 205.562 119.920,206.097 120.506,206.807 121.221 M205.506 121.522 C 205.936 121.962,206.333 122.322,206.388 122.322 C 206.443 122.322,206.136 121.962,205.706 121.522 C 205.276 121.081,204.879 120.721,204.824 120.721 C 204.769 120.721,205.075 121.081,205.506 121.522 M255.005 123.665 C 255.253 123.713,255.658 123.713,255.906 123.665 C 256.154 123.617,255.951 123.578,255.455 123.578 C 254.960 123.578,254.757 123.617,255.005 123.665 M100.758 138.639 C 100.759 139.189,100.798 139.391,100.844 139.086 C 100.890 138.782,100.889 138.332,100.842 138.085 C 100.794 137.839,100.756 138.088,100.758 138.639 M220.478 138.687 C 221.115 138.727,222.106 138.726,222.680 138.686 C 223.254 138.646,222.733 138.613,221.522 138.613 C 220.310 138.614,219.841 138.647,220.478 138.687 M235.185 138.886 C 235.763 138.927,236.709 138.927,237.287 138.886 C 237.865 138.846,237.392 138.813,236.236 138.813 C 235.080 138.813,234.607 138.846,235.185 138.886 M256.106 151.890 C 256.299 151.940,256.614 151.940,256.807 151.890 C 256.999 151.839,256.842 151.798,256.456 151.798 C 256.071 151.798,255.913 151.839,256.106 151.890 M328.074 151.896 C 328.429 151.940,329.060 151.941,329.475 151.898 C 329.890 151.855,329.600 151.818,328.829 151.817 C 328.058 151.817,327.718 151.852,328.074 151.896 M264.214 152.097 C 264.572 152.141,265.158 152.141,265.516 152.097 C 265.873 152.052,265.581 152.016,264.865 152.016 C 264.149 152.016,263.856 152.052,264.214 152.097 M315.471 152.099 C 315.942 152.141,316.662 152.140,317.072 152.097 C 317.482 152.054,317.097 152.020,316.216 152.021 C 315.335 152.021,315.000 152.057,315.471 152.099 M284.034 152.302 C 286.924 152.333,291.654 152.333,294.545 152.302 C 297.435 152.271,295.070 152.245,289.289 152.245 C 283.509 152.245,281.144 152.271,284.034 152.302 M210.063 154.698 C 210.367 154.744,210.818 154.743,211.064 154.695 C 211.310 154.648,211.061 154.610,210.511 154.612 C 209.960 154.613,209.758 154.652,210.063 154.698 M172.973 155.656 C 173.347 156.041,173.697 156.356,173.752 156.356 C 173.807 156.356,173.547 156.041,173.173 155.656 C 172.800 155.270,172.449 154.955,172.394 154.955 C 172.339 154.955,172.599 155.270,172.973 155.656 M97.047 183.725 C 97.295 183.773,97.700 183.773,97.948 183.725 C 98.196 183.677,97.993 183.638,97.497 183.638 C 97.002 183.638,96.799 183.677,97.047 183.725 M176.766 197.147 L 176.076 197.898 176.827 197.208 C 177.526 196.566,177.670 196.396,177.517 196.396 C 177.483 196.396,177.145 196.734,176.766 197.147 M76.531 202.603 C 76.531 203.098,76.570 203.301,76.618 203.053 C 76.665 202.805,76.665 202.400,76.618 202.152 C 76.570 201.904,76.531 202.107,76.531 202.603 M172.518 204.549 C 172.873 204.593,173.504 204.594,173.919 204.551 C 174.335 204.507,174.044 204.471,173.273 204.470 C 172.503 204.469,172.163 204.505,172.518 204.549 M184.044 230.631 C 184.044 231.236,184.082 231.484,184.127 231.181 C 184.173 230.878,184.173 230.383,184.127 230.080 C 184.082 229.777,184.044 230.025,184.044 230.631 M140.991 232.132 C 140.994 232.573,141.035 232.729,141.083 232.480 C 141.130 232.231,141.129 231.871,141.078 231.679 C 141.028 231.488,140.989 231.692,140.991 232.132 M144.004 241.041 C 144.004 241.647,144.041 241.894,144.087 241.592 C 144.133 241.289,144.133 240.793,144.087 240.490 C 144.041 240.188,144.004 240.435,144.004 241.041 M135.686 255.397 C 135.933 255.444,136.339 255.444,136.587 255.397 C 136.834 255.349,136.632 255.310,136.136 255.310 C 135.641 255.310,135.438 255.349,135.686 255.397 M126.973 257.257 C 126.973 257.643,127.015 257.800,127.065 257.608 C 127.115 257.415,127.115 257.100,127.065 256.907 C 127.015 256.714,126.973 256.872,126.973 257.257 M163.363 263.163 C 162.877 263.659,162.524 264.064,162.579 264.064 C 162.634 264.064,163.077 263.659,163.564 263.163 C 164.050 262.668,164.403 262.262,164.348 262.262 C 164.293 262.262,163.850 262.668,163.363 263.163 M121.383 271.772 C 121.384 272.432,121.422 272.679,121.466 272.319 C 121.511 271.959,121.510 271.418,121.464 271.118 C 121.419 270.817,121.382 271.111,121.383 271.772 M151.304 275.217 C 151.553 275.265,151.913 275.263,152.104 275.213 C 152.296 275.163,152.092 275.123,151.652 275.126 C 151.211 275.128,151.055 275.169,151.304 275.217 M184.241 289.590 C 184.243 290.140,184.282 290.342,184.328 290.037 C 184.374 289.733,184.373 289.283,184.325 289.036 C 184.278 288.790,184.240 289.039,184.241 289.590 M160.918 304.052 C 161.499 304.092,162.400 304.092,162.920 304.051 C 163.439 304.010,162.963 303.977,161.862 303.977 C 160.761 303.978,160.336 304.011,160.918 304.052 M115.957 335.083 C 116.696 335.122,117.957 335.122,118.760 335.084 C 119.563 335.046,118.959 335.014,117.417 335.014 C 115.876 335.014,115.219 335.045,115.957 335.083 M133.979 338.488 L 134.034 342.042 136.587 342.051 L 139.140 342.061 136.637 341.995 L 134.134 341.930 134.134 338.538 L 134.134 335.147 136.787 335.085 L 139.439 335.022 136.682 334.979 L 133.925 334.935 133.979 338.488 M335.291 336.283 C 335.761 336.325,336.482 336.325,336.892 336.282 C 337.302 336.239,336.917 336.204,336.036 336.205 C 335.155 336.205,334.820 336.241,335.291 336.283 M286.747 337.286 C 287.715 337.323,289.247 337.323,290.150 337.286 C 291.053 337.249,290.260 337.219,288.388 337.219 C 286.517 337.219,285.778 337.250,286.747 337.286 M273.510 342.192 C 273.490 343.706,273.541 344.945,273.624 344.945 C 273.706 344.946,273.750 344.112,273.720 343.094 C 273.624 339.731,273.546 339.400,273.510 342.192 M220.219 346.295 L 228.627 346.351 228.679 366.919 L 228.732 387.487 228.730 366.867 L 228.729 346.246 220.270 346.243 L 211.812 346.240 220.219 346.295 M240.933 346.396 C 240.881 346.534,240.861 355.836,240.890 367.067 L 240.943 387.487 240.992 366.919 L 241.041 346.351 249.499 346.296 L 257.958 346.242 249.493 346.194 C 242.870 346.157,241.008 346.201,240.933 346.396 M101.451 349.094 C 101.809 349.138,102.395 349.138,102.753 349.094 C 103.111 349.049,102.818 349.013,102.102 349.013 C 101.386 349.013,101.094 349.049,101.451 349.094 M165.111 349.093 C 165.466 349.138,166.097 349.138,166.512 349.095 C 166.927 349.052,166.637 349.016,165.866 349.015 C 165.095 349.014,164.755 349.049,165.111 349.093 M134.032 368.669 L 134.034 387.287 136.637 387.296 L 139.239 387.305 136.688 387.240 L 134.136 387.176 134.084 368.613 L 134.031 350.050 134.032 368.669 M160.047 356.206 L 159.459 356.857 160.110 356.269 C 160.717 355.721,160.853 355.556,160.698 355.556 C 160.664 355.556,160.371 355.848,160.047 356.206 M315.377 361.061 C 315.378 361.722,315.416 361.968,315.460 361.608 C 315.505 361.248,315.504 360.708,315.458 360.407 C 315.413 360.106,315.376 360.400,315.377 361.061 M315.381 363.664 C 315.382 364.434,315.418 364.725,315.461 364.310 C 315.505 363.894,315.504 363.264,315.460 362.908 C 315.416 362.553,315.380 362.893,315.381 363.664 M156.228 368.168 C 156.228 369.214,156.262 369.642,156.303 369.119 C 156.345 368.596,156.345 367.740,156.303 367.217 C 156.262 366.694,156.228 367.122,156.228 368.168 M92.365 368.669 C 92.366 369.770,92.400 370.195,92.440 369.613 C 92.481 369.031,92.480 368.130,92.439 367.611 C 92.398 367.092,92.365 367.568,92.365 368.669 M349.596 369.970 C 349.596 370.355,349.637 370.513,349.688 370.320 C 349.738 370.128,349.738 369.812,349.688 369.620 C 349.637 369.427,349.596 369.585,349.596 369.970 M349.596 372.773 C 349.596 373.158,349.637 373.316,349.688 373.123 C 349.738 372.930,349.738 372.615,349.688 372.422 C 349.637 372.230,349.596 372.387,349.596 372.773 M174.662 380.230 L 174.074 380.881 174.725 380.293 C 175.083 379.969,175.375 379.677,175.375 379.642 C 175.375 379.488,175.210 379.624,174.662 380.230 M325.325 380.443 C 325.325 380.477,325.618 380.770,325.976 381.094 L 326.627 381.682 326.039 381.031 C 325.491 380.425,325.325 380.288,325.325 380.443 M340.228 381.031 L 339.640 381.682 340.290 381.094 C 340.897 380.546,341.033 380.380,340.878 380.380 C 340.844 380.380,340.551 380.673,340.228 381.031 M302.945 384.834 L 302.903 387.185 288.639 387.237 L 274.374 387.290 288.645 387.339 C 300.283 387.378,302.934 387.339,303.016 387.124 C 303.072 386.980,303.088 385.876,303.053 384.672 L 302.988 382.482 302.945 384.834 M167.017 383.121 C 167.210 383.171,167.525 383.171,167.718 383.121 C 167.910 383.071,167.753 383.029,167.367 383.029 C 166.982 383.029,166.824 383.071,167.017 383.121 M116.166 387.336 C 116.909 387.374,118.126 387.374,118.869 387.336 C 119.612 387.297,119.004 387.266,117.518 387.266 C 116.031 387.266,115.423 387.297,116.166 387.336 M194.857 387.337 C 196.598 387.370,199.391 387.370,201.064 387.337 C 202.736 387.303,201.311 387.276,197.898 387.276 C 194.484 387.276,193.116 387.304,194.857 387.337 M101.451 388.333 C 101.809 388.377,102.395 388.377,102.753 388.333 C 103.111 388.289,102.818 388.252,102.102 388.252 C 101.386 388.252,101.094 388.289,101.451 388.333 M332.382 388.334 C 332.795 388.377,333.471 388.377,333.884 388.334 C 334.297 388.291,333.959 388.255,333.133 388.255 C 332.307 388.255,331.969 388.291,332.382 388.334 M165.616 401.949 C 166.139 401.990,166.994 401.990,167.518 401.949 C 168.041 401.908,167.613 401.874,166.567 401.874 C 165.521 401.874,165.093 401.908,165.616 401.949 " stroke="none" fill="#7c7c7c" fill-rule="evenodd"></path></g></svg>