<?xml version="1.0" encoding="utf-8"?>
<!-- Generator: Adobe Illustrator 23.0.3, SVG Export Plug-In . SVG Version: 6.00 Build 0)  -->
<svg version="1.1" id="Layer_1" xmlns="http://www.w3.org/2000/svg" xmlns:xlink="http://www.w3.org/1999/xlink" x="0px" y="0px"
	 viewBox="0 0 72 72" style="enable-background:new 0 0 72 72;" xml:space="preserve">
<style type="text/css">
	.st0{fill:#F3A53F;}
	.st1{fill:#F8CD4A;}
	.st2{fill:#71E0FB;}
	.st3{fill:#4CADD8;}
	.st4{display:none;}
	.st5{display:inline;}
	.st6{fill:#FFFFFF;}
	.st7{display:inline;fill:#FFFFFF;}
	.st8{fill:#101820;}
</style>
<g id="Orange">
	<path class="st0" d="M36.7,61.39c0.11,0.05,0.32,0.1,0.44,0.23c0.13,0.15,0.25,0.38,0.25,0.58c-0.01,0.29-0.28,0.41-0.54,0.46
		c-0.34,0.07-0.69,0.11-0.93,0.15c-0.2,0.21-0.31,0.43-0.47,0.48c-0.31,0.09-0.66,0.05-0.88-0.23c-0.23-0.3-0.15-0.6,0.1-0.84
		c-0.27-0.09-0.53-0.14-0.76-0.25c-0.31-0.15-0.41-0.42-0.3-0.75c0.19-0.53,0.57-0.88,1.12-0.9c0.57-0.02,1.15,0.04,1.71,0.13
		c0.17,0.03,0.38,0.23,0.43,0.4C36.92,60.97,36.77,61.18,36.7,61.39z"/>
	<path class="st0" d="M37.24,44.24c0.98-0.2,1.88-0.66,2.77-1.09c0.2-0.09,0.38-0.25,0.54-0.4c0.2-0.19,0.26-0.44,0.21-0.65
		c-0.05-0.22-0.22-0.4-0.48-0.48c-0.95-0.29-1.91-0.56-2.86-0.87c-0.89-0.29-1.79-0.49-2.74-0.39l0,0c-0.07,0.01-0.2-0.04-0.22-0.13
		l0,0l0,0c-0.15,0.22-1.32,0.54-1.99,0.78l0,0c-0.67,0.24-1.36,0.44-2.04,0.68c-0.32,0.11-0.38,0.41-0.41,0.71
		c-0.01,0.07-0.01,0.13,0,0.19c0.02,0.18,0.12,0.32,0.32,0.4c0.76,0.32,1.51,0.66,2.28,0.95C34.12,44.53,35.67,44.57,37.24,44.24z
		 M30.42,42.12L30.42,42.12L30.42,42.12L30.42,42.12c0.05-0.27,0.49-0.24,0.31,0.11c0.15,0.26,0.61,0.13,0.99,0
		c0.77-0.27,1.59-0.6,2.42-0.67c1.47-0.12,2.36-0.11,4.16,0.68h0.01c0.15,0.07,0.33,0.13,0.51,0.19c0.16,0.05,0.33,0.09,0.49,0.11
		c0.32,0.03,0.53-0.03,0.57-0.17c0.01-0.04-0.06-0.1-0.08-0.15c-0.04-0.1,0.09-0.21,0.26-0.19c0.26,0.06,0.07,0.71-0.5,0.73
		c-0.38,0-0.79-0.17-1.39-0.42c-1.37-0.52-2.22-0.64-3.22-0.61c-0.36,0.02-0.73,0.05-1.12,0.09c0,0,0,0-0.01,0
		c-0.52,0.06-2.34,0.69-2.76,0.74l0,0l0,0C30.65,42.61,30.39,42.37,30.42,42.12z"/>
	<path class="st0" d="M34.51,40.15c0.58-0.07,1.08-0.07,1.62,0C35.46,39.57,34.8,39.58,34.51,40.15z"/>
</g>
<g id="Yellow">
	<path class="st1" d="M44.88,54.35c0.11,0.41-0.03,0.64-0.45,0.71c-0.28,0.04-0.57,0.06-0.94,0.1c0.22,0.14,0.37,0.25,0.53,0.34
		c0.31,0.18,0.48,0.45,0.45,0.75c-0.04,0.32-0.23,0.53-0.61,0.61c-0.42,0.09-0.84,0.15-1.28,0.22c0.03,0.06,0.06,0.13,0.1,0.19
		c0.18,0.35,0.13,0.7-0.21,0.9c-0.37,0.21-0.79,0.36-1.21,0.49c-0.32,0.1-0.67,0.11-1.06,0.17c0.16,0.13,0.28,0.22,0.38,0.32
		c0.36,0.37,0.29,0.84-0.18,1.04c-0.37,0.16-0.76,0.25-1.14,0.39c-0.55,0.2-0.64,0.61-0.21,1.02c0.25,0.24,0.43,0.49,0.46,0.85
		c0.03,0.35-0.03,0.68-0.3,0.91c-0.45,0.37-0.55,0.86-0.5,1.39c0.06,0.61,0.03,1.17-0.4,1.65c-1.21,0-2.42,0.01-3.63,0.01
		c-0.48,0-0.96-0.01-1.44-0.01c-0.19-0.28-0.36-0.58-0.57-0.84c-0.34-0.4-0.35-0.83-0.21-1.3c0.06-0.2,0.11-0.41,0.14-0.62
		c0.05-0.45-0.09-0.82-0.49-1.08c-0.51-0.33-0.59-0.97-0.11-1.35c0.22-0.17,0.52-0.44,0.36-0.72c-0.1-0.18-0.46-0.22-0.72-0.29
		c-0.22-0.06-0.44-0.07-0.67-0.11c-0.43-0.08-0.57-0.45-0.29-0.78c0.11-0.13,0.25-0.24,0.36-0.37c0.07-0.09,0.18-0.24,0.15-0.29
		c-0.06-0.09-0.2-0.16-0.31-0.18c-0.22-0.04-0.45-0.05-0.67-0.07c-0.82-0.08-1.11-0.49-0.88-1.25c-0.3-0.06-0.61-0.1-0.91-0.18
		s-0.56-0.23-0.6-0.59c-0.04-0.35,0.14-0.59,0.44-0.76c0.05-0.03,0.11-0.07,0.25-0.16c-0.32-0.03-0.56-0.06-0.79-0.09
		c-0.21-0.02-0.43-0.02-0.63-0.09c-0.42-0.13-0.6-0.52-0.43-0.97c0.12-0.01,0.22,0,0.34,0c5.83,0,11.66,0,17.5,0
		C44.63,54.33,44.76,54.34,44.88,54.35z M36.7,61.39c0.07-0.21,0.22-0.42,0.17-0.56c-0.06-0.17-0.26-0.38-0.43-0.4
		c-0.57-0.09-1.14-0.15-1.71-0.13c-0.55,0.02-0.93,0.38-1.12,0.9c-0.12,0.33-0.02,0.61,0.3,0.75c0.23,0.11,0.5,0.17,0.76,0.25
		c-0.24,0.23-0.32,0.54-0.1,0.84c0.22,0.29,0.57,0.32,0.88,0.23c0.16-0.05,0.28-0.27,0.47-0.48c0.23-0.04,0.58-0.08,0.93-0.15
		c0.26-0.05,0.54-0.17,0.54-0.46c0.01-0.19-0.11-0.43-0.25-0.58C37.03,61.48,36.81,61.44,36.7,61.39z"/>
	<path class="st1" d="M44.2,54.13c0.54-0.49,1.13-1.46,1.19-2.24l0,0c0.07-0.99-0.03-1.97-0.29-2.93c0,0,0,0,0-0.01
		c-0.19-0.7-0.48-1.23-0.91-1.8c-0.48-0.63-1.5-1.41-2.52-1.88c-0.8-0.37-1.68-0.55-2.29-0.62c-1.07-0.12-1.35,0.03-1.52-0.28
		c-0.02,0-0.04-0.01-0.05-0.01c-0.53,0.15-1.07,0.25-1.62,0.29c-0.56,0.05-1.12,0.04-1.68,0c-0.11-0.01-0.21-0.04-0.32-0.05
		c-0.18-0.03-0.36-0.05-0.55-0.09c-0.28-0.06-0.57-0.13-0.85-0.19c0.03,0.13-0.12,0.24-0.22,0.25c-0.4,0.04-0.8,0.09-1.19,0.16
		c-0.11,0.02-0.21,0.04-0.32,0.06c-0.37,0.07-0.74,0.15-1.11,0.27l0,0c-2.07,0.64-3.67,1.82-4.36,3.99
		c-0.34,1.09-0.43,2.19-0.16,3.3c0.17,0.69,0.62,1.21,1.12,1.69c0.08,0.07,0.23,0.1,0.34,0.1C32.65,54.13,38.42,54.13,44.2,54.13z
		 M40.66,48.01L40.66,48.01L40.66,48.01c0.55,0,0.11,1.51,1.4,2.8c0.66,0.74,1.56,1.14,2.47,1.54c0.08,0.04,0.24,0.09,0.24,0.11
		c0,0.07-0.16,0.03-0.28,0.02c-0.67-0.09-1.99-0.84-2.59-1.51C41.15,50.15,40.26,48.01,40.66,48.01L40.66,48.01z M25.91,52.54
		L25.91,52.54L25.91,52.54c0-0.15,0.75-0.29,1.28-0.52c1.12-0.5,1.75-1.24,2.15-1.94c0.63-1.09,0.7-2.06,0.94-2.06
		c0.55,0-0.41,1.77-1.2,2.79c-0.39,0.46-1.24,1.2-1.89,1.43C26.43,52.5,25.91,52.65,25.91,52.54z"/>
	<path class="st1" d="M41,43.03c0.52-0.65,0.74-1.34,0.77-2.05s-0.13-1.43-0.36-2.14c-0.46-1.42-1.62-2.22-2.89-2.82
		c-1.78-0.86-3.64-0.86-5.52-0.34c-1.01,0.28-1.9,0.77-2.62,1.55c-0.91,0.98-1.28,2.14-1.31,3.42c0,0.18,0,0.37,0.01,0.56
		c0.06,1.03,0.41,1.88,1.36,2.39c0.72,0.39,1.46,0.75,2.31,0.71c-0.1-0.05-0.19-0.1-0.29-0.13c-0.81-0.28-1.61-0.58-2.34-1.05
		c-0.27-0.18-0.37-0.37-0.38-0.61c0-0.08,0-0.16,0.02-0.25c0.05-0.37,0.21-0.68,0.6-0.8c0.46-0.15,0.91-0.3,1.37-0.44
		c1.03-0.31,2.08-0.58,2.94-1.31c0.35-0.3,0.79-0.32,1.19-0.01c0.8,0.62,1.75,0.92,2.71,1.21c0.6,0.18,1.21,0.35,1.81,0.55
		c0.69,0.24,0.83,1.03,0.27,1.51c-0.17,0.14-0.46,0.32-0.79,0.49c-0.09,0.05-0.17,0.1-0.26,0.14c-0.7,0.35-1.48,0.68-1.75,0.75
		c0.22,0,0.84,0,1.04-0.06C39.69,44.05,40.46,43.71,41,43.03z M32.68,39.94c-0.37,0-0.56-0.18-0.56-0.54
		c-0.01-0.37,0.27-0.64,0.65-0.63c0.33,0.01,0.53,0.22,0.53,0.54C33.3,39.74,33.11,39.94,32.68,39.94z M38.12,40.08
		c-0.34-0.01-0.63-0.28-0.63-0.6c0-0.35,0.24-0.6,0.57-0.59c0.38,0.01,0.62,0.27,0.61,0.67C38.68,39.89,38.46,40.09,38.12,40.08z"/>
</g>
<g id="Turquoise">
	<path class="st2" d="M50.77,29.96c0.11-0.45-0.04-1.18-0.24-1.42c-0.22,0.08-0.38,0.12-0.47,0.16c0.14,0.27,0.36,0.82,0.26,1.31
		C50.49,29.98,50.72,29.95,50.77,29.96z"/>
	<path class="st2" d="M44.39,28.45c0.09,0.68,0.1,1.3,0.09,1.84c0.26,0,0.41-0.01,0.73-0.03c-0.01-0.52-0.01-1.28-0.19-1.82
		C44.92,28.44,44.52,28.45,44.39,28.45z"/>
	<path class="st2" d="M49.36,26.49c0.11,0.27,0.19,0.57,0.21,0.84c0.22-0.08,0.33-0.12,0.46-0.17c-0.01-0.24-0.12-0.68-0.29-0.88
		C49.62,26.34,49.48,26.43,49.36,26.49z"/>
	<path class="st2" d="M43.09,28.47c-0.04,0.6-0.11,1.32-0.24,1.81c0.24,0.01,0.52,0.03,0.8,0.02c0.07-0.68,0.07-1.39,0-1.83
		C43.39,28.47,43.22,28.47,43.09,28.47z"/>
	<path class="st2" d="M50.44,28.32c-0.01-0.28-0.08-0.68-0.27-0.98c-0.15,0.06-0.3,0.12-0.44,0.18c0.12,0.24,0.23,0.64,0.29,0.96
		C50.16,28.42,50.31,28.35,50.44,28.32z"/>
	<path class="st2" d="M47.07,26.22c-0.12,0.02-0.26,0.05-0.49,0.1c0.08,0.7,0.37,1.53,0.61,2.15c0.19-0.04,0.36-0.05,0.55-0.02
		c-0.15-0.45-0.24-0.87-0.31-1.29C47.28,27.15,47.19,26.66,47.07,26.22z"/>
	<path class="st2" d="M45.54,27.34c0.12,1.2,0.46,2.33,1.1,3.35c0.09,0.14,0.5,0.39,0.54,0.37c0.03-0.51-0.04-1.25-0.33-2.12
		c-0.18,0.09-0.17,0.23-0.23,0.23s-0.07-0.19,0.01-0.33c-0.29-0.69-0.54-1.48-0.73-2.19C45.72,26.8,45.51,27,45.54,27.34z"/>
	<path class="st2" d="M47.89,31.03c0.17-0.05,0.46-0.14,0.64-0.28c0.07-0.54-0.12-1.2-0.23-1.51c-0.19-0.48-0.35-0.59-0.85-0.56
		C47.96,29.74,47.93,30.62,47.89,31.03z"/>
	<path class="st2" d="M48.12,26.91c0.13,0.78,0.22,1.08,0.56,1.79c0.13,0.04,0.33,0.13,0.33,0.16c0.01,0.08-0.03,0.1-0.16,0.13
		c0.18,0.33,0.39,0.95,0.29,1.53c0.08-0.03,0.37-0.14,0.5-0.25c0.17-0.42,0.01-0.93-0.21-1.29c-0.41-0.69-0.65-1.38-0.86-2.17
		C48.47,26.83,48.33,26.86,48.12,26.91z"/>
	<path class="st2" d="M22.69,29.29c-0.12,0.31-0.31,0.96-0.23,1.51c0.18,0.14,0.47,0.23,0.64,0.28c-0.04-0.41-0.07-1.29,0.45-2.35
		C23.03,28.7,22.87,28.81,22.69,29.29z"/>
	<path class="st2" d="M20.45,28.59c-0.2,0.24-0.35,0.97-0.24,1.42c0.05-0.01,0.28,0.02,0.45,0.05c-0.09-0.49,0.13-1.04,0.26-1.31
		C20.83,28.72,20.67,28.67,20.45,28.59z"/>
	<path class="st2" d="M22.86,26.97c-0.21-0.05-0.34-0.08-0.45-0.11c-0.22,0.79-0.45,1.48-0.86,2.17c-0.22,0.36-0.38,0.87-0.21,1.29
		c0.12,0.11,0.42,0.22,0.5,0.25c-0.1-0.57,0.11-1.2,0.29-1.53c-0.13-0.03-0.17-0.06-0.16-0.13c0-0.02,0.2-0.11,0.33-0.16
		C22.63,28.05,22.73,27.75,22.86,26.97z"/>
	<path class="st2" d="M27.33,30.35c0.28,0.01,0.61-0.01,0.85-0.02c-0.17-0.34-0.25-1.2-0.29-1.81c-0.13,0-0.3,0-0.56,0
		C27.26,28.97,27.25,29.67,27.33,30.35z"/>
	<path class="st2" d="M25.78,30.32c0.32,0.01,0.47,0.02,0.73,0.03c-0.01-0.55-0.01-1.16,0.09-1.84c-0.13,0-0.53,0-0.63,0
		C25.79,29.03,25.78,29.79,25.78,30.32z"/>
	<path class="st2" d="M21.62,26.54c-0.11-0.06-0.26-0.14-0.39-0.21c-0.17,0.2-0.28,0.63-0.29,0.88c0.14,0.05,0.24,0.1,0.46,0.17
		C21.43,27.12,21.5,26.82,21.62,26.54z"/>
	<path class="st2" d="M24.34,30.74c0.64-1.02,0.98-2.15,1.1-3.35c0.03-0.34-0.18-0.53-0.37-0.7c-0.18,0.71-0.43,1.5-0.73,2.19
		c0.09,0.13,0.07,0.33,0.01,0.33s-0.05-0.13-0.23-0.23c-0.29,0.87-0.36,1.61-0.33,2.12C23.84,31.13,24.25,30.88,24.34,30.74z"/>
	<path class="st2" d="M24.39,26.38c-0.23-0.05-0.36-0.07-0.49-0.1c-0.12,0.44-0.21,0.93-0.37,0.94c-0.08,0.42-0.17,0.84-0.31,1.29
		c0.19-0.03,0.36-0.01,0.55,0.02C24.03,27.9,24.31,27.07,24.39,26.38z"/>
	<path class="st2" d="M21.26,27.58c-0.15-0.06-0.3-0.12-0.44-0.18c-0.19,0.3-0.25,0.7-0.27,0.98c0.12,0.03,0.27,0.1,0.42,0.16
		C21.03,28.22,21.13,27.82,21.26,27.58z"/>
</g>
<g id="Blue">
	<path class="st3" d="M59.69,54.33c-2.63,0-5.26,0.01-7.89,0.01c-2.18,0-4.36,0-6.53,0c-0.13,0-0.26,0.01-0.38,0.02
		c0.11,0.41-0.03,0.64-0.45,0.71c-0.28,0.04-0.57,0.06-0.94,0.1c0.22,0.14,0.37,0.25,0.53,0.34c0.31,0.18,0.48,0.45,0.45,0.75
		c-0.04,0.32-0.23,0.53-0.61,0.61c-0.42,0.09-0.84,0.15-1.28,0.22c0.03,0.06,0.06,0.13,0.1,0.19c0.18,0.35,0.13,0.7-0.21,0.9
		c-0.37,0.21-0.79,0.36-1.21,0.49c-0.32,0.1-0.67,0.11-1.06,0.17c0.16,0.13,0.28,0.22,0.38,0.32c0.36,0.37,0.29,0.84-0.18,1.04
		c-0.37,0.16-0.76,0.25-1.14,0.39c-0.55,0.2-0.64,0.61-0.21,1.02c0.25,0.24,0.43,0.49,0.46,0.85c0.03,0.35-0.03,0.68-0.3,0.91
		c-0.45,0.37-0.55,0.86-0.5,1.39c0.06,0.61,0.03,1.17-0.4,1.65c0.29-0.03,0.59-0.04,0.88-0.08c0.23-0.04,0.44-0.16,0.67-0.17
		c0.67-0.02,1.35,0,2.03-0.01c0.17,0,0.36-0.06,0.52-0.12c0.21-0.09,0.39-0.27,0.61-0.31c0.5-0.1,1.02-0.21,1.52-0.2
		c1.25,0.02,2.5,0.08,3.75,0.15c0.32,0.02,0.5-0.06,0.6-0.38c0.16-0.49,0.46-0.81,1.04-0.83c0.63-0.02,1.26-0.1,1.88-0.17
		c0.08-0.01,0.24-0.06,0.24-0.15s-0.13-0.13-0.21-0.16c-0.14-0.05-0.29-0.06-0.43-0.11c-0.31-0.1-0.54-0.42-0.51-0.66
		c0.04-0.26,0.24-0.37,0.65-0.4c0.48-0.03,0.96-0.07,1.44-0.14c0.15-0.02,0.36-0.15,0.4-0.27c0.08-0.22-0.12-0.32-0.31-0.41
		c-0.09-0.04-0.2-0.16-0.2-0.24c0-0.09,0.09-0.21,0.18-0.27s0.22-0.08,0.34-0.09c0.49-0.05,1.33-0.01,1.47-0.14s-0.14-0.3-0.35-0.3
		c-0.35,0.01-0.71,0.01-1.06-0.02c-0.35-0.03-0.45-0.3-0.49-0.58c-0.04-0.26,0.08-0.46,0.32-0.52c0.42-0.11,0.84-0.21,1.27-0.25
		s0.88,0.02,1.31-0.02c0.13-0.01,0.37-0.14,0.37-0.29s-0.2-0.21-0.33-0.25c-0.28-0.09-0.35-0.24-0.3-0.53
		c0.06-0.34,0.3-0.46,0.57-0.53c0.56-0.14,1.13-0.23,1.69-0.37c0.31-0.07,0.4-0.35,0.21-0.6c-0.08-0.1-0.21-0.2-0.33-0.24
		c-0.32-0.1-0.66-0.18-0.99-0.26c-0.42-0.1-0.54-0.31-0.37-0.71c0.06-0.15,0.17-0.3,0.29-0.42c0.33-0.32,0.75-0.38,1.18-0.42
		c0.53-0.04,1.06-0.12,1.59-0.2C59.66,54.7,59.84,54.59,59.69,54.33z M41.79,59.88c-0.17,0,0.06-0.19,0.07-0.31
		c0.01-0.13-0.27-0.34-0.14-0.35c0.7-0.05,0.87-0.33,1.38-0.31c0.79,0,0.96,0.43,0.55,0.42c-0.16,0-0.07,0.3,0.53,0.45
		c0.39,0.1-1.53,0.24-1.53,0.11s0.39-0.26-0.14-0.26c-0.52,0-0.18,0.29-0.31,0.27C42.08,59.88,41.99,59.89,41.79,59.88z
		 M43.88,62.25c0,0.09,0.02,0.68-0.45,0.79c-0.3,0.07-1.12-0.06-1.12-0.15s0.65-0.21,0.65-0.34s-0.47,0.06-0.67-0.02
		c-0.11-0.04-0.27-0.14-0.27-0.26s0.08-0.3,0.18-0.37c0.13-0.09,0.32-0.14,0.48-0.14c0.44-0.02,0.87-0.03,1.31,0
		c0.12,0.01,0.34,0.11,0.34,0.23S43.88,62.15,43.88,62.25z M46.02,61.22c-0.22-0.01-0.36-0.01-0.54-0.07
		c-0.31-0.1-0.45-0.35-0.22-0.38c0.2-0.01,0.18-0.27,0.3-0.28c0.56-0.04,1.01-0.04,1.57,0.01c0.2,0.02,0.62,0.22,0.62,0.43
		S46.71,61.22,46.02,61.22z M48.75,58.61c-0.06-0.05-0.16-0.05-0.24-0.05c-0.58-0.01-1.15-0.01-1.73-0.02c-0.01,0-0.02,0-0.03,0
		c-0.26-0.04-0.54-0.05-0.64-0.38c-0.07-0.21-0.02-0.38,0.15-0.51c0.26-0.2,0.86-0.16,0.87,0.04s0.52,0.18,0.82,0.19
		c0.33,0.01,0.66,0,1,0.01c0.57,0.01,0.66,0.5,0.57,0.67c-0.1,0.17,0.54,0.11,0.54,0.25S49.18,58.95,48.75,58.61z M51.79,60.08
		c0.49,0.5-0.38,0.84-0.46,0.63c0.01-0.24-0.13-0.38-0.33-0.4c-0.23-0.03-0.49,0.04-0.71-0.05c-0.1-0.04-0.21-0.21-0.22-0.31
		c-0.03-0.33,0.77-0.18,0.78-0.3c0.03-0.32,0.42-0.26,0.92-0.18c0.11,0.02,0.28,0.16,0.28,0.24C52.05,59.83,51.68,59.96,51.79,60.08
		z M53.4,56.46c-0.37,0-1.1-0.06-1.1,0.08c0,0.07,0.67,0.28,0.57,0.35c-0.12,0.09-0.25,0.07-0.34,0.07
		c-0.44-0.01-0.41-0.11-0.68-0.13s-0.58,0.03-0.58-0.16c0-0.07,0.08-0.18,0.11-0.21c0.04-0.05-1.09-0.04-1.24-0.05
		c-0.78-0.02-0.76-0.02-1.54-0.02c-0.32,0-0.72-0.23-0.72-0.37s0.51-0.2,0.58-0.2c0.52,0,0.85-0.02,1.25-0.02
		c0.9,0,1.55,0,2.39,0.01c0.44,0.01,1.08,0.04,1.37,0.07s0.38,0.21,0.38,0.37C53.84,56.45,53.61,56.46,53.4,56.46z"/>
	<path class="st3" d="M32.66,65.55c-0.34-0.4-0.35-0.83-0.21-1.3c0.06-0.2,0.11-0.41,0.14-0.62c0.05-0.45-0.09-0.82-0.49-1.08
		c-0.51-0.33-0.59-0.97-0.11-1.35c0.22-0.17,0.52-0.44,0.36-0.72c-0.1-0.18-0.46-0.22-0.72-0.29c-0.22-0.06-0.44-0.07-0.67-0.11
		c-0.43-0.08-0.57-0.45-0.29-0.78c0.11-0.13,0.25-0.24,0.36-0.37c0.07-0.09,0.18-0.24,0.15-0.29c-0.06-0.09-0.2-0.16-0.31-0.18
		c-0.22-0.04-0.45-0.05-0.67-0.07c-0.82-0.08-1.11-0.49-0.88-1.25c-0.3-0.06-0.61-0.1-0.91-0.18s-0.56-0.23-0.6-0.59
		c-0.04-0.35,0.14-0.59,0.44-0.76c0.05-0.03,0.11-0.07,0.25-0.16c-0.32-0.03-0.56-0.06-0.79-0.09c-0.21-0.02-0.43-0.02-0.63-0.09
		c-0.42-0.13-0.58-0.54-0.43-0.97c-0.15-0.01-0.31,0-0.46,0c-4.61,0-9.22,0-13.84,0c-0.07,0.29-0.01,0.39,0.29,0.41
		c0.42,0.03,0.84,0.03,1.25,0.07c0.3,0.03,0.6,0.07,0.87,0.18c0.16,0.06,0.38,0.29,0.37,0.41c-0.03,0.2-0.19,0.42-0.36,0.55
		c-0.15,0.12-0.38,0.15-0.57,0.19c-0.22,0.05-0.36,0.17-0.36,0.39c0,0.23,0.14,0.38,0.38,0.4c0.4,0.04,0.81,0.06,1.21,0.13
		c0.16,0.03,0.37,0.16,0.43,0.3c0.1,0.21-0.1,0.36-0.29,0.43c-0.4,0.14-1.81,0.2-1.82,0.54c0,0.09,0.34,0.13,0.49,0.15
		c0.39,0.07,0.79,0.11,1.15,0.24c0.35,0.13,0.37,0.42,0.09,0.68c-0.13,0.12-0.46,0.3-0.45,0.41c0,0.1,0.27,0.09,0.36,0.1
		c0.63,0.04,1.26,0.06,1.89,0.13c0.49,0.05,0.97,0.13,1.45,0.24c0.33,0.08,0.38,0.25,0.18,0.51c-0.13,0.16-0.3,0.32-0.48,0.4
		c-0.37,0.14-0.75,0.24-1.14,0.32c-0.53,0.11-1.61,0.27-1.6,0.4c0.01,0.14,0.33,0.22,0.46,0.23c0.41,0.03,0.81,0.05,1.22,0.08
		c0.3,0.02,0.6,0.02,0.9,0.08c0.15,0.03,0.42,0.15,0.41,0.25c-0.01,0.11-0.15,0.23-0.24,0.34c-0.06,0.07-0.16,0.11-0.23,0.17
		c-0.27,0.23-0.26,0.51,0.06,0.66c0.2,0.09,0.42,0.15,0.64,0.17c1,0.12,3.07,0.19,3.07,0.4s-0.31,0.29-0.48,0.42
		c-0.15,0.12-0.33,0.2-0.48,0.32c-0.18,0.16-0.14,0.31,0.1,0.35c0.36,0.06,0.72,0.1,1.08,0.13c0.97,0.07,1.95,0.11,2.92,0.21
		c0.51,0.05,1,0.22,1.5,0.33c0.22,0.05,0.43,0.15,0.65,0.14c0.65-0.03,1.3-0.09,1.95-0.14c0.84-0.07,1.69-0.16,2.5,0.18
		c0.48,0.2,0.98,0.2,1.48,0.18C33.05,66.11,32.88,65.81,32.66,65.55z M17.84,56.12c-0.31,0.1-1.12,0.21-1.54,0.11
		c-0.11-0.04-0.24-0.18-0.25-0.28s0.07-0.27,0.2-0.32c0.55-0.19,1.1-0.17,1.63,0.07C18.1,55.81,18.09,56.04,17.84,56.12z
		 M20.53,58.88c-0.26,0-1.52,0.05-1.89-0.03c-0.43-0.09-0.55-0.46-0.25-0.77c0.23-0.24,0.53-0.36,0.88-0.3
		c0.09,0.01,0.22,0.08,0.23,0.15c0.07,0.28,0.28,0.23,0.48,0.24c0.21,0.01,0.43,0.01,0.64,0.07s0.41,0.19,0.37,0.45
		C20.95,58.95,20.73,58.88,20.53,58.88z M20.1,56.27c0-0.4,4.16-0.38,4.68-0.3s0.66,0.18,0.67,0.36c0,0.17-0.26,0.31-0.21,0.43
		c0.06,0.18,0.7,0.16,0.81,0.28c0.06,0.06,0.03,0.09-0.03,0.14c-0.06,0.05-1.77,0.18-2.11,0.11c-0.95-0.18-0.19-0.36-0.34-0.53
		C23.44,56.59,20.1,56.67,20.1,56.27z M22.79,59.17c0-0.25,1.07-0.02,2.03-0.04c0.96-0.01,0.84,0.32,0.16,0.31
		c-0.21,0-1.17,0.12-1.69,0.12S22.79,59.42,22.79,59.17z M26.74,61.87c-0.31,0-1.05,0-1.69,0c-0.61,0-0.54-0.37-0.79-0.46
		c-0.47-0.16-0.3-0.33,0.16-0.33s1.62,0.03,2.08,0.04c0.5,0.01,0.88-0.02,0.54,0.3c-0.22,0.2,0.41,0.29,0.41,0.39
		S27.05,61.87,26.74,61.87z M29.51,60.26c-0.35-0.06-0.38-0.34-0.53-0.38c-0.15-0.04-1.05-0.02-1.07-0.2s0.11-0.34,0.23-0.41
		c0.45-0.24,1.09-0.25,1.59-0.18c0.2,0.03-0.11,0.28-0.11,0.5c0,0.15,0.15,0.32,0.28,0.45C30.03,60.18,29.76,60.31,29.51,60.26z"/>
	<path class="st3" d="M52.23,29.8c0.26-0.38,0.25-0.73,0-1.07c-0.31-0.42-0.59-0.51-1.06-0.37c0.25,0.64,0.24,1.29,0.15,1.64
		C51.6,30.02,51.97,30.19,52.23,29.8z"/>
	<path class="st3" d="M51.85,26.89c-0.26-0.03-0.7,0.06-1.02,0.2c0.2,0.35,0.25,0.84,0.26,1.06c0.42-0.14,0.77-0.08,1.08,0.13
		c0.33-0.29,0.34-0.99,0.09-1.22C52.16,26.98,52.07,26.92,51.85,26.89z"/>
	<path class="st3" d="M51.39,25.68c-0.41,0-0.81,0.17-1,0.28c0.14,0.29,0.23,0.61,0.3,0.97c0.27-0.13,0.86-0.27,1.19-0.23
		C52.08,26.35,51.85,25.68,51.39,25.68z"/>
	<path class="st3" d="M48.71,25.41c-0.07-0.02-0.18,0.01-0.25,0.06c-0.24,0.15-0.46,0.31-0.7,0.47c0.04,0.27,0.08,0.53,0.13,0.82
		c0.29-0.07,0.6-0.1,0.85-0.24c0.15-0.08,0.29-0.34,0.28-0.51C49,25.8,48.87,25.47,48.71,25.41z"/>
	<path class="st3" d="M18.74,28.78c-0.25,0.34-0.25,0.69,0,1.07c0.27,0.39,0.64,0.23,0.91,0.2c-0.09-0.34-0.1-1,0.15-1.64
		C19.34,28.27,19.05,28.36,18.74,28.78z"/>
	<path class="st3" d="M20.15,27.15c-0.32-0.14-0.77-0.23-1.02-0.2c-0.22,0.03-0.31,0.08-0.41,0.17c-0.25,0.23-0.24,0.92,0.09,1.22
		c0.31-0.21,0.66-0.26,1.08-0.13C19.9,27.99,19.95,27.51,20.15,27.15z"/>
	<path class="st3" d="M20.59,26.02c-0.19-0.12-0.59-0.29-1-0.28c-0.46,0-0.68,0.67-0.48,1.02c0.33-0.04,0.92,0.09,1.19,0.23
		C20.36,26.63,20.45,26.31,20.59,26.02z"/>
	<path class="st3" d="M23.09,26.81c0.05-0.29,0.08-0.54,0.13-0.82c-0.23-0.16-0.46-0.32-0.7-0.47c-0.07-0.04-0.18-0.08-0.25-0.06
		c-0.16,0.05-0.3,0.39-0.31,0.6c-0.01,0.17,0.13,0.43,0.28,0.51C22.49,26.71,22.8,26.74,23.09,26.81z"/>
	<path class="st3" d="M32.55,28.85c0.07-0.05,0.16-0.04,0.2,0c0.1,0.11,0.08,0.24,0.06,0.33c-0.11,0.5-0.24,0.91-0.41,1.39
		c-0.27,0.79-0.6,1.55-0.91,2.33c0.64-0.31,1.28-0.53,1.9-0.69c0.07-0.02,0.14-0.04,0.21-0.06c0.23-0.05,0.45-0.08,0.68-0.12
		c0.12-0.02,0.23-0.05,0.35-0.06c1.68-0.19,3.31,0.13,4.95,0.79c0.08,0.03,0.15,0.05,0.23,0.08c0-0.01-0.01-0.02-0.01-0.03
		c-0.52-0.87-0.87-1.98-1.14-3.07c-0.08-0.31-0.15-0.83,0.12-0.83V28.9v0.01l0,0c0.19,0.02,0.21,0.21,0.18,0.45
		c1.05,0.31,1.77,0.56,2.6,0.7c0.13,0.02,0.24,0.04,0.38,0.06c0.25,0.03,0.42-1.18,0.49-1.81c-0.03-0.01-0.07-0.03-0.1-0.04
		c-0.16-0.05-0.37-0.13-0.64-0.23c-0.72-0.27-1.51-0.6-2.27-0.86l0,0c-0.34-0.12-0.68-0.23-1-0.31c-0.14-0.04-0.3-0.05-0.44-0.03
		c-0.31,0.04-0.61,0.12-0.92,0.16c-0.92,0.11-2.11,0.2-3.83-0.11c-1.58,0.46-3.96,1.43-4.71,1.48c0.05,0.43,0.26,1.81,0.56,1.85
		c0.01,0,0.02,0.01,0.02,0.01c0.05-0.01,0.1-0.02,0.15-0.03c1.04-0.23,2.13-0.55,3.11-0.82C32.39,29.1,32.44,28.92,32.55,28.85z"/>
	<path class="st3" d="M25.39,20.92c-0.21,0.87,0.02,1.66,0.52,2.34c0.21,0.29,0.45,0.53,0.71,0.72c0.78,0.59,1.76,0.8,2.78,0.94l0,0
		c-0.29-0.23-0.55-0.47-0.48-0.62c0,0,0-0.01-0.01-0.01c0.01,0,0.01-0.01,0.02-0.01c0.04-0.07,0.1-0.17,0.17-0.09
		c0.69,0.79,1.3,1.3,2.14,1.74c0.79,0.41,1.62,0.67,2.46,0.8c0.87,0.13,1.75,0.15,2.62,0.09c1.31-0.08,2.58-0.28,3.7-1.02
		c0.68-0.45,1.33-0.94,1.79-1.64c0.01-0.01,0.02-0.02,0.02-0.02c0.07-0.12,0.17-0.32,0.25-0.3c0.41,0.17-0.29,0.84-0.56,1.08
		c0.03,0,0.06,0,0.11,0c0.11-0.01,0.25-0.02,0.3-0.03c0.3-0.06,0.5-0.11,0.75-0.19c0.06-0.02,0.13-0.05,0.22-0.07
		c1.35-0.43,2.77-2.02,2.6-3.63c-0.03-0.32-0.18-0.62-0.4-0.84s-0.51-0.36-0.83-0.38c-0.51-0.02-1.03,0.08-1.46,0.3
		c0.08,0.25,0.12,0.42,0.11,0.64c-0.01,0.06-0.23,0.25-0.24,0.18c-0.32-1.64-1.41-2.71-2.84-3.44c0.03,0.11,0.05,0.33,0,0.35
		c-0.08,0.03-0.16-0.21-0.24-0.37c-0.04-0.08-0.08-0.15-0.12-0.23c-0.1-0.16-0.2-0.33-0.31-0.49c-0.01-0.02-0.02-0.03-0.04-0.04
		c-0.27-0.33-0.64-0.61-1.14-0.49c-0.55,0.13-0.86,0.5-1.1,1.02c-0.03,0.06-0.17,0.1-0.21,0.11c-0.05,0-0.09-0.01-0.11-0.05l0,0
		c0,0,0,0-0.01,0c0-0.01,0-0.01,0.01-0.02c-0.01-0.08,0.06-0.3,0.2-0.5c0.01-0.01,0.01-0.03,0.02-0.04c-0.05,0-0.11-0.01-0.16-0.01
		c0,0-0.01,0-0.02,0c0.01,0,0.02,0,0.02,0c-0.01,0.07-0.23,0.11-0.34,0.11c-0.64-0.02-1.19,0.01-1.91,0.1
		c-0.07,0-0.21-0.02-0.21-0.09h0.01h-0.01c-0.05,0-0.1,0.01-0.16,0.01c0,0,0,0,0.01,0c0.2,0.24,0.19,0.36,0.18,0.4
		c-0.01,0.03-0.05,0.04-0.08,0.05c-0.13,0.03-0.32-0.23-0.47-0.37c-0.69-0.68-1.19-0.73-1.79,0.03c-0.16,0.21-0.34,0.66-0.45,0.66
		c-0.05,0-0.1-0.06-0.05-0.16c-0.08,0.04-0.19,0.11-0.28,0.16c-1.12,0.66-2.16,1.69-2.76,3.02c-0.04,0.09-0.15-0.02-0.24-0.08
		c-0.02-0.02-0.04-0.08-0.03-0.16c0,0,0,0-0.01,0c0.02-0.09,0.04-0.18,0.06-0.28c-0.17-0.13-0.36-0.24-0.57-0.32
		C26.54,19.4,25.63,19.92,25.39,20.92z M43.32,23.41c0.19-0.27,0.22-0.46,0.2-0.71c-0.02-0.21-0.23-0.37-0.28-0.34
		c-0.36,0.26-0.32,0.73-0.38,0.59v-0.01v0.01c-0.05-0.12-0.05-0.24,0-0.38c0.05-0.18,0.17-0.37,0.36-0.55
		c0.88-0.83,1.45-0.54,1.48-0.41c0.02,0.15-0.07,0.22-0.16,0.22s-0.24-0.07-0.15-0.19c-0.2-0.02-0.31,0.05-0.41,0.12
		c0.3,0.5,0.13,0.9-0.25,1.05c-0.01,0.16-0.07,0.36-0.1,0.44c-0.1,0.25-0.34,0.52-0.67,0.58c-0.08,0.01-0.25,0.04-0.25-0.05
		C42.71,23.65,43.09,23.73,43.32,23.41z M39.88,24.77c-0.1,0.01-0.06-0.27-0.2-0.4c-2.89,1.43-5.75,1.47-8.62-0.08
		c-0.16,0.17-0.2,0.39-0.27,0.39v-0.01l0,0l0,0c-0.06-0.03-0.04-0.36,0.1-0.6c0.13-0.22,0.36-0.34,0.53-0.25c0,0,0,0,0.01,0l0,0
		h0.01c0.1,0.08-0.08,0.19-0.17,0.25c0.12,0.09,1.91,1.21,4.32,1.17c0.45-0.01,0.84-0.05,1.21-0.1c0.08-0.02,0.17-0.04,0.28-0.05
		c0.14-0.02,0.29-0.06,0.44-0.09c0.9-0.23,1.53-0.58,2.05-0.88c-0.13-0.13-0.21-0.23-0.11-0.32c0.19-0.14,0.31,0.11,0.4,0.28
		C40,24.41,39.96,24.77,39.88,24.77z M31.24,18.78c0.58-0.62,1.73-0.64,2.44-0.09c0.1,0.08,0.2,0.17,0.28,0.27
		c0.05,0.06,0.06,0.16,0.09,0.23l0,0c0.16,0.34,0.21,0.85,0.15,1.29c0.81-0.26,1.62-0.24,2.44-0.07c-0.02-0.33,0.11-0.86,0.25-1.17
		c0.04-0.1,0.05-0.21,0.12-0.28c0.47-0.53,1.73-0.69,2.3-0.29l0,0l0,0c0.52,0.36,0.76,0.88,0.85,1.49c0.11,0.75-0.06,1.43-0.57,2
		c-0.13,0.14-0.35,0.26-0.5,0.31l0.01-0.01c0,0-0.01,0-0.01,0.01c-0.35,0.11-0.68,0.13-1.01,0.13l0,0
		c-0.13,0.94-0.76,1.59-1.59,1.59c0,0,0,0,0-0.01c0,0,0,0-0.01,0c0,0,0,0,0.01,0c-0.03-0.03,0.15-0.1,0.27-0.15
		c0.02-0.01,0.04-0.02,0.05-0.03c1.01-0.49,1.37-1.64,0.82-2.57c-0.01-0.01-0.01-0.02-0.02-0.02c-0.26-0.4-0.76-0.65-1.19-0.73
		c-0.86-0.15-1.82-0.19-2.57,0.41c-0.79,0.63-0.9,1.89-0.14,2.56c0.21,0.18,0.43,0.35,0.67,0.49c0.09,0.05,0.25,0.1,0.16,0.13
		c-0.29,0-0.58-0.11-0.83-0.28c-0.41-0.29-0.72-0.77-0.74-1.26c-0.01-0.13-0.01-0.26-0.02-0.38c-0.28,0.03-0.49,0.03-0.83,0.01
		c0,0,0,0,0.01,0c-0.34,0.02-0.61-0.1-0.83-0.31c-0.08-0.07-0.14-0.15-0.21-0.23C30.49,20.96,30.59,19.48,31.24,18.78z M27.58,21.66
		c0.24,0.18,0.5,0.41,0.54,0.74c0.01,0.06-0.05,0.1-0.07,0.06c0,0,0,0,0-0.01l0,0c0-0.01-0.02-0.03-0.03-0.05
		c-0.06-0.1-0.12-0.2-0.3-0.35c-0.4,0.27-0.53,0.73-0.29,1.14c0.24,0.37,0.66,0.33,0.62,0.53c-0.03,0.12-0.34,0.01-0.49-0.12
		c-0.14-0.12-0.28-0.26-0.34-0.39c-0.09-0.19-0.12-0.29-0.1-0.5c-0.41-0.26-0.34-0.81-0.01-1c-0.13-0.08-0.39-0.11-0.55-0.09
		c0,0.2-0.14,0.24-0.24,0.2c-0.07-0.03-0.15-0.13-0.12-0.24C26.28,21.37,27.05,21.31,27.58,21.66z"/>
</g>
<g id="White" class="st4">
	<g class="st5">
		<path class="st6" d="M52.87,56.89c0.1-0.08-0.57-0.28-0.57-0.35c0-0.14,0.73-0.08,1.1-0.08c0.2,0,0.44,0,0.44-0.2
			c0-0.17-0.1-0.34-0.38-0.37s-0.93-0.06-1.37-0.07c-0.84-0.01-1.49-0.01-2.39-0.01c-0.4,0-0.73,0.02-1.25,0.02
			c-0.07,0-0.58,0.06-0.58,0.2s0.4,0.37,0.72,0.37c0.78,0,0.76,0,1.54,0.02c0.15,0,1.28,0,1.24,0.05c-0.02,0.03-0.1,0.14-0.11,0.21
			c0,0.2,0.31,0.15,0.58,0.16c0.27,0.02,0.24,0.12,0.68,0.13C52.61,56.97,52.75,56.98,52.87,56.89z"/>
		<path class="st6" d="M48.75,58.61c0.43,0.34,1.3,0.35,1.3,0.21s-0.64-0.09-0.54-0.25c0.1-0.17,0.01-0.66-0.57-0.67
			c-0.33,0-0.66,0.01-1-0.01c-0.29-0.01-0.81,0.01-0.82-0.19c-0.01-0.2-0.61-0.24-0.87-0.04c-0.17,0.14-0.22,0.3-0.15,0.51
			c0.1,0.32,0.38,0.33,0.64,0.38c0.01,0,0.02,0,0.03,0c0.58,0,1.15,0.01,1.73,0.02C48.59,58.56,48.69,58.57,48.75,58.61z"/>
		<path class="st6" d="M52.06,59.72c0-0.08-0.17-0.22-0.28-0.24c-0.5-0.09-0.89-0.14-0.92,0.18c-0.01,0.12-0.81-0.03-0.78,0.3
			c0.01,0.11,0.11,0.27,0.22,0.31c0.21,0.08,0.48,0.02,0.71,0.05c0.2,0.02,0.34,0.16,0.33,0.4c0.08,0.21,0.95-0.12,0.46-0.63
			C51.68,59.96,52.05,59.83,52.06,59.72z"/>
		<path class="st6" d="M42.31,62.89c0,0.09,0.82,0.22,1.12,0.15c0.47-0.11,0.44-0.7,0.45-0.79c0-0.09,0.44-0.15,0.44-0.27
			s-0.22-0.22-0.34-0.23c-0.44-0.03-0.87-0.02-1.31,0c-0.16,0.01-0.35,0.05-0.48,0.14c-0.1,0.07-0.18,0.24-0.18,0.37
			s0.16,0.22,0.27,0.26c0.2,0.08,0.67-0.11,0.67,0.02C42.96,62.68,42.31,62.8,42.31,62.89z"/>
		<path class="st6" d="M45.56,60.49c-0.12,0.01-0.09,0.26-0.3,0.28c-0.24,0.03-0.1,0.27,0.22,0.38c0.17,0.06,0.31,0.06,0.54,0.07
			c0.7,0,1.73-0.08,1.73-0.29s-0.42-0.41-0.62-0.43C46.57,60.45,46.13,60.45,45.56,60.49z"/>
		<path class="st6" d="M42.52,59.63c0.52,0,0.14,0.12,0.14,0.26c0,0.13,1.92-0.01,1.53-0.11c-0.6-0.15-0.68-0.45-0.53-0.45
			c0.41,0.01,0.24-0.42-0.55-0.42c-0.51-0.02-0.69,0.25-1.38,0.31c-0.13,0.01,0.15,0.22,0.14,0.35c-0.01,0.12-0.24,0.31-0.07,0.31
			c0.2,0,0.3,0,0.42,0.02C42.34,59.92,41.99,59.63,42.52,59.63z"/>
	</g>
	<g class="st5">
		<path class="st6" d="M29.72,59.1c-0.5-0.08-1.14-0.06-1.59,0.18c-0.12,0.06-0.24,0.23-0.23,0.41c0.02,0.18,0.91,0.16,1.07,0.2
			c0.15,0.04,0.19,0.32,0.53,0.38c0.25,0.05,0.52-0.08,0.39-0.21c-0.13-0.13-0.28-0.31-0.28-0.45
			C29.61,59.37,29.92,59.13,29.72,59.1z"/>
		<path class="st6" d="M20.53,58.88c0.19,0,0.42,0.07,0.46-0.19c0.04-0.26-0.17-0.39-0.37-0.45s-0.42-0.06-0.64-0.07
			c-0.2-0.01-0.4,0.04-0.48-0.24c-0.02-0.07-0.15-0.13-0.23-0.15c-0.34-0.06-0.65,0.06-0.88,0.3c-0.3,0.31-0.18,0.68,0.25,0.77
			C19.01,58.93,20.27,58.88,20.53,58.88z"/>
		<path class="st6" d="M16.25,55.63c-0.12,0.05-0.21,0.22-0.2,0.32c0.01,0.1,0.14,0.25,0.25,0.28c0.43,0.1,1.23-0.01,1.54-0.11
			c0.25-0.08,0.26-0.32,0.03-0.42C17.35,55.46,16.79,55.44,16.25,55.63z"/>
		<path class="st6" d="M24.26,61.41c0.25,0.08,0.18,0.45,0.79,0.46c0.65,0,1.38,0,1.69,0c0.31,0,0.72,0.04,0.72-0.07
			s-0.64-0.18-0.41-0.39c0.34-0.32-0.04-0.29-0.54-0.3c-0.47-0.01-1.62-0.04-2.08-0.04C23.96,61.08,23.8,61.26,24.26,61.41z"/>
		<path class="st6" d="M23.92,57.29c0.34,0.06,2.06-0.06,2.11-0.11c0.06-0.05,0.09-0.08,0.03-0.14c-0.11-0.11-0.75-0.1-0.81-0.28
			c-0.06-0.12,0.21-0.26,0.21-0.43c0-0.18-0.14-0.27-0.67-0.36c-0.52-0.08-4.68-0.1-4.68,0.3c0,0.4,3.33,0.32,3.48,0.49
			C23.73,56.93,22.97,57.11,23.92,57.29z"/>
		<path class="st6" d="M23.29,59.57c0.52,0,1.48-0.13,1.69-0.12c0.68,0.01,0.8-0.32-0.16-0.31s-2.03-0.21-2.03,0.04
			S22.77,59.57,23.29,59.57z"/>
	</g>
	<path class="st7" d="M41.85,42.01c-0.48,1.27-1.43,1.9-2.48,2.31c1.13,0.13,1.92,0.39,2.96,0.91
		C43.15,44.78,42.95,42.44,41.85,42.01z"/>
	<path class="st7" d="M31.56,44.35c-0.45-0.23-0.97-0.44-1.43-0.74c-0.64-0.4-1.08-0.96-1.15-1.76c-1.29,1.04-0.69,3.1-0.02,3.31
		c0.23-0.08,0.45-0.19,0.69-0.26C30.3,44.7,30.96,44.52,31.56,44.35z"/>
	<path class="st7" d="M31.58,36c2.82-1.19,5.44-1.35,8.05,0.38c0.44-0.44,0.96-1.63,0.39-3.06c-1.69-0.81-3.04-1.12-4.39-1.14
		c-0.29,0-0.57,0-0.86,0.02c-1.12,0.08-2.4,0.45-3.38,1.04C30.89,34.2,30.97,35.38,31.58,36z"/>
	<path class="st7" d="M39.56,19.24c-0.34-0.52-0.84-0.69-1.45-0.57c-0.46,0.09-0.86,0.28-1.22,0.57c-0.15,0.31-0.29,0.67-0.25,1.17
		c0.02,0.01,0.04,0.02,0.05,0.02c0.19,0.06,0.33,0.1,0.44,0.17c0.01-0.04,0.01-0.04,0.02-0.07c0,0,0,0,0-0.01
		c0.13-0.42,0.38-0.65,0.7-0.63c0.34,0.02,0.6,0.28,0.68,0.7c0.02,0.11,0.03,0.22,0.03,0.33c-0.01,0.32-0.13,0.6-0.41,0.82
		c-0.03,0.02-0.06,0.04-0.1,0.06c0.04,0.14,0.07,0.52,0.03,0.78c0.45,0.01,0.68-0.03,1.01-0.13c0.23-0.34,0.51-0.65,0.67-1.02
		C40.07,20.69,40.02,19.94,39.56,19.24z"/>
	<path class="st7" d="M33.12,21.64c-0.3-0.13-0.47-0.41-0.52-0.72s0.02-0.65,0.22-0.9c0.2-0.27,0.74-0.2,0.97,0.13
		c0.09,0.13,0.13,0.29,0.2,0.46c0.06-0.05,0.1-0.07,0.22-0.12c0.13-0.45,0.02-0.88-0.15-1.3c-0.06-0.02-0.14-0.02-0.17-0.05
		c-0.4-0.43-0.9-0.63-1.49-0.61c-0.6,0.02-1.12,0.37-1.31,0.95c-0.2,0.6-0.24,1.21,0.01,1.82c0.18,0.43,0.44,0.75,0.89,0.91
		c0.06,0.02,0.11,0.09,0.17,0.13c0.31,0.06,0.56,0.05,0.83-0.01C32.98,22.1,32.99,21.91,33.12,21.64z"/>
	<path class="st7" d="M29.74,13.51c-1.17,1.04-1.95,2.31-2.4,3.81c-0.21,0.68-0.33,1.3-0.35,1.98c0,0.02,0,0.04,0,0.05
		c0.62,0.07,0.91,0.31,1.23,0.55c0.67-0.9,1.51-1.69,2.53-2.34c0.37-0.23,0.5-0.31,0.67-0.4c0.09-0.18,0.35-0.55,0.51-0.69
		c0.49-0.44,0.93-0.45,1.33-0.21c0.26,0.15,0.53,0.36,0.73,0.57c0.05,0,0.1-0.01,0.16-0.01c0.81-0.3,1.63-0.3,2.46-0.13
		c0.05,0,0.11,0.01,0.16,0.01c0.09-0.13,0.24-0.25,0.37-0.36c0.61-0.5,1.37-0.56,1.87-0.09c0.27,0.23,0.53,0.6,0.71,0.96
		c0.89,0.36,1.79,0.99,2.43,1.8c0.02,0.02,0.04,0.05,0.06,0.08c0.19,0.25,0.36,0.52,0.5,0.8c0.48-0.3,1.21-0.41,1.64-0.35
		c0.01-0.04,0.02-0.37,0.01-0.52c-0.02-1.42-0.44-2.7-1.27-3.87c-0.72-1-1.63-1.79-2.63-2.48c-1.05-0.72-1.79-1.66-2.26-2.84
		c-0.55-1.39-1.96-2.1-3.4-1.75c-0.33,0.08-0.62,0.18-0.87,0.31c-0.08,0.04-0.15,0.09-0.23,0.14c-0.03,0.02-0.07,0.04-0.1,0.07
		c-0.09,0.07-0.17,0.15-0.25,0.23c-0.01,0.01-0.02,0.01-0.02,0.02c-0.04,0.05-0.07,0.1-0.11,0.16c-0.25,0.37-0.37,0.83-0.35,1.45
		c0,0.06-0.01,0.15-0.06,0.19c-0.03,0.02-0.06,0.01-0.1,0.01v0.01c-0.02,0-0.04,0-0.06-0.01c-0.12-0.02-0.15-0.09-0.13-0.23
		c-0.19,0.25-0.38,0.51-0.58,0.78c-0.2,0.27-0.41,0.54-0.65,0.8C30.82,12.55,30.28,13.03,29.74,13.51z M30.97,14.22
		c0.11-0.21,0.66-0.44,1.2-0.63c0.09-0.03,0.18-0.06,0.27-0.09s0.18-0.06,0.26-0.08c0.18-0.06,0.38-0.07,0.64-0.12
		c-0.09-0.09-0.12-0.11-0.21-0.18c-0.26,0.04-0.94,0.14-0.92-0.05c0.02-0.14,0.54-0.16,0.8-0.15c-0.2-0.43-0.48-1.07-0.46-1.29
		c0.01-0.06,0.1-0.1,0.21-0.1c0.13,0,0.16,0.18,0.18,0.28c0.03,0.22,0.1,0.48,0.2,0.72c0.35,0.86,1.04,1.22,1.92,1.26
		c0.34,0.02,0.69,0.02,1.03,0c0.65-0.03,1.09-0.27,1.37-0.71c0.09-0.18,0.17-0.38,0.2-0.64c0.01-0.1,0-0.24,0.09-0.31
		c0.13-0.07,0.23-0.03,0.24,0.08c0.02,0.21-0.06,0.47-0.11,0.69c0.23,0,0.42,0.01,0.56,0.05c0.02,0,0.05,0,0.07,0
		c0,0.01,0,0.01,0,0.02c0.01,0.01,0.03,0.01,0.04,0.01c0.07,0.06,0.02,0.15-0.04,0.16c-0.08,0.03-0.52-0.01-0.72-0.03
		c-0.05,0.1-0.09,0.16-0.16,0.26c1.4,0.06,2.19,0.33,2.07,0.56c-0.12,0.19-0.32-0.04-0.76-0.17c-0.51-0.15-0.94-0.18-1.47-0.18
		c-0.34,0.3-0.82,0.4-1.11,0.42c-0.03,0-0.05,0-0.08,0.01h-0.01c-0.95,0.08-1.91,0.13-2.74-0.51c-0.05-0.04-0.15-0.02-0.23-0.01
		c-0.82,0.1-1.52,0.49-2.22,0.9c-0.03,0-0.05,0-0.08,0.01C30.92,14.33,30.96,14.24,30.97,14.22z"/>
</g>
<g id="Black">
	<path class="st8" d="M40.66,48.01c0.55,0,0.11,1.51,1.4,2.8c0.66,0.74,1.56,1.14,2.47,1.54c0.08,0.04,0.24,0.09,0.24,0.11
		c0,0.07-0.16,0.03-0.28,0.02c-0.67-0.09-1.99-0.84-2.59-1.51C41.15,50.14,40.25,48.01,40.66,48.01z"/>
	<path class="st8" d="M25.91,52.54c0-0.15,0.75-0.29,1.28-0.52c1.12-0.5,1.75-1.24,2.15-1.94c0.63-1.09,0.7-2.06,0.94-2.06
		c0.55,0-0.41,1.77-1.2,2.79c-0.39,0.46-1.24,1.2-1.89,1.43C26.43,52.5,25.91,52.65,25.91,52.54z"/>
	<path class="st8" d="M40.05,42.03c0.26,0.06,0.07,0.71-0.5,0.73c-0.38,0-0.79-0.17-1.39-0.42c-1.84-0.69-2.75-0.69-4.34-0.52
		c-0.52,0.05-2.35,0.69-2.77,0.75c-0.41,0.05-0.67-0.19-0.64-0.44c0.05-0.27,0.49-0.24,0.31,0.11c0.15,0.26,0.61,0.13,0.99,0
		c0.77-0.27,1.59-0.6,2.42-0.67c1.47-0.12,2.36-0.11,4.16,0.68c0.32,0.14,0.66,0.27,1.01,0.31c0.32,0.03,0.53-0.03,0.57-0.17
		c0.01-0.04-0.06-0.1-0.08-0.15C39.75,42.12,39.88,42.01,40.05,42.03z"/>
	<path class="st8" d="M38.68,39.57c0,0.32-0.22,0.52-0.56,0.52c-0.34-0.01-0.63-0.28-0.63-0.6c0-0.35,0.24-0.6,0.57-0.59
		C38.45,38.91,38.69,39.17,38.68,39.57z"/>
	<path class="st8" d="M32.68,39.94c-0.37,0-0.56-0.18-0.56-0.54c-0.01-0.37,0.27-0.64,0.65-0.63c0.33,0.01,0.53,0.22,0.53,0.54
		C33.3,39.74,33.11,39.94,32.68,39.94z"/>
	<path class="st8" d="M39.55,24.12c-0.13-0.13-0.21-0.23-0.11-0.32c0.19-0.14,0.31,0.11,0.4,0.28c0.15,0.33,0.11,0.69,0.03,0.69
		c-0.1,0.01-0.06-0.27-0.2-0.4c-2.89,1.43-5.75,1.47-8.62-0.08c-0.16,0.17-0.2,0.39-0.27,0.39s-0.05-0.36,0.09-0.61
		c0.13-0.22,0.37-0.35,0.54-0.24c0.1,0.08-0.08,0.19-0.17,0.25c0.12,0.09,1.91,1.21,4.32,1.17C37.61,25.2,38.71,24.59,39.55,24.12z"
		/>
	<path class="st8" d="M36.65,20.41c0.23,0.07,0.37,0.11,0.49,0.19c0.01-0.04,0.01-0.04,0.02-0.07c0.13-0.42,0.38-0.65,0.7-0.63
		c0.34,0.02,0.6,0.28,0.68,0.7c0.08,0.45-0.01,0.84-0.39,1.14c-0.03,0.02-0.06,0.04-0.1,0.06c0.05,0.14,0.07,0.52,0.03,0.78
		c-0.13,0.94-0.76,1.59-1.59,1.59c-0.08-0.04,0.22-0.13,0.34-0.18c1.01-0.49,1.37-1.64,0.82-2.57c-0.25-0.42-0.78-0.68-1.21-0.76
		c-0.86-0.15-1.81-0.18-2.56,0.41c-0.8,0.61-0.9,1.88-0.14,2.56c0.21,0.18,0.43,0.35,0.67,0.49c0.09,0.05,0.25,0.1,0.16,0.13
		c-0.78,0-1.52-0.75-1.57-1.54c-0.01-0.14-0.02-0.25-0.02-0.38c0.01-0.22,0.03-0.41,0.15-0.68c-0.59-0.27-0.69-1.1-0.3-1.62
		c0.2-0.27,0.74-0.2,0.97,0.13c0.09,0.13,0.13,0.29,0.2,0.46c0.06-0.05,0.1-0.07,0.22-0.12C35.01,20.22,35.83,20.24,36.65,20.41z"/>
	<path class="st8" d="M34.05,19.19c-0.06-0.02-0.14-0.02-0.17-0.05c-0.4-0.43-0.9-0.63-1.49-0.61c-0.6,0.02-1.12,0.37-1.31,0.95
		c-0.2,0.6-0.24,1.21,0.01,1.82c0.18,0.43,0.44,0.75,0.89,0.91c0.06,0.02,0.11,0.09,0.17,0.13c-0.45,0.03-0.78-0.2-1.03-0.54
		c-0.62-0.83-0.52-2.32,0.14-3.01c0.67-0.71,2.07-0.63,2.71,0.17C34.01,19.02,34.02,19.11,34.05,19.19z"/>
	<path class="st8" d="M39.09,22.46c0.23-0.34,0.51-0.65,0.67-1.02c0.31-0.75,0.26-1.51-0.2-2.2c-0.34-0.52-0.84-0.69-1.45-0.57
		c-0.46,0.09-0.86,0.28-1.22,0.57c0.04-0.1,0.05-0.21,0.12-0.28c0.47-0.53,1.73-0.69,2.3-0.29c0.52,0.36,0.76,0.88,0.85,1.49
		c0.11,0.75-0.06,1.43-0.57,2C39.47,22.29,39.24,22.41,39.09,22.46z"/>
	<path class="st8" d="M42.7,23.78c0-0.13,0.38-0.06,0.61-0.37c0.19-0.27,0.22-0.46,0.2-0.71c-0.02-0.21-0.23-0.37-0.28-0.34
		c-0.36,0.26-0.32,0.73-0.38,0.59c-0.12-0.27,0.02-0.61,0.35-0.93c0.88-0.83,1.45-0.54,1.48-0.41c0.02,0.15-0.07,0.22-0.16,0.22
		s-0.24-0.07-0.15-0.19c-0.2-0.02-0.31,0.05-0.41,0.12c0.3,0.5,0.13,0.9-0.25,1.05c-0.01,0.16-0.07,0.36-0.1,0.44
		c-0.1,0.25-0.34,0.52-0.67,0.58C42.87,23.84,42.7,23.87,42.7,23.78z"/>
	<path class="st8" d="M27.11,21.71c-0.13-0.08-0.39-0.11-0.55-0.09c0,0.2-0.14,0.24-0.24,0.2c-0.07-0.03-0.15-0.13-0.12-0.24
		c0.07-0.21,0.84-0.28,1.37,0.08c0.24,0.18,0.5,0.41,0.54,0.74c0.01,0.06-0.05,0.1-0.07,0.06c-0.07-0.12-0.12-0.23-0.33-0.4
		c-0.4,0.27-0.53,0.73-0.29,1.14c0.24,0.37,0.66,0.33,0.62,0.53c-0.03,0.12-0.34,0.01-0.49-0.12c-0.14-0.12-0.28-0.26-0.34-0.39
		c-0.09-0.19-0.12-0.29-0.1-0.5C26.71,22.45,26.77,21.89,27.11,21.71z"/>
	<path class="st8" d="M34.14,16.81c0.81-0.3,1.63-0.3,2.46-0.13c-0.01,0.07-0.23,0.11-0.34,0.11c-0.64-0.02-1.19,0.01-1.91,0.1
		C34.28,16.9,34.14,16.87,34.14,16.81z"/>
	<path class="st8" d="M37.63,13.38c0.07-0.1,0.11-0.16,0.16-0.26c0.19,0.02,0.64,0.05,0.72,0.03c0.05-0.02,0.11-0.1,0.04-0.16
		c-0.14-0.09-0.4-0.09-0.68-0.09c0.05-0.23,0.13-0.48,0.11-0.69c-0.02-0.11-0.11-0.14-0.24-0.08c-0.09,0.07-0.08,0.21-0.09,0.31
		c-0.11,0.92-0.64,1.31-1.57,1.35c-0.34,0.01-0.69,0.02-1.03,0c-0.88-0.05-1.57-0.41-1.92-1.26c-0.1-0.24-0.17-0.5-0.2-0.72
		c-0.01-0.1-0.04-0.28-0.18-0.28c-0.1,0-0.2,0.04-0.21,0.1c-0.02,0.22,0.26,0.86,0.46,1.29c-0.26,0-0.78,0.02-0.8,0.15
		c-0.02,0.19,0.65,0.09,0.92,0.05c0.09,0.08,0.12,0.1,0.21,0.18c-0.27,0.05-0.46,0.06-0.64,0.12c-0.62,0.19-1.58,0.53-1.72,0.81
		c-0.01,0.02-0.06,0.12,0.02,0.19c0.03,0.02,0.05,0.01,0.08-0.01c0.7-0.4,1.4-0.8,2.22-0.9c0.08-0.01,0.18-0.03,0.23,0.01
		c0.83,0.63,1.88,0.58,2.84,0.5c0.3-0.02,0.77-0.12,1.11-0.42c0.53,0,0.96,0.03,1.47,0.18c0.44,0.13,0.64,0.36,0.76,0.17
		C39.82,13.71,39.03,13.44,37.63,13.38z"/>
	<path class="st8" d="M59.41,54.13c-2.07,0-12.36,0-14.71-0.01c0.34-0.36,0.91-1.56,0.94-2.43c0.02-0.64,0-1.2-0.1-1.83
		c-0.18-1.14-0.47-1.84-1.14-2.84c-0.4-0.59-1.19-1.23-1.92-1.67c0.93-0.24,1.2-3.01-0.56-3.43c0.33-2.23-0.35-4.12-1.95-5.29
		c0.38-0.62,0.49-1.14,0.54-1.49c0.13-0.94-0.08-1.82-0.58-2.64c-0.52-0.86-0.91-2.08-0.95-2.82c1.41,0.35,2.85,0.84,4.19,0.85
		c0.71,0.01,2.36-0.01,2.76,0.01c0.43,0.42,1.05,0.87,1.66,0.81c0.39-0.04,0.96-0.3,1.23-0.41c0.97-0.41,1.25-0.85,2.26-0.69
		c0.81,0.13,1.12,0.15,1.4-0.33c0.21-0.35,0.32-0.96-0.11-1.46c0.37-0.33,0.5-1.49-0.24-1.7c0.16-0.58-0.02-1.19-0.75-1.27
		c-0.4-0.05-1.15,0.27-2.18,0.84c0.2-0.59-0.29-1.31-0.63-1.15c-0.56,0.26-0.75,0.66-1.63,0.82c-1.95,0.35-1.74,1.73-1.74,2.21
		c-0.52,0.05-1.74,0.05-2.31-0.01c-0.42-0.04-3.66-1.34-4.11-1.56c0.69-0.24,1.4-0.59,1.97-1.06c0.29-0.24,0.48-0.37,0.56-0.44
		c1.44-0.03,2.99-0.67,3.79-1.84c0.45-0.65,0.79-1.42,0.73-2.18c-0.05-0.72-0.43-1.32-1.14-1.59c0.07-0.65-0.14-1.59-0.34-2.35
		c-0.32-1.25-1.16-2.47-2.1-3.35c-0.8-0.75-1.28-1.09-2.12-1.79c-0.66-0.54-1.47-1.58-1.73-2.38c-0.34-1.01-1.58-1.93-2.74-1.91
		c-1.36,0.01-2.74,0.51-3.11,2.12c-0.54,0.74-1.04,1.52-1.64,2.21c-0.51,0.6-1.15,1.09-1.71,1.65c-0.85,0.86-1.5,1.71-2.02,3.05
		c-0.34,0.88-0.53,1.65-0.58,2.54c-0.55,0.08-1.01,0.4-1.31,0.91c-0.4,0.7-0.36,1.46-0.13,2.2c0.27,0.88,0.9,1.51,1.66,1.98
		c0.89,0.55,2.15,0.7,2.81,0.77c0.71,0.61,1.96,1.35,2.97,1.59c-1.12,0.38-2.43,0.99-3.57,1.32c-1.12,0.32-2.61,0.18-3.31,0.17
		c0.2-1.2-0.5-1.98-1.4-2.12c-0.64-0.09-1.19-0.41-1.7-0.8c-0.21-0.16-0.41-0.15-0.6,0.03c-0.27,0.24-0.39,0.54-0.36,0.87
		c-0.54-0.22-1.06-0.48-1.61-0.63c-0.6-0.16-1.1,0.03-1.23,0.6c-0.05,0.2-0.01,0.35,0.02,0.59c-0.53,0.08-0.75,1.09-0.22,1.73
		c-0.02,0.03-0.03,0.06-0.05,0.08c-0.37,0.52-0.37,0.79-0.01,1.38c0.26,0.42,0.65,0.37,1.05,0.33c0.32-0.03,0.66-0.06,0.95,0.04
		c0.6,0.2,1.19,0.47,1.77,0.75c1.05,0.5,1.87,0.48,2.5-0.5c2.34,0.06,3.34,0.13,4.43-0.11c0.81-0.17,2.26-0.6,3.06-0.81
		c-0.25,1.26-0.87,2.37-1.21,3.36c-0.38,1.08-0.79,2.25,0.17,3.21c-0.23,0.17-0.34,0.23-0.55,0.41c-1.61,1.34-2.07,3.1-1.81,5.11
		c-0.53,0.05-1.87,2.4-0.19,3.51c-1.3,0.62-2.46,1.56-3.04,2.91c-0.9,2.08-1.08,4.66,0.61,5.96c-0.13,0-0.28,0.01-0.41,0.01
		c-4.39,0-8.79,0-13.18,0c-0.08,0-0.17-0.03-0.22,0.01c-0.06,0.04-0.1,0.13-0.14,0.2c4.61,0,9.22,0,13.84,0c0.15,0,0.68,0,0.8,0
		c5.83,0,11.66,0,17.5,0c0.13,0,0.26,0.01,0.38,0.02c0.13-0.01,0.26-0.02,0.38-0.02c2.18,0,4.36,0,6.53,0c2.63,0,5.26,0,7.89-0.01
		C59.75,54.05,59.54,54.13,59.41,54.13z M48.53,30.75c-0.18,0.14-0.47,0.23-0.64,0.28c0.04-0.41,0.07-1.29-0.45-2.35
		c0.5-0.03,0.66,0.08,0.85,0.56C48.41,29.54,48.6,30.2,48.53,30.75z M50.77,29.96c-0.05-0.01-0.28,0.02-0.45,0.05
		c0.09-0.49-0.13-1.04-0.26-1.31c0.09-0.03,0.25-0.08,0.47-0.16C50.73,28.78,50.88,29.51,50.77,29.96z M52.23,29.8
		c-0.27,0.39-0.64,0.23-0.91,0.2c0.09-0.34,0.1-1-0.15-1.64c0.47-0.14,0.75-0.05,1.06,0.37C52.49,29.06,52.49,29.42,52.23,29.8z
		 M52.26,27.06c0.25,0.23,0.24,0.92-0.09,1.22c-0.31-0.21-0.66-0.26-1.08-0.13c0-0.21-0.06-0.7-0.26-1.06
		c0.32-0.14,0.77-0.23,1.02-0.2C52.07,26.92,52.16,26.98,52.26,27.06z M51.39,25.68c0.46,0,0.68,0.66,0.48,1.02
		c-0.33-0.04-0.92,0.09-1.19,0.23c-0.06-0.36-0.15-0.68-0.3-0.97C50.58,25.85,50.98,25.68,51.39,25.68z M50.44,28.32
		c-0.12,0.03-0.27,0.1-0.42,0.16c-0.07-0.32-0.17-0.72-0.29-0.96c0.15-0.06,0.3-0.12,0.44-0.18C50.36,27.64,50.42,28.04,50.44,28.32
		z M49.75,26.27c0.17,0.2,0.28,0.63,0.29,0.88c-0.14,0.05-0.24,0.1-0.46,0.17c-0.02-0.26-0.1-0.56-0.21-0.84
		C49.48,26.43,49.62,26.34,49.75,26.27z M49.43,28.98c0.22,0.36,0.38,0.87,0.21,1.29c-0.12,0.11-0.42,0.22-0.5,0.25
		c0.1-0.57-0.11-1.2-0.29-1.53c0.13-0.03,0.17-0.06,0.16-0.13c0-0.02-0.2-0.11-0.33-0.16c-0.34-0.71-0.43-1.01-0.56-1.79
		c0.21-0.05,0.34-0.08,0.45-0.11C48.79,27.6,49.02,28.29,49.43,28.98z M48.46,25.47c0.07-0.04,0.18-0.08,0.25-0.06
		c0.16,0.05,0.3,0.39,0.31,0.6c0.01,0.17-0.13,0.43-0.28,0.51c-0.25,0.14-0.56,0.16-0.85,0.24c-0.05-0.29-0.08-0.54-0.13-0.82
		C48,25.78,48.22,25.61,48.46,25.47z M47.07,26.22c0.12,0.44,0.21,0.93,0.37,0.94c0.08,0.42,0.17,0.84,0.31,1.29
		c-0.19-0.03-0.36-0.01-0.55,0.02c-0.25-0.63-0.54-1.46-0.61-2.15C46.82,26.27,46.95,26.25,47.07,26.22z M45.91,26.64
		c0.18,0.71,0.43,1.5,0.73,2.19c-0.09,0.13-0.07,0.33-0.01,0.33s0.05-0.13,0.23-0.23c0.29,0.87,0.36,1.61,0.33,2.12
		c-0.04,0.02-0.45-0.23-0.54-0.37c-0.64-1.02-0.98-2.15-1.1-3.35C45.51,27,45.72,26.8,45.91,26.64z M45.02,28.45
		c0.17,0.53,0.18,1.29,0.19,1.82c-0.32,0.01-0.47,0.02-0.73,0.03c0.01-0.55,0.01-1.16-0.09-1.84
		C44.52,28.45,44.92,28.44,45.02,28.45z M22.27,25.47c0.07-0.02,0.18,0.01,0.25,0.06c0.24,0.15,0.46,0.31,0.7,0.47
		c-0.04,0.27-0.08,0.53-0.13,0.82c-0.29-0.07-0.6-0.1-0.85-0.24c-0.15-0.08-0.29-0.34-0.28-0.51
		C21.98,25.86,22.11,25.52,22.27,25.47z M21.23,26.33c0.13,0.07,0.28,0.15,0.39,0.21c-0.11,0.27-0.19,0.57-0.21,0.84
		c-0.22-0.08-0.33-0.12-0.46-0.17C20.95,26.96,21.06,26.52,21.23,26.33z M19.59,25.74c0.41,0,0.81,0.17,1,0.28
		c-0.14,0.29-0.23,0.61-0.3,0.97c-0.27-0.13-0.86-0.27-1.19-0.23C18.9,26.4,19.13,25.74,19.59,25.74z M19.66,30.05
		c-0.28,0.03-0.65,0.19-0.91-0.2c-0.26-0.38-0.25-0.73,0-1.07c0.31-0.42,0.59-0.51,1.06-0.37C19.56,29.05,19.57,29.71,19.66,30.05z
		 M19.89,28.21c-0.42-0.14-0.77-0.08-1.08,0.13c-0.33-0.29-0.34-0.99-0.09-1.22c0.09-0.08,0.19-0.14,0.41-0.17
		c0.26-0.03,0.7,0.06,1.02,0.2C19.95,27.51,19.9,27.99,19.89,28.21z M20.65,30.06c-0.17-0.03-0.39-0.06-0.45-0.05
		c-0.11-0.45,0.04-1.18,0.24-1.42c0.22,0.08,0.38,0.12,0.47,0.16C20.78,29.02,20.56,29.57,20.65,30.06z M20.96,28.54
		c-0.15-0.06-0.3-0.13-0.42-0.16c0.01-0.28,0.08-0.68,0.27-0.98c0.15,0.06,0.3,0.12,0.44,0.18C21.13,27.82,21.03,28.22,20.96,28.54z
		 M22.3,28.76c-0.13,0.04-0.33,0.13-0.33,0.16c-0.01,0.08,0.03,0.1,0.16,0.13c-0.18,0.33-0.39,0.95-0.29,1.53
		c-0.08-0.03-0.37-0.14-0.5-0.25c-0.17-0.42-0.01-0.93,0.21-1.29c0.41-0.69,0.65-1.38,0.86-2.17c0.1,0.02,0.24,0.06,0.45,0.11
		C22.73,27.75,22.63,28.05,22.3,28.76z M23.09,31.08c-0.17-0.05-0.46-0.14-0.64-0.28c-0.07-0.54,0.12-1.2,0.23-1.51
		c0.19-0.48,0.35-0.59,0.85-0.56C23.02,29.79,23.05,30.68,23.09,31.08z M23.23,28.51c0.15-0.45,0.24-0.87,0.31-1.29
		c0.16-0.01,0.25-0.5,0.37-0.94c0.12,0.02,0.26,0.05,0.49,0.1c-0.08,0.7-0.37,1.53-0.61,2.15C23.59,28.49,23.42,28.48,23.23,28.51z
		 M24.34,30.74c-0.09,0.14-0.5,0.39-0.54,0.37c-0.03-0.51,0.04-1.25,0.33-2.12c0.18,0.09,0.17,0.23,0.23,0.23s0.07-0.19-0.01-0.33
		c0.29-0.69,0.54-1.48,0.73-2.19c0.19,0.17,0.4,0.36,0.37,0.7C25.32,28.59,24.98,29.72,24.34,30.74z M26.51,30.34
		c-0.26,0-0.41-0.01-0.73-0.03c0.01-0.52,0.01-1.29,0.19-1.82c0.1,0,0.5,0,0.63,0C26.5,29.18,26.5,29.8,26.51,30.34z M42.33,45.23
		c-1.04-0.52-1.83-0.78-2.96-0.91c1.05-0.4,2-1.03,2.48-2.31C42.95,42.44,43.15,44.78,42.33,45.23z M43.09,28.47
		c0.13,0,0.3,0,0.56,0c0.07,0.44,0.07,1.15,0,1.83c-0.28,0.01-0.56-0.01-0.8-0.02C42.98,29.79,43.05,29.07,43.09,28.47z
		 M31.22,25.92c-0.84-0.44-1.45-0.95-2.14-1.74c-0.08-0.08-0.15,0.05-0.18,0.11c-0.08,0.15,0.19,0.39,0.49,0.63
		c-1.36-0.2-2.65-0.5-3.49-1.67c-0.5-0.68-0.72-1.48-0.52-2.34c0.24-1,1.16-1.52,2.13-1.16c0.21,0.08,0.41,0.2,0.58,0.32
		c-0.02,0.11-0.04,0.2-0.06,0.29c-0.02,0.08,0.01,0.14,0.03,0.16c0.09,0.07,0.2,0.17,0.24,0.08c0.6-1.33,1.64-2.36,2.76-3.02
		c0.08-0.05,0.19-0.12,0.28-0.16c-0.04,0.09,0,0.16,0.05,0.16c0.11,0,0.29-0.45,0.45-0.66c0.6-0.76,1.1-0.7,1.79-0.03
		c0.15,0.15,0.34,0.4,0.47,0.37c0.04-0.01,0.08-0.02,0.08-0.05c0.01-0.04,0.02-0.16-0.18-0.4c-0.2-0.22-0.46-0.42-0.73-0.57
		c-0.41-0.24-0.84-0.23-1.33,0.21c-0.16,0.14-0.42,0.51-0.51,0.69c-0.17,0.09-0.3,0.17-0.67,0.4c-1.02,0.64-1.86,1.43-2.53,2.34
		c-0.32-0.24-0.61-0.47-1.23-0.55c0.01-0.7,0.14-1.33,0.36-2.03c0.45-1.49,1.23-2.77,2.4-3.81c0.54-0.48,1.07-0.96,1.55-1.49
		c0.47-0.52,0.82-1.04,1.23-1.58c-0.02,0.14,0.01,0.21,0.13,0.23c0.04,0.01,0.12,0.01,0.16-0.01c0.05-0.04,0.07-0.13,0.06-0.19
		c-0.05-1.38,0.59-2.06,1.93-2.38c1.44-0.35,2.84,0.36,3.4,1.75c0.47,1.17,1.21,2.12,2.26,2.84c1,0.69,1.91,1.48,2.63,2.48
		c0.83,1.16,1.24,2.45,1.27,3.87c0,0.15-0.01,0.48-0.01,0.52c-0.44-0.06-1.16,0.05-1.64,0.35c-0.59-1.23-1.8-2.19-2.99-2.67
		c-0.18-0.37-0.44-0.74-0.71-0.96c-0.52-0.44-1.27-0.41-1.87,0.09c-0.13,0.11-0.27,0.23-0.37,0.36c-0.16,0.22-0.24,0.5-0.22,0.56
		c0.02,0.04,0.05,0.06,0.11,0.05c0.05-0.01,0.19-0.05,0.21-0.11c0.25-0.52,0.55-0.89,1.1-1.02c0.53-0.13,0.9,0.18,1.18,0.53
		c0.18,0.22,0.3,0.45,0.43,0.71c0.08,0.17,0.15,0.4,0.24,0.37c0.05-0.02,0.03-0.25,0-0.35c1.43,0.73,2.52,1.8,2.84,3.44
		c0.02,0.07,0.24-0.12,0.24-0.18c0.02-0.23-0.02-0.39-0.11-0.64c0.44-0.22,0.95-0.32,1.46-0.3c0.64,0.03,1.17,0.58,1.23,1.22
		c0.17,1.61-1.25,3.2-2.6,3.63c-0.37,0.12-0.58,0.19-0.97,0.26c-0.08,0.02-0.31,0.04-0.42,0.04c0.27-0.24,0.98-0.91,0.57-1.08
		c-0.08-0.03-0.2,0.22-0.27,0.33c-0.45,0.7-1.11,1.19-1.79,1.64c-1.12,0.75-2.39,0.94-3.7,1.02C34.54,26.94,32.82,26.76,31.22,25.92
		z M27.33,30.35c-0.07-0.68-0.07-1.39,0-1.83c0.26,0,0.43,0,0.56,0c0.04,0.6,0.12,1.47,0.29,1.81
		C27.94,30.34,27.6,30.37,27.33,30.35z M32.4,30.57c0.17-0.48,0.29-0.89,0.41-1.39c0.02-0.09,0.04-0.22-0.06-0.33
		c-0.04-0.04-0.13-0.05-0.2,0c-0.11,0.07-0.16,0.25-0.17,0.56c-1.03,0.28-2.17,0.62-3.26,0.85c-0.32,0.06-0.54-1.41-0.59-1.86
		c0.75-0.06,3.13-1.02,4.71-1.48c1.72,0.31,2.91,0.22,3.83,0.11c0.31-0.04,0.61-0.12,0.92-0.16c0.14-0.02,0.3,0,0.44,0.03
		c1.28,0.32,2.84,1.05,4.03,1.44c-0.02,0.27-0.21,1.84-0.49,1.81c-1.01-0.13-1.78-0.41-2.99-0.77c0.02-0.24,0-0.43-0.18-0.45
		c-0.29-0.02-0.21,0.52-0.13,0.83c0.27,1.1,0.63,2.23,1.16,3.1c-2.71-1.16-5.41-1.36-8.32,0.05C31.79,32.13,32.12,31.36,32.4,30.57z
		 M31.39,33.25c0.98-0.59,2.26-0.95,3.38-1.04c1.66-0.12,3.21,0.13,5.25,1.11c0.57,1.43,0.04,2.61-0.39,3.06
		c-2.61-1.73-5.23-1.57-8.05-0.38C30.97,35.38,30.89,34.2,31.39,33.25z M28.98,41.85c0.06,0.79,0.51,1.35,1.15,1.76
		c0.46,0.29,0.98,0.51,1.43,0.74c-0.61,0.17-1.26,0.35-1.91,0.55c-0.23,0.07-0.46,0.18-0.69,0.26C28.3,44.95,27.7,42.89,28.98,41.85
		z M44.2,54.13c-5.77,0-11.55,0-17.32,0c-0.11,0-0.26-0.03-0.34-0.1c-0.5-0.48-0.95-0.99-1.12-1.69c-0.27-1.11-0.18-2.21,0.16-3.3
		c0.68-2.18,2.29-3.36,4.36-3.99c0.86-0.27,1.73-0.4,2.62-0.49c0.1-0.01,0.25-0.11,0.22-0.25c0.57,0.11,1.14,0.28,1.72,0.33
		c1.1,0.09,2.26,0.02,3.34-0.3c0.43-0.11,2.24-0.91,2.8-1.38c0.56-0.47,0.43-1.27-0.27-1.51c-0.6-0.2-1.21-0.37-1.81-0.55
		c-0.95-0.29-1.9-0.59-2.71-1.21c-0.4-0.31-0.84-0.29-1.19,0.01c-0.86,0.73-1.9,0.99-2.94,1.31c-0.46,0.14-0.92,0.3-1.37,0.44
		c-0.39,0.13-0.54,0.43-0.6,0.8c-0.05,0.36,0.01,0.63,0.37,0.87c0.73,0.47,1.53,0.77,2.34,1.05c0.1,0.04,0.2,0.09,0.29,0.13
		c-0.86,0.04-1.59-0.32-2.31-0.71c-0.95-0.51-1.3-1.36-1.36-2.39c-0.09-1.5,0.25-2.85,1.29-3.98c0.72-0.78,1.61-1.27,2.62-1.55
		c1.88-0.52,3.74-0.52,5.52,0.34c1.26,0.61,2.43,1.41,2.89,2.82c0.46,1.43,0.63,2.89-0.42,4.19c-0.55,0.68-1.31,1.02-2.12,1.25
		c-0.2,0.06-0.82,0.06-1.04,0.06c0.17,0.33,0.44,0.17,1.53,0.3c0.62,0.07,1.49,0.25,2.29,0.62c1.02,0.48,2.04,1.25,2.52,1.88
		c0.44,0.57,0.73,1.11,0.92,1.81c0.26,0.96,0.36,1.94,0.29,2.93C45.33,52.67,44.74,53.64,44.2,54.13z M34.68,40.36
		c0.95-0.1,1.85,0.1,2.74,0.39c0.95,0.31,1.9,0.58,2.86,0.87c0.52,0.16,0.67,0.75,0.27,1.13c-0.16,0.16-0.34,0.31-0.54,0.4
		c-0.9,0.43-1.79,0.88-2.77,1.09c-1.56,0.32-3.11,0.28-4.62-0.3c-0.77-0.29-1.52-0.64-2.28-0.95c-0.27-0.11-0.35-0.32-0.32-0.6
		c0.03-0.3,0.09-0.59,0.41-0.71c0.68-0.24,1.37-0.43,2.04-0.68c0.67-0.24,1.84-0.56,1.99-0.78C34.48,40.32,34.61,40.37,34.68,40.36z
		 M34.51,40.15c0.3-0.58,0.95-0.58,1.62,0C35.59,40.08,35.09,40.08,34.51,40.15z"/>
	<g id="Clouds_1_">
		<path class="st8" d="M55.96,7.37c-0.05,0.44-0.27,0.69-0.52,0.87c-0.24,0.18-0.72,0.38-1.11,0.49c-1.2,0.33-2.11,1.89-1.79,3.09
			c0.13,0.47,0.53,0.81,0.9,1.06c0.3,0.2,0.81,0.29,1.07,0.31c0.39,0.02,1.04-0.36,1.02,0.23c-1.04,0.09-2.02-0.03-2.8-0.81
			c-0.18-0.18-0.36-0.14-0.54-0.01c-0.67,0.5-1.1,1.72-0.85,2.52c0.19,0.62,0.68,0.93,1.27,1.12c0.21,0.07,0.42,0.12,0.67,0.19
			c-1.09,0.26-2.2-0.6-2.24-1.68c-0.03-0.73,0.13-1.39,0.62-1.94c0.21-0.23,0.46-0.42,0.72-0.65c-0.47-1.31,0.05-2.36,1.13-3.27
			c-0.37,0.07-1.12-0.04-1.45-0.15c-0.76,0.69-2.41,0.74-3.43,0.14c-0.36,0.4-0.93,0.52-1.42,0.53c-0.99,0.03-1.85-0.15-2.62-0.79
			c-0.19-0.17-0.4-0.4-0.5-0.72c-0.75,0.08-2.78-0.53-3.66-1.7c-0.38-0.51-0.7-1.2-0.71-1.83c-1.57-0.01-2.78-0.54-3.53-2
			c-1.1,0.9-2.47,0.81-3.45,0.33c-0.09,0.24-0.21,0.45-0.45,0.69c-0.41,0.42-1.19,0.66-1.93,0.51c-0.63,1.62-2.68,2.31-4.4,1.89
			c-0.46-0.11-0.81-0.38-1.09-0.74c-0.72,1.6-2.87,2.8-4.8,2.13c0.44,1.02,0.62,2.07,0.61,3.16c-0.01,1.14-0.53,2.28-1.03,2.9
			c0.75,0.48,1.3,1.18,1.55,2.02c0.28,0.92,0.35,1.87-0.17,2.74c-0.61,1.02-1.49,1.75-2.74,1.92c-0.27,0.66-1.1,1.25-1.69,1.55
			c-1.11,0.56-2.26,0.77-3.5,0.35c-0.21-0.07-0.44-0.21-0.62-0.34c-0.17-0.13-0.22-0.35-0.13-0.28c1.13,0.77,2.31,0.79,3.52,0.33
			c0.8-0.31,1.52-0.77,2.03-1.57c-0.49-0.07-1.05-0.1-1.24-0.5c-0.02-0.04,0-0.11,0-0.09c0.32,0.12,0.61,0.28,0.93,0.33
			c0.63,0.1,1.23-0.06,1.78-0.4c0.81-0.49,1.46-1.13,1.65-2.07c0.16-0.8,0.05-1.62-0.33-2.38c-0.3-0.59-0.66-0.96-1.26-1.4
			c-0.52,0.57-1.17,1.04-1.44,1.21c-0.17,0.11-0.51,0.3-0.81,0.23c1.56-0.81,3.15-2.34,3.23-4.56c0.07-2.06-0.57-3.85-2.23-5.19
			c-0.06-0.05,0.02-0.12,0.08-0.08c0.08,0.04,0.15,0.08,0.23,0.14c0.55,0.39,0.96,0.91,1.31,1.48c0.09,0.14,0.26,0.29,0.42,0.33
			c1.77,0.52,3.66-0.62,4.31-1.91c0.27-0.55,0.23-1.14,0.12-1.72c-0.02-0.08-0.03-0.13-0.07-0.24c-0.02-0.07,0-0.12,0.04-0.1
			c0.1,0.05,0.2,0.16,0.24,0.24c0.13,0.28,0.15,0.71,0.11,1.04c-0.05,0.53,0.16,0.83,0.56,1.03c0.83,0.42,2.2,0.32,2.76,0.07
			c0.62-0.28,1.63-0.66,1.98-2.1c0.32-1.35-0.12-1.91-0.02-1.83c0.38,0.27,0.4,1.2,0.15,2.17c0.58,0.1,1.27,0.02,1.69-0.42
			c0.5-0.52,0.64-0.99,0.7-1.89c0.09,0.21,0.1,0.7,0,1.11c0.06,0.04,0.14,0.09,0.19,0.12C33.66,2.97,35.24,3,36.1,2.22
			c-0.1-0.23-0.26-0.55-0.25-0.7c0.02-0.28,0.27-0.38,0.3-0.16c0.04,0.2,0.07,0.3,0.13,0.53c0.14,0.38,0.2,0.65,0.78,1.29
			c0.63,0.69,1.65,0.89,2.66,0.84c0.06-0.26,0.1-0.6,0.22-0.91c0.17-0.43,0.48-1.09,0.83-1.42c0.05-0.03,0.1,0,0.06,0.06
			c-0.18,0.37-0.38,0.73-0.54,1.11c-0.47,1.12-0.46,2.21,0.33,3.2c0.48,0.6,1.12,1,1.85,1.22c0.5,0.15,1.13,0.24,1.54,0.23
			C44,7.23,44.06,5.92,44.75,5.29c0.07-0.07,0.17-0.06,0.11,0.05c-0.03,0.06-0.06,0.13-0.1,0.19c-0.47,0.65-0.55,1.38-0.43,2.14
			c0.09,0.6,0.55,0.96,1.03,1.18c0.49,0.23,1.52,0.35,2.13,0.26c0.29-0.05,0.76-0.26,0.86-0.43c-1.03-1.03-0.55-2.86,0.2-3.9
			c0.05-0.08,0.19-0.1,0.3-0.11c-0.57,0.85-0.86,1.76-0.78,2.77c0.05,0.69,0.43,1.14,1.05,1.38S50.39,9.15,51.04,9
			c0.23-0.05,0.56-0.24,0.71-0.37c-0.32-0.22-0.55-0.36-0.73-0.62c-0.05-0.09,0.02-0.17,0.08-0.1c0.71,0.7,1.59,0.78,2.5,0.7
			C54.51,8.53,55.35,8.24,55.96,7.37z"/>
		<path class="st8" d="M14.36,15.77c0.7,0.42,0.77,1.22,0.7,1.68c-0.1,0.66-0.71,1.76-2.4,1.67c-0.03,1.2-0.56,3.43-2.72,3.83
			c0.62,0.79,0.76,1.59,0.71,2.13c1.11,0.18,1.85,0.94,2.26,1.89c0.29,0.66,0.32,1.41,0.14,2.04c-0.18,0.63-0.41,0.98-0.75,1.34
			c0.61,0.3,0.93,0.68,1.28,1.25c0.35,0.56,0.51,1.17,0.49,1.86c2.5-1.19,4.02,0.04,4.71,1.05c0.62-0.26,1.29-0.32,1.96-0.16
			c0.63,0.15,1.2,0.44,1.66,0.92c0.52,0.56,0.7,1.23,0.58,1.96c-0.05,0.28-0.23,0.55-0.41,0.78c-0.16,0.21-0.39,0.36-0.6,0.55
			c0.45,0.44,0.85,1.07,1.02,1.79c0.31,1.33-0.01,2.31-0.91,3.17c-0.78,0.65-1.57,1.02-2.83,1.01c0.05,1.62-0.91,2.66-1.79,3.06
			c0.45,0.23,0.43,0.17,0.83,0.46c1.32,0.93,2.07,2.17,1.96,3.84c-0.04,0.65-0.3,1.22-0.71,1.72c-0.09,0.11-0.22,0.19-0.36,0.24
			c0.19-0.29,0.43-0.57,0.55-0.89c0.65-1.65,0.09-3.34-1.25-4.43c-0.43-0.35-0.83-0.56-1.34-0.77c-0.58,0.18-3.32,0.89-4.91-0.58
			c-0.12,0.7-0.53,1.54-1.51,1.64c0.27-0.11,0.52-0.27,0.7-0.49c0.21-0.25,0.4-0.61,0.46-0.92c0.19-1.05,0.06-2.15-0.69-3.02
			c-0.48-0.56-1.1-0.89-1.94-0.89c-0.51,0-0.81,0.09-1.25,0.19c-0.18,0.04-0.23-0.25-0.12-0.27c0.05-0.01,0.1-0.03,0.16-0.03
			c1-0.11,2.07-0.25,2.93,0.45c0.75,0.61,1.24,1.53,1.3,2.58c0.03,0.6,0.8,1.15,1.69,1.33c0.98,0.2,4.89,0.43,5.03-3.23
			c-0.56-0.15-0.83-0.43-0.97-0.81c0.05,0.03,0.12,0.05,0.16,0.1c0.34,0.44,0.74,0.47,1.33,0.47c1.19-0.11,2.05-0.46,2.8-1.39
			c0.62-0.76,0.64-1.99,0.34-2.84c-0.18-0.5-0.56-1.05-0.83-1.36c-0.31,0.18-0.75,0.43-0.83,0.15c-0.06-0.21,0.6-0.34,0.86-0.52
			c1.14-0.76,1.25-2.04,0.26-2.99c-0.77-0.74-2.04-1.01-3.19-0.66c0.35,0.64,0.69,1.28,0.46,2.04c-0.13-1.63-1.12-2.84-2.25-3.27
			s-2.5-0.06-3.07,0.36c-0.15,0.48-0.25,0.61-0.41,0.81c0.61-1.62-0.12-2.97-0.97-3.71c-0.73-0.63-1.51-0.52-2.32-0.22
			c-0.15,0.06-0.3,0.13-0.45,0.2c-0.06,0.03-0.13-0.08-0.06-0.12c0.3-0.17,1.14-0.65,2.08-0.51c1.58-1.33,1.11-4.13-0.85-4.85
			c-0.13-0.05-0.27-0.06-0.43-0.09c-0.07,0.9-0.55,1.45-1.29,1.81c-0.09,0.04-0.16,0-0.08-0.07c0.25-0.24,0.53-0.46,0.74-0.73
			c0.45-0.66,0.84-1.69-0.1-3.06c-0.47-0.69-1.58-0.85-2.23-0.78C7.64,22.49,7.6,22.49,7.5,22.5c-0.03-0.07,0.07-0.15,0.11-0.15
			c0.58-0.14,1.62,0.04,2.19,0.47c1.86-0.16,2.86-2.46,2.58-4.22c-0.08-0.51-0.29-0.97-0.74-1.2c-0.07-0.03-0.36-0.1-0.32-0.23
			s0.3-0.24,0.43-0.17c0.57,0.31,0.88,1.27,0.93,1.94c1.08,0.21,1.79-0.51,2.05-1s0.31-1.35-0.2-1.9
			C14.46,15.96,14.28,15.73,14.36,15.77z"/>
		<path class="st8" d="M50.85,52.92c-0.43-0.52-0.44-1.15-0.44-1.79c0-1.64,0.75-2.92,1.87-4.07c0.61,0.61,1.3,1.05,2.13,1.21
			c1.15,0.21,2.09,0.1,2.32-0.21c-0.17-0.3-1.08,0.09-1.64,0.05c-1.31-0.08-2.38-0.65-3.03-1.81c-0.7-1.24-0.22-3.24,0.05-3.76
			c0.16,0.06,0.19,0.07,0.3,0.11c0.84,0.3,1.7,0.29,2.57,0.21c0.19-0.02,0.49-0.11,0.36-0.32c-0.19-0.27-0.53,0.12-0.86,0.13
			c-0.65,0.02-1.15,0.05-1.96-0.24c-0.9-0.32-1.25-0.85-1.16-1.75c0.06-0.6,0.26-1.17,0.61-1.67c0.13-0.18,0.25-0.37,0.38-0.56
			c0.05-0.05-0.03-0.1-0.08-0.08c-0.06,0.04-0.14,0.06-0.19,0.12c-0.6,0.72-1,1.53-0.99,2.49c0.01,0.48,0.09,0.89,0.73,1.44
			c-0.46,1.1-0.53,2.23-0.29,3.23c0.11,0.45,0.4,0.94,0.65,1.28c-0.11,0.11-0.32,0.29-0.45,0.43c-1.1,1.2-1.65,2.6-1.57,4.24
			c0.05,1.01,0.49,1.75,1.37,2.24c0.11,0.06,0.42,0.23,0.86,0.3c0.43,0,0.48,0,0.82,0C52.28,53.97,51.45,53.65,50.85,52.92z"/>
		<path class="st8" d="M56.27,20.18c-1.67,0.14-2.91-0.61-2.95-2.17c-0.02-0.74,0.3-1.51,0.85-2.14c0.07-0.08,0.17-0.18,0.26-0.24
			c0.07-0.03,0.09,0.02,0.06,0.07c-0.18,0.28-0.37,0.56-0.53,0.85c-0.29,0.52-0.39,1.08-0.37,1.67c0.03,0.78,0.58,1.44,1.54,1.67
			c0.35,0.08,0.65,0.11,1.12,0.06c-0.04-0.75-0.03-1.58,0.49-2.25c-0.84,2.47,0.25,4.41,2.33,5.27c0.22-1.34,1.11-2.15,1.84-1.77
			c-0.58-0.05-0.97,0.26-1.2,0.66c-0.22,0.38-0.37,0.81-0.43,1.24c-0.2,1.32,0.51,1.8,1.36,1.93c0.29,0.04,1.2-0.21,1.17,0.16
			c-0.01,0.09-0.88,0.12-1.22,0.03c-0.63,0.37-1.17,1.2-1.32,1.79c-0.17,0.65,0.01,1.18,0.55,1.59c0.22,0.17,0.51,0.31,0.73,0.38
			c0.34-0.63,0.94-1.6,1.85-1.67c-0.89,0.37-1.37,1.11-1.68,1.97c-0.41,1.15-0.05,2.14,0.99,2.8c0.77,0.49,2.57,0.6,2.54,0.91
			c-0.01,0.04-0.22,0.06-0.33,0.06c-1.23-0.03-2.25-0.53-3.08-1.43c-0.14-0.15-0.19-0.21-0.43-0.13c-0.98,0.34-2.21,1.33-2.58,2.71
			c-0.06,0.22-0.01,0.35,0.15,0.5c0.79,0.76,1.17,1.7,1.11,2.8c-0.01,0.09-0.03,0.17-0.04,0.26c-0.04,0-0.07,0-0.11,0
			c-0.02-0.15-0.04-0.3-0.05-0.45c-0.05-1.09-0.47-2.01-1.35-2.66c-0.92-0.68-1.93-0.56-2.93-0.14c-0.74,0.31-1.35,0.74-1.49,1.7
			c-0.14-0.43,0-0.73,0.16-1.02c0.06-0.1,0.15-0.18,0.22-0.27c0.21-0.26,0.12-0.64-0.2-0.75c-0.58-0.19-1.14-0.1-1.68,0.18
			c-1.12,0.59-1.77,1.87-1.57,3.12c0.1,0.62,0.52,1.01,0.98,1.37c0.12,0.1,0.25,0.19,0.41,0.3c-0.75-0.09-1.55-0.91-1.65-1.66
			c-0.18-1.36,0.47-2.64,1.67-3.32c0.53-0.3,1.09-0.44,1.67-0.35c0.48,0.07,0.82,0.3,0.81,0.76c0.61-0.37,1.03-0.56,1.73-0.61
			c0.69-0.05,1.37,0.01,1.95,0.42c0.07-1.38,1.66-2.94,2.94-3.12c-0.3-0.63-0.25-1.32-0.08-2.02c-0.69-0.27-1.64-0.91-1.45-2.05
			c0.14-0.87,0.64-1.54,1.33-2.03c-1.02-0.35-1.34-0.82-1.31-1.91C58.09,22.86,56.64,21.92,56.27,20.18z"/>
		<path class="st8" d="M59.76,51.95c-0.79-0.09-1.89-0.57-2.06-1.73c-0.11-1.03,0.42-2.11,1.48-2.68c-0.79-1-1.25-2.65-0.32-3.98
			c0.81-1.16,2.31-1.63,3.53-1.29c0.24,0.09,0.39,0.13,0.4,0.28c-0.72-0.29-1.56-0.23-2.25,0.05c-0.79,0.33-1.74,1.04-1.92,2.21
			c-0.14,0.94,0.22,1.99,0.89,2.66c0.43,0.43,1.13,0.84,1.49,0.97c0.42-0.51,0.83-0.78,1.18-0.96c0.17-0.08,0.49-0.06,0.32,0.03
			c-0.64,0.38-1.17,0.88-1.55,1.49c-0.16,0.26-0.28,0.56-0.34,0.85c-0.11,0.49,0.01,1.2,0.54,1.56c0.53,0.37,1.53,0.48,1.49,0.68
			c0.01,0.06-0.06,0.15-0.16,0.13c-0.6-0.11-1.01-0.33-1.55-0.78c-0.56-0.5-0.58-1.09-0.55-1.55c0.04-0.5,0.31-1,0.45-1.2
			c-0.57-0.25-0.97-0.52-1.5-0.99c-1.42,0.52-1.92,2.77-0.52,3.73C59.11,51.63,59.84,51.39,59.76,51.95z"/>
		<path class="st8" d="M60.77,10.87c-0.76,0.71-1.07,1.61-1.13,2.61c-0.07,1.18,0.65,2.12,1.83,2.4c0.33,0.08,1.32,0.01,1.61,0.38
			c-1.27,0.23-2.28-0.23-2.96-0.83c-0.71-0.63-0.85-1.45-0.71-2.25c-0.74-0.21-1.08-0.39-1.52-0.67c-0.77-0.52-1.03-1.33-0.96-2.26
			c0.08-1,0.48-1.85,1.24-2.53c0.27-0.24,0.58-0.36,0.94-0.31c-0.43,0.14-0.73,0.35-1.04,0.71c-0.67,0.77-0.99,1.68-0.87,2.69
			c0.09,0.77,0.58,1.31,1.25,1.68c0.24,0.13,1.02,0.32,1.07,0.12c0.17-0.71,0.49-1.34,1.05-1.83
			C60.91,10.42,61.08,10.68,60.77,10.87z"/>
		<path class="st8" d="M11.53,14.31c1.49,0.19,2.38-0.24,2.96-1.23c0.36-0.76,0.21-1.65-0.23-2.37c-0.29,0.18-0.73,0.29-0.98,0.31
			c-0.1,0-0.13-0.08-0.05-0.1c0.12-0.03,0.22-0.07,0.33-0.11c0.61-0.23,1.09-0.63,1.44-1.17c0.56-0.85,0.22-2.27-0.67-2.85
			c-0.1-0.06-0.19-0.12-0.32-0.2c0.62-0.04,1.2,0.61,1.39,1.23c0.24,0.95,0.12,1.86-0.91,2.73c1.54,2.58-1,4.37-2.52,3.95
			C11.83,14.46,11.4,14.29,11.53,14.31z"/>
		<path class="st8" d="M11.63,7.26c0.08,0.02,0.16,0.03,0.23,0.07c0.96,0.48,1.59,1.6,1.41,2.77c-0.06,0.38-0.26,0.92-0.67,1.33
			c-0.4,0.41-1.01,0.76-2.07,0.68c-0.33-0.04-0.74-0.11-0.65-0.4c0.87,0.32,1.73,0.11,2.33-0.27C12.88,11.02,13.98,9,11.63,7.26z"/>
		<path class="st8" d="M19.01,40.23c1.05-1.32,0.22-3.03-0.81-3.77c-0.92-0.67-2.41-0.74-2.97-0.11c-0.06,0.06-0.1,0.02-0.07-0.06
			c0.09-0.15,0.19-0.24,0.31-0.3c0.86-0.42,1.82-0.29,2.54,0.1c1.16,0.69,1.82,1.69,1.69,3.08c-0.03,0.33-0.19,0.68-0.44,0.97
			C19.2,40.2,18.94,40.34,19.01,40.23z"/>
		<path class="st8" d="M7.25,31.97c0.15-0.12,0.28-0.27,0.44-0.36c0.58-0.32,1.71-0.65,2.67,0.05c0.78,0.57,1.19,1.3,1.19,2.33
			c0,0.64-0.45,1.64-0.79,1.89c-0.06,0.04-0.29,0.11-0.32-0.05c0-0.04,0.14-0.11,0.2-0.17c0.4-0.36,1.14-2.06,0.24-3.24
			C9.97,31.24,8.47,31.03,7.29,32C7.28,32,7.27,31.99,7.25,31.97z"/>
		<path class="st8" d="M6.61,39.8c-0.15,0.02,0.14-0.14,0.22-0.17c1.27-0.38,2.76-0.15,3.56,1.15c0.36,0.59,0.42,1.23,0.33,1.89
			c-0.07,0.51-0.44,0.74-0.36,0.6c0.38-0.99,0.26-1.92-0.43-2.7C9.04,39.54,7.87,39.52,6.61,39.8z"/>
	</g>
</g>
</svg>
