<?xml version="1.0" encoding="UTF-8"?>
<svg version="1.1" xmlns="http://www.w3.org/2000/svg" width="3000" height="3000">
<path d="M0,0 L91,0 L127,2 L161,5 L203,10 L228,14 L261,20 L292,26 L338,37 L355,42 L377,48 L413,60 L450,73 L485,87 L515,100 L541,112 L585,134 L608,147 L631,160 L657,176 L674,187 L689,197 L705,208 L723,221 L739,233 L752,243 L766,254 L779,265 L790,274 L805,287 L817,298 L825,305 L842,321 L883,362 L890,370 L905,386 L914,397 L924,408 L933,419 L942,430 L953,444 L963,457 L977,476 L990,494 L998,506 L1008,521 L1024,546 L1043,578 L1057,603 L1071,630 L1079,646 L1094,677 L1107,707 L1119,737 L1129,764 L1143,805 L1148,822 L1153,839 L1164,881 L1172,918 L1179,953 L1183,979 L1188,1016 L1192,1057 L1194,1084 L1195,1108 L1195,1197 L1193,1230 L1190,1269 L1185,1309 L1182,1332 L1174,1374 L1169,1400 L1158,1446 L1153,1463 L1147,1485 L1135,1521 L1125,1550 L1108,1593 L1095,1623 L1083,1649 L1061,1693 L1048,1716 L1035,1739 L1021,1762 L1008,1782 L998,1797 L987,1813 L974,1831 L962,1847 L952,1860 L941,1874 L930,1887 L921,1898 L908,1913 L897,1925 L890,1933 L874,1950 L833,1991 L825,1998 L809,2013 L798,2022 L787,2032 L776,2041 L765,2050 L751,2061 L738,2071 L719,2085 L701,2098 L689,2106 L674,2116 L652,2130 L624,2147 L599,2161 L575,2174 L531,2196 L495,2212 L455,2228 L419,2241 L379,2254 L360,2260 L340,2265 L322,2270 L286,2278 L257,2284 L228,2289 L203,2293 L161,2298 L111,2302 L86,2303 L8,2303 L-24,2302 L-72,2298 L-108,2294 L-149,2288 L-185,2281 L-213,2275 L-251,2266 L-269,2261 L-296,2253 L-327,2243 L-361,2231 L-396,2217 L-426,2204 L-452,2192 L-477,2180 L-496,2170 L-520,2157 L-547,2141 L-567,2129 L-587,2116 L-602,2106 L-618,2095 L-636,2082 L-652,2070 L-665,2060 L-679,2049 L-692,2038 L-703,2029 L-718,2016 L-730,2005 L-738,1998 L-755,1982 L-796,1941 L-803,1933 L-818,1917 L-827,1906 L-837,1895 L-846,1884 L-855,1873 L-866,1859 L-876,1846 L-890,1827 L-902,1810 L-918,1787 L-928,1771 L-940,1752 L-953,1730 L-965,1709 L-979,1683 L-1001,1639 L-1017,1603 L-1031,1568 L-1041,1541 L-1056,1497 L-1062,1477 L-1066,1463 L-1074,1434 L-1082,1400 L-1089,1365 L-1095,1332 L-1101,1287 L-1103,1269 L-1106,1235 L-1108,1197 L-1108,1108 L-1107,1084 L-1103,1036 L-1099,1000 L-1093,959 L-1086,923 L-1080,895 L-1071,857 L-1066,839 L-1058,812 L-1048,781 L-1036,747 L-1022,712 L-1009,682 L-997,656 L-985,631 L-975,612 L-962,588 L-946,561 L-932,538 L-921,521 L-911,506 L-900,490 L-887,472 L-875,456 L-865,443 L-854,429 L-843,416 L-834,405 L-821,390 L-810,378 L-803,370 L-787,353 L-746,312 L-738,305 L-722,290 L-711,281 L-700,271 L-689,262 L-678,253 L-664,242 L-651,232 L-632,218 L-614,205 L-602,197 L-587,187 L-562,171 L-530,152 L-505,138 L-476,123 L-460,115 L-431,101 L-401,88 L-371,76 L-344,66 L-303,52 L-286,47 L-269,42 L-227,31 L-190,23 L-155,16 L-129,12 L-92,7 L-51,3 L-24,1 Z M113,140 L76,142 L38,146 L20,150 L17,153 L14,172 L13,175 L12,187 L12,199 L10,199 L9,211 L8,213 L7,269 L1,253 L-4,237 L-6,229 L-12,210 L-17,193 L-24,167 L-26,160 L-37,161 L-43,163 L-50,165 L-63,167 L-72,170 L-97,175 L-107,177 L-115,180 L-130,185 L-147,190 L-163,195 L-175,200 L-193,207 L-200,210 L-203,211 L-203,213 L-208,214 L-222,220 L-230,224 L-230,226 L-235,227 L-252,236 L-268,245 L-285,256 L-300,266 L-318,279 L-334,292 L-347,303 L-359,314 L-371,325 L-381,335 L-388,343 L-399,355 L-408,366 L-419,380 L-432,398 L-447,421 L-461,445 L-475,472 L-478,480 L-484,492 L-487,499 L-497,525 L-509,561 L-518,594 L-521,611 L-523,617 L-528,643 L-530,658 L-532,684 L-532,747 L-530,776 L-529,777 L-526,813 L-522,841 L-518,864 L-516,864 L-515,878 L-508,908 L-503,927 L-501,934 L-490,967 L-487,976 L-485,976 L-484,982 L-473,1007 L-469,1013 L-467,1019 L-465,1019 L-463,1024 L-454,1039 L-444,1052 L-432,1067 L-418,1086 L-405,1106 L-395,1124 L-388,1140 L-385,1149 L-381,1168 L-381,1191 L-385,1208 L-393,1223 L-400,1232 L-408,1241 L-420,1250 L-431,1255 L-442,1258 L-460,1258 L-474,1255 L-477,1255 L-477,1253 L-490,1250 L-490,1248 L-500,1244 L-514,1237 L-525,1231 L-527,1231 L-527,1229 L-536,1225 L-550,1217 L-558,1214 L-566,1210 L-580,1206 L-584,1206 L-584,1204 L-595,1202 L-618,1202 L-629,1205 L-641,1210 L-653,1219 L-660,1226 L-662,1230 L-646,1228 L-646,1226 L-624,1226 L-608,1229 L-599,1233 L-585,1240 L-569,1251 L-557,1262 L-545,1273 L-531,1288 L-520,1299 L-504,1310 L-500,1312 L-497,1312 L-497,1314 L-487,1318 L-478,1322 L-469,1325 L-452,1328 L-444,1328 L-444,1330 L-436,1331 L-410,1331 L-394,1329 L-394,1327 L-380,1326 L-367,1322 L-358,1319 L-351,1316 L-331,1305 L-318,1296 L-305,1285 L-293,1273 L-281,1257 L-272,1242 L-268,1233 L-261,1212 L-261,1209 L-259,1209 L-255,1181 L-255,1138 L-259,1109 L-265,1082 L-270,1064 L-271,1058 L-273,1058 L-275,1049 L-281,1031 L-287,1015 L-290,1010 L-293,1001 L-298,989 L-302,976 L-305,962 L-305,937 L-302,927 L-298,919 L-292,912 L-284,906 L-278,904 L-278,899 L-280,899 L-282,889 L-287,871 L-293,843 L-297,816 L-299,789 L-299,758 L-297,731 L-294,711 L-292,707 L-289,689 L-279,659 L-271,643 L-263,627 L-253,612 L-253,610 L-250,609 L-246,602 L-235,589 L-231,584 L-225,579 L-225,577 L-221,575 L-214,568 L-203,559 L-190,548 L-171,534 L-156,524 L-139,514 L-134,512 L-134,510 L-128,508 L-112,500 L-106,498 L-106,496 L-99,495 L-94,493 L-94,491 L-89,490 L-68,483 L-44,476 L-8,469 L18,466 L34,465 L66,465 L94,467 L118,470 L146,475 L177,483 L210,494 L230,503 L235,506 L238,506 L244,494 L259,472 L273,454 L285,440 L297,427 L306,417 L325,398 L333,391 L342,382 L350,375 L364,363 L377,352 L393,339 L409,327 L427,314 L447,301 L463,291 L471,287 L470,282 L465,272 L457,261 L452,256 L439,242 L431,235 L422,227 L412,219 L394,206 L380,197 L363,187 L341,175 L322,167 L314,164 L304,160 L276,151 L246,144 L227,141 L200,141 L192,153 L184,169 L180,178 L176,187 L168,208 L159,236 L153,260 L151,269 L150,281 L148,281 L148,271 L144,233 L142,202 L141,140 Z M21,478 L-5,481 L-19,483 L-27,484 L-36,487 L-66,495 L-88,503 L-96,506 L-96,508 L-104,510 L-109,512 L-109,514 L-117,516 L-117,518 L-126,521 L-137,527 L-156,539 L-173,551 L-187,562 L-201,574 L-209,581 L-222,593 L-229,601 L-239,613 L-251,631 L-264,655 L-268,666 L-271,672 L-277,691 L-281,706 L-285,732 L-287,750 L-287,798 L-285,819 L-283,836 L-281,849 L-279,856 L-276,873 L-273,881 L-267,901 L-264,906 L-259,905 L-246,900 L-230,894 L-232,877 L-233,871 L-233,809 L-231,793 L-227,771 L-224,759 L-223,758 L-222,750 L-217,738 L-212,726 L-207,714 L-207,712 L-205,712 L-199,700 L-188,684 L-179,673 L-172,665 L-170,664 L-178,675 L-188,692 L-192,699 L-195,706 L-200,718 L-204,726 L-211,747 L-217,773 L-219,783 L-222,798 L-223,815 L-223,858 L-220,893 L-218,898 L-215,920 L-212,930 L-210,937 L-208,948 L-204,959 L-200,960 L-184,952 L-172,945 L-154,933 L-140,923 L-122,910 L-105,897 L-92,887 L-80,878 L-62,864 L-45,851 L-27,837 L-13,827 L3,815 L22,802 L37,792 L58,780 L79,770 L97,764 L107,760 L129,754 L141,752 L162,748 L182,746 L201,745 L231,745 L248,746 L259,748 L272,749 L279,740 L279,737 L264,735 L262,734 L242,732 L225,731 L175,731 L156,733 L140,736 L114,742 L96,748 L92,751 L81,754 L81,756 L75,757 L50,769 L32,779 L10,793 L-10,807 L-29,821 L-45,834 L-59,845 L-70,854 L-87,868 L-101,879 L-115,890 L-135,905 L-154,918 L-164,924 L-165,923 L-160,917 L-147,907 L-134,896 L-123,887 L-112,877 L-101,868 L-89,857 L-81,850 L-67,838 L-56,829 L-42,817 L-25,804 L-9,792 L14,776 L36,763 L56,752 L64,749 L64,747 L73,744 L87,739 L99,734 L119,728 L139,724 L139,722 L155,721 L177,719 L225,719 L240,720 L244,721 L260,722 L276,725 L281,725 L280,717 L275,702 L273,700 L269,690 L266,685 L263,677 L247,650 L235,634 L224,622 L213,611 L212,609 L208,610 L204,612 L194,612 L186,607 L184,607 L184,605 L168,597 L164,597 L164,595 L147,589 L137,585 L126,582 L122,580 L114,579 L107,577 L91,574 L73,572 L29,572 L3,575 L-9,578 L-31,583 L-49,588 L-80,599 L-88,601 L-68,589 L-58,584 L-51,581 L-42,577 L-12,568 L5,565 L24,562 L81,562 L92,564 L113,567 L137,574 L153,579 L166,585 L179,590 L181,590 L181,592 L188,595 L198,601 L202,600 L210,577 L214,568 L220,551 L224,541 L229,528 L229,526 L231,526 L231,518 L226,514 L217,511 L217,509 L198,502 L191,501 L191,499 L172,494 L152,488 L136,485 L124,483 L93,479 L84,478 Z M187,758 L163,760 L146,763 L145,764 L133,766 L114,771 L98,776 L86,781 L64,791 L43,803 L24,816 L7,828 L-9,840 L-20,848 L-19,852 L-9,859 L0,864 L2,864 L8,848 L15,836 L25,823 L33,815 L46,809 L64,803 L84,798 L104,795 L116,794 L165,794 L170,799 L177,809 L188,828 L203,854 L207,861 L211,859 L220,848 L224,843 L226,842 L227,819 L230,795 L232,784 L236,782 L259,778 L271,776 L271,762 L269,761 L253,759 L238,758 Z M256,788 L242,790 L240,794 L237,816 L237,829 L243,825 L254,816 L265,809 L272,806 L271,799 L269,799 L268,794 L264,788 Z M119,803 L109,804 L107,805 L88,807 L88,809 L104,813 L128,820 L143,827 L156,832 L166,837 L174,838 L173,829 L167,821 L162,817 L169,818 L168,813 L161,803 Z M291,810 L278,813 L262,821 L250,829 L238,840 L223,854 L216,862 L201,877 L190,884 L196,876 L200,872 L199,867 L191,852 L182,837 L180,837 L178,842 L176,844 L168,844 L161,843 L161,841 L155,840 L155,861 L152,869 L147,875 L142,878 L130,878 L121,872 L115,865 L111,859 L105,841 L104,822 L94,819 L91,819 L91,817 L75,815 L59,815 L51,818 L50,819 L50,835 L54,850 L57,860 L60,868 L62,868 L64,874 L73,885 L82,893 L96,900 L103,902 L135,902 L149,897 L159,891 L163,886 L166,885 L164,890 L158,897 L146,904 L133,908 L126,909 L109,909 L93,906 L90,906 L90,904 L80,900 L71,893 L63,885 L55,873 L49,857 L47,857 L46,849 L44,837 L43,823 L38,824 L28,834 L19,848 L15,856 L12,864 L11,869 L12,871 L21,874 L38,881 L49,885 L54,889 L58,897 L62,907 L65,914 L70,928 L81,961 L89,990 L91,1002 L92,1003 L96,1026 L98,1039 L100,1051 L102,1076 L99,1077 L96,1080 L96,1082 L86,1081 L76,1076 L52,1066 L37,1061 L33,1058 L24,1055 L20,1056 L11,1069 L10,1073 L16,1074 L16,1076 L34,1082 L43,1085 L60,1089 L78,1092 L90,1093 L131,1093 L161,1089 L182,1083 L201,1077 L214,1071 L221,1069 L221,1067 L226,1066 L245,1055 L261,1044 L276,1030 L286,1019 L296,1005 L302,993 L306,983 L308,979 L308,972 L299,974 L285,978 L265,981 L239,981 L227,980 L215,977 L208,974 L199,972 L180,962 L176,959 L185,962 L203,968 L211,971 L232,974 L260,974 L273,972 L294,966 L308,961 L313,958 L313,956 L318,954 L328,948 L340,937 L348,927 L356,911 L359,903 L361,897 L362,889 L362,871 L360,856 L355,845 L348,834 L336,823 L323,815 L314,812 L303,810 Z M-32,857 L-41,864 L-41,867 L-27,878 L-12,887 L-8,889 L-4,889 L-4,891 L5,895 L24,904 L32,909 L37,918 L41,928 L47,945 L51,956 L60,991 L64,1018 L64,1024 L56,994 L52,983 L49,974 L40,948 L37,941 L27,920 L22,915 L20,913 L12,910 L0,905 L-15,897 L-29,890 L-45,878 L-50,872 L-54,874 L-67,884 L-75,890 L-75,892 L-61,894 L-48,899 L-30,911 L-18,922 L-8,936 L0,951 L5,968 L8,977 L9,986 L9,1005 L7,1016 L3,1030 L1,1036 L13,1040 L15,1042 L27,1046 L33,1049 L47,1054 L55,1057 L70,1064 L86,1070 L91,1071 L91,1054 L87,1026 L85,1020 L82,1003 L76,979 L72,965 L68,952 L57,919 L54,913 L50,902 L45,894 L40,892 L37,892 L37,890 L23,885 L17,882 L9,879 L-6,872 L-23,862 L-29,857 Z M-91,902 L-111,917 L-129,930 L-137,936 L-141,945 L-144,955 L-145,964 L-145,987 L-144,988 L-143,997 L-139,1007 L-134,1019 L-128,1030 L-120,1040 L-111,1050 L-98,1059 L-88,1064 L-72,1068 L-58,1068 L-40,1064 L-28,1056 L-19,1048 L-10,1034 L-6,1026 L-2,1010 L-1,1008 L-1,985 L-4,970 L-10,953 L-16,942 L-24,931 L-35,920 L-49,910 L-60,905 L-69,902 Z M-155,948 L-171,958 L-185,966 L-191,969 L-190,973 L-182,989 L-178,1000 L-176,1004 L-174,1014 L-171,1022 L-166,1052 L-164,1061 L-163,1092 L-158,1096 L-144,1101 L-106,1101 L-106,1103 L-125,1107 L-152,1107 L-160,1105 L-167,1101 L-172,1102 L-178,1108 L-178,1115 L-173,1120 L-160,1123 L-129,1123 L-114,1122 L-102,1120 L-84,1117 L-61,1109 L-43,1102 L-41,1101 L-41,1099 L-35,1097 L-23,1089 L-13,1081 L-1,1069 L8,1057 L10,1054 L10,1050 L-2,1045 L-5,1045 L-12,1055 L-20,1063 L-32,1070 L-32,1072 L-37,1074 L-48,1077 L-56,1078 L-75,1078 L-90,1074 L-95,1071 L-102,1068 L-116,1059 L-128,1047 L-138,1033 L-144,1023 L-149,1010 L-153,998 L-154,989 L-154,956 L-153,948 Z M314,1049 L316,1053 L322,1060 L327,1069 L333,1085 L338,1101 L340,1101 L342,1111 L344,1122 L348,1135 L352,1158 L354,1166 L355,1175 L357,1182 L362,1218 L365,1242 L367,1272 L368,1279 L369,1310 L369,1394 L367,1415 L365,1430 L362,1442 L357,1459 L354,1464 L354,1467 L362,1467 L367,1462 L372,1454 L376,1445 L382,1420 L385,1400 L388,1362 L388,1301 L386,1272 L384,1247 L383,1243 L380,1209 L373,1169 L371,1159 L365,1132 L358,1108 L355,1098 L352,1090 L348,1081 L340,1064 L333,1055 L326,1049 Z M303,1058 L299,1063 L295,1072 L291,1088 L288,1107 L287,1124 L287,1144 L306,1163 L308,1163 L314,1149 L318,1139 L330,1117 L331,1112 L327,1099 L323,1086 L316,1071 L310,1062 L306,1058 Z M191,1090 L179,1092 L170,1094 L164,1096 L157,1098 L127,1101 L93,1101 L80,1100 L72,1098 L56,1097 L62,1105 L57,1101 L52,1098 L47,1097 L34,1097 L21,1102 L11,1108 L-5,1120 L-16,1129 L-30,1141 L-44,1153 L-58,1165 L-69,1174 L-71,1176 L-71,1179 L-63,1182 L-55,1187 L-45,1196 L-36,1210 L-31,1224 L-28,1224 L-28,1222 L-24,1220 L-6,1207 L9,1197 L27,1187 L39,1181 L39,1183 L34,1185 L20,1196 L18,1212 L12,1232 L7,1243 L3,1253 L-1,1263 L-6,1273 L-9,1280 L-15,1294 L-22,1309 L-26,1318 L-26,1322 L-12,1333 L-2,1340 L13,1350 L23,1353 L23,1355 L38,1361 L50,1366 L68,1372 L95,1378 L115,1380 L125,1381 L127,1382 L180,1382 L181,1381 L220,1376 L242,1369 L253,1364 L262,1359 L264,1357 L264,1334 L262,1328 L255,1317 L245,1315 L229,1307 L219,1298 L212,1286 L207,1273 L205,1264 L205,1245 L208,1234 L210,1232 L213,1225 L220,1218 L226,1214 L231,1206 L233,1201 L232,1193 L222,1160 L220,1157 L219,1152 L223,1155 L228,1167 L231,1172 L234,1179 L237,1190 L241,1191 L248,1184 L255,1179 L260,1177 L265,1174 L276,1170 L285,1168 L295,1167 L293,1163 L256,1126 L248,1119 L234,1107 L220,1097 L216,1094 L211,1092 L206,1090 Z M364,1092 L365,1097 L370,1114 L373,1122 L375,1128 L377,1140 L384,1174 L387,1190 L389,1206 L390,1207 L394,1240 L397,1289 L398,1316 L398,1369 L395,1408 L392,1420 L392,1425 L394,1425 L399,1412 L402,1406 L408,1389 L414,1369 L419,1348 L420,1347 L422,1328 L423,1326 L425,1302 L425,1262 L422,1235 L419,1223 L417,1211 L412,1192 L405,1170 L395,1145 L384,1122 L374,1105 L367,1094 L366,1092 Z M333,1132 L322,1155 L318,1166 L318,1169 L328,1172 L333,1173 L337,1166 L340,1159 L341,1158 L340,1147 L336,1132 Z M286,1177 L274,1180 L274,1183 L276,1183 L278,1189 L281,1198 L283,1216 L288,1216 L288,1218 L285,1219 L285,1221 L289,1225 L297,1239 L301,1249 L304,1263 L306,1286 L313,1284 L308,1290 L309,1294 L315,1307 L319,1323 L320,1337 L330,1334 L334,1331 L334,1318 L331,1306 L327,1295 L325,1290 L323,1278 L321,1251 L318,1239 L310,1224 L302,1211 L299,1206 L295,1182 L292,1177 Z M310,1177 L312,1190 L315,1202 L327,1221 L333,1232 L337,1256 L338,1257 L339,1272 L342,1287 L349,1309 L350,1317 L352,1317 L358,1308 L358,1289 L356,1261 L353,1232 L347,1220 L337,1205 L332,1195 L330,1183 L317,1178 Z M261,1185 L251,1193 L243,1201 L237,1210 L233,1220 L233,1235 L235,1238 L237,1238 L240,1233 L247,1226 L252,1223 L264,1219 L273,1218 L274,1217 L274,1207 L270,1192 L266,1186 Z M-89,1190 L-98,1198 L-102,1201 L-102,1203 L-89,1211 L-79,1220 L-72,1230 L-64,1245 L-63,1249 L-59,1248 L-47,1238 L-47,1231 L-50,1221 L-59,1208 L-69,1199 L-81,1193 L-86,1192 L-86,1190 Z M-122,1217 L-132,1224 L-131,1227 L-122,1232 L-111,1241 L-102,1252 L-92,1268 L-89,1275 L-85,1273 L-78,1266 L-79,1258 L-84,1246 L-91,1236 L-97,1229 L-110,1220 L-119,1217 Z M273,1222 L257,1228 L251,1232 L246,1236 L242,1242 L241,1250 L241,1268 L246,1280 L255,1291 L262,1294 L285,1294 L296,1291 L297,1290 L297,1275 L295,1257 L291,1247 L284,1233 L276,1222 Z M222,1228 L218,1233 L215,1240 L214,1250 L214,1264 L218,1281 L226,1293 L235,1301 L247,1307 L254,1308 L254,1300 L246,1294 L239,1284 L234,1274 L232,1266 L231,1247 L227,1242 L225,1237 L224,1228 Z M-152,1240 L-168,1252 L-178,1253 L-177,1256 L-167,1262 L-158,1269 L-148,1278 L-136,1290 L-126,1305 L-123,1310 L-113,1308 L-101,1306 L-101,1296 L-104,1287 L-115,1268 L-122,1259 L-127,1253 L-139,1244 L-144,1241 Z M-257,1250 L-262,1252 L-270,1260 L-275,1270 L-276,1274 L-276,1286 L-272,1294 L-265,1300 L-262,1300 L-254,1284 L-247,1274 L-238,1264 L-235,1262 L-236,1256 L-242,1251 L-245,1250 Z M-216,1262 L-228,1271 L-233,1275 L-233,1278 L-224,1282 L-207,1291 L-193,1301 L-178,1314 L-169,1324 L-158,1339 L-154,1337 L-142,1325 L-143,1320 L-153,1306 L-167,1291 L-180,1280 L-193,1272 L-205,1265 L-212,1264 L-212,1262 Z M297,1296 L287,1300 L263,1301 L263,1312 L267,1321 L274,1329 L284,1335 L300,1340 L310,1340 L310,1323 L307,1310 L300,1296 Z M-248,1298 L-251,1303 L-251,1313 L-245,1321 L-242,1325 L-238,1323 L-235,1321 L-236,1326 L-238,1327 L-238,1335 L-234,1345 L-225,1354 L-219,1355 L-212,1348 L-209,1347 L-214,1356 L-215,1360 L-210,1365 L-200,1372 L-195,1374 L-180,1375 L-173,1363 L-174,1358 L-187,1340 L-197,1329 L-205,1322 L-218,1312 L-232,1304 L-241,1299 Z M-101,1314 L-114,1317 L-124,1322 L-135,1331 L-151,1347 L-163,1363 L-170,1375 L-173,1383 L-177,1392 L-180,1401 L-181,1407 L-181,1423 L-179,1432 L-177,1432 L-176,1439 L-169,1453 L-168,1457 L-166,1457 L-163,1468 L-161,1474 L-160,1494 L-157,1495 L-149,1495 L-140,1491 L-130,1482 L-121,1468 L-115,1450 L-115,1440 L-129,1429 L-143,1418 L-141,1409 L-137,1399 L-130,1387 L-123,1378 L-111,1366 L-104,1361 L-99,1360 L-80,1373 L-77,1375 L-71,1374 L-59,1367 L-50,1358 L-43,1348 L-39,1340 L-37,1333 L-37,1316 L-43,1317 L-49,1319 L-60,1319 L-83,1314 Z M-257,1334 L-257,1346 L-255,1352 L-253,1350 L-251,1343 L-252,1338 L-255,1334 Z M-28,1335 L-28,1339 L-30,1339 L-34,1351 L-34,1353 L-36,1353 L-43,1364 L-51,1372 L-62,1379 L-65,1381 L-64,1384 L-44,1396 L-40,1397 L-40,1399 L-11,1416 L5,1425 L11,1426 L11,1428 L22,1433 L41,1442 L55,1447 L63,1451 L76,1456 L82,1458 L92,1463 L101,1467 L104,1467 L104,1469 L118,1477 L132,1488 L139,1494 L146,1502 L152,1509 L158,1516 L166,1516 L180,1513 L201,1506 L209,1502 L212,1502 L211,1505 L202,1510 L202,1512 L194,1514 L195,1518 L205,1526 L217,1537 L228,1548 L237,1560 L245,1574 L249,1586 L249,1599 L245,1608 L239,1617 L234,1623 L224,1630 L216,1635 L208,1639 L185,1639 L162,1635 L155,1633 L150,1634 L138,1646 L131,1657 L127,1667 L125,1676 L125,1700 L127,1711 L132,1723 L135,1730 L144,1746 L152,1756 L161,1767 L173,1779 L184,1788 L200,1800 L213,1808 L243,1809 L256,1811 L279,1818 L290,1823 L299,1827 L315,1836 L331,1847 L346,1860 L347,1861 L368,1864 L379,1866 L385,1866 L385,1868 L418,1872 L469,1872 L491,1869 L515,1862 L527,1857 L531,1856 L531,1854 L536,1853 L551,1844 L562,1835 L571,1826 L578,1816 L585,1804 L589,1792 L591,1785 L591,1755 L588,1746 L586,1737 L583,1732 L579,1722 L571,1709 L560,1695 L544,1679 L530,1668 L510,1655 L496,1647 L485,1642 L475,1638 L468,1635 L459,1633 L459,1631 L437,1625 L428,1622 L415,1619 L396,1616 L376,1616 L367,1633 L359,1643 L351,1651 L336,1661 L322,1668 L312,1671 L309,1671 L323,1664 L336,1655 L346,1646 L356,1635 L362,1625 L362,1623 L364,1623 L372,1601 L373,1593 L373,1572 L372,1561 L367,1545 L361,1534 L347,1515 L334,1500 L326,1492 L319,1484 L303,1468 L295,1461 L288,1454 L280,1447 L265,1433 L265,1370 L260,1372 L245,1378 L236,1381 L224,1385 L212,1388 L191,1391 L174,1392 L132,1392 L101,1389 L76,1384 L58,1379 L34,1371 L27,1367 L17,1363 L0,1354 L-16,1343 L-26,1335 Z M345,1335 L336,1341 L337,1346 L346,1363 L354,1375 L357,1380 L359,1380 L359,1357 L351,1345 L347,1335 Z M322,1347 L302,1349 L304,1367 L308,1385 L311,1393 L312,1401 L314,1401 L315,1410 L324,1438 L328,1447 L330,1451 L332,1451 L334,1456 L339,1462 L343,1461 L348,1454 L353,1435 L356,1418 L357,1397 L345,1381 L337,1368 L336,1366 L334,1366 L332,1359 L326,1347 Z M-247,1354 L-247,1369 L-244,1378 L-242,1378 L-240,1382 L-234,1387 L-229,1387 L-228,1375 L-227,1370 L-237,1362 L-244,1354 Z M-102,1370 L-120,1388 L-128,1401 L-132,1409 L-133,1415 L-122,1423 L-107,1435 L-93,1446 L-85,1453 L-74,1462 L-62,1473 L-54,1480 L-47,1487 L-39,1494 L-29,1504 L-22,1512 L-10,1525 L-1,1536 L8,1547 L17,1557 L24,1565 L34,1575 L48,1586 L63,1595 L74,1600 L88,1605 L102,1610 L129,1619 L155,1624 L164,1627 L189,1630 L208,1630 L210,1629 L209,1619 L205,1609 L200,1600 L197,1593 L187,1574 L173,1552 L159,1533 L145,1515 L135,1504 L130,1499 L123,1492 L109,1482 L102,1478 L100,1478 L100,1476 L88,1470 L80,1467 L68,1462 L59,1458 L44,1453 L42,1453 L42,1451 L22,1443 L-8,1428 L-32,1414 L-52,1402 L-77,1386 L-98,1372 L-99,1370 Z M-221,1376 L-221,1392 L-218,1401 L-212,1408 L-209,1410 L-205,1410 L-205,1412 L-193,1416 L-190,1416 L-188,1398 L-187,1392 L-199,1389 L-203,1386 L-210,1383 L-218,1376 Z M-102,1452 L-110,1462 L-114,1474 L-116,1480 L-118,1480 L-126,1491 L-133,1497 L-142,1503 L-143,1508 L-145,1508 L-148,1513 L-148,1517 L-150,1517 L-151,1523 L-153,1523 L-160,1539 L-164,1546 L-168,1557 L-172,1565 L-177,1580 L-181,1589 L-187,1605 L-192,1616 L-196,1627 L-195,1613 L-193,1603 L-191,1590 L-190,1582 L-188,1582 L-186,1572 L-203,1572 L-230,1575 L-249,1580 L-262,1583 L-268,1586 L-281,1590 L-295,1595 L-306,1600 L-309,1601 L-309,1603 L-315,1604 L-325,1609 L-325,1611 L-330,1612 L-345,1621 L-362,1633 L-376,1645 L-394,1663 L-404,1678 L-412,1694 L-419,1719 L-420,1731 L-421,1734 L-421,1762 L-417,1780 L-414,1787 L-404,1805 L-396,1815 L-383,1828 L-368,1838 L-360,1837 L-360,1835 L-349,1834 L-326,1834 L-310,1836 L-297,1840 L-281,1848 L-271,1854 L-262,1861 L-245,1861 L-219,1859 L-196,1855 L-174,1850 L-154,1845 L-137,1839 L-125,1834 L-112,1829 L-112,1827 L-106,1826 L-104,1825 L-104,1823 L-100,1822 L-85,1814 L-66,1802 L-52,1791 L-38,1779 L-29,1771 L-22,1763 L-12,1752 L0,1735 L8,1722 L14,1711 L18,1698 L21,1688 L21,1668 L18,1657 L14,1645 L5,1631 L-6,1619 L-21,1608 L-38,1600 L-42,1601 L-48,1613 L-54,1629 L-55,1633 L-54,1618 L-49,1599 L-45,1588 L-39,1574 L-39,1572 L-37,1572 L-33,1563 L-26,1552 L-17,1540 L-14,1537 L-16,1532 L-23,1525 L-30,1517 L-44,1502 L-52,1494 L-60,1487 L-75,1473 L-86,1464 L-96,1455 L-99,1452 Z M-378,1573 L-404,1577 L-424,1581 L-424,1584 L-401,1586 L-381,1591 L-371,1594 L-356,1603 L-351,1608 L-350,1611 L-347,1611 L-347,1609 L-342,1607 L-320,1595 L-310,1591 L-310,1589 L-301,1587 L-295,1585 L-295,1582 L-326,1574 L-338,1573 Z M420,1560 L410,1562 L394,1568 L384,1575 L383,1589 L380,1603 L380,1606 L396,1607 L399,1608 L423,1611 L444,1616 L463,1622 L473,1625 L476,1625 L476,1627 L489,1632 L494,1635 L499,1637 L504,1638 L504,1640 L521,1649 L531,1656 L543,1665 L556,1676 L569,1689 L577,1699 L587,1715 L595,1732 L601,1753 L601,1786 L597,1800 L592,1814 L592,1816 L590,1816 L584,1826 L575,1837 L566,1846 L550,1857 L533,1866 L512,1874 L487,1880 L460,1883 L424,1883 L406,1881 L388,1878 L364,1874 L360,1874 L362,1878 L372,1893 L377,1905 L378,1909 L378,1918 L368,1899 L359,1887 L348,1875 L338,1866 L325,1856 L304,1843 L285,1833 L273,1829 L265,1826 L260,1824 L247,1822 L245,1821 L236,1820 L206,1820 L190,1823 L168,1831 L153,1841 L143,1848 L145,1842 L153,1834 L167,1824 L183,1816 L196,1812 L194,1808 L180,1798 L170,1790 L157,1778 L145,1765 L132,1747 L124,1731 L120,1722 L117,1713 L115,1700 L115,1676 L118,1662 L126,1645 L133,1636 L136,1632 L136,1630 L112,1623 L98,1618 L83,1613 L74,1609 L67,1606 L55,1601 L39,1591 L29,1582 L22,1583 L10,1589 L4,1594 L2,1598 L-2,1596 L-13,1589 L-28,1585 L-33,1585 L-35,1587 L-35,1590 L-22,1595 L-20,1595 L-20,1597 L-8,1604 L6,1616 L13,1624 L22,1638 L26,1648 L30,1659 L31,1671 L31,1691 L25,1710 L21,1720 L10,1739 L0,1753 L-9,1764 L-18,1774 L-24,1781 L-32,1788 L-47,1801 L-64,1813 L-80,1823 L-98,1833 L-119,1843 L-133,1848 L-143,1852 L-162,1858 L-177,1861 L-192,1865 L-222,1869 L-250,1871 L-250,1874 L-245,1879 L-237,1892 L-234,1899 L-233,1904 L-238,1900 L-246,1889 L-261,1874 L-276,1863 L-293,1854 L-310,1848 L-320,1846 L-352,1846 L-368,1849 L-386,1855 L-401,1863 L-416,1873 L-418,1874 L-413,1866 L-401,1855 L-388,1847 L-381,1844 L-381,1842 L-392,1834 L-406,1820 L-415,1807 L-422,1795 L-428,1777 L-430,1770 L-432,1755 L-432,1732 L-430,1721 L-430,1713 L-438,1713 L-447,1715 L-460,1719 L-471,1725 L-482,1734 L-489,1741 L-497,1754 L-501,1762 L-503,1768 L-505,1779 L-531,1783 L-540,1787 L-550,1793 L-560,1802 L-568,1814 L-570,1815 L-567,1805 L-560,1795 L-555,1790 L-555,1787 L-560,1784 L-565,1775 L-565,1766 L-561,1758 L-552,1750 L-546,1747 L-528,1743 L-503,1742 L-492,1729 L-485,1722 L-468,1711 L-454,1706 L-444,1703 L-426,1701 L-422,1692 L-421,1691 L-421,1686 L-443,1681 L-456,1679 L-478,1675 L-514,1672 L-549,1672 L-575,1674 L-592,1677 L-618,1683 L-628,1687 L-640,1691 L-659,1701 L-675,1711 L-688,1722 L-700,1733 L-709,1745 L-712,1750 L-715,1758 L-718,1765 L-720,1775 L-720,1797 L-714,1818 L-704,1837 L-696,1848 L-687,1859 L-678,1868 L-665,1878 L-651,1887 L-637,1894 L-623,1900 L-609,1904 L-594,1908 L-577,1911 L-559,1912 L-559,1932 L-556,1941 L-551,1953 L-548,1959 L-546,1959 L-544,1964 L-532,1980 L-514,1998 L-501,2008 L-490,2015 L-479,2021 L-469,2026 L-457,2030 L-449,2033 L-434,2035 L-427,2037 L-397,2037 L-376,2033 L-370,2033 L-361,2049 L-351,2063 L-337,2080 L-326,2091 L-315,2100 L-299,2111 L-283,2120 L-276,2123 L-265,2127 L-245,2133 L-240,2135 L-225,2138 L-208,2140 L-157,2140 L-135,2138 L-109,2133 L-87,2128 L-62,2121 L-50,2116 L-40,2110 L-30,2102 L-22,2092 L-13,2076 L-6,2057 L-2,2047 L0,2046 L-2,2064 L-5,2076 L-11,2091 L-19,2104 L-26,2112 L-33,2117 L-31,2121 L-21,2125 L-14,2126 L12,2126 L31,2121 L44,2116 L42,2111 L33,2094 L29,2082 L28,2074 L28,2052 L31,2049 L33,2066 L37,2082 L40,2086 L48,2102 L56,2112 L68,2124 L80,2131 L87,2134 L96,2138 L112,2144 L142,2153 L170,2158 L192,2161 L212,2162 L259,2162 L263,2161 L300,2158 L322,2153 L343,2149 L346,2147 L363,2143 L383,2136 L395,2131 L415,2122 L423,2119 L423,2117 L429,2115 L450,2103 L467,2091 L483,2078 L488,2072 L490,2066 L492,2066 L501,2044 L506,2027 L508,2014 L508,1976 L506,1961 L505,1960 L502,1943 L499,1936 L498,1929 L502,1933 L504,1938 L507,1945 L512,1961 L514,1966 L516,1981 L517,1982 L517,2015 L515,2032 L507,2055 L498,2071 L498,2073 L519,2073 L540,2072 L556,2070 L581,2067 L623,2058 L638,2054 L656,2048 L668,2043 L678,2039 L696,2029 L712,2019 L726,2008 L736,1999 L743,1992 L752,1981 L759,1971 L766,1960 L775,1939 L779,1928 L782,1916 L784,1913 L786,1895 L786,1852 L784,1844 L780,1821 L772,1794 L760,1769 L756,1762 L754,1762 L752,1756 L742,1743 L728,1729 L717,1722 L705,1697 L697,1685 L690,1676 L681,1666 L672,1658 L656,1648 L640,1641 L629,1637 L613,1635 L589,1635 L578,1636 L567,1639 L567,1641 L562,1642 L561,1638 L557,1634 L552,1631 L538,1631 L530,1634 L528,1623 L523,1611 L516,1600 L507,1590 L493,1579 L474,1568 L452,1562 L442,1560 Z M228,1608 L217,1609 L216,1613 L220,1626 L227,1620 L232,1613 L232,1611 L234,1611 L234,1608 Z " fill="#000000" transform="translate(1457,349)"/>
<path d="M0,0 L122,0 L180,4 L220,8 L248,11 L277,15 L294,18 L328,24 L368,32 L397,39 L413,43 L434,48 L458,55 L478,61 L494,66 L509,71 L522,75 L564,90 L602,105 L633,118 L668,134 L697,148 L729,164 L751,176 L776,190 L804,207 L824,219 L841,230 L871,250 L891,264 L909,277 L930,293 L946,305 L963,319 L973,327 L986,338 L997,347 L1009,358 L1017,365 L1027,374 L1039,385 L1054,399 L1105,450 L1112,458 L1128,475 L1135,483 L1147,497 L1156,507 L1165,518 L1179,535 L1190,549 L1204,567 L1218,586 L1231,604 L1243,621 L1265,654 L1279,676 L1292,697 L1306,721 L1320,746 L1335,774 L1346,796 L1354,812 L1367,839 L1384,878 L1397,910 L1411,947 L1425,987 L1429,1000 L1435,1019 L1441,1041 L1445,1054 L1451,1078 L1455,1092 L1463,1128 L1469,1155 L1477,1199 L1479,1213 L1483,1240 L1487,1274 L1492,1325 L1494,1354 L1495,1379 L1495,1487 L1493,1533 L1487,1600 L1482,1637 L1480,1653 L1477,1670 L1471,1703 L1466,1728 L1461,1753 L1452,1791 L1448,1806 L1439,1837 L1434,1854 L1429,1870 L1417,1906 L1405,1940 L1390,1978 L1376,2011 L1363,2040 L1347,2073 L1331,2105 L1319,2127 L1305,2152 L1288,2180 L1276,2200 L1265,2217 L1247,2244 L1236,2260 L1223,2278 L1209,2297 L1196,2314 L1185,2328 L1172,2344 L1163,2355 L1152,2368 L1140,2382 L1129,2394 L1122,2402 L1110,2415 L1098,2428 L1045,2481 L1037,2488 L1020,2504 L1012,2511 L998,2523 L988,2532 L977,2541 L960,2555 L946,2566 L928,2580 L909,2594 L891,2607 L874,2619 L841,2641 L819,2655 L791,2672 L765,2687 L738,2702 L705,2719 L675,2734 L642,2749 L612,2762 L582,2774 L547,2787 L507,2801 L486,2808 L461,2815 L440,2821 L411,2829 L377,2837 L344,2844 L294,2853 L270,2857 L240,2861 L205,2865 L157,2869 L120,2871 L88,2872 L35,2872 L-22,2870 L-63,2867 L-121,2861 L-163,2855 L-193,2850 L-231,2843 L-267,2835 L-300,2827 L-317,2822 L-333,2818 L-352,2812 L-373,2806 L-409,2794 L-443,2782 L-481,2767 L-514,2753 L-543,2740 L-572,2726 L-588,2718 L-612,2706 L-634,2694 L-659,2680 L-684,2665 L-705,2652 L-722,2641 L-752,2621 L-772,2607 L-790,2594 L-811,2578 L-827,2566 L-844,2552 L-854,2544 L-867,2533 L-878,2524 L-890,2513 L-898,2506 L-908,2497 L-920,2486 L-935,2472 L-987,2420 L-994,2412 L-1009,2396 L-1016,2388 L-1028,2374 L-1037,2364 L-1046,2353 L-1060,2336 L-1071,2322 L-1085,2304 L-1099,2285 L-1112,2267 L-1124,2250 L-1146,2217 L-1160,2195 L-1177,2167 L-1192,2141 L-1207,2114 L-1224,2081 L-1240,2049 L-1256,2013 L-1267,1988 L-1284,1945 L-1297,1909 L-1309,1873 L-1313,1862 L-1318,1844 L-1325,1821 L-1332,1793 L-1336,1779 L-1343,1747 L-1348,1725 L-1357,1676 L-1360,1656 L-1363,1639 L-1367,1605 L-1370,1579 L-1374,1533 L-1376,1496 L-1376,1379 L-1375,1354 L-1372,1313 L-1366,1255 L-1360,1213 L-1355,1183 L-1348,1145 L-1339,1106 L-1334,1084 L-1330,1069 L-1318,1026 L-1309,997 L-1297,961 L-1284,925 L-1270,890 L-1258,862 L-1245,833 L-1231,804 L-1223,788 L-1211,764 L-1199,742 L-1185,717 L-1170,692 L-1155,668 L-1139,643 L-1128,627 L-1112,604 L-1099,586 L-1083,565 L-1071,549 L-1057,532 L-1049,522 L-1038,509 L-1029,498 L-1018,486 L-1011,478 L-1002,468 L-991,456 L-977,441 L-926,390 L-918,383 L-901,367 L-893,360 L-879,348 L-869,339 L-858,330 L-841,316 L-827,305 L-809,291 L-790,277 L-772,264 L-752,250 L-722,230 L-697,214 L-669,197 L-641,181 L-617,168 L-590,154 L-574,146 L-550,134 L-514,118 L-486,106 L-448,91 L-412,78 L-376,66 L-357,60 L-335,54 L-322,50 L-290,42 L-274,38 L-245,31 L-205,23 L-177,18 L-163,16 L-136,12 L-102,8 L-76,5 L-37,2 Z M132,22 L117,36 L105,48 L94,63 L84,82 L79,97 L76,113 L76,145 L79,163 L87,184 L95,198 L104,210 L116,224 L124,232 L128,230 L141,219 L145,215 L133,200 L123,184 L116,169 L113,161 L110,143 L110,122 L114,98 L120,83 L128,69 L138,56 L149,44 L152,41 L151,37 L136,22 Z M28,53 L2,54 L-9,55 L-50,57 L-71,58 L-71,83 L-70,84 L-46,83 L-29,82 L-29,101 L-24,193 L-23,200 L3,200 L4,199 L4,183 L2,143 L1,132 L0,106 L-2,80 L10,80 L31,79 L39,78 L38,53 Z M236,63 L224,66 L212,72 L202,81 L204,85 L218,99 L222,98 L230,92 L234,90 L251,90 L259,95 L263,102 L263,111 L259,121 L253,129 L246,137 L235,146 L223,156 L204,170 L190,180 L187,197 L187,204 L211,208 L263,215 L273,217 L282,217 L287,202 L289,193 L264,189 L237,185 L229,185 L229,183 L234,181 L251,169 L268,156 L281,144 L290,133 L295,123 L298,112 L298,100 L294,88 L287,79 L279,72 L266,66 L252,63 Z M-112,63 L-142,67 L-194,75 L-197,76 L-194,97 L-193,100 L-176,98 L-161,96 L-160,108 L-149,179 L-148,188 L-147,190 L-156,191 L-179,194 L-176,215 L-175,219 L-165,218 L-134,213 L-89,206 L-85,205 L-85,198 L-88,181 L-101,182 L-114,184 L-120,184 L-123,163 L-134,91 L-117,89 L-103,87 L-104,74 L-106,63 Z M383,89 L369,107 L355,126 L339,147 L329,161 L321,171 L316,191 L317,194 L369,207 L373,207 L367,233 L368,238 L392,244 L398,244 L403,226 L405,216 L419,219 L424,201 L425,194 L413,191 L412,190 L419,161 L419,157 L395,151 L391,152 L380,182 L369,180 L357,177 L361,170 L374,153 L387,135 L402,115 L408,107 L407,104 L385,89 Z M526,100 L506,108 L505,111 L513,133 L518,156 L518,176 L515,193 L508,214 L498,233 L487,246 L478,254 L460,266 L446,274 L446,278 L456,297 L458,298 L477,290 L496,279 L510,268 L522,256 L530,245 L538,231 L544,216 L549,200 L551,190 L551,159 L548,144 L541,123 L531,102 L529,100 Z M-412,121 L-420,125 L-425,131 L-426,133 L-426,143 L-422,151 L-416,156 L-414,157 L-404,157 L-396,153 L-392,148 L-390,143 L-390,136 L-395,126 L-401,122 L-404,121 Z M-237,122 L-256,127 L-255,146 L-259,140 L-266,134 L-270,132 L-284,132 L-296,136 L-304,142 L-311,150 L-315,158 L-317,166 L-317,185 L-313,203 L-307,218 L-300,229 L-293,236 L-282,242 L-278,243 L-262,243 L-251,239 L-245,235 L-240,229 L-238,222 L-238,214 L-236,214 L-235,222 L-233,230 L-233,244 L-236,252 L-244,258 L-262,264 L-285,271 L-283,281 L-279,293 L-275,294 L-253,288 L-236,282 L-224,276 L-214,267 L-210,262 L-206,253 L-204,245 L-204,228 L-209,206 L-213,191 L-219,167 L-223,152 L-229,128 L-231,122 Z M-505,163 L-527,174 L-525,180 L-506,219 L-500,233 L-505,228 L-512,223 L-515,222 L-528,222 L-542,229 L-551,238 L-556,249 L-557,253 L-557,270 L-553,284 L-543,305 L-535,315 L-527,323 L-513,330 L-495,330 L-481,324 L-475,319 L-470,310 L-470,295 L-466,299 L-458,311 L-452,309 L-436,300 L-438,294 L-461,247 L-472,224 L-486,195 L-500,166 L-502,163 Z M-385,164 L-435,182 L-440,184 L-439,191 L-432,209 L-412,202 L-400,198 L-397,208 L-381,251 L-390,253 L-417,263 L-418,266 L-410,288 L-405,287 L-347,266 L-318,255 L-317,250 L-324,231 L-327,230 L-354,240 L-359,228 L-382,165 Z M627,216 L619,220 L614,226 L611,232 L611,241 L615,251 L622,257 L629,260 L637,260 L644,257 L652,250 L655,243 L655,232 L651,224 L644,218 L639,216 Z M17,253 L-33,256 L-67,259 L-107,264 L-128,267 L-161,273 L-187,278 L-216,285 L-238,290 L-255,295 L-281,302 L-297,307 L-347,324 L-388,340 L-416,352 L-449,367 L-493,389 L-515,401 L-541,416 L-569,433 L-589,446 L-601,454 L-617,465 L-631,475 L-650,489 L-667,502 L-683,515 L-693,523 L-706,534 L-717,543 L-731,556 L-739,563 L-752,575 L-760,583 L-768,590 L-794,616 L-801,624 L-809,632 L-816,640 L-828,653 L-837,664 L-846,674 L-855,685 L-868,701 L-881,718 L-897,739 L-910,758 L-918,769 L-930,787 L-946,812 L-961,837 L-976,863 L-993,895 L-1012,933 L-1028,969 L-1042,1003 L-1057,1043 L-1070,1082 L-1075,1100 L-1082,1123 L-1090,1154 L-1097,1186 L-1102,1210 L-1107,1236 L-1111,1265 L-1114,1284 L-1118,1321 L-1121,1356 L-1123,1408 L-1123,1468 L-1121,1510 L-1120,1531 L-1119,1536 L-1117,1561 L-1113,1595 L-1105,1645 L-1099,1677 L-1092,1707 L-1086,1733 L-1079,1757 L-1073,1778 L-1055,1833 L-1043,1865 L-1030,1897 L-1018,1924 L-1005,1952 L-987,1988 L-974,2011 L-963,2031 L-946,2059 L-932,2081 L-911,2112 L-901,2126 L-887,2145 L-874,2162 L-861,2178 L-853,2188 L-842,2201 L-833,2212 L-820,2226 L-813,2234 L-801,2247 L-793,2255 L-786,2263 L-762,2287 L-754,2294 L-744,2304 L-736,2311 L-723,2323 L-712,2332 L-702,2341 L-691,2350 L-675,2363 L-658,2376 L-637,2392 L-618,2405 L-607,2413 L-589,2425 L-564,2441 L-539,2456 L-513,2471 L-481,2488 L-443,2507 L-407,2523 L-373,2537 L-333,2552 L-291,2566 L-267,2573 L-240,2580 L-222,2585 L-190,2592 L-166,2597 L-140,2602 L-111,2606 L-92,2609 L-47,2614 L-20,2616 L21,2618 L102,2618 L155,2615 L160,2614 L185,2612 L224,2607 L269,2600 L301,2594 L331,2587 L357,2581 L381,2574 L405,2567 L418,2563 L468,2546 L509,2530 L537,2518 L561,2507 L586,2495 L612,2482 L635,2469 L655,2458 L675,2446 L694,2434 L736,2406 L750,2396 L769,2382 L786,2369 L802,2356 L812,2348 L825,2337 L836,2328 L850,2315 L858,2308 L871,2296 L879,2288 L887,2281 L911,2257 L918,2249 L928,2239 L935,2231 L947,2218 L956,2207 L965,2197 L974,2186 L987,2170 L1000,2153 L1016,2132 L1029,2113 L1037,2102 L1058,2070 L1073,2046 L1087,2022 L1102,1995 L1119,1962 L1135,1929 L1150,1895 L1167,1852 L1180,1815 L1193,1775 L1200,1750 L1206,1729 L1216,1686 L1225,1639 L1231,1603 L1236,1561 L1238,1536 L1239,1531 L1241,1495 L1242,1468 L1242,1408 L1240,1356 L1235,1300 L1230,1261 L1228,1248 L1222,1215 L1217,1189 L1210,1160 L1205,1138 L1200,1121 L1193,1095 L1188,1079 L1171,1029 L1155,988 L1143,960 L1128,927 L1106,883 L1094,861 L1079,835 L1062,807 L1049,787 L1041,775 L1030,759 L1020,745 L1006,726 L993,709 L980,693 L972,683 L961,670 L952,659 L939,645 L932,637 L920,624 L912,616 L905,608 L881,584 L873,577 L863,567 L855,560 L842,548 L831,539 L821,530 L810,521 L794,508 L777,495 L756,479 L737,466 L726,458 L694,437 L670,422 L644,407 L619,393 L586,376 L553,360 L519,345 L476,328 L439,315 L402,303 L378,296 L349,288 L310,279 L263,270 L219,263 L174,258 L160,257 L155,256 L102,253 Z M595,280 L586,286 L581,294 L580,298 L580,305 L582,310 L581,315 L569,329 L561,339 L556,345 L556,347 L573,355 L578,354 L590,343 L601,334 L614,322 L621,314 L624,307 L624,294 L620,288 L613,282 L609,280 Z M475,2592 L459,2596 L443,2604 L434,2611 L427,2622 L425,2628 L425,2641 L429,2654 L435,2663 L443,2670 L457,2677 L469,2680 L493,2683 L503,2685 L508,2688 L511,2694 L511,2700 L507,2707 L495,2713 L490,2715 L474,2718 L452,2719 L453,2730 L456,2746 L474,2746 L494,2742 L515,2734 L526,2727 L535,2718 L540,2708 L541,2705 L541,2688 L537,2678 L530,2669 L520,2662 L504,2656 L473,2651 L465,2649 L459,2645 L456,2641 L456,2631 L459,2626 L471,2620 L482,2620 L492,2622 L496,2624 L500,2624 L510,2600 L510,2598 L500,2594 L490,2592 Z M-364,2596 L-376,2600 L-387,2606 L-397,2615 L-407,2629 L-414,2644 L-420,2664 L-421,2669 L-421,2696 L-417,2708 L-411,2718 L-406,2724 L-394,2733 L-378,2741 L-361,2746 L-356,2747 L-336,2747 L-333,2729 L-333,2722 L-350,2721 L-365,2717 L-378,2710 L-385,2703 L-389,2695 L-391,2689 L-391,2674 L-388,2659 L-381,2643 L-374,2634 L-365,2627 L-356,2624 L-343,2624 L-333,2627 L-323,2633 L-317,2641 L-314,2645 L-294,2632 L-295,2626 L-302,2616 L-310,2609 L-326,2601 L-338,2597 L-343,2596 Z M-277,2620 L-296,2698 L-310,2757 L-309,2761 L-288,2766 L-283,2766 L-270,2712 L-270,2709 L-230,2719 L-231,2729 L-236,2748 L-242,2775 L-242,2777 L-217,2783 L-215,2783 L-191,2683 L-182,2645 L-182,2642 L-205,2636 L-209,2636 L-216,2665 L-222,2690 L-222,2694 L-262,2684 L-263,2683 L-250,2629 L-251,2625 L-272,2620 Z M356,2628 L301,2641 L302,2652 L331,2772 L333,2781 L338,2782 L359,2777 L360,2776 L359,2767 L349,2727 L348,2724 L358,2723 L373,2719 L375,2723 L388,2742 L401,2760 L405,2765 L413,2764 L434,2759 L436,2758 L434,2754 L424,2741 L413,2727 L402,2713 L398,2708 L400,2704 L406,2695 L409,2688 L410,2683 L410,2668 L406,2653 L400,2642 L390,2633 L377,2628 Z M276,2646 L216,2655 L191,2658 L187,2659 L188,2669 L207,2802 L218,2801 L274,2793 L305,2789 L305,2781 L302,2764 L290,2765 L265,2768 L230,2773 L229,2761 L226,2739 L244,2737 L278,2732 L278,2724 L276,2707 L248,2710 L222,2714 L221,2701 L218,2680 L245,2677 L285,2671 L288,2670 L288,2661 L286,2647 L285,2646 Z M-133,2651 L-145,2678 L-163,2718 L-179,2754 L-193,2785 L-193,2788 L-174,2791 L-164,2791 L-154,2768 L-154,2766 L-114,2772 L-110,2772 L-110,2781 L-108,2799 L-107,2800 L-86,2803 L-79,2803 L-79,2793 L-87,2740 L-90,2715 L-96,2674 L-99,2655 L-120,2652 Z M-46,2662 L-47,2666 L-53,2799 L-53,2806 L-45,2807 L-16,2808 L27,2810 L47,2810 L47,2785 L-11,2782 L-24,2782 L-20,2698 L-19,2663 L-24,2662 Z M153,2661 L128,2662 L125,2684 L124,2697 L123,2701 L121,2720 L121,2727 L119,2727 L118,2717 L112,2689 L107,2667 L106,2664 L81,2664 L68,2665 L68,2694 L72,2780 L74,2809 L99,2809 L99,2791 L96,2719 L94,2690 L97,2690 L98,2699 L111,2756 L112,2757 L131,2757 L132,2754 L136,2720 L138,2707 L140,2688 L143,2688 L143,2710 L147,2796 L148,2806 L161,2806 L173,2805 L173,2780 L168,2669 L167,2661 Z " fill="#000000" transform="translate(1441,65)"/>
<path d="M0,0 L22,0 L44,5 L56,9 L73,19 L83,27 L90,33 L100,46 L106,57 L110,71 L110,74 L118,71 L132,71 L140,76 L142,79 L142,82 L147,81 L147,79 L158,76 L169,75 L193,75 L209,77 L220,81 L236,88 L252,98 L265,110 L275,122 L285,137 L293,153 L298,163 L309,170 L324,185 L333,198 L334,202 L336,202 L347,223 L354,240 L361,265 L365,290 L366,292 L366,335 L364,353 L361,360 L357,374 L349,393 L344,403 L341,404 L332,418 L320,432 L318,435 L316,439 L309,446 L292,459 L276,469 L252,482 L237,487 L227,491 L207,497 L176,504 L156,508 L125,511 L120,512 L99,513 L78,513 L80,508 L88,493 L92,481 L94,481 L95,476 L97,473 L97,463 L99,461 L98,430 L97,422 L96,421 L94,406 L91,398 L86,381 L83,377 L80,370 L78,369 L80,379 L83,386 L85,400 L86,401 L88,416 L88,454 L85,471 L79,489 L72,506 L70,506 L68,512 L61,520 L46,532 L28,544 L7,556 L3,557 L3,559 L-18,568 L-29,573 L-49,580 L-62,584 L-76,588 L-80,590 L-113,596 L-120,598 L-143,600 L-153,600 L-153,599 L-208,599 L-246,596 L-242,598 L-250,598 L-257,596 L-264,594 L-267,593 L-267,591 L-278,590 L-295,588 L-322,579 L-331,575 L-336,572 L-343,569 L-353,563 L-367,549 L-376,535 L-382,523 L-385,516 L-388,500 L-389,489 L-392,492 L-392,514 L-390,525 L-385,538 L-378,551 L-376,556 L-395,563 L-408,566 L-434,566 L-443,564 L-451,561 L-453,557 L-443,549 L-435,538 L-428,524 L-423,510 L-421,498 L-420,486 L-423,488 L-430,508 L-437,524 L-445,536 L-453,545 L-463,552 L-479,560 L-503,567 L-519,571 L-533,574 L-555,578 L-577,580 L-628,580 L-651,577 L-663,574 L-679,569 L-694,564 L-699,561 L-707,558 L-724,548 L-740,536 L-755,522 L-764,512 L-772,502 L-784,484 L-790,473 L-799,474 L-805,475 L-854,475 L-869,473 L-885,467 L-895,463 L-907,457 L-918,450 L-930,441 L-942,430 L-954,418 L-966,401 L-966,399 L-968,399 L-972,392 L-976,381 L-979,372 L-979,352 L-997,351 L-1022,346 L-1036,342 L-1051,337 L-1060,333 L-1078,323 L-1090,314 L-1101,305 L-1110,296 L-1120,283 L-1128,270 L-1135,255 L-1138,245 L-1139,236 L-1139,218 L-1136,209 L-1135,207 L-1134,196 L-1130,187 L-1123,177 L-1112,165 L-1101,156 L-1089,147 L-1072,137 L-1057,130 L-1042,125 L-1033,122 L-1009,116 L-992,115 L-975,115 L-975,114 L-909,114 L-893,116 L-872,120 L-853,123 L-841,126 L-841,131 L-844,136 L-846,141 L-869,144 L-888,151 L-902,160 L-912,169 L-920,178 L-923,182 L-948,183 L-966,187 L-976,193 L-983,201 L-985,206 L-985,215 L-979,225 L-975,227 L-976,231 L-984,240 L-990,251 L-994,266 L-994,278 L-992,266 L-987,252 L-978,240 L-969,232 L-959,226 L-951,223 L-925,219 L-922,205 L-918,196 L-911,184 L-902,174 L-891,165 L-878,158 L-865,154 L-858,153 L-850,153 L-850,161 L-852,172 L-852,195 L-850,210 L-844,230 L-837,244 L-829,256 L-818,268 L-811,275 L-801,282 L-801,284 L-815,291 L-824,298 L-834,307 L-838,314 L-827,307 L-814,299 L-804,294 L-780,287 L-772,286 L-740,286 L-728,289 L-713,294 L-693,305 L-679,316 L-665,330 L-656,342 L-653,344 L-656,334 L-663,322 L-668,315 L-670,314 L-670,311 L-642,309 L-612,305 L-597,301 L-582,298 L-557,290 L-537,282 L-514,271 L-493,259 L-474,246 L-464,238 L-451,227 L-442,219 L-435,211 L-426,201 L-416,188 L-404,169 L-398,158 L-393,145 L-389,131 L-389,111 L-390,99 L-396,82 L-401,73 L-411,59 L-418,52 L-431,42 L-440,37 L-440,35 L-450,32 L-455,30 L-454,26 L-453,25 L-444,26 L-433,29 L-422,36 L-418,38 L-414,32 L-405,26 L-395,22 L-390,23 L-381,31 L-368,39 L-359,44 L-352,47 L-338,52 L-330,55 L-322,58 L-301,65 L-284,70 L-286,75 L-292,82 L-301,99 L-304,110 L-305,116 L-305,140 L-302,157 L-298,166 L-293,177 L-286,190 L-277,202 L-265,216 L-255,226 L-244,235 L-228,247 L-224,250 L-224,252 L-242,258 L-258,267 L-271,278 L-276,284 L-276,287 L-255,273 L-247,269 L-227,262 L-214,260 L-184,260 L-175,261 L-169,263 L-160,264 L-152,267 L-135,273 L-109,287 L-91,299 L-78,310 L-70,317 L-59,329 L-49,344 L-42,358 L-42,349 L-46,338 L-51,328 L-53,325 L-54,320 L-54,317 L-44,317 L-41,318 L-19,320 L-8,322 L4,323 L40,323 L67,320 L92,314 L113,306 L132,296 L148,284 L158,274 L168,260 L170,256 L172,256 L175,246 L178,238 L181,226 L181,193 L177,178 L174,170 L165,151 L154,135 L140,120 L132,112 L118,101 L108,94 L97,87 L84,80 L84,78 L79,77 L67,71 L56,67 L56,65 L46,63 L30,58 L12,53 L3,51 L-2,49 L-11,47 L-11,46 L-21,45 L-39,45 L-37,37 L-36,15 L-26,8 L-15,4 L-7,1 Z M85,417 L84,454 L82,470 L85,467 L87,452 L87,417 Z " fill="#C3EFFA" transform="translate(1877,1909)"/>
<path d="M0,0 L107,0 L148,2 L198,6 L243,11 L298,19 L347,28 L397,39 L441,50 L486,63 L533,78 L572,92 L613,108 L655,126 L690,142 L717,155 L736,165 L761,178 L784,191 L812,207 L833,220 L852,232 L896,261 L914,274 L932,287 L948,299 L961,309 L975,320 L985,328 L996,337 L1009,348 L1020,357 L1031,367 L1042,376 L1049,383 L1057,390 L1072,404 L1079,411 L1087,418 L1124,455 L1131,463 L1141,473 L1148,481 L1161,495 L1168,503 L1180,517 L1192,531 L1201,542 L1210,553 L1221,567 L1235,585 L1249,604 L1263,623 L1279,646 L1304,684 L1316,703 L1333,731 L1349,759 L1363,785 L1375,808 L1384,825 L1395,848 L1412,885 L1430,928 L1445,967 L1460,1009 L1474,1053 L1487,1099 L1499,1147 L1511,1204 L1520,1257 L1527,1309 L1532,1360 L1535,1405 L1536,1429 L1536,1536 L1534,1577 L1530,1627 L1525,1672 L1517,1727 L1508,1776 L1497,1826 L1486,1870 L1473,1915 L1458,1962 L1444,2001 L1428,2042 L1410,2084 L1394,2119 L1380,2148 L1370,2167 L1358,2190 L1345,2213 L1329,2241 L1316,2262 L1304,2281 L1293,2298 L1277,2322 L1265,2339 L1252,2357 L1238,2376 L1227,2390 L1216,2404 L1208,2414 L1199,2425 L1188,2438 L1179,2449 L1170,2459 L1163,2467 L1154,2477 L1145,2487 L1133,2500 L1125,2508 L1118,2516 L1081,2553 L1073,2560 L1063,2570 L1055,2577 L1041,2590 L1033,2597 L1019,2609 L1005,2621 L994,2630 L983,2639 L969,2650 L951,2664 L932,2678 L913,2692 L890,2708 L869,2722 L852,2733 L833,2745 L805,2762 L777,2778 L751,2792 L728,2804 L711,2813 L688,2824 L651,2841 L608,2859 L569,2874 L527,2889 L483,2903 L437,2916 L389,2928 L332,2940 L279,2949 L227,2956 L176,2961 L131,2964 L107,2965 L0,2965 L-41,2963 L-91,2959 L-136,2954 L-191,2946 L-240,2937 L-290,2926 L-334,2915 L-379,2902 L-426,2887 L-465,2873 L-506,2857 L-548,2839 L-583,2823 L-612,2809 L-631,2799 L-654,2787 L-677,2774 L-705,2758 L-726,2745 L-745,2733 L-789,2704 L-807,2691 L-825,2678 L-841,2666 L-854,2656 L-868,2645 L-878,2637 L-889,2628 L-902,2617 L-913,2608 L-923,2599 L-931,2592 L-941,2583 L-951,2574 L-964,2562 L-972,2554 L-980,2547 L-1017,2510 L-1024,2502 L-1034,2492 L-1041,2484 L-1054,2470 L-1061,2462 L-1073,2448 L-1085,2434 L-1094,2423 L-1103,2412 L-1114,2398 L-1128,2380 L-1142,2361 L-1156,2342 L-1172,2319 L-1180,2307 L-1197,2281 L-1209,2262 L-1226,2234 L-1239,2211 L-1249,2193 L-1263,2167 L-1277,2140 L-1288,2117 L-1305,2080 L-1323,2037 L-1338,1998 L-1353,1956 L-1367,1912 L-1380,1866 L-1392,1818 L-1404,1761 L-1413,1708 L-1420,1656 L-1425,1605 L-1428,1560 L-1429,1536 L-1429,1429 L-1427,1388 L-1423,1338 L-1418,1293 L-1410,1238 L-1401,1189 L-1390,1139 L-1379,1095 L-1366,1050 L-1351,1003 L-1337,964 L-1321,923 L-1303,881 L-1287,846 L-1273,817 L-1263,798 L-1251,775 L-1238,752 L-1222,724 L-1209,703 L-1197,684 L-1168,640 L-1155,622 L-1142,604 L-1130,588 L-1120,575 L-1109,561 L-1101,551 L-1092,540 L-1081,527 L-1072,516 L-1062,505 L-1053,494 L-1046,487 L-1039,479 L-1025,464 L-1018,457 L-1011,449 L-974,412 L-966,405 L-956,395 L-948,388 L-934,375 L-923,366 L-911,355 L-900,346 L-886,334 L-872,323 L-857,311 L-837,296 L-820,283 L-803,271 L-783,257 L-745,232 L-726,220 L-698,203 L-675,190 L-657,180 L-631,166 L-611,156 L-595,148 L-564,133 L-530,118 L-486,100 L-440,83 L-404,71 L-376,62 L-330,49 L-282,37 L-230,26 L-184,18 L-136,11 L-91,6 L-41,2 Z M-6,47 L-59,50 L-99,54 L-127,57 L-169,63 L-199,68 L-237,75 L-273,83 L-294,88 L-312,93 L-332,98 L-356,105 L-385,114 L-421,126 L-462,141 L-499,156 L-529,169 L-562,184 L-585,195 L-604,205 L-633,220 L-656,233 L-682,248 L-703,261 L-725,275 L-758,297 L-778,311 L-796,324 L-817,340 L-833,352 L-850,366 L-860,374 L-873,385 L-884,394 L-896,405 L-904,412 L-914,421 L-926,432 L-941,446 L-992,497 L-999,505 L-1015,522 L-1022,530 L-1034,544 L-1043,554 L-1052,565 L-1066,582 L-1077,596 L-1091,614 L-1105,633 L-1118,651 L-1132,671 L-1152,701 L-1166,723 L-1179,744 L-1193,768 L-1207,793 L-1222,821 L-1233,843 L-1241,859 L-1254,886 L-1271,925 L-1284,957 L-1298,994 L-1310,1028 L-1322,1066 L-1328,1087 L-1336,1116 L-1342,1139 L-1350,1175 L-1356,1202 L-1364,1246 L-1366,1260 L-1370,1287 L-1374,1321 L-1379,1372 L-1381,1401 L-1382,1426 L-1382,1543 L-1380,1580 L-1375,1634 L-1371,1671 L-1367,1700 L-1364,1717 L-1358,1750 L-1353,1775 L-1348,1800 L-1339,1838 L-1335,1853 L-1326,1884 L-1321,1901 L-1316,1917 L-1304,1953 L-1292,1987 L-1277,2025 L-1263,2058 L-1250,2087 L-1234,2120 L-1218,2152 L-1206,2174 L-1192,2199 L-1175,2227 L-1163,2247 L-1152,2264 L-1134,2291 L-1123,2307 L-1110,2325 L-1096,2344 L-1083,2361 L-1072,2375 L-1059,2391 L-1050,2402 L-1039,2415 L-1027,2429 L-1016,2441 L-1009,2449 L-997,2462 L-985,2475 L-932,2528 L-924,2535 L-907,2551 L-899,2558 L-885,2570 L-875,2579 L-864,2588 L-847,2602 L-833,2613 L-815,2627 L-796,2641 L-778,2654 L-761,2666 L-728,2688 L-703,2704 L-675,2721 L-647,2737 L-623,2750 L-596,2764 L-580,2772 L-556,2784 L-520,2800 L-492,2812 L-454,2827 L-418,2840 L-382,2852 L-363,2858 L-341,2864 L-328,2868 L-308,2873 L-290,2878 L-254,2886 L-227,2892 L-183,2900 L-169,2902 L-142,2906 L-108,2910 L-59,2915 L-6,2918 L29,2919 L82,2919 L114,2918 L151,2916 L199,2912 L242,2907 L271,2903 L288,2900 L322,2894 L362,2886 L391,2879 L413,2874 L434,2868 L459,2861 L482,2854 L518,2842 L558,2828 L596,2813 L627,2800 L662,2784 L691,2770 L723,2754 L745,2742 L770,2728 L798,2711 L818,2699 L835,2688 L865,2668 L885,2654 L903,2641 L924,2625 L940,2613 L957,2599 L967,2591 L980,2580 L991,2571 L1003,2560 L1011,2553 L1021,2544 L1033,2533 L1048,2519 L1100,2467 L1107,2459 L1122,2443 L1129,2435 L1141,2421 L1150,2411 L1159,2400 L1173,2383 L1184,2369 L1198,2351 L1212,2332 L1225,2314 L1237,2297 L1259,2264 L1273,2242 L1290,2214 L1305,2188 L1320,2161 L1337,2128 L1353,2096 L1369,2060 L1380,2035 L1397,1992 L1410,1956 L1422,1920 L1426,1909 L1431,1891 L1438,1868 L1445,1840 L1449,1826 L1456,1794 L1462,1767 L1471,1717 L1475,1693 L1479,1663 L1483,1626 L1487,1580 L1489,1534 L1489,1426 L1488,1401 L1485,1360 L1479,1302 L1473,1260 L1468,1230 L1461,1192 L1452,1153 L1446,1127 L1442,1112 L1435,1088 L1431,1073 L1422,1044 L1410,1008 L1397,972 L1385,942 L1371,909 L1358,880 L1344,851 L1336,835 L1324,811 L1312,789 L1298,764 L1283,739 L1268,715 L1252,690 L1241,674 L1230,658 L1217,640 L1203,621 L1190,604 L1179,590 L1166,574 L1157,563 L1146,550 L1134,536 L1123,524 L1116,516 L1104,503 L1090,488 L1039,437 L1031,430 L1014,414 L1006,407 L992,395 L982,386 L971,377 L954,363 L940,352 L922,338 L903,324 L885,311 L868,299 L835,277 L813,263 L785,246 L759,231 L732,216 L699,199 L669,184 L636,169 L606,156 L576,144 L536,129 L510,120 L480,110 L462,105 L439,98 L403,89 L387,85 L357,78 L317,70 L274,63 L257,60 L223,56 L197,53 L132,48 L116,47 Z " fill="#FBFDFD" transform="translate(1447,18)"/>
<path d="M0,0 L28,0 L29,62 L31,93 L35,131 L35,141 L37,141 L39,125 L45,100 L51,80 L60,54 L64,46 L67,38 L74,23 L81,10 L87,1 L114,1 L137,5 L167,12 L195,21 L204,25 L211,28 L228,35 L242,43 L253,49 L264,55 L278,64 L295,76 L305,84 L318,95 L334,110 L342,120 L346,124 L353,134 L358,144 L358,147 L345,154 L329,164 L307,179 L295,188 L278,201 L262,214 L249,225 L235,237 L220,251 L203,267 L186,284 L179,292 L168,304 L159,315 L145,333 L130,356 L125,366 L121,365 L102,356 L77,347 L49,339 L23,333 L-1,329 L-28,326 L-47,325 L-79,325 L-104,327 L-133,331 L-160,337 L-181,343 L-202,350 L-207,351 L-207,353 L-216,356 L-219,356 L-219,358 L-229,362 L-245,370 L-247,370 L-247,372 L-254,375 L-269,384 L-288,397 L-300,406 L-316,419 L-331,432 L-336,437 L-338,437 L-340,441 L-345,446 L-352,453 L-362,466 L-364,470 L-366,470 L-368,475 L-378,490 L-382,498 L-384,503 L-392,519 L-402,549 L-406,570 L-408,577 L-411,603 L-412,618 L-412,649 L-410,676 L-405,709 L-398,739 L-393,756 L-393,759 L-391,759 L-391,764 L-400,768 L-408,775 L-413,782 L-417,792 L-418,797 L-418,822 L-413,844 L-407,860 L-404,866 L-401,874 L-398,880 L-392,897 L-386,915 L-386,918 L-384,918 L-380,934 L-373,964 L-369,989 L-368,998 L-368,1041 L-372,1069 L-374,1069 L-376,1079 L-384,1101 L-389,1109 L-397,1121 L-408,1135 L-422,1149 L-439,1162 L-455,1171 L-464,1176 L-471,1179 L-484,1183 L-493,1186 L-507,1187 L-507,1189 L-523,1191 L-549,1191 L-557,1190 L-557,1188 L-565,1188 L-585,1184 L-599,1179 L-608,1175 L-610,1174 L-610,1172 L-615,1171 L-626,1164 L-636,1156 L-653,1139 L-660,1131 L-677,1115 L-689,1106 L-702,1098 L-712,1093 L-725,1088 L-737,1086 L-759,1086 L-759,1088 L-775,1090 L-771,1084 L-764,1077 L-750,1068 L-736,1063 L-731,1062 L-708,1062 L-697,1064 L-697,1066 L-690,1067 L-674,1072 L-667,1076 L-660,1079 L-646,1087 L-640,1089 L-640,1091 L-634,1093 L-618,1102 L-608,1106 L-603,1108 L-603,1110 L-590,1113 L-590,1115 L-579,1117 L-573,1118 L-555,1118 L-544,1115 L-530,1108 L-517,1097 L-508,1086 L-500,1072 L-496,1061 L-494,1051 L-494,1028 L-499,1004 L-505,992 L-509,982 L-519,964 L-529,949 L-542,931 L-555,915 L-567,899 L-578,881 L-578,879 L-580,879 L-584,870 L-592,854 L-598,839 L-598,836 L-600,836 L-609,809 L-614,794 L-616,787 L-621,768 L-625,751 L-629,731 L-629,724 L-631,724 L-638,681 L-641,650 L-642,637 L-643,636 L-645,607 L-645,544 L-642,510 L-637,481 L-635,472 L-633,467 L-630,450 L-621,418 L-612,391 L-603,366 L-598,356 L-593,343 L-589,336 L-585,326 L-572,301 L-557,276 L-542,254 L-529,236 L-518,223 L-509,212 L-497,199 L-492,196 L-477,182 L-474,179 L-476,177 L-468,170 L-456,159 L-445,150 L-431,139 L-413,126 L-398,116 L-379,104 L-368,98 L-354,90 L-347,86 L-343,86 L-343,84 L-326,76 L-320,73 L-316,73 L-316,71 L-307,68 L-299,64 L-285,59 L-273,54 L-260,50 L-234,42 L-221,38 L-215,36 L-192,31 L-185,30 L-176,27 L-163,25 L-151,22 L-150,21 L-139,20 L-135,35 L-130,53 L-121,84 L-118,91 L-114,107 L-107,127 L-106,135 L-104,135 L-104,71 L-103,59 L-101,59 L-101,47 L-100,35 L-98,26 L-96,13 L-93,10 L-68,5 L-24,1 Z " fill="#A6010B" transform="translate(1570,489)"/>
<path d="M0,0 L85,0 L138,3 L143,4 L177,7 L207,11 L252,18 L298,27 L340,37 L364,44 L385,50 L440,68 L472,80 L504,93 L531,105 L559,118 L593,135 L615,147 L643,163 L671,180 L704,202 L719,212 L733,222 L752,236 L769,249 L785,262 L795,270 L808,281 L819,290 L833,303 L841,310 L854,322 L862,330 L870,337 L894,361 L901,369 L911,379 L918,387 L930,400 L939,411 L948,421 L957,432 L970,448 L983,465 L999,486 L1012,505 L1020,516 L1032,534 L1048,559 L1063,584 L1078,610 L1095,642 L1114,680 L1130,716 L1144,750 L1159,790 L1172,829 L1177,847 L1184,870 L1192,901 L1199,933 L1204,957 L1209,983 L1212,1005 L1214,1016 L1219,1056 L1223,1103 L1225,1155 L1225,1215 L1223,1257 L1222,1278 L1221,1283 L1218,1317 L1213,1357 L1206,1396 L1201,1424 L1194,1454 L1188,1480 L1181,1504 L1171,1538 L1157,1580 L1145,1612 L1132,1644 L1120,1671 L1107,1699 L1090,1733 L1078,1755 L1065,1778 L1056,1793 L1043,1814 L1015,1856 L1003,1873 L989,1892 L976,1909 L963,1925 L955,1935 L944,1948 L935,1959 L922,1973 L915,1981 L903,1994 L895,2002 L888,2010 L864,2034 L856,2041 L846,2051 L838,2058 L825,2070 L814,2079 L804,2088 L793,2097 L777,2110 L760,2123 L739,2139 L720,2152 L709,2160 L677,2181 L653,2196 L629,2210 L602,2225 L573,2240 L549,2252 L513,2268 L485,2280 L456,2291 L422,2303 L393,2313 L368,2320 L350,2325 L324,2332 L293,2339 L246,2348 L200,2355 L159,2360 L143,2361 L138,2362 L85,2365 L4,2365 L-37,2363 L-72,2360 L-109,2356 L-135,2352 L-157,2349 L-204,2340 L-233,2333 L-255,2328 L-272,2323 L-298,2316 L-353,2298 L-398,2281 L-433,2266 L-466,2251 L-510,2229 L-532,2217 L-558,2202 L-586,2185 L-606,2172 L-618,2164 L-634,2153 L-648,2143 L-667,2129 L-684,2116 L-700,2103 L-710,2095 L-723,2084 L-734,2075 L-748,2062 L-756,2055 L-769,2043 L-777,2035 L-785,2028 L-809,2004 L-816,1996 L-826,1986 L-833,1978 L-845,1965 L-854,1954 L-863,1944 L-872,1933 L-885,1917 L-898,1900 L-914,1879 L-927,1860 L-935,1849 L-956,1817 L-969,1796 L-985,1769 L-1000,1742 L-1015,1713 L-1027,1689 L-1043,1653 L-1055,1625 L-1066,1596 L-1078,1562 L-1090,1525 L-1097,1501 L-1105,1472 L-1114,1433 L-1123,1386 L-1130,1342 L-1135,1299 L-1136,1283 L-1137,1278 L-1139,1242 L-1140,1215 L-1140,1155 L-1138,1103 L-1133,1047 L-1129,1016 L-1125,990 L-1120,962 L-1115,936 L-1108,907 L-1103,885 L-1098,868 L-1091,842 L-1086,826 L-1069,776 L-1053,735 L-1041,707 L-1026,674 L-1004,630 L-992,608 L-977,582 L-960,554 L-947,534 L-939,522 L-928,506 L-918,492 L-904,473 L-891,456 L-878,440 L-870,430 L-859,417 L-850,406 L-837,392 L-830,384 L-818,371 L-802,354 L-779,331 L-771,324 L-761,314 L-753,307 L-740,295 L-729,286 L-719,277 L-708,268 L-692,255 L-675,242 L-654,226 L-635,213 L-624,205 L-606,193 L-581,177 L-556,162 L-530,147 L-498,130 L-460,111 L-424,95 L-390,81 L-350,66 L-311,53 L-293,48 L-270,41 L-239,33 L-207,26 L-183,21 L-151,15 L-128,12 L-109,9 L-64,4 L-37,2 Z M-1,31 L-25,32 L-52,34 L-93,38 L-144,45 L-176,51 L-205,57 L-244,66 L-270,73 L-297,81 L-328,91 L-362,103 L-397,117 L-427,130 L-453,142 L-476,153 L-495,163 L-521,177 L-548,193 L-568,205 L-588,218 L-603,228 L-619,239 L-637,252 L-653,264 L-666,274 L-680,285 L-693,296 L-704,305 L-719,318 L-731,329 L-739,336 L-756,352 L-797,393 L-804,401 L-819,417 L-828,428 L-838,439 L-847,450 L-856,461 L-867,475 L-877,488 L-891,507 L-904,525 L-912,537 L-922,552 L-936,574 L-953,602 L-966,625 L-980,651 L-992,674 L-1005,702 L-1019,733 L-1033,768 L-1043,795 L-1057,836 L-1062,853 L-1067,870 L-1078,912 L-1086,949 L-1093,984 L-1097,1010 L-1102,1047 L-1106,1088 L-1108,1115 L-1109,1139 L-1109,1228 L-1107,1266 L-1104,1300 L-1099,1342 L-1095,1367 L-1089,1400 L-1083,1431 L-1072,1477 L-1067,1494 L-1061,1516 L-1049,1552 L-1036,1589 L-1022,1624 L-1009,1654 L-997,1680 L-975,1724 L-962,1747 L-949,1770 L-933,1796 L-922,1813 L-912,1828 L-896,1851 L-882,1870 L-870,1886 L-858,1901 L-847,1915 L-834,1930 L-822,1944 L-811,1956 L-804,1964 L-788,1981 L-747,2022 L-739,2029 L-723,2044 L-712,2053 L-701,2063 L-690,2072 L-679,2081 L-665,2092 L-652,2102 L-633,2116 L-615,2129 L-603,2137 L-588,2147 L-571,2158 L-543,2175 L-517,2190 L-491,2204 L-468,2216 L-445,2227 L-407,2244 L-372,2258 L-345,2268 L-304,2282 L-287,2287 L-270,2292 L-228,2303 L-191,2311 L-156,2318 L-123,2323 L-93,2327 L-52,2331 L-25,2333 L7,2334 L85,2334 L110,2333 L160,2329 L202,2324 L227,2320 L260,2314 L291,2308 L337,2297 L354,2292 L376,2286 L412,2274 L449,2261 L484,2247 L514,2234 L540,2222 L584,2200 L607,2187 L630,2174 L656,2158 L673,2147 L688,2137 L704,2126 L722,2113 L738,2101 L751,2091 L765,2080 L778,2069 L789,2060 L804,2047 L816,2036 L824,2029 L841,2013 L882,1972 L889,1964 L904,1948 L913,1937 L923,1926 L932,1915 L941,1904 L952,1890 L962,1877 L976,1858 L989,1840 L997,1828 L1007,1813 L1023,1788 L1039,1761 L1051,1740 L1065,1714 L1087,1670 L1103,1634 L1117,1599 L1130,1564 L1145,1518 L1151,1499 L1156,1479 L1161,1461 L1169,1425 L1175,1396 L1181,1363 L1187,1318 L1189,1300 L1193,1250 L1194,1228 L1194,1139 L1193,1115 L1189,1067 L1185,1031 L1179,990 L1172,954 L1166,926 L1157,888 L1152,870 L1144,843 L1134,812 L1122,778 L1108,743 L1095,713 L1083,687 L1071,662 L1061,643 L1048,619 L1032,592 L1020,572 L1007,552 L997,537 L986,521 L973,503 L961,487 L951,474 L940,460 L929,447 L920,436 L907,421 L896,409 L889,401 L873,384 L832,343 L824,336 L808,321 L797,312 L786,302 L775,293 L764,284 L750,273 L737,263 L718,249 L700,236 L688,228 L673,218 L651,204 L623,187 L598,173 L574,160 L530,138 L494,122 L459,108 L432,98 L388,83 L368,77 L354,73 L325,65 L286,56 L239,47 L223,44 L178,38 L160,36 L126,33 L90,31 Z " fill="#00EDED" transform="translate(1458,318)"/>
<path d="M0,0 L61,0 L101,5 L112,8 L123,10 L147,17 L159,20 L159,22 L169,24 L185,30 L185,32 L194,35 L199,39 L199,47 L197,47 L194,57 L189,71 L185,80 L179,97 L176,104 L170,121 L166,122 L156,116 L149,113 L149,111 L139,108 L122,101 L115,98 L90,91 L81,88 L52,84 L49,83 L-8,83 L-39,88 L-58,93 L-79,100 L-86,104 L-96,108 L-112,117 L-120,122 L-109,119 L-87,111 L-60,103 L-36,98 L-19,97 L15,95 L49,96 L44,95 L44,94 L52,94 L72,97 L81,99 L82,100 L93,102 L101,105 L114,109 L124,113 L132,116 L132,118 L138,119 L152,126 L152,128 L158,130 L162,133 L172,133 L177,130 L180,130 L187,138 L200,151 L210,164 L220,179 L233,202 L236,209 L240,217 L242,222 L245,229 L249,242 L249,246 L240,245 L241,243 L210,239 L195,238 L137,238 L145,239 L145,240 L123,242 L107,243 L107,245 L87,249 L64,256 L55,260 L41,265 L32,268 L32,270 L20,275 L2,285 L-21,299 L-38,311 L-57,325 L-71,336 L-84,347 L-94,355 L-109,368 L-119,377 L-130,386 L-142,397 L-153,406 L-163,415 L-174,424 L-190,437 L-209,451 L-224,460 L-219,458 L-205,451 L-186,439 L-170,428 L-151,414 L-137,403 L-121,390 L-107,379 L-94,368 L-80,357 L-64,344 L-46,331 L-28,318 L-11,307 L9,295 L36,281 L45,277 L49,277 L49,275 L60,272 L67,268 L82,263 L116,255 L132,254 L156,254 L156,253 L210,253 L230,255 L240,257 L247,258 L246,262 L240,270 L227,269 L216,267 L199,266 L169,266 L139,268 L119,271 L106,274 L94,276 L69,283 L58,287 L43,293 L22,303 L0,316 L-19,329 L-37,342 L-53,354 L-72,368 L-87,380 L-103,392 L-117,403 L-133,415 L-151,429 L-165,439 L-183,452 L-198,462 L-214,472 L-229,480 L-235,481 L-238,474 L-241,466 L-243,455 L-246,444 L-248,433 L-250,419 L-252,414 L-255,379 L-255,336 L-254,319 L-251,304 L-245,277 L-242,265 L-234,242 L-231,237 L-227,227 L-223,218 L-212,199 L-205,189 L-202,185 L-207,190 L-214,197 L-228,216 L-234,226 L-237,233 L-239,233 L-241,239 L-247,254 L-252,267 L-254,271 L-255,279 L-257,284 L-262,308 L-264,319 L-265,330 L-266,330 L-267,324 L-268,335 L-268,378 L-267,336 L-266,336 L-265,392 L-262,411 L-262,415 L-278,421 L-291,426 L-296,427 L-299,422 L-306,399 L-309,390 L-311,377 L-313,370 L-315,357 L-317,340 L-317,319 L-318,318 L-318,275 L-317,271 L-317,253 L-313,227 L-308,208 L-301,188 L-297,180 L-293,170 L-280,147 L-267,129 L-256,117 L-247,107 L-237,98 L-223,86 L-209,75 L-191,62 L-172,50 L-157,41 L-149,39 L-149,37 L-141,35 L-141,33 L-130,29 L-128,29 L-128,27 L-117,23 L-95,15 L-60,6 L-59,5 L-41,3 L-37,2 L-20,1 L0,1 Z " fill="#CA7E4A" transform="translate(1489,828)"/>
<path d="M0,0 L5,2 L13,9 L30,20 L51,31 L58,34 L71,39 L92,46 L117,52 L136,55 L160,57 L202,57 L219,56 L240,53 L258,48 L272,44 L283,39 L291,35 L293,35 L293,98 L302,107 L310,114 L325,128 L340,142 L353,155 L360,163 L372,176 L387,196 L395,210 L400,226 L401,237 L401,258 L399,268 L392,288 L390,288 L388,294 L378,307 L367,318 L357,325 L342,334 L334,337 L345,335 L360,328 L375,319 L387,308 L395,298 L402,285 L406,283 L422,283 L441,285 L456,287 L477,293 L487,296 L487,298 L496,300 L503,303 L519,310 L524,312 L543,323 L558,333 L569,342 L579,351 L590,362 L602,378 L610,393 L613,401 L615,405 L617,415 L619,420 L619,450 L617,457 L613,469 L603,486 L591,499 L582,507 L566,517 L562,519 L559,519 L559,521 L547,525 L540,528 L519,534 L497,537 L446,537 L413,533 L413,531 L399,530 L382,527 L375,526 L363,515 L349,505 L329,493 L320,489 L312,485 L294,479 L281,475 L271,474 L241,473 L224,462 L212,453 L197,440 L186,429 L178,419 L169,406 L161,392 L157,380 L154,373 L153,365 L153,341 L156,329 L162,317 L169,308 L179,298 L186,299 L201,302 L213,304 L236,304 L244,300 L252,295 L263,287 L271,277 L276,266 L277,264 L277,251 L272,237 L265,225 L258,216 L249,206 L237,194 L223,183 L222,179 L230,177 L230,175 L242,168 L264,153 L259,155 L251,160 L230,170 L220,174 L205,179 L194,181 L186,181 L179,173 L172,165 L167,159 L159,152 L146,142 L132,134 L132,132 L127,131 L111,124 L109,122 L96,118 L83,112 L69,107 L50,98 L39,93 L39,91 L32,89 L13,79 L-7,67 L-12,64 L-12,62 L-18,60 L-37,48 L-36,45 L-26,39 L-16,30 L-9,20 L-8,18 L-6,18 L-3,7 L-2,4 L0,4 Z " fill="#FDFDFD" transform="translate(1429,1684)"/>
<path d="M0,0 L3,0 L8,5 L23,18 L34,28 L42,35 L59,51 L67,59 L74,67 L87,81 L88,85 L80,94 L68,112 L65,120 L63,120 L60,130 L57,136 L50,157 L48,166 L47,181 L51,168 L55,159 L60,149 L64,148 L81,156 L93,165 L103,174 L112,186 L118,198 L122,211 L123,216 L123,236 L118,252 L114,263 L106,277 L95,293 L87,303 L75,316 L71,321 L63,328 L53,337 L33,352 L10,366 L1,371 L-2,371 L-2,373 L-6,375 L-10,375 L-10,377 L-23,382 L-43,390 L-64,396 L-84,401 L-98,404 L-126,408 L-143,409 L-160,409 L-170,401 L-188,391 L-204,385 L-214,383 L-224,382 L-247,382 L-258,383 L-258,385 L-266,386 L-282,375 L-297,360 L-306,346 L-312,335 L-316,325 L-319,310 L-319,282 L-318,279 L-316,262 L-308,237 L-299,221 L-290,209 L-270,189 L-256,178 L-235,164 L-227,159 L-223,159 L-223,157 L-211,151 L-207,151 L-207,149 L-194,144 L-185,140 L-171,135 L-162,132 L-153,129 L-131,124 L-119,122 L-101,120 L-84,120 L-86,130 L-88,130 L-91,151 L-93,161 L-94,175 L-87,157 L-79,137 L-74,124 L-67,106 L-63,98 L-59,88 L-52,74 L-51,71 L-49,71 L-48,65 L-46,65 L-45,60 L-43,56 L-41,56 L-40,51 L-30,44 L-23,38 L-16,28 L-14,28 L-12,22 L-8,10 Z " fill="#FDFDFD" transform="translate(1355,1801)"/>
<path d="M0,0 L15,0 L20,2 L26,5 L40,15 L51,24 L61,33 L73,44 L104,75 L104,77 L90,79 L76,83 L70,86 L68,88 L61,91 L50,101 L46,100 L43,89 L39,80 L33,68 L25,52 L15,35 L11,29 L13,34 L20,46 L22,51 L26,59 L29,67 L32,73 L41,103 L42,111 L37,121 L32,126 L22,135 L18,143 L16,146 L14,155 L14,174 L18,189 L26,205 L35,215 L49,223 L57,226 L64,227 L71,238 L73,244 L73,267 L65,273 L52,278 L42,282 L29,286 L-10,291 L-11,292 L-64,292 L-66,291 L-90,289 L-114,284 L-125,281 L-152,272 L-161,268 L-168,265 L-168,263 L-178,260 L-196,248 L-207,240 L-217,232 L-216,225 L-208,209 L-203,196 L-198,187 L-194,177 L-191,172 L-186,157 L-181,147 L-175,129 L-172,118 L-171,106 L-154,93 L-152,93 L-152,91 L-172,101 L-190,112 L-208,125 L-217,132 L-219,132 L-219,134 L-222,134 L-228,118 L-236,106 L-243,99 L-250,94 L-255,91 L-262,89 L-261,85 L-251,76 L-240,67 L-225,54 L-211,42 L-194,28 L-177,16 L-166,10 L-162,11 L-160,11 L-155,10 L-144,10 L-140,11 L-144,8 L-139,8 L-129,15 L-135,7 L-119,8 L-111,10 L-98,11 L-64,11 L-34,8 L-27,6 L-21,4 L-12,2 Z " fill="#68B0EE" transform="translate(1648,1439)"/>
<path d="M0,0 L12,0 L26,3 L35,7 L46,14 L53,21 L58,25 L65,36 L70,50 L71,61 L71,79 L69,89 L66,98 L61,110 L54,121 L45,131 L36,139 L27,144 L22,146 L22,148 L12,153 L-7,159 L-23,163 L-31,164 L-59,164 L-80,161 L-97,155 L-111,150 L-114,150 L-100,158 L-89,163 L-77,166 L-72,168 L-64,170 L-52,171 L-26,171 L-6,168 L12,163 L17,162 L17,169 L13,178 L11,183 L3,198 L-7,211 L-16,221 L-24,229 L-34,237 L-51,248 L-67,257 L-70,257 L-70,259 L-84,264 L-96,269 L-123,277 L-145,280 L-160,281 L-164,282 L-189,282 L-219,281 L-240,277 L-252,274 L-260,271 L-275,266 L-275,264 L-281,263 L-280,259 L-273,249 L-270,245 L-265,246 L-257,249 L-249,253 L-237,257 L-215,266 L-205,271 L-195,272 L-195,270 L-191,266 L-189,266 L-192,233 L-194,226 L-197,204 L-199,193 L-201,188 L-203,176 L-212,145 L-223,111 L-226,104 L-229,97 L-233,87 L-237,79 L-242,75 L-258,69 L-270,64 L-279,61 L-280,56 L-277,50 L-273,40 L-266,28 L-255,16 L-252,13 L-248,13 L-246,33 L-244,43 L-244,47 L-242,47 L-236,63 L-227,76 L-217,86 L-209,91 L-201,94 L-201,96 L-190,98 L-182,99 L-165,99 L-151,96 L-139,91 L-130,84 L-123,74 L-118,61 L-117,56 L-117,48 L-118,48 L-118,40 L-117,36 L-122,36 L-122,35 L-115,34 L-112,31 L-111,27 L-109,27 L-95,51 L-91,59 L-92,63 L-101,73 L-97,72 L-87,64 L-74,51 L-67,43 L-59,35 L-51,28 L-40,18 L-24,8 L-10,2 Z M-105,194 L-113,195 L-114,196 L-125,198 L-140,203 L-149,207 L-165,215 L-172,219 L-173,216 L-177,217 L-181,221 L-181,230 L-178,229 L-177,225 L-168,223 L-168,221 L-163,220 L-149,215 L-135,210 L-114,204 L-97,201 L-79,201 L-66,205 L-58,212 L-57,208 L-66,199 L-81,194 Z " fill="#68B0ED" transform="translate(1748,1159)"/>
<path d="M0,0 L3,0 L7,4 L36,23 L55,35 L75,47 L100,61 L126,74 L144,81 L144,83 L154,86 L169,91 L177,95 L184,98 L193,102 L202,106 L202,108 L208,110 L222,120 L232,129 L237,134 L244,141 L257,158 L270,175 L282,193 L291,208 L301,226 L305,236 L308,241 L312,254 L312,259 L310,257 L296,258 L283,258 L266,257 L257,254 L231,249 L197,238 L187,234 L176,230 L160,222 L146,213 L132,201 L120,189 L111,178 L103,169 L94,158 L82,144 L74,136 L67,128 L57,118 L49,111 L42,104 L34,97 L20,85 L10,77 L-3,66 L-14,58 L-26,48 L-31,45 L-30,39 L-24,27 L-16,16 Z " fill="#AEAEAE" transform="translate(1355,1719)"/>
<path d="M0,0 L22,0 L34,4 L45,10 L58,20 L69,31 L79,47 L84,59 L86,76 L88,80 L89,86 L89,108 L84,127 L75,142 L66,152 L51,162 L33,166 L19,166 L3,162 L-9,156 L-22,146 L-32,135 L-41,121 L-47,108 L-51,96 L-52,95 L-53,86 L-54,85 L-54,62 L-52,50 L-48,38 L-45,33 L-27,20 L-8,6 Z " fill="#CB7F4B" transform="translate(1366,1251)"/>
<path d="M0,0 L4,1 L14,8 L30,17 L41,22 L54,27 L61,30 L69,33 L69,35 L76,36 L79,39 L85,52 L88,61 L91,69 L103,103 L107,120 L113,141 L116,155 L118,166 L121,183 L123,197 L123,214 L118,213 L95,204 L87,200 L70,194 L60,190 L51,186 L46,184 L39,181 L33,179 L36,170 L40,155 L41,148 L41,129 L39,116 L37,111 L32,94 L23,77 L12,63 L1,53 L-16,42 L-29,37 L-43,35 L-41,31 L-30,23 L-20,15 L-16,17 L-11,23 L5,34 L21,42 L37,50 L46,54 L53,57 L58,62 L68,81 L71,89 L76,102 L81,117 L84,126 L90,144 L95,162 L96,171 L99,184 L99,175 L97,158 L93,142 L90,126 L82,96 L76,79 L71,66 L64,52 L52,45 L35,37 L28,34 L28,32 L23,31 L12,25 L1,18 L-9,10 L-8,6 Z " fill="#CA7E4A" transform="translate(1425,1206)"/>
<path d="M0,0 L18,0 L41,5 L52,5 L61,2 L64,2 L64,19 L61,29 L58,34 L50,45 L42,53 L28,61 L23,60 L12,53 L2,46 L-4,48 L-13,55 L-25,67 L-34,81 L-39,91 L-42,101 L-41,105 L-27,116 L-17,124 L-14,126 L-14,136 L-21,156 L-29,168 L-36,175 L-45,180 L-48,181 L-56,181 L-59,180 L-60,160 L-65,145 L-65,143 L-67,143 L-72,130 L-75,125 L-76,118 L-78,118 L-80,109 L-80,93 L-77,81 L-73,70 L-70,65 L-67,58 L-59,45 L-49,32 L-43,30 L-28,15 L-24,13 L-25,11 L-21,7 L-13,3 Z " fill="#FBC21C" transform="translate(1356,1663)"/>
<path d="M0,0 L6,0 L13,26 L17,43 L22,61 L27,82 L32,100 L33,106 L33,123 L31,131 L27,140 L20,148 L13,154 L-1,161 L-16,166 L-31,170 L-41,172 L-43,169 L-48,152 L-48,149 L-22,141 L-7,136 L1,130 L4,122 L4,108 L1,96 L1,92 L-1,92 L-1,100 L-4,108 L-10,115 L-21,120 L-25,121 L-41,121 L-51,117 L-59,111 L-66,103 L-73,89 L-78,73 L-80,63 L-80,44 L-76,31 L-70,23 L-61,15 L-51,11 L-47,10 L-33,10 L-25,15 L-19,22 L-18,24 L-19,5 Z M-34,34 L-42,37 L-48,44 L-50,50 L-50,62 L-48,71 L-44,82 L-36,91 L-32,93 L-21,93 L-11,88 L-7,83 L-6,81 L-6,64 L-11,48 L-17,39 L-22,35 L-26,34 Z " fill="#FBFBFB" transform="translate(1204,187)"/>
<path d="M0,0 L14,0 L15,8 L20,119 L20,144 L8,145 L-5,145 L-7,114 L-10,49 L-10,27 L-13,27 L-15,46 L-20,82 L-21,93 L-22,96 L-41,96 L-43,91 L-56,33 L-56,29 L-59,29 L-57,58 L-54,130 L-54,148 L-79,148 L-82,99 L-85,33 L-85,4 L-72,3 L-47,3 L-43,19 L-34,61 L-34,66 L-32,66 L-31,53 L-30,40 L-29,36 L-27,15 L-25,1 Z " fill="#F9F9F9" transform="translate(1594,2726)"/>
<path d="M0,0 L21,0 L34,5 L44,14 L51,28 L54,40 L54,55 L51,65 L45,75 L42,78 L44,82 L57,99 L70,115 L80,128 L80,130 L65,134 L53,137 L48,136 L35,118 L23,101 L17,93 L17,91 L-3,96 L-8,96 L-2,118 L4,143 L4,148 L-1,150 L-18,154 L-23,153 L-48,49 L-55,19 L-55,13 Z M-1,26 L-21,31 L-23,32 L-21,43 L-14,72 L-3,70 L13,66 L20,62 L24,56 L25,53 L25,43 L21,33 L14,27 L12,26 Z " fill="#FBFBFB" transform="translate(1797,2693)"/>
<path d="M0,0 L2,0 L1,8 L1,41 L3,53 L8,68 L13,78 L23,94 L35,107 L43,114 L56,122 L63,125 L68,127 L67,130 L74,131 L79,132 L101,132 L99,130 L115,127 L121,124 L123,124 L123,122 L135,115 L145,105 L150,97 L155,98 L165,102 L164,107 L157,117 L146,129 L139,136 L123,147 L116,151 L114,151 L114,153 L102,158 L77,167 L61,171 L44,173 L41,174 L26,175 L-5,175 L-18,172 L-23,167 L-23,160 L-15,153 L-11,154 L-3,158 L3,159 L30,159 L51,155 L81,145 L63,149 L46,152 L44,153 L11,153 L-3,148 L-8,144 L-9,113 L-13,91 L-16,74 L-19,66 L-22,53 L-26,45 L-31,32 L-36,24 L-36,21 L-19,12 L-3,2 Z M5,149 L8,151 L11,152 L42,152 L45,150 Z " fill="#C97E4A" transform="translate(1302,1297)"/>
<path d="M0,0 L9,1 L26,5 L27,9 L14,63 L23,66 L55,74 L56,66 L64,34 L68,16 L76,17 L95,22 L93,34 L69,133 L62,163 L47,160 L35,157 L38,141 L46,109 L47,99 L7,89 L5,100 L-6,146 L-15,145 L-32,141 L-33,137 L-3,12 Z " fill="#FAFAFA" transform="translate(1164,2685)"/>
<path d="M0,0 L4,1 L16,25 L27,48 L43,81 L54,104 L68,133 L69,137 L49,148 L47,148 L38,135 L35,132 L35,147 L29,157 L20,163 L10,167 L-8,167 L-22,160 L-33,149 L-40,138 L-49,119 L-52,107 L-52,90 L-48,79 L-44,73 L-37,66 L-23,59 L-10,59 L-4,62 L1,66 L5,70 L-6,46 L-22,13 L-22,11 Z M-5,80 L-13,83 L-19,88 L-22,96 L-22,103 L-19,114 L-12,128 L-5,135 L0,138 L10,138 L19,134 L24,129 L26,125 L26,114 L23,104 L16,91 L10,84 L2,80 Z " fill="#FBFBFB" transform="translate(936,228)"/>
<path d="M0,0 L9,0 L10,1 L12,15 L12,24 L-5,27 L-31,31 L-58,34 L-54,62 L-54,68 L-28,64 L0,61 L2,78 L2,86 L-46,93 L-50,93 L-46,122 L-46,127 L3,120 L21,118 L26,118 L29,135 L29,143 L-9,148 L-64,156 L-69,156 L-88,23 L-89,13 L-71,10 L-46,7 Z " fill="#FBFBFB" transform="translate(1717,2711)"/>
<path d="M0,0 L13,1 L34,4 L43,64 L49,110 L54,142 L54,152 L40,151 L26,149 L25,148 L23,130 L23,121 L5,119 L-21,115 L-24,124 L-31,140 L-41,140 L-60,137 L-59,132 L-40,90 L-24,54 L-5,12 Z M11,37 L-6,78 L-11,91 L15,95 L20,95 L19,85 L17,64 L14,41 L13,37 Z " fill="#FBFBFB" transform="translate(1308,2716)"/>
<path d="M0,0 L16,0 L32,4 L44,10 L54,19 L59,27 L62,37 L62,49 L58,62 L52,73 L40,86 L30,95 L11,109 L-5,120 L-7,120 L-7,122 L1,122 L49,129 L53,131 L48,148 L46,154 L37,154 L13,150 L-32,144 L-49,141 L-48,127 L-46,117 L-28,104 L-7,88 L6,77 L15,69 L23,58 L27,48 L27,39 L22,31 L15,27 L-2,27 L-12,33 L-15,36 L-19,35 L-34,20 L-32,16 L-24,9 L-10,2 Z " fill="#FBFBFB" transform="translate(1677,128)"/>
<path d="M0,0 L51,0 L72,2 L82,3 L84,4 L84,18 L72,20 L49,24 L45,26 L42,42 L40,61 L39,84 L34,89 L25,99 L22,103 L20,103 L11,87 L-1,66 L-16,42 L-20,37 L-22,36 L-71,36 L-89,38 L-108,41 L-133,48 L-141,51 L-150,50 L-147,47 L-128,36 L-112,28 L-101,23 L-86,17 L-65,11 L-50,7 L-42,6 L-36,4 L-14,1 Z " fill="#CA7E4A" transform="translate(1644,1107)"/>
<path d="M0,0 L15,0 L27,3 L35,6 L32,15 L25,32 L18,31 L12,29 L7,28 L-4,28 L-16,34 L-19,39 L-19,49 L-14,55 L-8,58 L16,62 L33,65 L45,70 L56,78 L63,88 L66,96 L66,113 L62,123 L53,133 L45,139 L33,145 L15,151 L-1,154 L-19,154 L-23,133 L-23,127 L-1,126 L15,123 L29,117 L34,112 L36,108 L36,102 L32,95 L26,92 L5,89 L-11,87 L-23,83 L-35,76 L-44,66 L-49,54 L-50,49 L-50,36 L-46,26 L-40,18 L-29,10 L-16,4 Z " fill="#FBFBFB" transform="translate(1916,2657)"/>
<path d="M0,0 L5,2 L21,13 L25,16 L23,20 L13,34 L1,50 L-13,69 L-26,87 L-22,89 L-6,93 L-3,93 L8,63 L12,62 L36,68 L35,77 L29,101 L38,104 L42,105 L40,116 L36,130 L22,127 L18,145 L15,155 L5,154 L-15,149 L-16,144 L-10,118 L-18,117 L-66,105 L-67,102 L-62,82 L-53,71 L-43,57 L-27,36 L-13,17 Z " fill="#FBFBFB" transform="translate(1824,154)"/>
<path d="M0,0 L21,0 L32,3 L45,8 L57,15 L64,22 L69,30 L70,36 L50,49 L47,45 L41,37 L31,31 L21,28 L8,28 L-2,32 L-10,38 L-17,47 L-24,63 L-27,78 L-27,93 L-23,104 L-14,114 L2,122 L14,125 L31,126 L31,133 L28,151 L8,151 L-11,146 L-27,139 L-38,131 L-43,127 L-51,116 L-55,107 L-57,100 L-57,73 L-52,54 L-46,39 L-39,27 L-30,16 L-20,8 L-7,2 Z " fill="#FBFBFB" transform="translate(1077,2661)"/>
<path d="M0,0 L6,0 L9,18 L9,24 L-18,28 L-22,28 L-11,100 L-8,121 L6,120 L18,118 L24,118 L27,135 L27,142 L-9,148 L-49,154 L-59,156 L-63,156 L-67,134 L-67,131 L-44,128 L-35,127 L-36,125 L-41,90 L-49,38 L-49,33 L-77,37 L-81,37 L-85,16 L-85,13 L-69,10 L-23,3 Z " fill="#FBFBFB" transform="translate(1329,128)"/>
<path d="M0,0 L12,0 L22,9 L30,23 L37,38 L40,48 L43,56 L49,75 L54,96 L58,112 L65,155 L67,169 L69,194 L70,198 L74,252 L74,313 L71,351 L68,371 L61,399 L55,411 L51,416 L48,418 L40,418 L41,413 L44,408 L48,393 L51,381 L54,360 L55,345 L55,261 L54,230 L52,208 L50,186 L43,133 L41,126 L39,112 L35,92 L31,75 L29,70 L27,58 L26,52 L24,52 L19,36 L12,18 L5,7 L0,2 Z " fill="#7D7D7D" transform="translate(1771,1398)"/>
<path d="M0,0 L5,1 L20,16 L19,20 L9,30 L-4,47 L-13,63 L-18,76 L-22,100 L-22,121 L-19,139 L-13,154 L-5,169 L5,183 L13,193 L8,198 L-6,210 L-10,208 L-19,199 L-28,188 L-37,176 L-45,162 L-53,141 L-56,123 L-56,91 L-53,75 L-48,60 L-38,41 L-29,29 L-20,19 L-6,5 Z " fill="#FCFCFC" transform="translate(1573,87)"/>
<path d="M0,0 L4,1 L12,16 L20,37 L24,52 L25,59 L25,90 L21,108 L13,129 L6,142 L-2,153 L-11,163 L-18,170 L-33,181 L-49,190 L-68,198 L-71,195 L-81,177 L-79,173 L-64,165 L-47,153 L-35,142 L-27,131 L-18,114 L-11,93 L-8,76 L-8,56 L-14,30 L-21,11 L-20,8 Z " fill="#FCFCFC" transform="translate(1967,165)"/>
<path d="M0,0 L2,0 L9,12 L17,25 L29,48 L35,62 L41,78 L49,103 L53,119 L57,140 L59,150 L61,170 L61,210 L59,234 L58,236 L56,255 L54,259 L48,285 L40,309 L37,317 L34,315 L32,312 L33,290 L34,277 L34,224 L32,178 L30,148 L26,115 L25,114 L22,91 L17,66 L12,45 L11,36 L7,23 L3,13 L1,5 Z " fill="#7C7C7C" transform="translate(1821,1441)"/>
<path d="M0,0 L10,0 L11,25 L3,26 L-18,27 L-30,27 L-28,53 L-27,79 L-25,108 L-24,130 L-24,146 L-25,147 L-51,147 L-52,140 L-57,48 L-57,29 L-90,31 L-98,31 L-99,30 L-99,5 L-63,3 L-37,2 L-26,1 Z " fill="#FAFAFA" transform="translate(1469,118)"/>
<path d="M0,0 L22,0 L27,1 L26,36 L22,120 L35,120 L93,123 L93,148 L73,148 L1,145 L-7,144 L-5,90 L-1,4 Z " fill="#FAFAFA" transform="translate(1395,2727)"/>
<path d="M0,0 L16,0 L32,2 L32,4 L43,6 L45,7 L46,26 L50,39 L53,45 L60,55 L67,61 L71,63 L83,63 L91,57 L95,50 L96,46 L96,25 L102,26 L102,28 L109,29 L115,31 L114,48 L109,63 L102,74 L94,80 L83,85 L76,87 L44,87 L32,83 L20,76 L11,67 L4,57 L3,53 L1,53 L-5,35 L-9,20 L-9,4 L-7,2 Z " fill="#F9F9F9" transform="translate(1516,1164)"/>
<path d="M0,0 L3,1 L24,59 L30,75 L34,75 L58,66 L61,67 L68,86 L67,91 L32,104 L-20,123 L-25,124 L-33,102 L-32,99 L1,87 L4,87 L-10,49 L-15,36 L-15,34 L-46,45 L-49,41 L-55,24 L-55,20 Z " fill="#FBFBFB" transform="translate(1056,229)"/>
<path d="M0,0 L4,0 L7,5 L10,12 L12,19 L14,19 L21,31 L30,43 L35,50 L34,71 L29,97 L26,107 L20,115 L16,114 L10,106 L10,104 L8,104 L3,92 L0,84 L-7,63 L-8,54 L-10,54 L-12,43 L-15,35 L-19,12 L-20,2 Z " fill="#7D7D7D" transform="translate(1779,1696)"/>
<path d="M0,0 L3,0 L14,16 L18,25 L22,35 L24,53 L24,68 L17,71 L12,72 L-11,72 L-19,68 L-27,58 L-32,46 L-32,28 L-30,18 L-26,13 L-18,7 L-6,2 Z " fill="#67AEEB" transform="translate(1730,1571)"/>
<path d="M0,0 L4,1 L11,9 L18,23 L24,41 L28,54 L27,59 L14,83 L5,105 L1,103 L-16,86 L-16,66 L-15,49 L-11,25 L-6,9 L-1,1 Z " fill="#7E7E7E" transform="translate(1760,1407)"/>
<path d="M0,0 L7,1 L27,12 L39,21 L49,30 L54,34 L61,42 L74,60 L75,65 L68,77 L53,76 L43,71 L36,65 L33,62 L34,58 L39,49 L34,52 L29,57 L23,56 L14,47 L10,37 L10,29 L12,28 L13,23 L8,27 L5,26 L-1,18 L-3,15 L-3,5 Z " fill="#2CDFE7" transform="translate(1209,1647)"/>
<path d="M0,0 L6,0 L9,5 L13,29 L25,49 L32,62 L33,78 L34,80 L34,95 L36,99 L38,107 L40,117 L43,122 L47,135 L48,141 L48,154 L42,158 L34,160 L33,146 L29,130 L22,116 L23,112 L27,107 L20,109 L18,86 L14,68 L5,51 L1,45 L-1,44 L0,41 L2,41 L2,39 L-3,39 L-5,21 L-9,10 L-10,6 L-12,6 L-12,3 Z " fill="#2BDDE5" transform="translate(1743,1526)"/>
<path d="M0,0 L14,0 L22,5 L28,12 L29,14 L29,27 L24,37 L11,50 L0,59 L-10,68 L-19,75 L-24,74 L-39,67 L-37,63 L-23,46 L-13,33 L-14,28 L-15,25 L-15,18 L-12,10 L-7,4 Z " fill="#FBFBFB" transform="translate(2036,345)"/>
<path d="M0,0 L8,1 L20,9 L26,14 L35,25 L44,40 L50,51 L51,56 L51,66 L35,69 L29,70 L20,56 L13,47 L-3,31 L-16,21 L-26,15 L-26,13 L-16,12 Z " fill="#2BDDE6" transform="translate(1305,1589)"/>
<path d="M0,0 L4,0 L4,2 L11,3 L30,14 L42,23 L57,37 L67,49 L74,60 L73,64 L60,77 L58,77 L49,65 L38,52 L28,43 L15,33 L0,24 L-9,19 L-17,16 L-17,13 L-7,5 Z " fill="#2CDFE6" transform="translate(1241,1611)"/>
<path d="M0,0 L40,0 L56,2 L83,9 L83,12 L71,16 L68,16 L68,18 L56,23 L34,35 L31,36 L31,38 L28,38 L25,33 L16,26 L7,21 L-16,15 L-23,13 L-46,11 L-46,8 L-26,4 Z " fill="#C0EAF2" transform="translate(1079,1922)"/>
<path d="M0,0 L10,2 L20,6 L22,18 L27,28 L38,45 L43,55 L47,95 L48,112 L48,131 L42,140 L40,140 L38,130 L32,110 L29,95 L28,80 L26,73 L23,55 L16,42 L9,31 L4,23 L0,3 Z " fill="#2BDEE6" transform="translate(1767,1526)"/>
<path d="M0,0 L7,0 L15,4 L23,14 L30,29 L31,34 L31,45 L27,52 L18,57 L15,58 L5,58 L-3,52 L-9,45 L-15,32 L-17,23 L-17,16 L-14,8 L-6,2 Z " fill="#020202" transform="translate(931,308)"/>
<path d="M0,0 L8,0 L15,3 L21,10 L26,22 L28,30 L28,47 L24,53 L18,57 L13,59 L2,59 L-4,55 L-10,48 L-15,35 L-16,28 L-16,16 L-13,8 L-6,2 Z " fill="#010101" transform="translate(1170,221)"/>
<path d="M0,0 L13,0 L19,4 L23,9 L26,17 L26,27 L22,35 L17,39 L4,43 L-10,46 L-13,46 L-22,9 L-22,6 L-4,1 Z " fill="#010101" transform="translate(1796,2719)"/>
<path d="M0,0 L12,0 L20,4 L26,11 L28,16 L28,27 L24,35 L16,42 L10,44 L2,44 L-8,39 L-13,33 L-16,25 L-16,16 L-11,7 L-3,1 Z " fill="#FAFAFA" transform="translate(2068,281)"/>
<path d="M0,0 L3,0 L8,9 L12,21 L13,27 L13,44 L3,44 L-15,38 L-24,32 L-32,22 L-34,16 L-34,5 L-10,4 Z " fill="#66ACE8" transform="translate(1754,1645)"/>
<path d="M0,0 L42,0 L50,12 L49,15 L45,15 L53,24 L55,30 L55,35 L45,33 L35,28 L19,22 L9,17 L-15,10 L-31,6 L-31,4 L-12,2 L-10,1 Z " fill="#65ACE7" transform="translate(1576,1152)"/>
<path d="M0,0 L3,0 L3,2 L13,5 L24,12 L31,19 L39,31 L42,41 L42,48 L29,59 L26,59 L22,49 L14,35 L3,23 L-8,16 L-13,13 L-11,9 L-1,1 Z " fill="#2CDEE6" transform="translate(1368,1539)"/>
<path d="M0,0 L2,0 L3,9 L6,15 L9,19 L10,38 L14,51 L21,62 L26,68 L32,72 L32,80 L23,78 L13,73 L3,64 L-4,53 L-8,36 L-8,22 L-6,9 L-1,1 Z " fill="#67AEE9" transform="translate(1679,1577)"/>
<path d="M0,0 L12,0 L17,3 L22,8 L21,13 L13,20 L4,32 L-4,47 L-5,50 L-10,49 L-17,41 L-19,36 L-19,24 L-15,13 L-6,3 L-4,1 Z " fill="#F6C11B" transform="translate(1200,1599)"/>
<path d="M0,0 L5,1 L10,9 L13,22 L13,32 L12,33 L0,35 L-11,39 L-21,48 L-24,53 L-27,52 L-28,50 L-28,35 L-23,23 L-15,13 L-7,5 Z " fill="#66ADE9" transform="translate(1718,1534)"/>
<path d="M0,0 L8,1 L22,10 L29,16 L36,26 L40,34 L44,44 L44,49 L35,58 L33,58 L26,44 L16,30 L9,22 L-3,13 L-10,9 L-10,7 Z " fill="#2BDEE5" transform="translate(1335,1566)"/>
<path d="M0,0 L8,0 L16,4 L21,12 L22,15 L22,22 L18,30 L13,34 L8,36 L-2,36 L-8,32 L-12,27 L-14,22 L-14,12 L-10,6 L-3,1 Z " fill="#F9F9F9" transform="translate(1029,186)"/>
<path d="M0,0 L2,0 L4,14 L6,27 L8,48 L9,58 L-1,57 L-22,54 L-12,29 Z " fill="#050505" transform="translate(1319,2753)"/>
<path d="M0,0 L8,0 L13,7 L13,11 L15,11 L16,18 L4,24 L-7,32 L-18,41 L-19,41 L-19,28 L-16,6 L-14,2 Z " fill="#65ADE8" transform="translate(1713,1137)"/>
<path d="M0,0 L4,1 L12,8 L19,11 L25,14 L34,16 L31,40 L22,38 L16,36 L16,34 L11,33 L4,27 L1,20 L0,16 Z " fill="#65ACE8" transform="translate(1236,1725)"/>
<path d="M0,0 L4,1 L1,6 L0,10 L-8,21 L-15,34 L-19,46 L-25,44 L-39,35 L-41,33 L-40,29 L-22,16 L-6,4 Z " fill="#CA7E4A" transform="translate(1478,1167)"/>
<path d="M0,0 L24,0 L39,5 L48,14 L47,18 L39,11 L26,7 L8,7 L-17,12 L-39,19 L-58,26 L-62,25 L-61,23 L-58,23 L-58,20 L-42,12 L-26,6 L-17,3 L-9,2 L-8,1 Z " fill="#070D12" transform="translate(1643,1353)"/>
<path d="M0,0 L3,0 L8,20 L8,26 L5,30 L2,37 L0,41 L-5,40 L-15,37 L-14,32 L-8,16 Z " fill="#C57B48" transform="translate(1790,1481)"/>
<path d="M0,0 L2,0 L7,11 L14,22 L14,45 L12,45 L5,34 L-3,21 L-9,9 L-8,5 Z " fill="#CA7F4B" transform="translate(1802,1684)"/>
<path d="M0,0 L4,1 L8,5 L15,8 L19,11 L17,28 L10,27 L4,21 L4,19 L2,19 L1,14 L1,11 Z " fill="#68B0EC" transform="translate(1211,1708)"/>
<path d="M0,0 L58,0 L80,2 L104,5 L105,7 L97,7 L91,6 L75,5 L71,4 L56,3 L-5,2 L-5,1 Z " fill="#D4854F" transform="translate(1626,1065)"/>
<path d="M0,0 L8,0 L14,1 L95,0 L95,1 L80,4 L33,4 L13,3 L0,1 Z " fill="#A6C6C8" transform="translate(1636,2507)"/>
<path d="M0,0 L6,0 L6,3 L4,3 L2,8 L-7,18 L-9,15 L-12,5 L-11,1 Z " fill="#E9E9E9" transform="translate(1685,1957)"/>
<path d="M0,0 L35,0 L51,1 L51,2 L22,3 L-4,3 L-4,4 L-31,4 L-31,3 L-16,1 Z " fill="#9AB9BB" transform="translate(908,2021)"/>
<path d="M0,0 L1,0 L0,66 L-1,66 L-2,56 L-2,13 L-1,2 Z " fill="#DA8851" transform="translate(1222,1150)"/>
<path d="M0,0 L44,0 L44,1 L8,2 L-1,3 L-1,4 L-16,5 L-32,5 L-32,4 L-20,2 Z " fill="#A2663C" transform="translate(1486,921)"/>
<path d="M0,0 L8,0 L8,1 L-22,5 L-63,5 L-75,4 L-75,3 L-26,3 L-22,2 Z " fill="#386689" transform="translate(1610,1437)"/>
<path d="M0,0 L2,0 L2,2 L-1,2 L0,6 L-3,6 L-3,8 L-12,10 L-14,15 L-16,15 L-16,6 L-11,1 L-8,1 L-7,4 Z " fill="#0E1E28" transform="translate(1583,1374)"/>
<path d="M0,0 L2,0 L2,35 L0,50 L-3,53 L-1,37 Z " fill="#D4F7F8" transform="translate(1962,2326)"/>
<path d="M0,0 L4,4 L13,19 L21,33 L20,35 L18,34 L17,36 L13,28 L11,23 L4,9 L0,3 Z " fill="#203D52" transform="translate(1658,1467)"/>
<path d="M0,0 L4,1 L-12,7 L-28,12 L-32,11 L-30,11 L-30,9 L-33,7 L-16,4 Z " fill="#291A0F" transform="translate(1381,1441)"/>
<path d="M0,0 L63,0 L63,1 L12,2 L12,3 L-17,3 L-17,2 Z " fill="#A96A3F" transform="translate(1478,827)"/>
<path d="M0,0 L39,0 L46,1 L44,3 L10,2 L-12,2 L-12,1 Z " fill="#D6864F" transform="translate(1494,922)"/>
<path d="M0,0 L2,1 L2,3 L-9,9 L-19,19 L-21,18 L-18,15 L-18,11 L-13,6 L-5,1 Z " fill="#D0824D" transform="translate(1498,1156)"/>
<path d="M0,0 L22,0 L36,1 L36,2 L30,3 L0,3 L-6,2 L-6,1 Z " fill="#A3C3C5" transform="translate(1030,2383)"/>
<path d="M0,0 L1,0 L1,8 L-1,15 L19,15 L27,16 L29,18 L38,20 L34,21 L16,19 L13,18 L-3,17 L-1,4 Z " fill="#8DA9AC" transform="translate(1840,1938)"/>
<path d="M0,0 L50,0 L50,1 L14,2 L14,3 L-19,3 L-19,2 Z " fill="#8D5935" transform="translate(1632,1080)"/>
<path d="M0,0 L1,0 L1,11 L-3,25 L-6,31 L-10,30 L-8,25 L-3,12 Z " fill="#343C41" transform="translate(1631,1204)"/>
<path d="M0,0 L2,1 L2,4 L-4,8 L-18,22 L-22,21 L-5,4 Z " fill="#E9C21C" transform="translate(1330,1673)"/>
<path d="M0,0 L2,1 L-2,5 L-1,7 L-18,17 L-26,21 L-29,20 L-10,8 Z " fill="#27180E" transform="translate(1293,1268)"/>
<path d="M0,0 L1,0 L2,17 L1,17 L1,57 L2,61 L1,73 L0,73 L-1,58 L-1,10 Z " fill="#B16F42" transform="translate(1171,1089)"/>
<path d="M0,0 L20,0 L45,4 L48,6 L31,4 L18,3 L2,3 L-1,4 Z " fill="#878787" transform="translate(1833,1965)"/>
<path d="M0,0 L1,4 L0,6 L3,5 L0,14 L-2,21 L-4,33 L-5,33 L-5,17 Z " fill="#364244" transform="translate(887,2158)"/>
<path d="M0,0 L2,2 L-6,15 L-15,26 L-22,34 L-24,32 L-14,21 L-6,10 Z " fill="#CAE9EA" transform="translate(2218,2311)"/>
<path d="M0,0 L38,3 L38,4 L33,5 L19,5 L-1,2 Z " fill="#D0F7F8" transform="translate(1631,2504)"/>
<path d="M0,0 L1,0 L2,31 L0,34 L0,43 L-2,47 L-5,51 L-4,44 L-3,42 L-1,25 Z " fill="#A3C0C3" transform="translate(1975,2339)"/>
<path d="M0,0 L40,1 L37,3 L6,3 L0,1 Z " fill="#DC8A52" transform="translate(1307,1446)"/>
<path d="M0,0 L3,1 L-8,9 L-20,17 L-22,17 L-23,13 L-4,3 Z " fill="#414141" transform="translate(1691,1836)"/>
<path d="M0,0 L4,1 L-9,14 L-17,21 L-19,20 L-10,10 Z " fill="#95010B" transform="translate(1093,667)"/>
<path d="M0,0 L1,3 L0,4 L-19,4 L-35,2 L-35,1 L-14,1 Z " fill="#989898" transform="translate(1665,1975)"/>
<path d="M0,0 L4,1 L12,10 L9,11 L4,6 L1,5 L3,12 L4,12 L4,20 L1,19 L0,15 Z " fill="#5698CA" transform="translate(1210,1703)"/>
<path d="M0,0 L8,1 L13,2 L37,3 L34,5 L12,5 L0,2 Z " fill="#DA8851" transform="translate(1369,1425)"/>
<path d="M0,0 L3,3 L3,8 L-2,19 L-3,22 L-5,22 L-4,13 L-1,1 Z " fill="#757575" transform="translate(1854,1752)"/>
<path d="M0,0 L2,3 L4,9 L6,21 L6,44 L5,44 L4,24 L2,21 L0,7 Z " fill="#A0643B" transform="translate(1450,1313)"/>
<path d="M0,0 L19,2 L24,3 L24,5 L33,6 L34,8 L25,7 L10,4 L0,1 Z " fill="#9EBABC" transform="translate(1586,2497)"/>
<path d="M0,0 L13,0 L13,2 L18,3 L17,5 L13,4 L2,4 L-9,6 L-5,4 L-5,2 Z " fill="#5DA0D7" transform="translate(1491,1446)"/>
<path d="M0,0 L1,0 L1,62 L-1,62 L-2,56 L-1,56 Z " fill="#2B0004" transform="translate(1465,562)"/>
<path d="M0,0 L1,0 L1,9 L-2,15 L-3,20 L-3,42 L-5,39 L-5,17 L-1,1 Z " fill="#849DA0" transform="translate(742,2107)"/>
<path d="M0,0 L2,0 L6,5 L5,12 L3,18 L1,16 L0,12 Z " fill="#5BA3D9" transform="translate(1200,1683)"/>
<path d="M0,0 L1,0 L3,11 L4,22 L4,34 L2,31 L-1,18 L0,8 Z " fill="#4C301C" transform="translate(1521,1359)"/>
<path d="M0,0 L18,2 L28,4 L28,5 L19,5 L16,4 L6,4 L8,8 L6,10 L0,2 Z " fill="#9DB8BA" transform="translate(1817,2223)"/>
<path d="M0,0 L2,2 L4,17 L4,33 L1,31 L1,17 L0,17 Z " fill="#21ABB2" transform="translate(1775,1592)"/>
</svg>
