<?xml version="1.0" encoding="UTF-8" standalone="no"?>
<!-- Created with Inkscape (http://www.inkscape.org/) -->

<svg
   xmlns:dc="http://purl.org/dc/elements/1.1/"
   xmlns:cc="http://creativecommons.org/ns#"
   xmlns:rdf="http://www.w3.org/1999/02/22-rdf-syntax-ns#"
   xmlns:svg="http://www.w3.org/2000/svg"
   xmlns="http://www.w3.org/2000/svg"
   xmlns:sodipodi="http://sodipodi.sourceforge.net/DTD/sodipodi-0.dtd"
   xmlns:inkscape="http://www.inkscape.org/namespaces/inkscape"
   width="193.51065mm"
   height="207.39885mm"
   viewBox="0 0 193.51064 207.39885"
   version="1.1"
   id="svg8"
   inkscape:version="0.92.1 r"
   sodipodi:docname="digit-17.svg">
  <defs
     id="defs2" />
  <sodipodi:namedview
     id="base"
     pagecolor="#ffffff"
     bordercolor="#666666"
     borderopacity="1.0"
     inkscape:pageopacity="0.0"
     inkscape:pageshadow="2"
     inkscape:zoom="2"
     inkscape:cx="336.825"
     inkscape:cy="508.42153"
     inkscape:document-units="mm"
     inkscape:current-layer="layer1"
     showgrid="false"
     inkscape:window-width="1920"
     inkscape:window-height="1062"
     inkscape:window-x="0"
     inkscape:window-y="18"
     inkscape:window-maximized="0"
     fit-margin-top="10"
     fit-margin-left="10"
     fit-margin-bottom="10"
     fit-margin-right="10"
     inkscape:snap-intersection-paths="true" />
  <metadata
     id="metadata5">
    <rdf:RDF>
      <cc:Work
         rdf:about="">
        <dc:format>image/svg+xml</dc:format>
        <dc:type
           rdf:resource="http://purl.org/dc/dcmitype/StillImage" />
        <dc:title />
      </cc:Work>
    </rdf:RDF>
  </metadata>
  <g
     inkscape:groupmode="layer"
     id="layer1"
     inkscape:label="Merged"
     transform="translate(2.0196957,-0.61597839)">
    <path
       style="display:inline;fill:#ffffff;fill-opacity:1;stroke:none;stroke-width:0.25902358"
       d="m 109.37522,94.768641 -7.52667,4.66252 c -4.255806,-3.76908 -9.839026,2.725869 -14.915876,5.305389 l -10.68721,-4.43914 -1.46137,-1.524948 C 59.334184,89.217 24.766959,95.287182 25.185055,112.39745 c -27.1559308,8.86085 -11.252631,27.13668 -5.766811,26.4866 23.453995,15.80608 113.842466,12.24974 134.221186,12.1427 4.62667,0.26469 4.62196,-2.08196 2.43358,-3.54196 13.60752,-1.44592 23.6244,-8.0067 24.49591,-9.38336 -2.93282,-1.439 -4.90434,1.77678 -9.64112,-1.36927 1.43334,-1.3453 3.67503,-7.76619 3.96119,-9.00159 3.20295,-13.82764 -10.89146,-17.71424 -23.90105,-18.88254 0.78895,-15.468139 -22.756,-22.319569 -38.05734,-13.228978 l -2.43865,0.558689 z"
       id="path7063-3"
       inkscape:connector-curvature="0"
       sodipodi:nodetypes="cccccccccccscccc"
       inkscape:export-xdpi="96"
       inkscape:export-ydpi="96" />
    <path
       style="fill:#0094ff;fill-opacity:1;stroke:none;stroke-width:0.25902358px;stroke-linecap:butt;stroke-linejoin:miter;stroke-opacity:1"
       d="m 74.866224,42.981732 c -7.52561,5.29e-4 -6.32917,8.200819 -11.05152,10.836609 -4.04249,3.135471 -5.10974,6.147591 -3.06855,9.03084 -8.302429,2.637471 -10.804314,10.395107 5.4653,11.593391 -0.34098,1.64071 5.75526,5.13194 15.38511,5.445548 l -0.75551,0.10006 c -0.90912,1.235692 -1.33751,2.563532 -1.81746,3.881483 7.57175,-3.039192 7.62993,2.543998 6.4627,6.518219 3.55241,-1.203881 8.15944,1.508649 10.76984,-0.24607 0.16288,2.39419 -2.52388,3.39935 -3.94343,5.1568 l -7.7742,-0.0475 c -3.56154,-0.22891 -4.42757,-0.177401 -4.74338,1.735928 l -1.25264,-0.668118 c -0.70964,-0.877152 -0.98512,-1.962369 -1.35909,-3.00038 -0.19812,-0.44378 -0.76177,-0.83167 -2.01124,-0.711711 -3.0592,2.867732 -0.85641,4.059611 0.0305,4.910162 -0.62281,1.682498 0.29224,2.167437 1.04283,2.780467 l 8.44341,3.39858 c 2.48253,-0.34471 6.8081,-1.25207 9.61698,-4.081558 3.29722,-0.696132 6.129056,-0.65591 7.542686,-0.183261 2.24946,-0.860089 4.70757,-2.263568 7.52668,-4.662508 0.16081,-6.046981 -2.6641,-16.861653 -9.27592,-17.327192 l -3.610116,0.477451 c 3.32952,-0.971981 6.823686,-2.346471 10.425196,-4.227671 3.27031,-0.887101 14.1323,-2.01693 15.78457,-12.980649 C 122.20462,55.76275 117.56905,54.68175 107.25289,58.90586 89.247494,46.819921 80.015334,42.98146 74.866234,42.981761 Z m -7.19284,34.17247 c -0.27675,0.008 -0.57335,0.081 -0.88264,0.19514 -4.38537,1.76575 -1.60946,3.74718 -2.2133,5.62682 l -4.34185,-4.267782 c -6.878375,-3.072159 -6.335448,3.761512 -3.466457,4.205872 1.434297,1.15211 3.474337,2.300388 5.221387,3.45058 l -4.77594,-1.21194 c -5.546732,-1.49288 -7.471407,4.2028 -1.593699,4.29106 l 5.415179,0.295669 11.39672,-5.786279 c 2.22606,-3.005949 0.75852,-3.871409 -2.41588,-3.747751 -0.0931,-1.709618 -0.35042,-3.13922 -0.88108,-1.92315 -0.34079,-0.85294 -0.8536,-0.979149 -1.46244,-1.128239 z m 45.160026,18.998239 c -0.69792,-0.01109 -1.40725,0.281681 -2.05259,0.679522 0.64009,2.693969 0.61293,5.476207 -0.0387,8.340927 3.15624,1.72205 4.81149,-1.29199 5.43687,-4.25194 -0.72229,-3.618839 -2.01313,-4.747358 -3.34553,-4.768509 z"
       id="path4577-6"
       inkscape:connector-curvature="0"
       inkscape:export-xdpi="96"
       inkscape:export-ydpi="96"
       sodipodi:nodetypes="ccccccccccccccccccccccccccccccccccccccccccccccc" />
    <path
       style="fill:#00e5fa;fill-opacity:1;stroke:none;stroke-width:0.25902358px;stroke-linecap:butt;stroke-linejoin:miter;stroke-opacity:1"
       d="m 64.486494,80.01639 -0.93534,0.864762 0.77721,1.671539 -1.60248,-1.43728 -3.20032,3.511989 1.52393,1.151022 0.94103,0.58641 -3.56774,-1.000961 -1.7539,4.338621 4.17804,0.286258 c 2.95472,0.961091 5.37653,3.848283 8.87233,2.853783 1.2688,0.680868 2.2102,1.801048 3.80648,2.042498 l 1.31672,-2.575419 1.75855,0.427918 1.17357,-1.440259 -3.61785,-2.713419 c -1.0383,-1.407001 -0.5705,-2.860352 0.39737,-4.50769 l -4.37027,0.29419 -2.1332,-2.480331 c -1.50986,-0.213259 -2.61888,-0.938869 -3.56413,-1.873631 z m 33.12925,12.656751 -5.30304,2.62545 -3.80545,-0.729538 -2.56574,0.442777 -0.61805,4.411901 -2.07274,-0.0396 -0.55914,3.603619 2.74247,0.35462 c 3.46413,-0.2713 6.19526,-1.94699 8.87181,-3.727927 l 7.582996,-0.540351 1.88877,-0.69388 c 0.0659,-2.047492 0.98389,-4.15326 -6.161886,-5.70705 z"
       id="path7034-7"
       inkscape:connector-curvature="0"
       inkscape:export-xdpi="96"
       inkscape:export-ydpi="96"
       sodipodi:nodetypes="cccccccccccccccccccccccccccccccc" />
    <path
       style="fill:#ffff00;fill-opacity:1;stroke:none;stroke-width:0.25902358"
       d="m 96.256134,90.14179 c -0.2529,0.777682 -0.0182,1.52087 -0.9896,2.377321 -1.00593,0.93118 -2.23707,1.911821 -2.95383,2.779491 l -3.23598,-1.355072 c -7.92546,2.180453 -5.79547,0.85512 -7.81899,0.977892 -0.89478,0.50917 -1.05774,1.25212 -1.46364,1.91747 -4.30899,-2.08928 -2.05427,-6.085872 0.32711,-5.767962 -4.94975,-2.432698 -2.13694,-8.919069 2.30583,-8.34889 5.20007,0.85094 6.92238,4.120171 2.99462,7.82737 2.07097,-0.451609 4.06198,-1.098828 6.76072,-0.01468 1.3174,-0.118682 1.51542,0.710808 4.07376,-0.392962 z"
       id="path7068-5"
       inkscape:connector-curvature="0"
       sodipodi:nodetypes="cccccccccccc"
       inkscape:export-xdpi="96"
       inkscape:export-ydpi="96" />
    <path
       style="fill:#ff6600;fill-opacity:1;stroke:none;stroke-width:0.25902358"
       d="m 77.502754,87.176571 0.84181,3.138069 c -2.07814,0.384641 -3.22945,0.01101 -3.94928,-0.240149 -1.02064,-0.35619 -1.12899,-0.862359 -1.6018,-1.133239 1.94201,-0.01709 3.80722,-0.905111 4.70927,-1.764681 z"
       id="path7071-3"
       inkscape:connector-curvature="0"
       sodipodi:nodetypes="ccscc"
       inkscape:export-xdpi="96"
       inkscape:export-ydpi="96" />
    <path
       style="display:inline;fill:#ffffff;fill-opacity:1;stroke-width:0.25902358"
       d="m 54.49512,21.085531 c -3.862572,3.30915 -5.045712,7.90364 -1.133104,9.58227 5.480168,2.79796 6.052428,2.65381 9.753768,3.52727 3.0356,1.28391 3.14053,6.6789 -0.71888,9.024371 -1.62885,0.989899 -5.486006,3.68033 -7.099059,3.96118 -3.692044,2.710228 -4.385125,4.35904 -5.259348,6.793889 -2.073571,5.77524 2.886446,9.31165 7.039987,9.709409 1.1768,0.112702 3.7104,0.348991 3.31091,-0.694899 -0.68109,-1.779709 -1.23257,-5.250611 2.51667,-8.802891 3.97818,-3.62562 7.40843,-4.89957 10.69336,-1.842259 0.82984,0.772329 2.69408,0.60774 3.48596,-0.209479 2.04598,-2.111441 4.92923,-4.224152 10.52245,0.45783 0.85958,0.719529 2.06149,0.45779 2.74909,0.782198 5.07069,2.54341 11.142746,5.958642 16.895936,5.531432 7.36062,-3.716621 18.30356,-3.3084 15.04147,5.41133 3.41828,-2.818781 6.35741,-8.432731 5.68486,-15.092971 -1.4419,-14.27927 -22.77817,-36.387335 -47.241836,-38.192445 -8.23147,-0.607379 -17.46675,3.502697 -26.242234,10.053765 z"
       id="path4603-3-5"
       inkscape:connector-curvature="0"
       sodipodi:nodetypes="cccscssscssscccssc"
       inkscape:export-xdpi="96"
       inkscape:export-ydpi="96" />
    <path
       style="display:inline;fill:#ffffff;fill-opacity:1;stroke:none;stroke-width:0.25902358px;stroke-linecap:butt;stroke-linejoin:miter;stroke-opacity:1"
       d="m 73.300424,57.615611 c 1.80673,-1.950619 3.7889,-3.73308 7.69824,-3.668519 1.70976,1.048388 3.48982,1.13792 4.15117,4.81806 1.81521,6.34759 -3.52537,8.28988 -3.52537,8.28988 -7.81514,1.537269 -10.16633,-2.453111 -15.11174,-3.81903 -6.15006,-4.846802 4.5232,-13.874441 6.7877,-5.620391 z"
       id="path6152-6"
       inkscape:connector-curvature="0"
       sodipodi:nodetypes="cccccc"
       inkscape:export-xdpi="96"
       inkscape:export-ydpi="96" />
    <path
       style="display:inline;fill:#000000;fill-opacity:1;stroke:none;stroke-width:0.31028095"
       d="m 81.958814,59.164342 c -1.40724,0.0647 -2.72064,1.045919 -3.30729,2.470928 -0.78571,1.907992 -0.0315,3.981011 1.68465,4.630322 1.7164,0.649269 3.74484,-0.371451 4.53047,-2.27975 0.78568,-1.90816 0.0312,-3.981252 -1.68517,-4.630331 -0.38517,-0.1457 -0.79976,-0.210531 -1.22266,-0.191169 z m -10.49083,0.619588 c -1.87079,-0.0618 -2.47965,1.116402 -2.72542,2.284701 -0.28788,1.368491 0.53818,2.5049 2.50527,3.43176 0,0 2.1365,0.343111 1.84175,-1.620539 l -0.74,-3.98993 c -0.3214,-0.0631 -0.61435,-0.0972 -0.8816,-0.105992 z m 21.3527,11.079792 -9.85521,3.662548 c 0.85914,3.244062 5.17438,3.873431 8.73951,2.485792 5.16458,-2.053532 4.11025,-5.34748 1.1157,-6.14834 z m -25.88938,6.414299 c -1.86794,0.0623 -3.24478,1.612001 -3.39669,2.242111 -0.15463,0.45361 -0.0387,0.90741 0.0165,1.36102 0.50944,-0.229561 1.14119,-0.22496 0.96894,-1.761199 0.43665,-0.987902 1.42335,-1.635752 3.23959,-1.770611 -0.28475,-0.0588 -0.56152,-0.0802 -0.82837,-0.0713 z m -6.0234,2.35453 c -0.32205,1.484569 -2.41979,3.712469 -3.17138,4.48868 l 1.95492,0.902391 c 0.81262,-0.606902 2.92249,-2.1467 3.03441,-3.90823 z m 4.64778,1.552699 c -0.004,0.37483 -0.63487,1.259772 -1.22732,1.367441 l 0.24908,0.423471 -0.58342,-0.567589 c -0.20152,1.858809 -1.53955,2.573829 -2.94453,3.369849 l 0.94103,0.58641 -1.49138,-0.445752 c 0.1428,2.136992 -0.99725,3.446412 -1.58492,4.361392 l 1.9327,-0.291722 c 4.00675,-2.961198 5.88022,-5.752018 7.80521,-8.54696 l -0.89039,0.537872 z m 9.16378,2.32482 c -0.75583,0.0011 -3.07451,0.720632 -4.53564,0.860282 -1.49488,2.59624 -3.98908,5.101828 -6.63836,7.290448 l 2.882,1.222341 c 2.91773,-2.29222 5.46045,-5.249029 8.12663,-8.806979 0.5297,-0.418362 0.50893,-0.566571 0.16537,-0.566092 z m -17.50488,1.642822 c 0.17412,1.717249 -0.765286,2.981439 -1.593699,4.29106 l 1.821599,0.324408 c 0.80222,-1.230849 1.48525,-2.628098 1.53169,-4.100388 z m 21.9227,1.491268 c -0.25445,3.2e-5 -0.46076,0.211953 -0.46096,0.473491 -6e-5,0.26172 0.20632,0.47394 0.46096,0.473972 0.25463,-3.2e-5 0.46102,-0.212252 0.46095,-0.473972 -2e-4,-0.261538 -0.20651,-0.473459 -0.46095,-0.473491 z m -5.76451,2.842882 -3.65352,3.355491 2.49907,1.373878 3.58789,-3.755671 c -0.89344,-0.0822 -1.66587,-0.469267 -2.43344,-0.973698 z m 4.4018,1.810229 -1.17357,1.440259 0.60048,0.691401 1.34979,-1.93553 z m 22.504046,0.280821 -2.662876,1.095049 c 3.871826,1.24904 6.068886,3.04495 6.161886,5.70705 l 2.57401,-1.35358 c -1.1208,-2.159039 -1.95974,-4.653528 -6.07302,-5.448519 z m -5.195546,2.318379 c -1.43557,0.347502 -1.50388,0.757521 -2.77037,1.40212 3.87184,1.24904 3.11239,1.251889 4.80901,3.28961 l 4.767146,0.48587 c -1.27175,-2.031691 -3.444306,-4.081949 -6.805786,-5.1776 z m -2.77037,1.40212 c -0.56151,-1.033611 -3.38491,-1.280049 -4.6514,-0.635429 4.29013,1.285479 3.27491,4.55802 3.26751,6.508398 l 3.41477,-0.94003 c -0.10244,-1.743509 -0.41743,-4.240479 -2.03088,-4.932939 z m -6.37119,-0.287261 c -1.41639,0.375132 -1.40746,0.277942 -2.80448,0.194652 2.24206,1.72557 1.08366,4.18557 1.08366,4.18557 l 2.44843,0.007 c 0.58243,-1.51937 0.24515,-3.787288 -0.72761,-4.386649 z m -5.4746,2.905281 c 0.94844,1.865911 0.35304,2.861239 -0.62322,4.267299 l 2.84789,0.80382 c 0.36528,-1.08711 0.8001,-2.42498 0.55914,-3.603618 -1.16287,0.214019 -2.26299,-0.71357 -2.78381,-1.467501 z m 7.52202,1.321891 c -1.16286,0.32722 -1.0816,0.373131 -2.66547,0.185229 0.94844,1.865909 0.35304,2.861739 -0.62322,4.267779 l 3.79254,-0.5552 c 0.36527,-1.0871 -0.26289,-2.71917 -0.50385,-3.897808 z"
       id="path6147-2"
       inkscape:connector-curvature="0"
       sodipodi:nodetypes="cccccccccccccccccccccsccccccccccccccccccccccccccccccccccccccccccccccccccccccccccccccccccccccccccc"
       inkscape:export-xdpi="96"
       inkscape:export-ydpi="96" />
    <path
       style="display:inline;stroke-width:0.25902358"
       d="m 79.782664,10.645909 c -20.92709,1.078559 -39.91052,15.478102 -25.954434,21.789442 2.022345,0.9669 4.816614,1.96847 7.011454,2.41992 0.97737,0.25135 1.82872,0.45513 2.61018,0.62057 0.023,0.058 0.0431,0.11622 0.0527,0.17435 1.18443,1.03425 2.27458,3.425479 1.18642,5.098331 -0.89008,1.37119 -1.28004,1.304369 -2.40585,2.681549 -3.09309,1.14149 -7.192067,2.98087 -9.947845,4.744609 -1.780259,1.145511 -4.093784,4.238522 -4.352189,6.277121 -0.381024,5.468969 -0.301332,4.689911 3.528983,8.050691 0.907471,0.740079 3.110735,1.109379 4.951635,1.317429 -6.155447,2.85723 -1.66974,10.842417 6.705016,10.765881 0.971757,-0.0089 1.9474,-0.03164 2.91662,-0.128861 0.36813,1.112049 1.10511,2.027899 2.12183,2.776501 -1.59954,-0.406792 -3.23487,0.2028 -3.90053,0.591359 -1.37554,1.03785 -1.5867,2.905451 -0.71107,3.903761 -0.28342,-0.314262 -1.51562,-1.422832 -1.56476,-1.46453 -0.6173,-0.49127 -1.17232,-1.072369 -1.79524,-1.555652 -0.83583,-0.881679 -3.298799,-1.478508 -4.814179,-0.96134 -1.718956,1.156782 -1.5455,3.737552 -0.249081,4.609531 1.06736,0.840341 1.166344,1.15189 2.16886,1.799331 0.85351,0.448649 2.78107,1.3857 3.97805,1.97466 -1.60637,-0.53824 -4.02473,-1.364271 -5.108215,-1.72207 -1.968928,-0.352211 -2.377387,-0.044 -3.834389,0.9544 -1.000313,1.623488 -0.570473,2.209659 0.297656,3.36836 1.344851,0.888949 4.722328,1.822011 8.100798,1.80776 1.56905,0.897311 2.00956,1.34746 3.44113,1.898949 3.44443,1.326909 3.28213,1.481939 5.3728,1.02189 0.21179,0.37329 0.99084,0.579001 1.67403,1.187212 1.00407,0.482978 1.75383,0.907089 2.00046,0.965379 -0.0857,0.545338 0.007,1.167509 0.27344,1.45591 0.32396,0.251838 0.89006,0.712369 1.30696,0.853839 -0.1765,0.415031 -0.0701,0.607942 -0.0598,0.850271 -0.55673,-1.3272 -6.40255,-3.083171 -6.85798,-3.17718 -10.71652,-1.88417 -18.190525,-2.083761 -28.474233,0.912788 -13.101787,3.102462 -14.490894,12.73986 -14.266832,15.88938 1.133136,-1.72258 1.495761,-3.7617 2.009696,-5.70406 3.971663,-6.916438 8.826361,-7.524709 15.523335,-9.429059 10.138119,-2.461011 18.855314,-2.346848 28.012514,-0.209481 1.36177,0.472271 2.82465,1.170692 4.07003,1.871142 0.0997,0.574169 0.46182,0.99092 0.75965,1.303078 -3.70717,-0.21538 -5.20388,2.50952 -4.14084,4.77197 0.04,0.0663 0.0885,0.12784 0.13643,0.18969 -1.53243,-1.07326 -3.14665,-2.03562 -4.94027,-2.65368 -1.95928,-0.68905 -4.06264,-0.95134 -6.14329,-0.88803 -1.79387,-0.007 -3.548573,0.46188 -5.196583,1.1109 -2.740843,0.9882 -5.433256,2.20787 -7.711675,3.99687 -1.906993,1.47141 -3.578575,3.26933 -4.665864,5.38462 -0.104547,0.29692 0.416052,0.49415 0.564306,0.22236 1.732981,-1.71901 3.283709,-3.6595 5.394502,-4.98096 1.353519,-0.83531 2.754482,-1.5988 4.159954,-2.35057 1.726957,-0.90276 3.485118,-1.75909 5.3051,-2.47588 1.79389,-0.58188 3.73623,-0.38727 5.55315,-0.0134 2.22099,0.45019 4.28905,1.43406 6.14174,2.67448 0.91647,0.59967 1.8097,1.23286 2.7342,1.82112 -1.57681,0.16812 -3.15688,0.32266 -4.7165,0.60671 -0.52257,0.19958 -0.98315,0.53902 -1.32602,0.96579 -0.30057,0.87292 -0.28912,1.81484 -0.14779,2.7146 0.10532,0.48951 0.31697,0.94406 0.59479,1.36101 -0.51104,-0.20191 -1.03422,-0.37504 -1.56579,-0.51509 -1.87,-0.52849 -3.81781,-0.78015 -5.76555,-0.80135 -0.57603,-0.0171 -1.15207,-0.0137 -1.72496,0.052 -0.14252,0.0118 -0.28535,0.0239 -0.42788,0.0357 -2.806807,0.25222 -5.625249,0.68199 -8.266677,1.65916 -1.210881,0.43574 -2.417707,1.03155 -3.234428,2.02271 -0.965761,1.12132 -1.476057,2.54031 -1.683618,3.96616 -0.324435,1.81341 -0.646536,3.63047 -0.795814,5.46634 -0.0075,0.24698 0.307208,0.53556 0.531234,0.30857 0.400769,-0.33136 0.451778,-0.8712 0.585493,-1.33131 0.462415,-1.90375 0.366972,-3.92095 1.127064,-5.75856 0.784781,-1.77262 2.485062,-3.09059 4.395082,-3.62739 3.048873,-0.9125 6.20531,-1.60834 9.413894,-1.62995 1.98767,-0.0358 4.00264,0.032 5.93297,0.52647 1.74726,0.47396 3.37345,1.37267 4.64261,2.6215 0.35977,0.32748 0.71241,0.66198 1.0666,0.995 -2.55911,2.30585 -3.76625,4.43403 -3.10007,4.34257 5.12763,-4.77383 10.52091,-8.69939 18.37408,-9.09621 3.11654,-0.0463 5.93945,0.0807 8.90953,0.91724 2.13035,0.7018 4.10813,1.82013 5.781036,3.26585 1.82069,1.41167 3.61536,2.86168 5.24671,4.47529 0.0697,0.22479 0.50834,0.38787 0.59789,0.0976 -0.003,-0.30371 -0.32391,-0.467 -0.4718,-0.70479 -1.44972,-1.58992 -3.02376,-3.53319 -4.64985,-5.07062 4.51039,-3.94923 12.05023,-6.3274 19.00298,-6.0889 7.81256,0.26799 14.92929,3.57248 17.14469,6.1523 2.13479,4.11648 -0.0172,6.85113 -1.68931,9.03925 -0.80216,1.12225 -1.86306,1.61247 -3.71708,3.81956 1.46813,-0.31179 2.0965,-0.81002 3.43286,-2.40901 1.15941,-1.39106 2.33559,-2.77945 3.31246,-4.29701 0.4595,-0.77255 0.40357,-1.95269 0.48628,-2.84089 -0.6402,-4.18083 -2.28648,-4.89108 -3.51555,-6.12061 -7.38869,-4.14256 -17.78602,-4.96024 -26.03975,-2.62742 0.0728,-0.52046 0.0445,-1.01654 -0.94775,-3.03653 0.37445,-0.20945 0.8682,-0.9139 1.06195,-1.14657 0.50683,0.58172 1.87982,0.48921 2.87941,0.21941 1.55537,-0.56113 2.74812,-1.62715 3.83026,-2.79335 2.00799,-2.32827 4.05038,-3.568241 7.01352,-3.949809 4.07867,-0.66548 5.81447,-0.562751 9.55033,0.535389 1.38469,0.437931 2.73402,0.9911 3.9951,1.69434 0.44805,0.28675 1.04036,0.20397 1.4366,0.55074 -0.13101,-0.33756 -0.44187,-0.59869 -0.68988,-0.84642 -2.87288,-1.729439 -6.81361,-2.89735 -9.68467,-3.03356 -5.83878,-0.383429 -10.00805,1.921809 -12.7522,5.18998 0.88157,-3.309589 0.3183,-6.503779 -3.25303,-7.29541 10.98096,-5.71278 24.50095,-3.68056 32.4023,2.08076 3.85294,3.04795 5.71818,9.9451 4.78537,11.16488 -0.39437,0.019 -1.7786,0.23337 -2.12545,0.28934 -2.70576,0.91183 -4.76663,2.43765 -5.12925,2.94715 8.61424,-3.80987 15.09155,-1.47808 22.7694,1.15353 5.66526,3.50908 7.18167,3.53285 8.94175,12.23825 0.18663,7.2741 -5.6633,11.51264 -14.68734,12.77761 3.36577,0.75606 6.12653,-0.0544 8.28534,-0.545 0,0 -0.15428,-0.10215 0,0 -2.80214,1.12653 9.0111,0.94911 12.3962,0.37586 -6.73257,4.39665 -19.32118,10.15199 -26.52875,8.76221 -2.4386,0.41078 6.74827,4.97135 -0.45207,4.40723 -32.33205,0.58557 -56.997546,0.8628 -82.989746,-0.58056 -25.992213,-1.44335 -48.48868,-7.84875 -56.546156,-15.73106 -5.8190378,-5.69254 -5.5062008,-10.06281 -1.029415,-14.59872 4.723025,-3.84535 8.759483,-7.10999 23.221514,-8.76371 -16.840598,-0.63341 -38.8157778,11.52041 -22.565316,24.97801 13.086558,10.83746 32.643792,13.36665 52.677593,15.19439 30.65723,2.79692 64.087486,0.73964 88.066396,0.79759 4.28046,-0.53029 6.01406,-1.74051 3.01672,-4.87618 10.18689,-0.33652 23.75444,-6.85948 24.05127,-10.13828 -2.56537,0.001 -4.16338,0.0765 -6.03956,-0.12998 -1.39163,-0.12389 -4.11161,-0.37018 -4.5236,-0.69021 8.57548,-8.29492 5.80224,-18.33902 1.55504,-20.98738 -5.03042,-4.37803 -14.40993,-6.79242 -21.4949,-6.89675 2.64889,-2.62131 -2.17774,-10.846127 -6.04553,-12.996327 -8.21121,-4.564822 -12.18145,-4.757632 -20.77884,-4.582081 -4.23706,0.269229 -10.54546,2.733058 -13.67162,4.908269 -0.33826,-0.558339 -0.37798,-1.081741 -0.76509,-1.42663 0.23691,-0.60484 0.24975,-1.08566 0.27746,-1.72456 0.13987,-3.291199 -1.57026,-7.616589 -2.95763,-10.782368 -0.42332,-0.931522 -0.8565,-1.861061 -1.36581,-2.752741 -0.75347,-1.18535 -1.92774,-2.106351 -3.25665,-2.64427 -0.0861,-0.0173 -0.18952,-0.0282 -0.29611,-0.0371 2.69999,-0.91671 4.52911,-2.18849 4.78627,-3.118749 1.40733,0.01849 2.95658,-0.290952 4.08709,-0.371452 4.93647,-1.020019 9.57987,-5.033139 11.19979,-8.41126 11.63033,-8.27292 7.04515,-24.789929 -3.60215,-34.87922 C 107.95182,19.940254 93.255194,9.9991979 79.782664,10.645909 Z m 0.10915,1.027083 c 11.3951,-2.6679062 63.468186,26.420759 42.737546,52.19914 0.61255,-1.81156 1.05936,-3.42944 0.34659,-5.200092 -2.49894,-3.652499 -9.30992,-3.401608 -13.55322,-1.537848 -0.91849,0.39943 -1.53465,1.042238 -2.16989,1.77161 -2.67681,-0.0691 -2.9188,-0.156422 -8.716256,-2.204972 -1.89927,-0.669578 -3.80688,-1.68334 -5.72575,-2.303528 -2.17128,-0.801981 -3.30674,-1.458122 -5.26428,-2.213372 -0.0224,-0.0319 -0.0467,-0.0681 -0.0677,-0.0976 -0.36772,-0.481099 -0.78972,-0.926488 -1.27692,-1.299098 -0.36346,-0.287452 -0.77111,-0.525161 -1.21389,-0.682001 -0.61106,-0.241231 -1.25053,-0.41198 -1.89549,-0.54678 -0.61715,-0.118041 -1.24683,-0.17803 -1.87637,-0.157991 -0.75411,0.0819 -1.50571,0.23835 -2.2009,0.536382 -0.3875,0.16287 -0.60524,0.481878 -0.93638,0.734989 -1.05334,1.071131 -0.92491,0.9824 -1.75958,1.56011 -0.78858,0.49112 -1.68606,0.34271 -2.31923,0.157991 -1.09333,-1.171882 -0.82425,-1.000461 -2.13321,-1.675022 -0.85669,-0.222078 -1.73422,-0.182848 -2.61896,-0.199088 -1.04643,0.127458 -2.03582,0.33328 -2.82877,0.74935 -0.65724,0.372399 -1.41278,0.870429 -1.95698,1.473938 -0.38257,-0.110598 -0.84223,-0.171069 -1.08573,-0.157998 -1.53204,0.0542 -3.10037,0.0498 -4.57026,0.52301 -1.11175,0.345778 -2.157301,1.041738 -2.687693,2.063308 -0.409053,0.77988 -0.382815,1.694122 -0.20412,2.529372 0.1706,0.850429 0.534141,1.716558 1.253673,2.2753 0.62945,0.499459 1.16175,0.633809 2.38176,0.432869 0.12267,1.16986 0.46822,1.636659 0.82528,2.47488 -1.16332,0.101201 -2.16215,0.302911 -3.00705,0.583941 -0.927079,-0.27754 -2.011175,-0.542401 -2.38384,-0.80037 -1.389677,-0.986721 -3.14728,-1.345282 -3.97495,-2.799791 -3.292064,-6.126981 1.445102,-10.51115 7.00732,-13.21838 2.08004,-1.218121 4.38037,-2.054971 6.73448,-2.63883 2.917,-0.752909 5.47247,-1.3272 8.61704,-1.656691 2.55108,-0.29836 5.65066,-0.445069 8.02949,-0.40563 2.69736,0.005 4.96579,0.428191 7.62537,0.883071 2.90212,0.54107 9.61098,2.29226 12.003406,3.06179 -8.332686,-5.960581 -29.125696,-6.48026 -36.856176,-2.853701 1.33737,-1.31263 2.32413,-1.873078 2.66875,-2.963828 0.529,-2.040702 -0.009,-3.040231 -0.52728,-4.260871 2.41048,0.33696 3.82145,0.32564 8.03622,0.19564 3.95291,-0.71276 13.51882,-1.78321 16.09515,-4.45055 -5.42101,1.31383 -11.57995,2.60147 -17.33331,3.1237 -4.90125,0.18762 -9.85041,-0.45034 -14.48594,-2.00437 -20.658399,-6.73378 6.44523,-19.166283 16.86349,-20.58967 1.19401,-0.163131 3.65532,-0.236901 4.40456,-0.412319 z m 1.62362,38.167799 c 1.54919,0.009 3.05999,0.5565 4.14548,1.317929 1.50486,1.236591 2.03397,2.19252 2.68252,3.500101 0.20458,-0.578969 -0.0795,-1.29074 -0.41548,-1.876089 1.29025,1.086678 2.97457,2.34551 4.33772,2.641788 2.38095,0.694852 4.57952,1.943592 6.95152,2.6621 4.642206,0.894511 4.142586,1.49257 7.802616,1.090102 -0.65262,0.875459 -2.3857,3.41862 -2.6541,4.558998 1.36443,-1.0995 2.26795,-2.761789 3.34605,-3.867099 0.31383,-0.316651 0.62286,-0.619909 0.94671,-0.89892 0.0563,-0.008 0.10248,-0.01331 0.1602,-0.0213 -0.0503,-0.0011 -0.0818,-0.0021 -0.13074,-0.003 0.47369,-0.404681 0.98045,-0.75592 1.58647,-1.008873 0.68943,-0.284779 1.39852,-0.526888 2.12131,-0.721119 0.91059,-0.227668 1.85711,-0.24866 2.79001,-0.323418 0.86955,-0.0563 1.74531,-0.117901 2.61431,-0.01929 0.95792,0.10396 1.88822,0.412552 2.72594,0.86673 0.50995,0.281501 0.99291,0.613921 1.4118,1.01087 0.39809,0.42854 0.57963,1.00512 0.59996,1.571001 0.0804,1.026141 -0.19274,2.04466 -0.58549,2.991461 -0.50237,1.186328 -1.13669,2.321978 -1.89395,3.37679 -0.95525,1.2534 -2.25471,2.22051 -3.56692,3.119948 -2.6452,2.003851 -5.45302,2.809481 -8.54241,3.10466 -0.48601,0.0882 -1.46156,0.28574 -2.53525,0.587891 0.31198,0.0885 0.64738,0.14165 0.99632,0.168889 -10.015036,5.925672 -35.186306,8.0421 -40.198576,0.772131 0.2307,-0.0267 0.4607,-0.0601 0.68885,-0.107971 1.65302,-0.295688 3.257,-0.820989 4.77335,-1.514549 0.70782,-0.317741 1.21857,-0.81347 1.62471,-1.3833 -1.4686,0.559821 -2.60997,1.205625 -4.1367,1.675019 -1.975114,0.60725 -4.307733,0.684502 -6.188807,0.600427 -8.200883,-0.366542 -10.750191,-7.873107 -4.065863,-9.471785 1.525155,-0.364768 3.088219,-0.629511 4.66793,-0.619101 1.529665,0.01008 1.77267,0.0958 3.26027,0.421989 1.11613,0.143841 3.99084,1.452902 4.72632,2.149491 -0.0238,-0.235611 -0.14087,-0.468611 -0.31368,-0.692401 2.62853,1.96283 7.74493,2.99407 10.37663,1.55466 2.40835,-1.015368 3.87062,-2.59882 4.25504,-4.737299 0.30251,-3.933031 -1.00602,-6.87075 -4.88084,-8.37063 -3.68645,-0.51329 -6.09039,0.809699 -7.51013,3.20839 0.10602,-1.673191 -2.55336,-2.97057 -3.89021,-3.120239 -3.17977,-0.0011 -4.67058,2.1981 -5.05343,4.984448 -0.0772,1.422302 0.77221,3.08606 1.42162,4.091472 -0.32285,-0.0668 -0.65055,-0.122082 -0.98961,-0.157012 -1.59358,-0.15957 -2.99974,-0.18678 -4.23075,-0.104968 -0.51489,-0.897491 -0.64129,-1.56586 -0.68523,-2.538312 0.0701,-0.781238 0.41678,-1.191789 0.58756,-1.804289 0.317,-0.874451 0.89888,-1.75628 1.31568,-2.571951 0.34631,-0.763688 1.45584,-1.718879 2.17377,-2.32088 -0.0684,0.223771 -0.42582,0.66076 -0.40901,0.902901 1.20351,-1.583251 2.03164,-1.959451 3.22822,-2.706179 0.96613,-0.527111 1.65498,-0.596342 2.80035,-0.616122 1.54725,0.298111 2.39548,0.38377 3.92172,1.06649 -0.46125,-0.142229 -0.55639,-0.22429 -0.50488,-0.11326 0.32653,0.57618 1.10328,1.10173 2.39934,0.944131 0.33859,-0.0925 1.48475,-0.788879 1.77509,-0.969761 0.59599,-0.6549 0.94958,-0.986049 1.64744,-1.424408 0.67744,-0.410031 1.41475,-0.732002 2.20917,-0.851371 0.10351,-0.004 0.20679,-0.006 0.31006,-0.005 z m -17.74517,3.25692 c -0.066,0.0209 -1.22564,-0.0576 -1.29296,-0.0423 -1.09455,1.54572 -1.81008,3.60312 -2.48149,5.38239 -0.177,0.64404 -0.32034,1.20479 -0.40618,1.700278 -1.50216,-0.538088 -1.86785,-0.51816 -2.50992,-1.901849 -0.256517,-0.73697 -0.298631,-1.54931 -0.0925,-2.302049 0.07715,-0.286782 0.279131,-0.51484 0.495061,-0.717151 0.64887,-0.634391 1.20766,-1.14794 2.08463,-1.428869 1.23607,-0.360841 2.92224,-0.534752 4.20336,-0.690411 z m 15.46107,1.19907 c 3.92431,0.24011 5.33601,2.334541 5.9185,4.468371 1.10974,3.114058 -0.35124,5.342308 -2.30735,6.993768 -3.99657,3.099023 -7.84106,1.251061 -11.65097,-0.329358 -0.66701,-0.799201 -2.05902,-1.466181 -2.75332,-1.66709 -0.6597,-0.175712 -1.28776,-0.368202 -1.92547,-0.52647 -0.0288,-0.0336 -0.0587,-0.0667 -0.0816,-0.10151 -0.59156,-0.826201 -0.84123,-1.57639 -1.07383,-2.633872 -0.17827,-1.328518 -0.22866,-5.466958 3.96926,-5.98837 2.86021,0.178962 3.76832,2.382422 3.97392,3.103391 -0.42707,0.7586 -0.72082,1.34249 -0.95084,2.27431 -0.56506,1.59353 0.0712,5.761641 2.79362,5.69962 -1.79825,-0.215029 -2.46621,-3.372541 -2.31148,-4.58525 0.5461,-3.929089 2.59243,-6.26391 6.3996,-6.707511 z m 39.090116,5.824429 c -2.99312,0.0497 -7.38176,2.486991 -8.77621,4.314831 -0.4358,0.550449 -1.20255,1.843669 -0.89245,2.695289 0.65354,-0.87443 1.42894,-3.649469 9.62112,-6.373199 1.05298,-0.48079 0.95744,0.128911 2.13682,-0.051 -0.52298,-0.426209 -1.25121,-0.599808 -2.08928,-0.585909 z m -0.0475,0.636921 c -0.26747,0.53358 -0.0209,1.657509 -0.15968,2.22032 -0.20411,1.16318 -0.66935,2.291871 -1.4056,3.241069 -0.61973,0.63872 -1.42066,1.074761 -2.19832,1.511091 -1.22428,0.64611 -2.598,1.059021 -4.00079,1.09456 -0.24971,0.0502 -0.5452,-0.0688 -0.75602,0.114411 -0.10156,0.286899 0.2832,0.440629 0.52606,0.397698 0.50879,0.02019 1.02105,0.01389 1.52239,-0.0812 1.31013,-0.22066 2.51748,-0.8119 3.6189,-1.507622 0.68361,-0.43932 1.29209,-0.99372 1.73529,-1.66165 0.48659,-0.694279 0.90618,-1.43306 1.24903,-2.201989 0.24738,-0.84238 0.43269,-2.6635 -0.13126,-3.126669 z M 93.745214,67.62165 c -0.55384,0.0159 -1.0155,0.141732 -1.23403,0.40712 1.19374,-0.240559 2.42532,-0.357328 3.56567,0.278842 0.0691,0.0374 0.12846,0.0731 0.19121,0.10945 -11.16601,6.11972 -15.70007,6.314099 -22.51439,3.819059 -0.73457,0.727171 5.5883,2.224479 8.33437,2.297089 0.0355,0.092 0.0788,0.18102 0.13436,0.261011 0.23654,0.349269 0.52016,0.668161 0.81287,0.975191 0.66597,0.677759 1.47529,1.249429 2.40606,1.539809 0.85988,0.289272 1.76858,0.411372 2.67012,0.512609 0.82832,0.0883 1.68129,0.163452 2.49803,-0.0426 2.65589,-0.812332 4.58604,-2.02356 4.84725,-4.382201 -3e-5,-0.58982 -0.31301,-1.12223 -0.61339,-1.618049 -0.28252,-0.445561 -0.6318,-0.896101 -1.14825,-1.103971 -0.14917,-0.0536 -0.30574,-0.0784 -0.46354,-0.0901 0.69669,-0.48097 3.06325,-1.601131 3.27112,-2.025671 0.63732,0.407511 1.00478,0.83098 1.93063,1.8449 -0.2655,-0.71352 -0.93311,-1.411171 -1.41387,-1.76566 -0.57564,-0.57895 -1.93251,-0.988629 -3.03186,-1.016799 -0.0824,-0.0021 -0.16324,-0.0021 -0.24236,0 z m -0.92449,3.242072 c 0.0499,0.13326 0.19652,0.247589 0.3452,0.255559 0.26257,0.0641 0.48662,0.211291 0.68058,0.388289 0.38889,0.31755 0.75725,0.675992 1.00097,1.110411 0.17459,0.32049 0.20881,0.707959 0.0682,1.04603 -0.55764,1.824519 -2.84408,3.42832 -4.71185,3.692761 -0.62591,0.126831 -1.27065,0.11929 -1.90687,0.101089 -0.76043,-0.0316 -1.51638,-0.13058 -2.26497,-0.25854 -0.75176,-0.149421 -1.4994,-0.44505 -2.04484,-0.977659 -0.45681,-0.42264 -0.77659,-0.96688 -0.9648,-1.545259 -0.0205,-0.0493 -0.0379,-0.100061 -0.0568,-0.150072 0.30808,-0.0123 0.60038,-0.0332 0.8599,-0.0698 1.40403,-0.158181 4.13423,-0.32971 8.99532,-3.592729 z m -26.02994,6.48562 c 0.34302,-0.004 0.68306,0.0574 1.02423,0.18474 0.4693,0.185079 0.91761,0.43393 1.32085,0.748359 0.60647,0.44896 0.85535,1.10296 0.52282,2.0281 -0.35253,0.522261 -0.86945,0.71035 -1.30158,1.01333 -1.41621,1.290622 -4.23731,-1.258909 -3.74293,-2.52734 -0.7332,1.323092 0.83904,3.38809 2.5554,3.373321 0.29186,-0.0394 0.59028,-0.14179 0.88108,-0.279831 -0.0458,0.047 -0.0911,0.0917 -0.13797,0.144129 -0.10088,2.04529 2.74142,2.964781 3.98167,2.461022 0.7511,5.29e-4 2.30153,0.19685 2.75125,-0.844449 -0.30704,1.028049 -1.07527,2.06511 -1.14722,3.083089 -0.007,0.31638 -0.0677,0.63374 -0.0294,0.94943 0.0455,0.357939 0.41318,0.65137 0.68783,0.90061 -0.4081,0.216609 -0.89337,0.254069 -1.36324,0.3574 1.87059,0.373628 4.29804,-1.12526 4.70927,-1.764671 -0.0457,0.881341 0.0841,1.724131 0.38603,2.39961 -0.75265,0.096 -0.69883,0.0407 -1.16996,0.098 -0.84667,0.02461 -1.64615,0.0515 -2.38486,-0.218911 -0.464,-0.167359 -0.96915,-0.29582 -1.43299,-0.463579 0.0267,0.0199 0.0534,0.04 0.0801,0.06 0.64,0.34912 1.49012,0.696269 2.25671,0.800859 0.57059,0.0776 1.2866,-0.02339 1.81849,-0.0897 0.22241,-0.0263 0.59534,-0.118321 0.83561,-0.179289 0.12337,0.274378 0.27417,0.521118 0.45268,0.731027 -0.0355,0.0021 -0.0718,0.003 -0.10645,0.005 -0.47034,0.0223 -0.9352,0.141862 -1.40922,0.0911 -1.21625,0.0539 -2.52873,-0.275531 -3.42563,-0.966782 -0.20393,-0.167039 -0.4021,-0.340368 -0.60978,-0.503198 0.10051,0.542478 0.6332,0.754399 1.05162,0.979149 0.9611,0.497581 1.91768,0.621692 2.88406,0.638421 0.34549,0.250198 0.68669,0.505709 1.04541,0.73845 0.18653,0.1012 0.3267,0.32386 0.53641,0.36799 -0.57934,0.54183 -0.93847,1.113679 -1.08831,1.68443 -0.007,-0.0132 -0.0183,-0.02461 -0.0393,-0.0312 -0.15471,-0.226902 -0.3852,-0.390581 -0.58239,-0.580962 -0.38921,-0.30625 -0.89596,-0.4407 -1.39217,-0.463079 -0.12198,-0.006 -0.24862,0.003 -0.36638,0.0352 -0.40574,0.223938 -0.66139,0.619959 -0.85266,1.017289 -0.2096,0.40945 -0.35675,1.112469 -0.46406,1.558142 -0.69964,-0.206452 -1.71407,-0.971651 -2.32079,-1.313972 -0.33063,-0.191201 -1.09517,-0.640648 -1.4857,-0.728548 0.045,-0.0291 0.0898,-0.0554 0.13488,-0.0867 -0.60601,0.17761 -1.64019,0.26974 -2.24069,0.249622 -2.00684,-0.339482 -4.91697,-2.352022 -6.57738,-3.26585 -1.87561,-0.125871 -2.83323,0.22393 -5.099428,-0.394232 -1.926296,-0.6345 -4.008826,-1.31572 -2.843752,-3.392639 0.487439,-0.68962 1.450192,-1.08246 2.174544,-1.029681 0.498428,0.0515 1.552594,0.125431 2.000396,0.348681 2.48959,0.731218 3.86332,1.209659 5.03793,1.208469 -0.0889,-0.035 -0.20872,-0.0765 -0.31522,-0.115399 -0.23217,-0.397258 -3.28508,-2.158428 -4.06074,-2.597218 -1.11953,-0.873458 -1.140789,-1.03591 -2.20193,-1.797838 -1.172985,-1.052211 -1.08617,-2.518371 -0.08733,-3.43077 1.087964,-0.91821 2.09026,-0.6599 3.31349,0.0297 0.47535,-5.29e-4 5.73828,4.74772 6.21151,4.97949 -0.0392,-0.1158 -0.39878,-1.016571 -0.971,-1.668081 -0.46227,-1.400559 -1.32855,-1.890589 0.25321,-3.537749 0.82007,-0.653572 1.58838,-0.983301 2.34301,-0.993032 z m 33.308566,0.0921 c 0.18781,0.18115 0.49521,0.11652 0.73173,0.206039 1.46318,0.328951 2.84246,1.104461 3.75378,2.262413 0.9352,1.320858 1.50703,2.831269 2.14974,4.293039 1.13717,2.964159 2.09936,5.59068 2.44998,8.47762 -0.0279,0.644671 0.0375,1.405081 -0.35398,1.983579 -0.40533,0.677809 -1.08912,1.04643 -1.6769,1.582891 -1.53498,1.29354 -3.61733,1.817539 -5.2648,2.82703 -0.89508,-0.28685 -1.68035,-0.510561 -2.098056,-0.629491 -3.29983,-0.497401 -6.51117,1.316731 -8.86199,2.726978 -0.14554,0.13448 -0.52753,0.36334 -0.99839,0.63048 l -1.8154,0.94945 c -0.67148,0.17146 -1.33822,0.38936 -2.03501,0.44228 -0.53612,0.0367 -1.07311,-0.005 -1.60559,-0.0649 -0.3723,-0.036 -0.74918,-0.0666 -1.10639,-0.18078 -0.48791,-0.13976 -0.95411,-0.33941 -1.41904,-0.53688 -0.10026,-0.0443 -0.20049,-0.089 -0.30075,-0.13323 0.008,0.008 0.0162,0.0166 0.0243,0.0248 -0.93193,-0.42599 -1.86158,-0.84708 -2.80035,-1.25998 -0.96075,-0.39115 -1.83684,-0.63024 -2.62671,-0.74539 -0.35597,-0.25563 -0.65591,-0.572411 -0.8506,-0.976189 -0.45577,-0.93236 0.13074,-1.564722 0.59531,-2.312932 0.41569,-0.85235 1.37901,-0.99373 2.19212,-0.63246 0.32103,0.14546 0.60304,0.177371 0.86506,0.402661 0.37744,0.149921 0.55441,0.181809 0.74776,0.2085 0.0898,1.684861 1.53251,2.355011 3.00653,2.4536 2.48292,0.186431 3.96866,0.300929 5.72162,-0.186229 -1.22891,-0.29794 -6.61692,0.972659 -8.05636,-1.337742 -0.60627,-0.69247 -0.41563,-2.382628 0.66766,-2.651699 0.23175,-0.041 0.46901,-0.0218 0.70229,-0.004 0.48234,0.0564 0.95737,0.177429 1.4428,0.205041 0.5896,0.0485 1.18727,0.0118 1.7632,-0.13817 0.74214,-0.172331 1.48106,-0.367422 2.23449,-0.47398 0.80702,-0.13299 1.61363,-0.275881 2.42621,-0.36254 0.51862,-0.0358 1.04583,7.94e-4 1.54512,0.16542 0.26289,0.0855 0.51435,0.21264 0.73588,0.389779 0.11018,0.0827 0.2191,0.167579 0.32814,0.25209 -0.19306,-0.366901 -0.5154,-0.650971 -0.88573,-0.78055 -0.6674,-0.26375 -1.34504,-0.532509 -2.05724,-0.60274 -0.099,-0.007 -0.19536,0.014 -0.29301,0.0282 v -5.3e-4 c -0.67709,0.153562 -1.33716,0.38395 -2.01279,0.544801 -0.50509,0.123992 -1.00735,0.260789 -1.50792,0.404651 -0.47917,0.13471 -0.97018,0.257951 -1.46865,0.230299 -2.14342,0.18129 -3.18617,-1.310698 -4.254,1.132692 -0.0314,0.207618 -0.0405,0.399309 -0.0393,0.583438 -0.26104,-0.153638 -0.50556,-0.26719 -0.75034,-0.366998 -0.17843,-0.207172 -0.41663,-0.470972 -0.57051,-0.606222 -0.66274,-0.591259 -0.85365,-1.53757 -0.82062,-2.302528 -0.012,-1.402972 1.17866,-2.222572 2.46858,-2.492222 0.15877,-0.0104 0.32376,-0.0352 0.49609,-0.0778 -0.16179,-0.0341 -0.31206,-0.0459 -0.45785,-0.048 -2.09837,-0.451141 -3.23806,-4.051091 -1.51722,-6.48018 3.65599,-3.555151 9.34579,-0.429061 8.64555,2.855929 -0.41038,1.925211 -1.23031,2.551332 -1.80152,3.067081 -0.36817,0.181679 -0.52615,0.129598 -0.86972,0.346229 0.29152,-0.0334 0.80917,-0.13017 1.05634,-0.21671 0.93059,-0.15567 1.60949,-0.281289 2.53724,-0.451908 0.28395,-0.0458 0.56519,-0.119801 0.85473,-0.12283 0.54425,0.0423 1.0637,0.213479 1.59215,0.332819 1.47835,0.354899 2.6428,0.472239 4.01939,0.43684 0.61106,-0.16343 1.23509,-0.249679 1.62471,-0.61959 -1.77025,0.716269 -3.43292,0.305771 -5.15834,-0.0847 -0.81663,-0.198628 -1.33931,-0.40929 -2.16079,-0.446998 -0.89888,0.15897 -2.03608,0.435168 -2.85548,0.643178 3.77003,-3.67511 0.53083,-7.481998 -3.63643,-7.632308 -1.03383,-0.0232 -2.13078,0.0805 -3.10472,0.858459 0.42041,-1.416971 1.43124,-2.11882 2.21119,-3.542242 6.83194,0.167402 13.0206,-0.895389 18.502786,-2.446689 z m -3.798216,12.6513 c -0.2441,0.29052 -0.3036,1.018529 -0.48886,1.341699 -0.28109,0.557081 -0.10151,0.62605 -0.5457,1.084649 -0.54786,0.497152 -1.14077,0.946182 -1.69034,1.441752 -0.21606,0.189381 -0.36032,0.359608 -0.49454,0.525978 0.62055,-0.53757 1.43106,-1.104587 1.99212,-1.493258 1.08644,-0.824531 1.21858,-1.619951 1.22732,-2.90082 z m -3.21944,4.394078 c -0.2798,0.242372 -0.51747,0.477743 -0.67852,0.688922 -0.0459,0.0465 -0.0812,0.0892 -0.0904,0.122831 0.53339,0.0204 0.474,-0.119642 0.97617,-0.480912 0.84989,-0.592119 1.79069,-0.916599 2.75384,-1.231739 0.55122,-0.187222 1.05861,-0.577792 1.59886,-0.802352 0.69269,-0.280138 1.36229,-0.640267 2.08153,-0.83058 0.2196,-0.0468 0.445506,-0.0154 0.664556,0.0199 0.61965,0.0533 1.61994,0.703588 1.70997,0.80631 -0.3361,-0.63051 -0.92399,-0.99187 -1.41158,-1.116182 -0.16741,-1.7609 -1.448496,-6.168168 -2.730286,-7.789548 0.10238,1.191919 0.60485,2.754509 0.84905,3.567658 0.5572,1.855422 0.64786,2.512311 1.12495,4.0982 -0.36604,-0.01349 -0.53575,0.0218 -0.82325,0.152892 -0.61171,0.25558 -1.20802,0.46355 -1.80814,0.750419 -0.5878,0.291351 -1.17744,0.653 -1.78596,0.883441 -0.44822,0.19286 -1.83335,0.90002 -2.59408,1.42158 0.1386,-0.149881 0.0419,-0.11022 0.16332,-0.26076 z M 69.737854,78.139301 c 2.48696,1.190471 6.44328,1.66633 10.26346,1.790419 -0.4901,0.575012 -0.90781,1.291493 -1.23095,1.83152 -0.40214,1.157232 -0.75928,2.1394 -0.99731,3.204422 -0.29093,0.69532 -0.19381,0.93481 -0.24052,1.655411 -0.48564,0.368768 -1.06903,0.971518 -1.61605,1.258988 -0.57774,0.314531 -0.61311,0.202192 -1.1825,0.52265 -0.47412,-0.542079 -0.57236,-1.188429 -0.52107,-1.75164 1.16177,-3.407159 1.22614,-2.604249 1.50867,-3.748159 0.2222,-0.942242 -0.2156,-1.336532 -0.93182,-1.82763 -0.99357,-0.762889 -2.25268,-1.050031 -3.4649,-1.026711 -0.61417,0.0314 -0.86717,-0.02551 -1.21853,0.145122 0,0 -0.0336,0.0011 -0.0366,-0.0208 0.28453,-0.660691 0.15381,-1.529939 -0.33185,-2.03359 z m 1.47174,2.29362 c 0.39724,0.006 0.63822,0.0375 0.92553,0.0763 1.9403,0.655791 1.33624,2.04791 0.12402,3.487241 -2.46038,0.572658 -4.19603,-1.703642 -2.75538,-2.98998 0.10839,-0.12704 0.91559,-0.379981 1.079,-0.56561 0.25177,-0.008 0.45468,-0.0105 0.62683,-0.008 z m 7.40406,10.117341 c 0.28175,0.27246 0.44936,0.39891 0.84262,0.48005 -0.33687,0.0991 -0.4938,0.187359 -0.85566,0.303109 -0.11293,-0.0991 -0.23254,-0.23272 -0.45656,-0.33273 -0.26978,-0.15822 -0.62978,-0.359309 -0.62978,-0.359309 0.46068,-0.0428 0.72356,0.01061 1.09938,-0.0915 z m -2.8896,2.124858 c 0.27761,-0.0011 0.55631,0.0863 0.77463,0.252101 0.22834,0.146341 0.42913,0.32825 0.61288,0.523009 0.034,0.01921 0.0667,0.003 0.0899,-0.0213 -0.20642,0.90392 0.11457,1.799691 0.93896,2.561561 -0.0123,-0.006 -0.0245,-0.01389 -0.0367,-0.01831 -0.87047,-0.345818 -1.55645,0.170799 -2.31665,0.699331 -0.21386,0.35606 -0.4535,0.560858 -0.58446,0.845439 -0.40846,-0.376611 -0.58899,-0.484029 -0.99839,-0.920729 -0.19329,-0.201671 -0.32256,-0.45612 -0.36535,-0.727051 -0.0537,-0.298519 -0.0238,-0.604128 0.0238,-0.901398 0.12503,-0.618681 0.43743,-1.189662 0.82372,-1.694342 0.15454,-0.193148 0.30234,-0.41167 0.55242,-0.498739 0.15248,-0.0664 0.31867,-0.0989 0.48524,-0.0995 z m 33.619206,2.608612 c 0.45945,1.242129 0.97396,2.094198 1.42775,3.509529 0.34137,0.85503 0.66815,4.283509 -0.61702,6.201829 -0.16917,0.16581 -0.69268,0.76924 -0.93069,1.10297 -0.88694,-0.37495 -1.69027,-0.9775 -3.00034,-1.468 -2.25608,-0.46499 -4.55344,-0.71095 -6.849186,-0.90387 -1.47931,0.15297 -6.34248,-0.43304 -9.69037,2.30005 -0.0538,-0.0326 -0.11078,-0.0659 -0.16381,-0.0985 -0.89029,-0.40588 -1.74582,-0.80128 -2.58692,-1.19114 2.94503,-1.21601 5.25579,-3.66216 8.5416,-4.61547 2.99857,-1.42769 5.548836,-0.7775 7.543716,0.43337 1.38039,0.34666 2.8361,1.30434 4.16047,1.67353 0.0882,-1.14046 -2.5923,-2.25561 -4.82089,-2.99938 0.85291,-0.294669 1.70262,-0.8417 2.37194,-1.109908 0.88558,-0.366181 1.76518,-0.761511 2.55282,-1.300602 0.49084,-0.324131 0.99713,-0.634569 1.43867,-1.02026 0.40703,-0.306189 0.29888,-0.193389 0.62226,-0.514148 z m 2.89432,1.03364 c 0.41262,-0.008 0.84801,0.161679 1.59267,0.555699 1.93214,0.914651 2.42482,3.468359 1.70842,5.485169 -0.8877,2.12849 -0.7836,2.21747 -2.40915,2.75274 -0.7616,0.25078 -1.71319,0.40337 -2.38745,0.0619 0.10446,-0.13882 0.19112,-0.26406 0.26923,-0.35859 0.8166,-2.1617 1.01601,-3.37056 0.44029,-6.151799 -0.0573,-0.633118 -0.22236,-1.043289 -0.67077,-1.830538 0.65401,-0.319781 1.04415,-0.506291 1.45676,-0.514591 z m -33.695096,0.0011 c 0.0745,0.0551 0.1471,0.11072 0.22738,0.163939 -0.0727,-0.0282 -0.14959,-0.0927 -0.22738,-0.163939 z m -3.07681,4.481238 c 0.51321,-0.0175 1.0127,0.0811 1.43815,0.32243 0.538,0.15923 1.1088,0.30803 1.61386,0.54133 0.6866,0.43761 3.6744,1.93303 6.76134,3.41988 0.0364,0.0278 0.0841,0.0524 0.1478,0.0718 3.46319,1.66594 7.01049,3.30035 7.57835,3.40849 -0.7728,-1.02634 -1.89957,-1.68872 -2.95693,-2.31888 2.88199,-0.91105 6.93272,-1.93013 8.54676,-1.23819 2.191166,-0.28277 5.655986,0.13326 7.668786,0.65079 1.4185,-0.0998 2.83658,2.80943 3.69641,4.02658 -3.34967,1.01345 -6.32027,2.5553 -8.55193,4.61942 -0.023,-0.0198 -0.0457,-0.0423 -0.0687,-0.0619 -2.586266,-2.3624 -6.669286,-3.03309 -9.797846,-3.42234 -1.26702,-0.10635 -2.53896,-0.19904 -3.81166,-0.15354 -1.66541,0.0649 -3.30692,0.31716 -4.93613,0.63792 -0.74115,-0.4477 -1.6866,-0.72093 -2.38796,-1.08613 -0.84952,-0.45678 -1.70213,-0.90928 -2.57401,-1.32536 -1.79425,-1.01781 -3.53647,-2.16356 -4.87826,-3.511 -2.19149,-2.25185 0.28807,-4.50554 2.51199,-4.5813 z m 11.70574,2.55117 c -0.51873,0.3056 -0.99446,0.60471 -1.34772,0.87069 -0.38592,-0.17943 -0.75469,-0.34927 -1.13481,-0.52599 0.29865,0.0467 0.65671,0.0627 1.11827,0.0218 0.26938,-0.023 0.86941,-0.17537 1.36426,-0.3665 z m -12.54807,4.34405 c 0.46635,0.33106 0.94929,0.64145 1.43609,0.9425 1.11632,0.66204 2.28679,1.23383 3.40496,1.89295 0.43649,0.2705 1.24999,0.72551 2.02933,1.04156 -0.85303,0.18432 -1.70382,0.37845 -2.55281,0.56906 -2.76106,0.95902 -5.11075,2.46802 -6.90914,3.97211 -0.0368,-0.071 -0.0843,-0.13708 -0.15503,-0.18722 -1.02261,-1.15742 -2.29539,-2.09444 -3.70003,-2.78839 -0.42726,-0.50949 -0.76953,-1.08586 -0.88884,-1.73444 -0.14991,-0.74134 -0.0599,-1.53664 0.29352,-2.21439 0.36433,-0.61003 1.0786,-0.9552 1.79008,-1.03165 1.60383,-0.30423 3.23894,-0.42223 4.87153,-0.45268 0.12721,-0.006 0.25431,-0.0121 0.38034,-0.009 z"
       id="path4603-9"
       inkscape:connector-curvature="0"
       sodipodi:nodetypes="cccccccccccsccccccccccccccsccccccccccccccccccccccccccccccccccccccccccccccccccccccccccccccccccccccccccccccccccccccccczsccsscccccccsccccccccccczcscccccccccccccccccccccccccccccccccccccccccccsscccccccccccccccccccccccccccccssssccccccccccccccccccccccccccccccccccccccccccccccccccsccccsccccccccccccccccccccccccccccccccccccccccccccccccccccccccccccccccccccccccccccccccccccccccccccccccccccccccccccccccccccccccccccccccccccccccccccccccccccccccccccccccccccsccccccccccccccccccccccccccccccccccscccccccccccccccccccccccccccccccccccccccccccccccccccccccccccccccccccccccccccccccccccccccccccccccccccccccccccccccccccccccc"
       inkscape:export-xdpi="96"
       inkscape:export-ydpi="96" />
    <g
       aria-label="digIT 17"
       style="font-style:normal;font-variant:normal;font-weight:normal;font-stretch:normal;font-size:45.15555573px;line-height:1.25;font-family:Gotham;-inkscape-font-specification:Gotham;letter-spacing:0px;word-spacing:0px;display:inline;fill:#ffffff;fill-opacity:1;stroke:#000000;stroke-width:0.69999999;stroke-miterlimit:4;stroke-dasharray:none;stroke-opacity:1"
       id="text4694-1"
       inkscape:export-xdpi="96"
       inkscape:export-ydpi="96"
       transform="translate(1.9788112,-3.5641348)">
      <path
         d="m 22.60875,194.45564 c 4.560711,0 7.495822,-2.66418 9.482667,-5.6896 v 5.14773 h 2.212622 v -32.96355 h -2.212622 v 14.90133 c -1.896533,-2.88996 -4.8768,-5.50898 -9.482667,-5.50898 -5.554133,0 -11.198578,4.56071 -11.198578,12.05654 v 0.0903 c 0,7.49582 5.644445,11.96622 11.198578,11.96622 z m 0.225778,-2.12231 c -4.831644,0 -9.031111,-3.88338 -9.031111,-9.93422 v -0.0903 c 0,-6.18631 4.018844,-9.84391 9.031111,-9.84391 4.786489,0 9.392356,3.97369 9.392356,9.88907 v 0.0903 c 0,5.87022 -4.605867,9.88907 -9.392356,9.88907 z"
         style="font-style:normal;font-variant:normal;font-weight:300;font-stretch:normal;font-family:Gotham;-inkscape-font-specification:'Gotham Light';stroke:#000000;stroke-width:0.69999999;stroke-miterlimit:4;stroke-dasharray:none;stroke-opacity:1"
         id="path4636-2"
         inkscape:connector-curvature="0" />
      <path
         d="m 42.755184,164.87875 h 2.754489 v -3.02542 h -2.754489 z m 0.270934,29.03502 h 2.212622 v -23.02933 h -2.212622 z"
         style="font-style:normal;font-variant:normal;font-weight:300;font-stretch:normal;font-family:Gotham;-inkscape-font-specification:'Gotham Light';stroke:#000000;stroke-width:0.69999999;stroke-miterlimit:4;stroke-dasharray:none;stroke-opacity:1"
         id="path4638-7"
         inkscape:connector-curvature="0" />
      <path
         d="m 64.025568,201.22897 c 3.386667,0 6.366934,-1.08373 8.353778,-3.07058 1.851378,-1.85137 2.935111,-4.4704 2.935111,-7.81191 v -19.46204 h -2.212622 v 4.60587 c -1.896533,-2.70934 -5.012267,-5.14774 -9.618134,-5.14774 -5.554133,0 -11.063111,4.28978 -11.063111,10.92765 v 0.0903 c 0,6.59271 5.508978,10.83733 11.063111,10.83733 4.560712,0 7.631289,-2.48355 9.618134,-5.32835 v 3.34151 c 0,5.91537 -3.747911,8.9408 -9.031111,8.9408 -3.386667,0 -6.547556,-1.12889 -9.302045,-3.2512 l -1.309511,1.80622 c 3.160889,2.34809 6.728178,3.52213 10.5664,3.52213 z m -0.316089,-11.15342 c -4.741333,0 -8.895644,-3.61244 -8.895644,-8.80533 v -0.0903 c 0,-5.37352 4.064,-8.71503 8.895644,-8.71503 4.786489,0 9.527823,3.43183 9.527823,8.76018 v 0.0903 c 0,5.23805 -4.741334,8.76018 -9.527823,8.76018 z"
         style="font-style:normal;font-variant:normal;font-weight:300;font-stretch:normal;font-family:Gotham;-inkscape-font-specification:'Gotham Light';stroke:#000000;stroke-width:0.69999999;stroke-miterlimit:4;stroke-dasharray:none;stroke-opacity:1"
         id="path4640-0"
         inkscape:connector-curvature="0" />
      <path
         d="m 81.417509,193.91377 h 10.5664 v -31.60889 h -10.5664 z"
         style="font-style:normal;font-variant:normal;font-weight:500;font-stretch:normal;font-family:Gotham;-inkscape-font-specification:'Gotham Medium';fill:#09cdda;fill-opacity:1;stroke:#000000;stroke-width:0.69999999;stroke-miterlimit:4;stroke-dasharray:none;stroke-opacity:1"
         id="path4642-9"
         inkscape:connector-curvature="0" />
      <path
         d="m 103.78574,193.91377 h 10.5664 v -22.66809 h 9.30204 v -8.9408 H 94.483693 v 8.9408 h 9.302047 z"
         style="font-style:normal;font-variant:normal;font-weight:500;font-stretch:normal;font-family:Gotham;-inkscape-font-specification:'Gotham Medium';fill:#09cdda;fill-opacity:1;stroke:#000000;stroke-width:0.69999999;stroke-miterlimit:4;stroke-dasharray:none;stroke-opacity:1"
         id="path4644-3"
         inkscape:connector-curvature="0" />
      <path
         d="m 143.78368,193.91377 h 2.30294 v -31.83466 h -1.80623 l -7.22488,2.66417 0.63217,1.85138 6.096,-2.07715 z"
         style="font-style:normal;font-variant:normal;font-weight:300;font-stretch:normal;font-family:Gotham;-inkscape-font-specification:'Gotham Light';stroke:#000000;stroke-width:0.69999999;stroke-miterlimit:4;stroke-dasharray:none;stroke-opacity:1"
         id="path4646-6"
         inkscape:connector-curvature="0" />
      <path
         d="m 157.91455,193.91377 h 2.57387 l 14.40462,-29.89298 v -1.71591 h -20.95217 v 2.25778 h 18.33315 z"
         style="font-style:normal;font-variant:normal;font-weight:300;font-stretch:normal;font-family:Gotham;-inkscape-font-specification:'Gotham Light';stroke:#000000;stroke-width:0.69999999;stroke-miterlimit:4;stroke-dasharray:none;stroke-opacity:1"
         id="path4648-0"
         inkscape:connector-curvature="0" />
    </g>
  </g>
</svg>
